<?xml version="1.0" encoding="UTF-8"?>
<svg xmlns="http://www.w3.org/2000/svg" width="977" height="2656" viewBox="0 0 977 2656">
  <rect x="0" y="0" width="977" height="2656" fill="#f2f2f2"/>
  <text x="488" y="38" text-anchor="middle" font-family="Segoe UI, Arial, sans-serif" font-size="28" font-weight="600" fill="#222222">f128 vs MPFR typical benchmark ratios</text>
  <line x1="253" y1="82" x2="253" y2="2638" stroke="#dddddd" stroke-width="1"/>
  <line x1="303" y1="82" x2="303" y2="2638" stroke="#dddddd" stroke-width="1"/>
  <line x1="353" y1="82" x2="353" y2="2638" stroke="#dddddd" stroke-width="1"/>
  <line x1="403" y1="82" x2="403" y2="2638" stroke="#dddddd" stroke-width="1"/>
  <line x1="453" y1="82" x2="453" y2="2638" stroke="#dddddd" stroke-width="1"/>
  <line x1="503" y1="82" x2="503" y2="2638" stroke="#dddddd" stroke-width="1"/>
  <line x1="553" y1="82" x2="553" y2="2638" stroke="#dddddd" stroke-width="1"/>
  <line x1="603" y1="82" x2="603" y2="2638" stroke="#dddddd" stroke-width="1"/>
  <line x1="653" y1="82" x2="653" y2="2638" stroke="#dddddd" stroke-width="1"/>
  <line x1="703" y1="82" x2="703" y2="2638" stroke="#dddddd" stroke-width="1"/>
  <line x1="753" y1="82" x2="753" y2="2638" stroke="#dddddd" stroke-width="1"/>
  <line x1="303" y1="82" x2="303" y2="2638" stroke="#6da7d9" stroke-width="2" stroke-dasharray="6,6"/>
  <text x="245" y="104" text-anchor="end" font-family="Segoe UI, Arial, sans-serif" font-size="20" font-weight="700" fill="#1f1f1f">Arithmetic</text>
  <text x="241" y="137" text-anchor="end" font-family="Segoe UI, Arial, sans-serif" font-size="18" fill="#222222">subtract</text>
  <rect x="253" y="119" width="500" height="24" rx="2" ry="2" fill="#89d88a"/>
  <polygon points="753,119 771,131 753,143" fill="#89d88a"/>
  <text x="779" y="136.5" text-anchor="start" font-family="Segoe UI, Arial, sans-serif" font-size="15" font-weight="600" fill="#444444">18.38x [7ns]</text>
  <text x="241" y="171" text-anchor="end" font-family="Segoe UI, Arial, sans-serif" font-size="18" fill="#222222">multiply</text>
  <rect x="253" y="153" width="500" height="24" rx="2" ry="2" fill="#89d88a"/>
  <polygon points="753,153 771,165 753,177" fill="#89d88a"/>
  <text x="779" y="170.5" text-anchor="start" font-family="Segoe UI, Arial, sans-serif" font-size="15" font-weight="600" fill="#444444">17.52x [7ns]</text>
  <text x="241" y="205" text-anchor="end" font-family="Segoe UI, Arial, sans-serif" font-size="18" fill="#222222">add</text>
  <rect x="253" y="187" width="500" height="24" rx="2" ry="2" fill="#89d88a"/>
  <polygon points="753,187 771,199 753,211" fill="#89d88a"/>
  <text x="779" y="204.5" text-anchor="start" font-family="Segoe UI, Arial, sans-serif" font-size="15" font-weight="600" fill="#444444">17.41x [7ns]</text>
  <text x="241" y="239" text-anchor="end" font-family="Segoe UI, Arial, sans-serif" font-size="18" fill="#222222">divide</text>
  <rect x="253" y="221" width="500" height="24" rx="2" ry="2" fill="#89d88a"/>
  <polygon points="753,221 771,233 753,245" fill="#89d88a"/>
  <text x="779" y="238.5" text-anchor="start" font-family="Segoe UI, Arial, sans-serif" font-size="15" font-weight="600" fill="#444444">16.08x [8ns]</text>
  <text x="241" y="273" text-anchor="end" font-family="Segoe UI, Arial, sans-serif" font-size="18" fill="#222222">mixed recurrence</text>
  <rect x="253" y="255" width="500" height="24" rx="2" ry="2" fill="#89d88a"/>
  <polygon points="753,255 771,267 753,279" fill="#89d88a"/>
  <text x="779" y="272.5" text-anchor="start" font-family="Segoe UI, Arial, sans-serif" font-size="15" font-weight="600" fill="#444444">11.04x [20ns]</text>
  <line x1="245" y1="284" x2="753" y2="284" stroke="#cfcfcf" stroke-width="1"/>
  <text x="245" y="314" text-anchor="end" font-family="Segoe UI, Arial, sans-serif" font-size="20" font-weight="700" fill="#1f1f1f">Rounding</text>
  <text x="241" y="347" text-anchor="end" font-family="Segoe UI, Arial, sans-serif" font-size="18" fill="#222222">ceil</text>
  <rect x="253" y="329" width="500" height="24" rx="2" ry="2" fill="#89d88a"/>
  <polygon points="753,329 771,341 753,353" fill="#89d88a"/>
  <text x="779" y="346.5" text-anchor="start" font-family="Segoe UI, Arial, sans-serif" font-size="15" font-weight="600" fill="#444444">17.39x [7ns]</text>
  <text x="241" y="381" text-anchor="end" font-family="Segoe UI, Arial, sans-serif" font-size="18" fill="#222222">floor</text>
  <rect x="253" y="363" width="500" height="24" rx="2" ry="2" fill="#89d88a"/>
  <polygon points="753,363 771,375 753,387" fill="#89d88a"/>
  <text x="779" y="380.5" text-anchor="start" font-family="Segoe UI, Arial, sans-serif" font-size="15" font-weight="600" fill="#444444">15.89x [7ns]</text>
  <text x="241" y="415" text-anchor="end" font-family="Segoe UI, Arial, sans-serif" font-size="18" fill="#222222">round</text>
  <rect x="253" y="397" width="500" height="24" rx="2" ry="2" fill="#89d88a"/>
  <polygon points="753,397 771,409 753,421" fill="#89d88a"/>
  <text x="779" y="414.5" text-anchor="start" font-family="Segoe UI, Arial, sans-serif" font-size="15" font-weight="600" fill="#444444">12.78x [11ns]</text>
  <text x="241" y="449" text-anchor="end" font-family="Segoe UI, Arial, sans-serif" font-size="18" fill="#222222">nearbyint</text>
  <rect x="253" y="431" width="500" height="24" rx="2" ry="2" fill="#89d88a"/>
  <polygon points="753,431 771,443 753,455" fill="#89d88a"/>
  <text x="779" y="448.5" text-anchor="start" font-family="Segoe UI, Arial, sans-serif" font-size="15" font-weight="600" fill="#444444">12.40x [12ns]</text>
  <text x="241" y="483" text-anchor="end" font-family="Segoe UI, Arial, sans-serif" font-size="18" fill="#222222">rint</text>
  <rect x="253" y="465" width="500" height="24" rx="2" ry="2" fill="#89d88a"/>
  <polygon points="753,465 771,477 753,489" fill="#89d88a"/>
  <text x="779" y="482.5" text-anchor="start" font-family="Segoe UI, Arial, sans-serif" font-size="15" font-weight="600" fill="#444444">11.93x [12ns]</text>
  <text x="241" y="517" text-anchor="end" font-family="Segoe UI, Arial, sans-serif" font-size="18" fill="#222222">trunc</text>
  <rect x="253" y="499" width="412.286" height="24" rx="2" ry="2" fill="#89d88a"/>
  <text x="675.286" y="516.5" text-anchor="start" font-family="Segoe UI, Arial, sans-serif" font-size="15" font-weight="600" fill="#444444">8.25x [12ns]</text>
  <text x="241" y="551" text-anchor="end" font-family="Segoe UI, Arial, sans-serif" font-size="18" fill="#222222">llround</text>
  <rect x="253" y="533" width="339.072" height="24" rx="2" ry="2" fill="#89d88a"/>
  <text x="602.072" y="550.5" text-anchor="start" font-family="Segoe UI, Arial, sans-serif" font-size="15" font-weight="600" fill="#444444">6.78x [28ns]</text>
  <text x="241" y="585" text-anchor="end" font-family="Segoe UI, Arial, sans-serif" font-size="18" fill="#222222">llrint</text>
  <rect x="253" y="567" width="319.347" height="24" rx="2" ry="2" fill="#89d88a"/>
  <text x="582.347" y="584.5" text-anchor="start" font-family="Segoe UI, Arial, sans-serif" font-size="15" font-weight="600" fill="#444444">6.39x [35ns]</text>
  <text x="241" y="619" text-anchor="end" font-family="Segoe UI, Arial, sans-serif" font-size="18" fill="#222222">lround</text>
  <rect x="253" y="601" width="198.172" height="24" rx="2" ry="2" fill="#89d88a"/>
  <text x="461.172" y="618.5" text-anchor="start" font-family="Segoe UI, Arial, sans-serif" font-size="15" font-weight="600" fill="#444444">3.96x [28ns]</text>
  <text x="241" y="653" text-anchor="end" font-family="Segoe UI, Arial, sans-serif" font-size="18" fill="#222222">lrint</text>
  <rect x="253" y="635" width="168.434" height="24" rx="2" ry="2" fill="#89d88a"/>
  <text x="431.434" y="652.5" text-anchor="start" font-family="Segoe UI, Arial, sans-serif" font-size="15" font-weight="600" fill="#444444">3.37x [34ns]</text>
  <line x1="245" y1="664" x2="753" y2="664" stroke="#cfcfcf" stroke-width="1"/>
  <text x="245" y="694" text-anchor="end" font-family="Segoe UI, Arial, sans-serif" font-size="20" font-weight="700" fill="#1f1f1f">Remainders</text>
  <text x="241" y="727" text-anchor="end" font-family="Segoe UI, Arial, sans-serif" font-size="18" fill="#222222">remquo</text>
  <rect x="253" y="709" width="438.303" height="24" rx="2" ry="2" fill="#89d88a"/>
  <text x="701.303" y="726.5" text-anchor="start" font-family="Segoe UI, Arial, sans-serif" font-size="15" font-weight="600" fill="#444444">8.77x [46ns]</text>
  <text x="241" y="761" text-anchor="end" font-family="Segoe UI, Arial, sans-serif" font-size="18" fill="#222222">fmod</text>
  <rect x="253" y="743" width="305.999" height="24" rx="2" ry="2" fill="#89d88a"/>
  <text x="568.999" y="760.5" text-anchor="start" font-family="Segoe UI, Arial, sans-serif" font-size="15" font-weight="600" fill="#444444">6.12x [45ns]</text>
  <text x="241" y="795" text-anchor="end" font-family="Segoe UI, Arial, sans-serif" font-size="18" fill="#222222">remainder</text>
  <rect x="253" y="777" width="292.222" height="24" rx="2" ry="2" fill="#89d88a"/>
  <text x="555.222" y="794.5" text-anchor="start" font-family="Segoe UI, Arial, sans-serif" font-size="15" font-weight="600" fill="#444444">5.84x [52ns]</text>
  <line x1="245" y1="806" x2="753" y2="806" stroke="#cfcfcf" stroke-width="1"/>
  <text x="245" y="836" text-anchor="end" font-family="Segoe UI, Arial, sans-serif" font-size="20" font-weight="700" fill="#1f1f1f">Floating-point utilities</text>
  <text x="241" y="869" text-anchor="end" font-family="Segoe UI, Arial, sans-serif" font-size="18" fill="#222222">nexttoward(type)</text>
  <rect x="253" y="851" width="500" height="24" rx="2" ry="2" fill="#89d88a"/>
  <polygon points="753,851 771,863 753,875" fill="#89d88a"/>
  <text x="779" y="868.5" text-anchor="start" font-family="Segoe UI, Arial, sans-serif" font-size="15" font-weight="600" fill="#444444">92.91x [6ns]</text>
  <text x="241" y="903" text-anchor="end" font-family="Segoe UI, Arial, sans-serif" font-size="18" fill="#222222">nextafter</text>
  <rect x="253" y="885" width="500" height="24" rx="2" ry="2" fill="#89d88a"/>
  <polygon points="753,885 771,897 753,909" fill="#89d88a"/>
  <text x="779" y="902.5" text-anchor="start" font-family="Segoe UI, Arial, sans-serif" font-size="15" font-weight="600" fill="#444444">82.85x [7ns]</text>
  <text x="241" y="937" text-anchor="end" font-family="Segoe UI, Arial, sans-serif" font-size="18" fill="#222222">nexttoward(long double)</text>
  <rect x="253" y="919" width="500" height="24" rx="2" ry="2" fill="#89d88a"/>
  <polygon points="753,919 771,931 753,943" fill="#89d88a"/>
  <text x="779" y="936.5" text-anchor="start" font-family="Segoe UI, Arial, sans-serif" font-size="15" font-weight="600" fill="#444444">73.09x [8ns]</text>
  <text x="241" y="971" text-anchor="end" font-family="Segoe UI, Arial, sans-serif" font-size="18" fill="#222222">fma</text>
  <rect x="253" y="953" width="500" height="24" rx="2" ry="2" fill="#89d88a"/>
  <polygon points="753,953 771,965 753,977" fill="#89d88a"/>
  <text x="779" y="970.5" text-anchor="start" font-family="Segoe UI, Arial, sans-serif" font-size="15" font-weight="600" fill="#444444">22.57x [7ns]</text>
  <text x="241" y="1005" text-anchor="end" font-family="Segoe UI, Arial, sans-serif" font-size="18" fill="#222222">copysign</text>
  <rect x="253" y="987" width="500" height="24" rx="2" ry="2" fill="#89d88a"/>
  <polygon points="753,987 771,999 753,1011" fill="#89d88a"/>
  <text x="779" y="1004.5" text-anchor="start" font-family="Segoe UI, Arial, sans-serif" font-size="15" font-weight="600" fill="#444444">16.71x [8ns]</text>
  <text x="241" y="1039" text-anchor="end" font-family="Segoe UI, Arial, sans-serif" font-size="18" fill="#222222">abs</text>
  <rect x="253" y="1021" width="500" height="24" rx="2" ry="2" fill="#89d88a"/>
  <polygon points="753,1021 771,1033 753,1045" fill="#89d88a"/>
  <text x="779" y="1038.5" text-anchor="start" font-family="Segoe UI, Arial, sans-serif" font-size="15" font-weight="600" fill="#444444">16.26x [6ns]</text>
  <text x="241" y="1073" text-anchor="end" font-family="Segoe UI, Arial, sans-serif" font-size="18" fill="#222222">fmin</text>
  <rect x="253" y="1055" width="500" height="24" rx="2" ry="2" fill="#89d88a"/>
  <polygon points="753,1055 771,1067 753,1079" fill="#89d88a"/>
  <text x="779" y="1072.5" text-anchor="start" font-family="Segoe UI, Arial, sans-serif" font-size="15" font-weight="600" fill="#444444">16.04x [8ns]</text>
  <text x="241" y="1107" text-anchor="end" font-family="Segoe UI, Arial, sans-serif" font-size="18" fill="#222222">fmax</text>
  <rect x="253" y="1089" width="500" height="24" rx="2" ry="2" fill="#89d88a"/>
  <polygon points="753,1089 771,1101 753,1113" fill="#89d88a"/>
  <text x="779" y="1106.5" text-anchor="start" font-family="Segoe UI, Arial, sans-serif" font-size="15" font-weight="600" fill="#444444">14.17x [8ns]</text>
  <text x="241" y="1141" text-anchor="end" font-family="Segoe UI, Arial, sans-serif" font-size="18" fill="#222222">fdim</text>
  <rect x="253" y="1123" width="500" height="24" rx="2" ry="2" fill="#89d88a"/>
  <polygon points="753,1123 771,1135 753,1147" fill="#89d88a"/>
  <text x="779" y="1140.5" text-anchor="start" font-family="Segoe UI, Arial, sans-serif" font-size="15" font-weight="600" fill="#444444">14.02x [8ns]</text>
  <text x="241" y="1175" text-anchor="end" font-family="Segoe UI, Arial, sans-serif" font-size="18" fill="#222222">scalbln</text>
  <rect x="253" y="1157" width="500" height="24" rx="2" ry="2" fill="#89d88a"/>
  <polygon points="753,1157 771,1169 753,1181" fill="#89d88a"/>
  <text x="779" y="1174.5" text-anchor="start" font-family="Segoe UI, Arial, sans-serif" font-size="15" font-weight="600" fill="#444444">12.34x [10ns]</text>
  <text x="241" y="1209" text-anchor="end" font-family="Segoe UI, Arial, sans-serif" font-size="18" fill="#222222">modf</text>
  <rect x="253" y="1191" width="500" height="24" rx="2" ry="2" fill="#89d88a"/>
  <polygon points="753,1191 771,1203 753,1215" fill="#89d88a"/>
  <text x="779" y="1208.5" text-anchor="start" font-family="Segoe UI, Arial, sans-serif" font-size="15" font-weight="600" fill="#444444">11.98x [23ns]</text>
  <text x="241" y="1243" text-anchor="end" font-family="Segoe UI, Arial, sans-serif" font-size="18" fill="#222222">ldexp</text>
  <rect x="253" y="1225" width="500" height="24" rx="2" ry="2" fill="#89d88a"/>
  <polygon points="753,1225 771,1237 753,1249" fill="#89d88a"/>
  <text x="779" y="1242.5" text-anchor="start" font-family="Segoe UI, Arial, sans-serif" font-size="15" font-weight="600" fill="#444444">11.79x [10ns]</text>
  <text x="241" y="1277" text-anchor="end" font-family="Segoe UI, Arial, sans-serif" font-size="18" fill="#222222">scalbn</text>
  <rect x="253" y="1259" width="500" height="24" rx="2" ry="2" fill="#89d88a"/>
  <polygon points="753,1259 771,1271 753,1283" fill="#89d88a"/>
  <text x="779" y="1276.5" text-anchor="start" font-family="Segoe UI, Arial, sans-serif" font-size="15" font-weight="600" fill="#444444">10.92x [10ns]</text>
  <text x="241" y="1311" text-anchor="end" font-family="Segoe UI, Arial, sans-serif" font-size="18" fill="#222222">logb</text>
  <rect x="253" y="1293" width="500" height="24" rx="2" ry="2" fill="#89d88a"/>
  <polygon points="753,1293 771,1305 753,1317" fill="#89d88a"/>
  <text x="779" y="1310.5" text-anchor="start" font-family="Segoe UI, Arial, sans-serif" font-size="15" font-weight="600" fill="#444444">10.69x [14ns]</text>
  <text x="241" y="1345" text-anchor="end" font-family="Segoe UI, Arial, sans-serif" font-size="18" fill="#222222">frexp</text>
  <rect x="253" y="1327" width="425.598" height="24" rx="2" ry="2" fill="#89d88a"/>
  <text x="688.598" y="1344.5" text-anchor="start" font-family="Segoe UI, Arial, sans-serif" font-size="15" font-weight="600" fill="#444444">8.51x [20ns]</text>
  <text x="241" y="1379" text-anchor="end" font-family="Segoe UI, Arial, sans-serif" font-size="18" fill="#222222">ilogb</text>
  <rect x="253" y="1361" width="146.955" height="24" rx="2" ry="2" fill="#89d88a"/>
  <text x="409.955" y="1378.5" text-anchor="start" font-family="Segoe UI, Arial, sans-serif" font-size="15" font-weight="600" fill="#444444">2.94x [15ns]</text>
  <line x1="245" y1="1390" x2="753" y2="1390" stroke="#cfcfcf" stroke-width="1"/>
  <text x="245" y="1420" text-anchor="end" font-family="Segoe UI, Arial, sans-serif" font-size="20" font-weight="700" fill="#1f1f1f">Roots &amp; powers</text>
  <text x="241" y="1453" text-anchor="end" font-family="Segoe UI, Arial, sans-serif" font-size="18" fill="#222222">hypot</text>
  <rect x="253" y="1435" width="363.662" height="24" rx="2" ry="2" fill="#89d88a"/>
  <text x="626.662" y="1452.5" text-anchor="start" font-family="Segoe UI, Arial, sans-serif" font-size="15" font-weight="600" fill="#444444">7.27x [43ns]</text>
  <text x="241" y="1487" text-anchor="end" font-family="Segoe UI, Arial, sans-serif" font-size="18" fill="#222222">cbrt</text>
  <rect x="253" y="1469" width="263.386" height="24" rx="2" ry="2" fill="#89d88a"/>
  <text x="526.386" y="1486.5" text-anchor="start" font-family="Segoe UI, Arial, sans-serif" font-size="15" font-weight="600" fill="#444444">5.27x [83ns]</text>
  <text x="241" y="1521" text-anchor="end" font-family="Segoe UI, Arial, sans-serif" font-size="18" fill="#222222">pow</text>
  <rect x="253" y="1503" width="171.873" height="24" rx="2" ry="2" fill="#89d88a"/>
  <text x="434.873" y="1520.5" text-anchor="start" font-family="Segoe UI, Arial, sans-serif" font-size="15" font-weight="600" fill="#444444">3.44x [739ns]</text>
  <text x="241" y="1555" text-anchor="end" font-family="Segoe UI, Arial, sans-serif" font-size="18" fill="#222222">sqrt</text>
  <rect x="253" y="1537" width="115.87" height="24" rx="2" ry="2" fill="#89d88a"/>
  <text x="378.87" y="1554.5" text-anchor="start" font-family="Segoe UI, Arial, sans-serif" font-size="15" font-weight="600" fill="#444444">2.32x [55ns]</text>
  <line x1="245" y1="1566" x2="753" y2="1566" stroke="#cfcfcf" stroke-width="1"/>
  <text x="245" y="1596" text-anchor="end" font-family="Segoe UI, Arial, sans-serif" font-size="20" font-weight="700" fill="#1f1f1f">Exponentials</text>
  <text x="241" y="1629" text-anchor="end" font-family="Segoe UI, Arial, sans-serif" font-size="18" fill="#222222">exp2</text>
  <rect x="253" y="1611" width="381.795" height="24" rx="2" ry="2" fill="#89d88a"/>
  <text x="644.795" y="1628.5" text-anchor="start" font-family="Segoe UI, Arial, sans-serif" font-size="15" font-weight="600" fill="#444444">7.64x [177ns]</text>
  <text x="241" y="1663" text-anchor="end" font-family="Segoe UI, Arial, sans-serif" font-size="18" fill="#222222">exp</text>
  <rect x="253" y="1645" width="342.772" height="24" rx="2" ry="2" fill="#89d88a"/>
  <text x="605.772" y="1662.5" text-anchor="start" font-family="Segoe UI, Arial, sans-serif" font-size="15" font-weight="600" fill="#444444">6.86x [172ns]</text>
  <text x="241" y="1697" text-anchor="end" font-family="Segoe UI, Arial, sans-serif" font-size="18" fill="#222222">expm1</text>
  <rect x="253" y="1679" width="327.262" height="24" rx="2" ry="2" fill="#89d88a"/>
  <text x="590.262" y="1696.5" text-anchor="start" font-family="Segoe UI, Arial, sans-serif" font-size="15" font-weight="600" fill="#444444">6.55x [163ns]</text>
  <line x1="245" y1="1708" x2="753" y2="1708" stroke="#cfcfcf" stroke-width="1"/>
  <text x="245" y="1738" text-anchor="end" font-family="Segoe UI, Arial, sans-serif" font-size="20" font-weight="700" fill="#1f1f1f">Logarithms</text>
  <text x="241" y="1771" text-anchor="end" font-family="Segoe UI, Arial, sans-serif" font-size="18" fill="#222222">log10</text>
  <rect x="253" y="1753" width="213.27" height="24" rx="2" ry="2" fill="#89d88a"/>
  <text x="476.27" y="1770.5" text-anchor="start" font-family="Segoe UI, Arial, sans-serif" font-size="15" font-weight="600" fill="#444444">4.27x [679ns]</text>
  <text x="241" y="1805" text-anchor="end" font-family="Segoe UI, Arial, sans-serif" font-size="18" fill="#222222">log2</text>
  <rect x="253" y="1787" width="159.634" height="24" rx="2" ry="2" fill="#89d88a"/>
  <text x="422.634" y="1804.5" text-anchor="start" font-family="Segoe UI, Arial, sans-serif" font-size="15" font-weight="600" fill="#444444">3.19x [559ns]</text>
  <text x="241" y="1839" text-anchor="end" font-family="Segoe UI, Arial, sans-serif" font-size="18" fill="#222222">log1p</text>
  <rect x="253" y="1821" width="159.366" height="24" rx="2" ry="2" fill="#89d88a"/>
  <text x="422.366" y="1838.5" text-anchor="start" font-family="Segoe UI, Arial, sans-serif" font-size="15" font-weight="600" fill="#444444">3.19x [486ns]</text>
  <text x="241" y="1873" text-anchor="end" font-family="Segoe UI, Arial, sans-serif" font-size="18" fill="#222222">log</text>
  <rect x="253" y="1855" width="154.04" height="24" rx="2" ry="2" fill="#89d88a"/>
  <text x="417.04" y="1872.5" text-anchor="start" font-family="Segoe UI, Arial, sans-serif" font-size="15" font-weight="600" fill="#444444">3.08x [564ns]</text>
  <line x1="245" y1="1884" x2="753" y2="1884" stroke="#cfcfcf" stroke-width="1"/>
  <text x="245" y="1914" text-anchor="end" font-family="Segoe UI, Arial, sans-serif" font-size="20" font-weight="700" fill="#1f1f1f">Trigonometric</text>
  <text x="241" y="1947" text-anchor="end" font-family="Segoe UI, Arial, sans-serif" font-size="18" fill="#222222">sin</text>
  <rect x="253" y="1929" width="500" height="24" rx="2" ry="2" fill="#89d88a"/>
  <polygon points="753,1929 771,1941 753,1953" fill="#89d88a"/>
  <text x="779" y="1946.5" text-anchor="start" font-family="Segoe UI, Arial, sans-serif" font-size="15" font-weight="600" fill="#444444">16.41x [83ns]</text>
  <text x="241" y="1981" text-anchor="end" font-family="Segoe UI, Arial, sans-serif" font-size="18" fill="#222222">cos</text>
  <rect x="253" y="1963" width="500" height="24" rx="2" ry="2" fill="#89d88a"/>
  <polygon points="753,1963 771,1975 753,1987" fill="#89d88a"/>
  <text x="779" y="1980.5" text-anchor="start" font-family="Segoe UI, Arial, sans-serif" font-size="15" font-weight="600" fill="#444444">13.63x [85ns]</text>
  <text x="241" y="2015" text-anchor="end" font-family="Segoe UI, Arial, sans-serif" font-size="18" fill="#222222">tan</text>
  <rect x="253" y="1997" width="500" height="24" rx="2" ry="2" fill="#89d88a"/>
  <polygon points="753,1997 771,2009 753,2021" fill="#89d88a"/>
  <text x="779" y="2014.5" text-anchor="start" font-family="Segoe UI, Arial, sans-serif" font-size="15" font-weight="600" fill="#444444">10.74x [142ns]</text>
  <text x="241" y="2049" text-anchor="end" font-family="Segoe UI, Arial, sans-serif" font-size="18" fill="#222222">asin</text>
  <rect x="253" y="2031" width="447.687" height="24" rx="2" ry="2" fill="#89d88a"/>
  <text x="710.687" y="2048.5" text-anchor="start" font-family="Segoe UI, Arial, sans-serif" font-size="15" font-weight="600" fill="#444444">8.95x [380ns]</text>
  <text x="241" y="2083" text-anchor="end" font-family="Segoe UI, Arial, sans-serif" font-size="18" fill="#222222">acos</text>
  <rect x="253" y="2065" width="429.434" height="24" rx="2" ry="2" fill="#89d88a"/>
  <text x="692.434" y="2082.5" text-anchor="start" font-family="Segoe UI, Arial, sans-serif" font-size="15" font-weight="600" fill="#444444">8.59x [413ns]</text>
  <text x="241" y="2117" text-anchor="end" font-family="Segoe UI, Arial, sans-serif" font-size="18" fill="#222222">atan2</text>
  <rect x="253" y="2099" width="336.685" height="24" rx="2" ry="2" fill="#89d88a"/>
  <text x="599.685" y="2116.5" text-anchor="start" font-family="Segoe UI, Arial, sans-serif" font-size="15" font-weight="600" fill="#444444">6.73x [350ns]</text>
  <text x="241" y="2151" text-anchor="end" font-family="Segoe UI, Arial, sans-serif" font-size="18" fill="#222222">atan</text>
  <rect x="253" y="2133" width="271.535" height="24" rx="2" ry="2" fill="#89d88a"/>
  <text x="534.535" y="2150.5" text-anchor="start" font-family="Segoe UI, Arial, sans-serif" font-size="15" font-weight="600" fill="#444444">5.43x [343ns]</text>
  <line x1="245" y1="2162" x2="753" y2="2162" stroke="#cfcfcf" stroke-width="1"/>
  <text x="245" y="2192" text-anchor="end" font-family="Segoe UI, Arial, sans-serif" font-size="20" font-weight="700" fill="#1f1f1f">Hyperbolic</text>
  <text x="241" y="2225" text-anchor="end" font-family="Segoe UI, Arial, sans-serif" font-size="18" fill="#222222">tanh</text>
  <rect x="253" y="2207" width="323.617" height="24" rx="2" ry="2" fill="#89d88a"/>
  <text x="586.617" y="2224.5" text-anchor="start" font-family="Segoe UI, Arial, sans-serif" font-size="15" font-weight="600" fill="#444444">6.47x [190ns]</text>
  <text x="241" y="2259" text-anchor="end" font-family="Segoe UI, Arial, sans-serif" font-size="18" fill="#222222">sinh</text>
  <rect x="253" y="2241" width="299.606" height="24" rx="2" ry="2" fill="#89d88a"/>
  <text x="562.606" y="2258.5" text-anchor="start" font-family="Segoe UI, Arial, sans-serif" font-size="15" font-weight="600" fill="#444444">5.99x [180ns]</text>
  <text x="241" y="2293" text-anchor="end" font-family="Segoe UI, Arial, sans-serif" font-size="18" fill="#222222">cosh</text>
  <rect x="253" y="2275" width="290.689" height="24" rx="2" ry="2" fill="#89d88a"/>
  <text x="553.689" y="2292.5" text-anchor="start" font-family="Segoe UI, Arial, sans-serif" font-size="15" font-weight="600" fill="#444444">5.81x [180ns]</text>
  <line x1="245" y1="2304" x2="753" y2="2304" stroke="#cfcfcf" stroke-width="1"/>
  <text x="245" y="2334" text-anchor="end" font-family="Segoe UI, Arial, sans-serif" font-size="20" font-weight="700" fill="#1f1f1f">Inverse hyperbolic</text>
  <text x="241" y="2367" text-anchor="end" font-family="Segoe UI, Arial, sans-serif" font-size="18" fill="#222222">asinh</text>
  <rect x="253" y="2349" width="391.126" height="24" rx="2" ry="2" fill="#89d88a"/>
  <text x="654.126" y="2366.5" text-anchor="start" font-family="Segoe UI, Arial, sans-serif" font-size="15" font-weight="600" fill="#444444">7.82x [640ns]</text>
  <text x="241" y="2401" text-anchor="end" font-family="Segoe UI, Arial, sans-serif" font-size="18" fill="#222222">atanh</text>
  <rect x="253" y="2383" width="214.54" height="24" rx="2" ry="2" fill="#89d88a"/>
  <text x="477.54" y="2400.5" text-anchor="start" font-family="Segoe UI, Arial, sans-serif" font-size="15" font-weight="600" fill="#444444">4.29x [503ns]</text>
  <text x="241" y="2435" text-anchor="end" font-family="Segoe UI, Arial, sans-serif" font-size="18" fill="#222222">acosh</text>
  <rect x="253" y="2417" width="137.844" height="24" rx="2" ry="2" fill="#89d88a"/>
  <text x="400.844" y="2434.5" text-anchor="start" font-family="Segoe UI, Arial, sans-serif" font-size="15" font-weight="600" fill="#444444">2.76x [630ns]</text>
  <line x1="245" y1="2446" x2="753" y2="2446" stroke="#cfcfcf" stroke-width="1"/>
  <text x="245" y="2476" text-anchor="end" font-family="Segoe UI, Arial, sans-serif" font-size="20" font-weight="700" fill="#1f1f1f">Special functions</text>
  <text x="241" y="2509" text-anchor="end" font-family="Segoe UI, Arial, sans-serif" font-size="18" fill="#222222">erfc</text>
  <rect x="253" y="2491" width="500" height="24" rx="2" ry="2" fill="#89d88a"/>
  <polygon points="753,2491 771,2503 753,2515" fill="#89d88a"/>
  <text x="779" y="2508.5" text-anchor="start" font-family="Segoe UI, Arial, sans-serif" font-size="15" font-weight="600" fill="#444444">10.61x [919ns]</text>
  <text x="241" y="2543" text-anchor="end" font-family="Segoe UI, Arial, sans-serif" font-size="18" fill="#222222">tgamma</text>
  <rect x="253" y="2525" width="500" height="24" rx="2" ry="2" fill="#89d88a"/>
  <polygon points="753,2525 771,2537 753,2549" fill="#89d88a"/>
  <text x="779" y="2542.5" text-anchor="start" font-family="Segoe UI, Arial, sans-serif" font-size="15" font-weight="600" fill="#444444">10.07x [758ns]</text>
  <text x="241" y="2577" text-anchor="end" font-family="Segoe UI, Arial, sans-serif" font-size="18" fill="#222222">lgamma</text>
  <rect x="253" y="2559" width="398.223" height="24" rx="2" ry="2" fill="#89d88a"/>
  <text x="661.223" y="2576.5" text-anchor="start" font-family="Segoe UI, Arial, sans-serif" font-size="15" font-weight="600" fill="#444444">7.96x [1081ns]</text>
  <text x="241" y="2611" text-anchor="end" font-family="Segoe UI, Arial, sans-serif" font-size="18" fill="#222222">erf</text>
  <rect x="253" y="2593" width="331.158" height="24" rx="2" ry="2" fill="#89d88a"/>
  <text x="594.158" y="2610.5" text-anchor="start" font-family="Segoe UI, Arial, sans-serif" font-size="15" font-weight="600" fill="#444444">6.62x [908ns]</text>
</svg>
