<?xml version="1.0" encoding="UTF-8"?>
<svg xmlns="http://www.w3.org/2000/svg" width="1705" height="2656" viewBox="0 0 1705 2656">
  <rect x="0" y="0" width="1705" height="2656" fill="#f2f2f2"/>
  <text x="852" y="38" text-anchor="middle" font-family="Segoe UI, Arial, sans-serif" font-size="28" font-weight="600" fill="#222222">f128 vs MPFR typical benchmark ratios</text>
  <line x1="301" y1="82" x2="301" y2="2638" stroke="#dddddd" stroke-width="1"/>
  <line x1="419" y1="82" x2="419" y2="2638" stroke="#dddddd" stroke-width="1"/>
  <line x1="537" y1="82" x2="537" y2="2638" stroke="#dddddd" stroke-width="1"/>
  <line x1="655" y1="82" x2="655" y2="2638" stroke="#dddddd" stroke-width="1"/>
  <line x1="773" y1="82" x2="773" y2="2638" stroke="#dddddd" stroke-width="1"/>
  <line x1="891" y1="82" x2="891" y2="2638" stroke="#dddddd" stroke-width="1"/>
  <line x1="1009" y1="82" x2="1009" y2="2638" stroke="#dddddd" stroke-width="1"/>
  <line x1="1127" y1="82" x2="1127" y2="2638" stroke="#dddddd" stroke-width="1"/>
  <line x1="1245" y1="82" x2="1245" y2="2638" stroke="#dddddd" stroke-width="1"/>
  <line x1="1363" y1="82" x2="1363" y2="2638" stroke="#dddddd" stroke-width="1"/>
  <line x1="1481" y1="82" x2="1481" y2="2638" stroke="#dddddd" stroke-width="1"/>
  <line x1="419" y1="82" x2="419" y2="2638" stroke="#6da7d9" stroke-width="2" stroke-dasharray="6,6"/>
  <text x="293" y="104" text-anchor="end" font-family="Segoe UI, Arial, sans-serif" font-size="20" font-weight="700" fill="#1f1f1f">Arithmetic</text>
  <text x="289" y="137" text-anchor="end" font-family="Segoe UI, Arial, sans-serif" font-size="18" fill="#222222">multiply</text>
  <rect x="301" y="119" width="1180" height="24" rx="2" ry="2" fill="#89d88a"/>
  <polygon points="1481,119 1499,131 1481,143" fill="#89d88a"/>
  <text x="1507" y="136.5" text-anchor="start" font-family="Segoe UI, Arial, sans-serif" font-size="15" font-weight="600" fill="#444444">17.69x [7ns]</text>
  <text x="289" y="171" text-anchor="end" font-family="Segoe UI, Arial, sans-serif" font-size="18" fill="#222222">add</text>
  <rect x="301" y="153" width="1180" height="24" rx="2" ry="2" fill="#89d88a"/>
  <polygon points="1481,153 1499,165 1481,177" fill="#89d88a"/>
  <text x="1507" y="170.5" text-anchor="start" font-family="Segoe UI, Arial, sans-serif" font-size="15" font-weight="600" fill="#444444">17.36x [7ns]</text>
  <text x="289" y="205" text-anchor="end" font-family="Segoe UI, Arial, sans-serif" font-size="18" fill="#222222">subtract</text>
  <rect x="301" y="187" width="1180" height="24" rx="2" ry="2" fill="#89d88a"/>
  <polygon points="1481,187 1499,199 1481,211" fill="#89d88a"/>
  <text x="1507" y="204.5" text-anchor="start" font-family="Segoe UI, Arial, sans-serif" font-size="15" font-weight="600" fill="#444444">17.32x [7ns]</text>
  <text x="289" y="239" text-anchor="end" font-family="Segoe UI, Arial, sans-serif" font-size="18" fill="#222222">divide</text>
  <rect x="301" y="221" width="1180" height="24" rx="2" ry="2" fill="#89d88a"/>
  <polygon points="1481,221 1499,233 1481,245" fill="#89d88a"/>
  <text x="1507" y="238.5" text-anchor="start" font-family="Segoe UI, Arial, sans-serif" font-size="15" font-weight="600" fill="#444444">16.28x [8ns]</text>
  <text x="289" y="273" text-anchor="end" font-family="Segoe UI, Arial, sans-serif" font-size="18" fill="#222222">mixed recurrence</text>
  <rect x="301" y="255" width="1180" height="24" rx="2" ry="2" fill="#89d88a"/>
  <polygon points="1481,255 1499,267 1481,279" fill="#89d88a"/>
  <text x="1507" y="272.5" text-anchor="start" font-family="Segoe UI, Arial, sans-serif" font-size="15" font-weight="600" fill="#444444">10.63x [19ns]</text>
  <line x1="293" y1="284" x2="1481" y2="284" stroke="#cfcfcf" stroke-width="1"/>
  <text x="293" y="314" text-anchor="end" font-family="Segoe UI, Arial, sans-serif" font-size="20" font-weight="700" fill="#1f1f1f">Rounding</text>
  <text x="289" y="347" text-anchor="end" font-family="Segoe UI, Arial, sans-serif" font-size="18" fill="#222222">floor</text>
  <rect x="301" y="329" width="1180" height="24" rx="2" ry="2" fill="#89d88a"/>
  <polygon points="1481,329 1499,341 1481,353" fill="#89d88a"/>
  <text x="1507" y="346.5" text-anchor="start" font-family="Segoe UI, Arial, sans-serif" font-size="15" font-weight="600" fill="#444444">16.01x [7ns]</text>
  <text x="289" y="381" text-anchor="end" font-family="Segoe UI, Arial, sans-serif" font-size="18" fill="#222222">ceil</text>
  <rect x="301" y="363" width="1180" height="24" rx="2" ry="2" fill="#89d88a"/>
  <polygon points="1481,363 1499,375 1481,387" fill="#89d88a"/>
  <text x="1507" y="380.5" text-anchor="start" font-family="Segoe UI, Arial, sans-serif" font-size="15" font-weight="600" fill="#444444">15.98x [7ns]</text>
  <text x="289" y="415" text-anchor="end" font-family="Segoe UI, Arial, sans-serif" font-size="18" fill="#222222">round</text>
  <rect x="301" y="397" width="1180" height="24" rx="2" ry="2" fill="#89d88a"/>
  <polygon points="1481,397 1499,409 1481,421" fill="#89d88a"/>
  <text x="1507" y="414.5" text-anchor="start" font-family="Segoe UI, Arial, sans-serif" font-size="15" font-weight="600" fill="#444444">12.73x [11ns]</text>
  <text x="289" y="449" text-anchor="end" font-family="Segoe UI, Arial, sans-serif" font-size="18" fill="#222222">rint</text>
  <rect x="301" y="431" width="1180" height="24" rx="2" ry="2" fill="#89d88a"/>
  <polygon points="1481,431 1499,443 1481,455" fill="#89d88a"/>
  <text x="1507" y="448.5" text-anchor="start" font-family="Segoe UI, Arial, sans-serif" font-size="15" font-weight="600" fill="#444444">12.00x [12ns]</text>
  <text x="289" y="483" text-anchor="end" font-family="Segoe UI, Arial, sans-serif" font-size="18" fill="#222222">nearbyint</text>
  <rect x="301" y="465" width="1180" height="24" rx="2" ry="2" fill="#89d88a"/>
  <polygon points="1481,465 1499,477 1481,489" fill="#89d88a"/>
  <text x="1507" y="482.5" text-anchor="start" font-family="Segoe UI, Arial, sans-serif" font-size="15" font-weight="600" fill="#444444">11.81x [12ns]</text>
  <text x="289" y="517" text-anchor="end" font-family="Segoe UI, Arial, sans-serif" font-size="18" fill="#222222">trunc</text>
  <rect x="301" y="499" width="978.466" height="24" rx="2" ry="2" fill="#89d88a"/>
  <text x="1289.47" y="516.5" text-anchor="start" font-family="Segoe UI, Arial, sans-serif" font-size="15" font-weight="600" fill="#444444">8.29x [12ns]</text>
  <text x="289" y="551" text-anchor="end" font-family="Segoe UI, Arial, sans-serif" font-size="18" fill="#222222">llround</text>
  <rect x="301" y="533" width="797.109" height="24" rx="2" ry="2" fill="#89d88a"/>
  <text x="1108.11" y="550.5" text-anchor="start" font-family="Segoe UI, Arial, sans-serif" font-size="15" font-weight="600" fill="#444444">6.76x [29ns]</text>
  <text x="289" y="585" text-anchor="end" font-family="Segoe UI, Arial, sans-serif" font-size="18" fill="#222222">llrint</text>
  <rect x="301" y="567" width="677.079" height="24" rx="2" ry="2" fill="#89d88a"/>
  <text x="988.079" y="584.5" text-anchor="start" font-family="Segoe UI, Arial, sans-serif" font-size="15" font-weight="600" fill="#444444">5.74x [34ns]</text>
  <text x="289" y="619" text-anchor="end" font-family="Segoe UI, Arial, sans-serif" font-size="18" fill="#222222">lround</text>
  <rect x="301" y="601" width="472.231" height="24" rx="2" ry="2" fill="#89d88a"/>
  <text x="783.231" y="618.5" text-anchor="start" font-family="Segoe UI, Arial, sans-serif" font-size="15" font-weight="600" fill="#444444">4.00x [29ns]</text>
  <text x="289" y="653" text-anchor="end" font-family="Segoe UI, Arial, sans-serif" font-size="18" fill="#222222">lrint</text>
  <rect x="301" y="635" width="398.782" height="24" rx="2" ry="2" fill="#89d88a"/>
  <text x="709.782" y="652.5" text-anchor="start" font-family="Segoe UI, Arial, sans-serif" font-size="15" font-weight="600" fill="#444444">3.38x [34ns]</text>
  <line x1="293" y1="664" x2="1481" y2="664" stroke="#cfcfcf" stroke-width="1"/>
  <text x="293" y="694" text-anchor="end" font-family="Segoe UI, Arial, sans-serif" font-size="20" font-weight="700" fill="#1f1f1f">Remainders</text>
  <text x="289" y="727" text-anchor="end" font-family="Segoe UI, Arial, sans-serif" font-size="18" fill="#222222">remquo</text>
  <rect x="301" y="709" width="930.033" height="24" rx="2" ry="2" fill="#89d88a"/>
  <text x="1241.03" y="726.5" text-anchor="start" font-family="Segoe UI, Arial, sans-serif" font-size="15" font-weight="600" fill="#444444">7.88x [46ns]</text>
  <text x="289" y="761" text-anchor="end" font-family="Segoe UI, Arial, sans-serif" font-size="18" fill="#222222">fmod</text>
  <rect x="301" y="743" width="712.952" height="24" rx="2" ry="2" fill="#89d88a"/>
  <text x="1023.95" y="760.5" text-anchor="start" font-family="Segoe UI, Arial, sans-serif" font-size="15" font-weight="600" fill="#444444">6.04x [45ns]</text>
  <text x="289" y="795" text-anchor="end" font-family="Segoe UI, Arial, sans-serif" font-size="18" fill="#222222">remainder</text>
  <rect x="301" y="777" width="666.915" height="24" rx="2" ry="2" fill="#89d88a"/>
  <text x="977.915" y="794.5" text-anchor="start" font-family="Segoe UI, Arial, sans-serif" font-size="15" font-weight="600" fill="#444444">5.65x [54ns]</text>
  <line x1="293" y1="806" x2="1481" y2="806" stroke="#cfcfcf" stroke-width="1"/>
  <text x="293" y="836" text-anchor="end" font-family="Segoe UI, Arial, sans-serif" font-size="20" font-weight="700" fill="#1f1f1f">Floating-point utilities</text>
  <text x="289" y="869" text-anchor="end" font-family="Segoe UI, Arial, sans-serif" font-size="18" fill="#222222">nexttoward(type)</text>
  <rect x="301" y="851" width="1180" height="24" rx="2" ry="2" fill="#89d88a"/>
  <polygon points="1481,851 1499,863 1481,875" fill="#89d88a"/>
  <text x="1507" y="868.5" text-anchor="start" font-family="Segoe UI, Arial, sans-serif" font-size="15" font-weight="600" fill="#444444">84.67x [6ns]</text>
  <text x="289" y="903" text-anchor="end" font-family="Segoe UI, Arial, sans-serif" font-size="18" fill="#222222">nextafter</text>
  <rect x="301" y="885" width="1180" height="24" rx="2" ry="2" fill="#89d88a"/>
  <polygon points="1481,885 1499,897 1481,909" fill="#89d88a"/>
  <text x="1507" y="902.5" text-anchor="start" font-family="Segoe UI, Arial, sans-serif" font-size="15" font-weight="600" fill="#444444">84.14x [7ns]</text>
  <text x="289" y="937" text-anchor="end" font-family="Segoe UI, Arial, sans-serif" font-size="18" fill="#222222">nexttoward(long double)</text>
  <rect x="301" y="919" width="1180" height="24" rx="2" ry="2" fill="#89d88a"/>
  <polygon points="1481,919 1499,931 1481,943" fill="#89d88a"/>
  <text x="1507" y="936.5" text-anchor="start" font-family="Segoe UI, Arial, sans-serif" font-size="15" font-weight="600" fill="#444444">73.76x [8ns]</text>
  <text x="289" y="971" text-anchor="end" font-family="Segoe UI, Arial, sans-serif" font-size="18" fill="#222222">fma</text>
  <rect x="301" y="953" width="1180" height="24" rx="2" ry="2" fill="#89d88a"/>
  <polygon points="1481,953 1499,965 1481,977" fill="#89d88a"/>
  <text x="1507" y="970.5" text-anchor="start" font-family="Segoe UI, Arial, sans-serif" font-size="15" font-weight="600" fill="#444444">22.74x [7ns]</text>
  <text x="289" y="1005" text-anchor="end" font-family="Segoe UI, Arial, sans-serif" font-size="18" fill="#222222">copysign</text>
  <rect x="301" y="987" width="1180" height="24" rx="2" ry="2" fill="#89d88a"/>
  <polygon points="1481,987 1499,999 1481,1011" fill="#89d88a"/>
  <text x="1507" y="1004.5" text-anchor="start" font-family="Segoe UI, Arial, sans-serif" font-size="15" font-weight="600" fill="#444444">16.76x [8ns]</text>
  <text x="289" y="1039" text-anchor="end" font-family="Segoe UI, Arial, sans-serif" font-size="18" fill="#222222">abs</text>
  <rect x="301" y="1021" width="1180" height="24" rx="2" ry="2" fill="#89d88a"/>
  <polygon points="1481,1021 1499,1033 1481,1045" fill="#89d88a"/>
  <text x="1507" y="1038.5" text-anchor="start" font-family="Segoe UI, Arial, sans-serif" font-size="15" font-weight="600" fill="#444444">16.36x [6ns]</text>
  <text x="289" y="1073" text-anchor="end" font-family="Segoe UI, Arial, sans-serif" font-size="18" fill="#222222">fmin</text>
  <rect x="301" y="1055" width="1180" height="24" rx="2" ry="2" fill="#89d88a"/>
  <polygon points="1481,1055 1499,1067 1481,1079" fill="#89d88a"/>
  <text x="1507" y="1072.5" text-anchor="start" font-family="Segoe UI, Arial, sans-serif" font-size="15" font-weight="600" fill="#444444">14.17x [8ns]</text>
  <text x="289" y="1107" text-anchor="end" font-family="Segoe UI, Arial, sans-serif" font-size="18" fill="#222222">fmax</text>
  <rect x="301" y="1089" width="1180" height="24" rx="2" ry="2" fill="#89d88a"/>
  <polygon points="1481,1089 1499,1101 1481,1113" fill="#89d88a"/>
  <text x="1507" y="1106.5" text-anchor="start" font-family="Segoe UI, Arial, sans-serif" font-size="15" font-weight="600" fill="#444444">14.16x [8ns]</text>
  <text x="289" y="1141" text-anchor="end" font-family="Segoe UI, Arial, sans-serif" font-size="18" fill="#222222">fdim</text>
  <rect x="301" y="1123" width="1180" height="24" rx="2" ry="2" fill="#89d88a"/>
  <polygon points="1481,1123 1499,1135 1481,1147" fill="#89d88a"/>
  <text x="1507" y="1140.5" text-anchor="start" font-family="Segoe UI, Arial, sans-serif" font-size="15" font-weight="600" fill="#444444">13.54x [8ns]</text>
  <text x="289" y="1175" text-anchor="end" font-family="Segoe UI, Arial, sans-serif" font-size="18" fill="#222222">modf</text>
  <rect x="301" y="1157" width="1180" height="24" rx="2" ry="2" fill="#89d88a"/>
  <polygon points="1481,1157 1499,1169 1481,1181" fill="#89d88a"/>
  <text x="1507" y="1174.5" text-anchor="start" font-family="Segoe UI, Arial, sans-serif" font-size="15" font-weight="600" fill="#444444">11.74x [23ns]</text>
  <text x="289" y="1209" text-anchor="end" font-family="Segoe UI, Arial, sans-serif" font-size="18" fill="#222222">ldexp</text>
  <rect x="301" y="1191" width="1180" height="24" rx="2" ry="2" fill="#89d88a"/>
  <polygon points="1481,1191 1499,1203 1481,1215" fill="#89d88a"/>
  <text x="1507" y="1208.5" text-anchor="start" font-family="Segoe UI, Arial, sans-serif" font-size="15" font-weight="600" fill="#444444">11.36x [10ns]</text>
  <text x="289" y="1243" text-anchor="end" font-family="Segoe UI, Arial, sans-serif" font-size="18" fill="#222222">scalbln</text>
  <rect x="301" y="1225" width="1180" height="24" rx="2" ry="2" fill="#89d88a"/>
  <polygon points="1481,1225 1499,1237 1481,1249" fill="#89d88a"/>
  <text x="1507" y="1242.5" text-anchor="start" font-family="Segoe UI, Arial, sans-serif" font-size="15" font-weight="600" fill="#444444">10.55x [10ns]</text>
  <text x="289" y="1277" text-anchor="end" font-family="Segoe UI, Arial, sans-serif" font-size="18" fill="#222222">scalbn</text>
  <rect x="301" y="1259" width="1180" height="24" rx="2" ry="2" fill="#89d88a"/>
  <polygon points="1481,1259 1499,1271 1481,1283" fill="#89d88a"/>
  <text x="1507" y="1276.5" text-anchor="start" font-family="Segoe UI, Arial, sans-serif" font-size="15" font-weight="600" fill="#444444">10.52x [10ns]</text>
  <text x="289" y="1311" text-anchor="end" font-family="Segoe UI, Arial, sans-serif" font-size="18" fill="#222222">logb</text>
  <rect x="301" y="1293" width="1180" height="24" rx="2" ry="2" fill="#89d88a"/>
  <polygon points="1481,1293 1499,1305 1481,1317" fill="#89d88a"/>
  <text x="1507" y="1310.5" text-anchor="start" font-family="Segoe UI, Arial, sans-serif" font-size="15" font-weight="600" fill="#444444">10.46x [14ns]</text>
  <text x="289" y="1345" text-anchor="end" font-family="Segoe UI, Arial, sans-serif" font-size="18" fill="#222222">frexp</text>
  <rect x="301" y="1327" width="920.117" height="24" rx="2" ry="2" fill="#89d88a"/>
  <text x="1231.12" y="1344.5" text-anchor="start" font-family="Segoe UI, Arial, sans-serif" font-size="15" font-weight="600" fill="#444444">7.80x [18ns]</text>
  <text x="289" y="1379" text-anchor="end" font-family="Segoe UI, Arial, sans-serif" font-size="18" fill="#222222">ilogb</text>
  <rect x="301" y="1361" width="300.461" height="24" rx="2" ry="2" fill="#89d88a"/>
  <text x="611.461" y="1378.5" text-anchor="start" font-family="Segoe UI, Arial, sans-serif" font-size="15" font-weight="600" fill="#444444">2.55x [12ns]</text>
  <line x1="293" y1="1390" x2="1481" y2="1390" stroke="#cfcfcf" stroke-width="1"/>
  <text x="293" y="1420" text-anchor="end" font-family="Segoe UI, Arial, sans-serif" font-size="20" font-weight="700" fill="#1f1f1f">Roots &amp; powers</text>
  <text x="289" y="1453" text-anchor="end" font-family="Segoe UI, Arial, sans-serif" font-size="18" fill="#222222">hypot</text>
  <rect x="301" y="1435" width="861.493" height="24" rx="2" ry="2" fill="#89d88a"/>
  <text x="1172.49" y="1452.5" text-anchor="start" font-family="Segoe UI, Arial, sans-serif" font-size="15" font-weight="600" fill="#444444">7.30x [41ns]</text>
  <text x="289" y="1487" text-anchor="end" font-family="Segoe UI, Arial, sans-serif" font-size="18" fill="#222222">cbrt</text>
  <rect x="301" y="1469" width="617.151" height="24" rx="2" ry="2" fill="#89d88a"/>
  <text x="928.151" y="1486.5" text-anchor="start" font-family="Segoe UI, Arial, sans-serif" font-size="15" font-weight="600" fill="#444444">5.23x [74ns]</text>
  <text x="289" y="1521" text-anchor="end" font-family="Segoe UI, Arial, sans-serif" font-size="18" fill="#222222">pow</text>
  <rect x="301" y="1503" width="400.227" height="24" rx="2" ry="2" fill="#89d88a"/>
  <text x="711.227" y="1520.5" text-anchor="start" font-family="Segoe UI, Arial, sans-serif" font-size="15" font-weight="600" fill="#444444">3.39x [745ns]</text>
  <text x="289" y="1555" text-anchor="end" font-family="Segoe UI, Arial, sans-serif" font-size="18" fill="#222222">sqrt</text>
  <rect x="301" y="1537" width="274.801" height="24" rx="2" ry="2" fill="#89d88a"/>
  <text x="585.801" y="1554.5" text-anchor="start" font-family="Segoe UI, Arial, sans-serif" font-size="15" font-weight="600" fill="#444444">2.33x [55ns]</text>
  <line x1="293" y1="1566" x2="1481" y2="1566" stroke="#cfcfcf" stroke-width="1"/>
  <text x="293" y="1596" text-anchor="end" font-family="Segoe UI, Arial, sans-serif" font-size="20" font-weight="700" fill="#1f1f1f">Exponentials</text>
  <text x="289" y="1629" text-anchor="end" font-family="Segoe UI, Arial, sans-serif" font-size="18" fill="#222222">exp2</text>
  <rect x="301" y="1611" width="836.98" height="24" rx="2" ry="2" fill="#89d88a"/>
  <text x="1147.98" y="1628.5" text-anchor="start" font-family="Segoe UI, Arial, sans-serif" font-size="15" font-weight="600" fill="#444444">7.09x [163ns]</text>
  <text x="289" y="1663" text-anchor="end" font-family="Segoe UI, Arial, sans-serif" font-size="18" fill="#222222">expm1</text>
  <rect x="301" y="1645" width="762.988" height="24" rx="2" ry="2" fill="#89d88a"/>
  <text x="1073.99" y="1662.5" text-anchor="start" font-family="Segoe UI, Arial, sans-serif" font-size="15" font-weight="600" fill="#444444">6.47x [164ns]</text>
  <text x="289" y="1697" text-anchor="end" font-family="Segoe UI, Arial, sans-serif" font-size="18" fill="#222222">exp</text>
  <rect x="301" y="1679" width="695.802" height="24" rx="2" ry="2" fill="#89d88a"/>
  <text x="1006.8" y="1696.5" text-anchor="start" font-family="Segoe UI, Arial, sans-serif" font-size="15" font-weight="600" fill="#444444">5.90x [158ns]</text>
  <line x1="293" y1="1708" x2="1481" y2="1708" stroke="#cfcfcf" stroke-width="1"/>
  <text x="293" y="1738" text-anchor="end" font-family="Segoe UI, Arial, sans-serif" font-size="20" font-weight="700" fill="#1f1f1f">Logarithms</text>
  <text x="289" y="1771" text-anchor="end" font-family="Segoe UI, Arial, sans-serif" font-size="18" fill="#222222">log10</text>
  <rect x="301" y="1753" width="504.909" height="24" rx="2" ry="2" fill="#89d88a"/>
  <text x="815.909" y="1770.5" text-anchor="start" font-family="Segoe UI, Arial, sans-serif" font-size="15" font-weight="600" fill="#444444">4.28x [681ns]</text>
  <text x="289" y="1805" text-anchor="end" font-family="Segoe UI, Arial, sans-serif" font-size="18" fill="#222222">log2</text>
  <rect x="301" y="1787" width="376.153" height="24" rx="2" ry="2" fill="#89d88a"/>
  <text x="687.153" y="1804.5" text-anchor="start" font-family="Segoe UI, Arial, sans-serif" font-size="15" font-weight="600" fill="#444444">3.19x [561ns]</text>
  <text x="289" y="1839" text-anchor="end" font-family="Segoe UI, Arial, sans-serif" font-size="18" fill="#222222">log1p</text>
  <rect x="301" y="1821" width="357.485" height="24" rx="2" ry="2" fill="#89d88a"/>
  <text x="668.485" y="1838.5" text-anchor="start" font-family="Segoe UI, Arial, sans-serif" font-size="15" font-weight="600" fill="#444444">3.03x [470ns]</text>
  <text x="289" y="1873" text-anchor="end" font-family="Segoe UI, Arial, sans-serif" font-size="18" fill="#222222">log</text>
  <rect x="301" y="1855" width="289.448" height="24" rx="2" ry="2" fill="#89d88a"/>
  <text x="600.448" y="1872.5" text-anchor="start" font-family="Segoe UI, Arial, sans-serif" font-size="15" font-weight="600" fill="#444444">2.45x [556ns]</text>
  <line x1="293" y1="1884" x2="1481" y2="1884" stroke="#cfcfcf" stroke-width="1"/>
  <text x="293" y="1914" text-anchor="end" font-family="Segoe UI, Arial, sans-serif" font-size="20" font-weight="700" fill="#1f1f1f">Trigonometric</text>
  <text x="289" y="1947" text-anchor="end" font-family="Segoe UI, Arial, sans-serif" font-size="18" fill="#222222">sin</text>
  <rect x="301" y="1929" width="1180" height="24" rx="2" ry="2" fill="#89d88a"/>
  <polygon points="1481,1929 1499,1941 1481,1953" fill="#89d88a"/>
  <text x="1507" y="1946.5" text-anchor="start" font-family="Segoe UI, Arial, sans-serif" font-size="15" font-weight="600" fill="#444444">16.21x [84ns]</text>
  <text x="289" y="1981" text-anchor="end" font-family="Segoe UI, Arial, sans-serif" font-size="18" fill="#222222">cos</text>
  <rect x="301" y="1963" width="1180" height="24" rx="2" ry="2" fill="#89d88a"/>
  <polygon points="1481,1963 1499,1975 1481,1987" fill="#89d88a"/>
  <text x="1507" y="1980.5" text-anchor="start" font-family="Segoe UI, Arial, sans-serif" font-size="15" font-weight="600" fill="#444444">13.00x [84ns]</text>
  <text x="289" y="2015" text-anchor="end" font-family="Segoe UI, Arial, sans-serif" font-size="18" fill="#222222">tan</text>
  <rect x="301" y="1997" width="1180" height="24" rx="2" ry="2" fill="#89d88a"/>
  <polygon points="1481,1997 1499,2009 1481,2021" fill="#89d88a"/>
  <text x="1507" y="2014.5" text-anchor="start" font-family="Segoe UI, Arial, sans-serif" font-size="15" font-weight="600" fill="#444444">10.71x [143ns]</text>
  <text x="289" y="2049" text-anchor="end" font-family="Segoe UI, Arial, sans-serif" font-size="18" fill="#222222">asin</text>
  <rect x="301" y="2031" width="991.852" height="24" rx="2" ry="2" fill="#89d88a"/>
  <text x="1302.85" y="2048.5" text-anchor="start" font-family="Segoe UI, Arial, sans-serif" font-size="15" font-weight="600" fill="#444444">8.41x [377ns]</text>
  <text x="289" y="2083" text-anchor="end" font-family="Segoe UI, Arial, sans-serif" font-size="18" fill="#222222">acos</text>
  <rect x="301" y="2065" width="951.926" height="24" rx="2" ry="2" fill="#89d88a"/>
  <text x="1262.93" y="2082.5" text-anchor="start" font-family="Segoe UI, Arial, sans-serif" font-size="15" font-weight="600" fill="#444444">8.07x [406ns]</text>
  <text x="289" y="2117" text-anchor="end" font-family="Segoe UI, Arial, sans-serif" font-size="18" fill="#222222">atan2</text>
  <rect x="301" y="2099" width="793.774" height="24" rx="2" ry="2" fill="#89d88a"/>
  <text x="1104.77" y="2116.5" text-anchor="start" font-family="Segoe UI, Arial, sans-serif" font-size="15" font-weight="600" fill="#444444">6.73x [352ns]</text>
  <text x="289" y="2151" text-anchor="end" font-family="Segoe UI, Arial, sans-serif" font-size="18" fill="#222222">atan</text>
  <rect x="301" y="2133" width="603.315" height="24" rx="2" ry="2" fill="#89d88a"/>
  <text x="914.315" y="2150.5" text-anchor="start" font-family="Segoe UI, Arial, sans-serif" font-size="15" font-weight="600" fill="#444444">5.11x [340ns]</text>
  <line x1="293" y1="2162" x2="1481" y2="2162" stroke="#cfcfcf" stroke-width="1"/>
  <text x="293" y="2192" text-anchor="end" font-family="Segoe UI, Arial, sans-serif" font-size="20" font-weight="700" fill="#1f1f1f">Hyperbolic</text>
  <text x="289" y="2225" text-anchor="end" font-family="Segoe UI, Arial, sans-serif" font-size="18" fill="#222222">sinh</text>
  <rect x="301" y="2207" width="704.899" height="24" rx="2" ry="2" fill="#89d88a"/>
  <text x="1015.9" y="2224.5" text-anchor="start" font-family="Segoe UI, Arial, sans-serif" font-size="15" font-weight="600" fill="#444444">5.97x [180ns]</text>
  <text x="289" y="2259" text-anchor="end" font-family="Segoe UI, Arial, sans-serif" font-size="18" fill="#222222">tanh</text>
  <rect x="301" y="2241" width="695.761" height="24" rx="2" ry="2" fill="#89d88a"/>
  <text x="1006.76" y="2258.5" text-anchor="start" font-family="Segoe UI, Arial, sans-serif" font-size="15" font-weight="600" fill="#444444">5.90x [190ns]</text>
  <text x="289" y="2293" text-anchor="end" font-family="Segoe UI, Arial, sans-serif" font-size="18" fill="#222222">cosh</text>
  <rect x="301" y="2275" width="688.065" height="24" rx="2" ry="2" fill="#89d88a"/>
  <text x="999.065" y="2292.5" text-anchor="start" font-family="Segoe UI, Arial, sans-serif" font-size="15" font-weight="600" fill="#444444">5.83x [180ns]</text>
  <line x1="293" y1="2304" x2="1481" y2="2304" stroke="#cfcfcf" stroke-width="1"/>
  <text x="293" y="2334" text-anchor="end" font-family="Segoe UI, Arial, sans-serif" font-size="20" font-weight="700" fill="#1f1f1f">Inverse hyperbolic</text>
  <text x="289" y="2367" text-anchor="end" font-family="Segoe UI, Arial, sans-serif" font-size="18" fill="#222222">asinh</text>
  <rect x="301" y="2349" width="854.432" height="24" rx="2" ry="2" fill="#89d88a"/>
  <text x="1165.43" y="2366.5" text-anchor="start" font-family="Segoe UI, Arial, sans-serif" font-size="15" font-weight="600" fill="#444444">7.24x [640ns]</text>
  <text x="289" y="2401" text-anchor="end" font-family="Segoe UI, Arial, sans-serif" font-size="18" fill="#222222">atanh</text>
  <rect x="301" y="2383" width="506.72" height="24" rx="2" ry="2" fill="#89d88a"/>
  <text x="817.72" y="2400.5" text-anchor="start" font-family="Segoe UI, Arial, sans-serif" font-size="15" font-weight="600" fill="#444444">4.29x [503ns]</text>
  <text x="289" y="2435" text-anchor="end" font-family="Segoe UI, Arial, sans-serif" font-size="18" fill="#222222">acosh</text>
  <rect x="301" y="2417" width="327.314" height="24" rx="2" ry="2" fill="#89d88a"/>
  <text x="638.314" y="2434.5" text-anchor="start" font-family="Segoe UI, Arial, sans-serif" font-size="15" font-weight="600" fill="#444444">2.77x [629ns]</text>
  <line x1="293" y1="2446" x2="1481" y2="2446" stroke="#cfcfcf" stroke-width="1"/>
  <text x="293" y="2476" text-anchor="end" font-family="Segoe UI, Arial, sans-serif" font-size="20" font-weight="700" fill="#1f1f1f">Special functions</text>
  <text x="289" y="2509" text-anchor="end" font-family="Segoe UI, Arial, sans-serif" font-size="18" fill="#222222">erfc</text>
  <rect x="301" y="2491" width="1180" height="24" rx="2" ry="2" fill="#89d88a"/>
  <polygon points="1481,2491 1499,2503 1481,2515" fill="#89d88a"/>
  <text x="1507" y="2508.5" text-anchor="start" font-family="Segoe UI, Arial, sans-serif" font-size="15" font-weight="600" fill="#444444">10.79x [918ns]</text>
  <text x="289" y="2543" text-anchor="end" font-family="Segoe UI, Arial, sans-serif" font-size="18" fill="#222222">tgamma</text>
  <rect x="301" y="2525" width="1055.28" height="24" rx="2" ry="2" fill="#89d88a"/>
  <text x="1366.28" y="2542.5" text-anchor="start" font-family="Segoe UI, Arial, sans-serif" font-size="15" font-weight="600" fill="#444444">8.94x [746ns]</text>
  <text x="289" y="2577" text-anchor="end" font-family="Segoe UI, Arial, sans-serif" font-size="18" fill="#222222">lgamma</text>
  <rect x="301" y="2559" width="813.075" height="24" rx="2" ry="2" fill="#89d88a"/>
  <text x="1124.08" y="2576.5" text-anchor="start" font-family="Segoe UI, Arial, sans-serif" font-size="15" font-weight="600" fill="#444444">6.89x [1078ns]</text>
  <text x="289" y="2611" text-anchor="end" font-family="Segoe UI, Arial, sans-serif" font-size="18" fill="#222222">erf</text>
  <rect x="301" y="2593" width="781.08" height="24" rx="2" ry="2" fill="#89d88a"/>
  <text x="1092.08" y="2610.5" text-anchor="start" font-family="Segoe UI, Arial, sans-serif" font-size="15" font-weight="600" fill="#444444">6.62x [909ns]</text>
</svg>
