<?xml version="1.0" encoding="UTF-8"?>
<svg xmlns="http://www.w3.org/2000/svg" width="977" height="2656" viewBox="0 0 977 2656">
  <rect x="0" y="0" width="977" height="2656" fill="#f2f2f2"/>
  <text x="488" y="38" text-anchor="middle" font-family="Segoe UI, Arial, sans-serif" font-size="28" font-weight="600" fill="#222222">f256 vs MPFR typical benchmark ratios</text>
  <line x1="253" y1="82" x2="253" y2="2638" stroke="#dddddd" stroke-width="1"/>
  <line x1="336.333" y1="82" x2="336.333" y2="2638" stroke="#dddddd" stroke-width="1"/>
  <line x1="419.667" y1="82" x2="419.667" y2="2638" stroke="#dddddd" stroke-width="1"/>
  <line x1="503" y1="82" x2="503" y2="2638" stroke="#dddddd" stroke-width="1"/>
  <line x1="586.333" y1="82" x2="586.333" y2="2638" stroke="#dddddd" stroke-width="1"/>
  <line x1="669.667" y1="82" x2="669.667" y2="2638" stroke="#dddddd" stroke-width="1"/>
  <line x1="753" y1="82" x2="753" y2="2638" stroke="#dddddd" stroke-width="1"/>
  <line x1="336.333" y1="82" x2="336.333" y2="2638" stroke="#6da7d9" stroke-width="2" stroke-dasharray="6,6"/>
  <text x="245" y="104" text-anchor="end" font-family="Segoe UI, Arial, sans-serif" font-size="20" font-weight="700" fill="#1f1f1f">Arithmetic</text>
  <text x="241" y="137" text-anchor="end" font-family="Segoe UI, Arial, sans-serif" font-size="18" fill="#222222">subtract</text>
  <rect x="253" y="119" width="216.01" height="24" rx="2" ry="2" fill="#89d88a"/>
  <text x="479.01" y="136.5" text-anchor="start" font-family="Segoe UI, Arial, sans-serif" font-size="15" font-weight="600" fill="#444444">2.59x [49ns]</text>
  <text x="241" y="171" text-anchor="end" font-family="Segoe UI, Arial, sans-serif" font-size="18" fill="#222222">add</text>
  <rect x="253" y="153" width="212.371" height="24" rx="2" ry="2" fill="#89d88a"/>
  <text x="475.371" y="170.5" text-anchor="start" font-family="Segoe UI, Arial, sans-serif" font-size="15" font-weight="600" fill="#444444">2.55x [52ns]</text>
  <text x="241" y="205" text-anchor="end" font-family="Segoe UI, Arial, sans-serif" font-size="18" fill="#222222">multiply</text>
  <rect x="253" y="187" width="189.755" height="24" rx="2" ry="2" fill="#89d88a"/>
  <text x="452.755" y="204.5" text-anchor="start" font-family="Segoe UI, Arial, sans-serif" font-size="15" font-weight="600" fill="#444444">2.28x [54ns]</text>
  <text x="241" y="239" text-anchor="end" font-family="Segoe UI, Arial, sans-serif" font-size="18" fill="#222222">divide</text>
  <rect x="253" y="221" width="141.962" height="24" rx="2" ry="2" fill="#89d88a"/>
  <text x="404.962" y="238.5" text-anchor="start" font-family="Segoe UI, Arial, sans-serif" font-size="15" font-weight="600" fill="#444444">1.70x [103ns]</text>
  <text x="241" y="273" text-anchor="end" font-family="Segoe UI, Arial, sans-serif" font-size="18" fill="#222222">mixed recurrence</text>
  <rect x="253" y="255" width="105.036" height="24" rx="2" ry="2" fill="#89d88a"/>
  <text x="368.036" y="272.5" text-anchor="start" font-family="Segoe UI, Arial, sans-serif" font-size="15" font-weight="600" fill="#444444">1.26x [360ns]</text>
  <line x1="245" y1="284" x2="753" y2="284" stroke="#cfcfcf" stroke-width="1"/>
  <text x="245" y="314" text-anchor="end" font-family="Segoe UI, Arial, sans-serif" font-size="20" font-weight="700" fill="#1f1f1f">Rounding</text>
  <text x="241" y="347" text-anchor="end" font-family="Segoe UI, Arial, sans-serif" font-size="18" fill="#222222">nearbyint</text>
  <rect x="253" y="329" width="500" height="24" rx="2" ry="2" fill="#89d88a"/>
  <polygon points="753,329 771,341 753,353" fill="#89d88a"/>
  <text x="779" y="346.5" text-anchor="start" font-family="Segoe UI, Arial, sans-serif" font-size="15" font-weight="600" fill="#444444">9.19x [66ns]</text>
  <text x="241" y="381" text-anchor="end" font-family="Segoe UI, Arial, sans-serif" font-size="18" fill="#222222">rint</text>
  <rect x="253" y="363" width="500" height="24" rx="2" ry="2" fill="#89d88a"/>
  <polygon points="753,363 771,375 753,387" fill="#89d88a"/>
  <text x="779" y="380.5" text-anchor="start" font-family="Segoe UI, Arial, sans-serif" font-size="15" font-weight="600" fill="#444444">8.74x [63ns]</text>
  <text x="241" y="415" text-anchor="end" font-family="Segoe UI, Arial, sans-serif" font-size="18" fill="#222222">trunc</text>
  <rect x="253" y="397" width="282.977" height="24" rx="2" ry="2" fill="#89d88a"/>
  <text x="545.977" y="414.5" text-anchor="start" font-family="Segoe UI, Arial, sans-serif" font-size="15" font-weight="600" fill="#444444">3.40x [57ns]</text>
  <text x="241" y="449" text-anchor="end" font-family="Segoe UI, Arial, sans-serif" font-size="18" fill="#222222">floor</text>
  <rect x="253" y="431" width="227.158" height="24" rx="2" ry="2" fill="#89d88a"/>
  <text x="490.158" y="448.5" text-anchor="start" font-family="Segoe UI, Arial, sans-serif" font-size="15" font-weight="600" fill="#444444">2.73x [47ns]</text>
  <text x="241" y="483" text-anchor="end" font-family="Segoe UI, Arial, sans-serif" font-size="18" fill="#222222">ceil</text>
  <rect x="253" y="465" width="226.58" height="24" rx="2" ry="2" fill="#89d88a"/>
  <text x="489.58" y="482.5" text-anchor="start" font-family="Segoe UI, Arial, sans-serif" font-size="15" font-weight="600" fill="#444444">2.72x [47ns]</text>
  <text x="241" y="517" text-anchor="end" font-family="Segoe UI, Arial, sans-serif" font-size="18" fill="#222222">llround</text>
  <rect x="253" y="499" width="225.974" height="24" rx="2" ry="2" fill="#89d88a"/>
  <text x="488.974" y="516.5" text-anchor="start" font-family="Segoe UI, Arial, sans-serif" font-size="15" font-weight="600" fill="#444444">2.71x [104ns]</text>
  <text x="241" y="551" text-anchor="end" font-family="Segoe UI, Arial, sans-serif" font-size="18" fill="#222222">llrint</text>
  <rect x="253" y="533" width="195.584" height="24" rx="2" ry="2" fill="#89d88a"/>
  <text x="458.584" y="550.5" text-anchor="start" font-family="Segoe UI, Arial, sans-serif" font-size="15" font-weight="600" fill="#444444">2.35x [89ns]</text>
  <text x="241" y="585" text-anchor="end" font-family="Segoe UI, Arial, sans-serif" font-size="18" fill="#222222">round</text>
  <rect x="253" y="567" width="180.254" height="24" rx="2" ry="2" fill="#89d88a"/>
  <text x="443.254" y="584.5" text-anchor="start" font-family="Segoe UI, Arial, sans-serif" font-size="15" font-weight="600" fill="#444444">2.16x [84ns]</text>
  <text x="241" y="619" text-anchor="end" font-family="Segoe UI, Arial, sans-serif" font-size="18" fill="#222222">lround</text>
  <rect x="253" y="601" width="121.061" height="24" rx="2" ry="2" fill="#89d88a"/>
  <text x="384.061" y="618.5" text-anchor="start" font-family="Segoe UI, Arial, sans-serif" font-size="15" font-weight="600" fill="#444444">1.45x [105ns]</text>
  <text x="241" y="653" text-anchor="end" font-family="Segoe UI, Arial, sans-serif" font-size="18" fill="#222222">lrint</text>
  <rect x="253" y="635" width="115.24" height="24" rx="2" ry="2" fill="#89d88a"/>
  <text x="378.24" y="652.5" text-anchor="start" font-family="Segoe UI, Arial, sans-serif" font-size="15" font-weight="600" fill="#444444">1.38x [89ns]</text>
  <line x1="245" y1="664" x2="753" y2="664" stroke="#cfcfcf" stroke-width="1"/>
  <text x="245" y="694" text-anchor="end" font-family="Segoe UI, Arial, sans-serif" font-size="20" font-weight="700" fill="#1f1f1f">Remainders</text>
  <text x="241" y="727" text-anchor="end" font-family="Segoe UI, Arial, sans-serif" font-size="18" fill="#222222">remainder</text>
  <rect x="253" y="709" width="340.235" height="24" rx="2" ry="2" fill="#89d88a"/>
  <text x="603.235" y="726.5" text-anchor="start" font-family="Segoe UI, Arial, sans-serif" font-size="15" font-weight="600" fill="#444444">4.08x [219ns]</text>
  <text x="241" y="761" text-anchor="end" font-family="Segoe UI, Arial, sans-serif" font-size="18" fill="#222222">remquo</text>
  <rect x="253" y="743" width="201.738" height="24" rx="2" ry="2" fill="#89d88a"/>
  <text x="464.738" y="760.5" text-anchor="start" font-family="Segoe UI, Arial, sans-serif" font-size="15" font-weight="600" fill="#444444">2.42x [182ns]</text>
  <text x="241" y="795" text-anchor="end" font-family="Segoe UI, Arial, sans-serif" font-size="18" fill="#222222">fmod</text>
  <rect x="253" y="777" width="162.708" height="24" rx="2" ry="2" fill="#89d88a"/>
  <text x="425.708" y="794.5" text-anchor="start" font-family="Segoe UI, Arial, sans-serif" font-size="15" font-weight="600" fill="#444444">1.95x [155ns]</text>
  <line x1="245" y1="806" x2="753" y2="806" stroke="#cfcfcf" stroke-width="1"/>
  <text x="245" y="836" text-anchor="end" font-family="Segoe UI, Arial, sans-serif" font-size="20" font-weight="700" fill="#1f1f1f">Floating-point utilities</text>
  <text x="241" y="869" text-anchor="end" font-family="Segoe UI, Arial, sans-serif" font-size="18" fill="#222222">nexttoward(type)</text>
  <rect x="253" y="851" width="500" height="24" rx="2" ry="2" fill="#89d88a"/>
  <polygon points="753,851 771,863 753,875" fill="#89d88a"/>
  <text x="779" y="868.5" text-anchor="start" font-family="Segoe UI, Arial, sans-serif" font-size="15" font-weight="600" fill="#444444">14.71x [47ns]</text>
  <text x="241" y="903" text-anchor="end" font-family="Segoe UI, Arial, sans-serif" font-size="18" fill="#222222">nextafter</text>
  <rect x="253" y="885" width="500" height="24" rx="2" ry="2" fill="#89d88a"/>
  <polygon points="753,885 771,897 753,909" fill="#89d88a"/>
  <text x="779" y="902.5" text-anchor="start" font-family="Segoe UI, Arial, sans-serif" font-size="15" font-weight="600" fill="#444444">13.85x [50ns]</text>
  <text x="241" y="937" text-anchor="end" font-family="Segoe UI, Arial, sans-serif" font-size="18" fill="#222222">nexttoward(long double)</text>
  <rect x="253" y="919" width="500" height="24" rx="2" ry="2" fill="#89d88a"/>
  <polygon points="753,919 771,931 753,943" fill="#89d88a"/>
  <text x="779" y="936.5" text-anchor="start" font-family="Segoe UI, Arial, sans-serif" font-size="15" font-weight="600" fill="#444444">13.65x [47ns]</text>
  <text x="241" y="971" text-anchor="end" font-family="Segoe UI, Arial, sans-serif" font-size="18" fill="#222222">modf</text>
  <rect x="253" y="953" width="308.964" height="24" rx="2" ry="2" fill="#89d88a"/>
  <text x="571.964" y="970.5" text-anchor="start" font-family="Segoe UI, Arial, sans-serif" font-size="15" font-weight="600" fill="#444444">3.71x [95ns]</text>
  <text x="241" y="1005" text-anchor="end" font-family="Segoe UI, Arial, sans-serif" font-size="18" fill="#222222">copysign</text>
  <rect x="253" y="987" width="283.705" height="24" rx="2" ry="2" fill="#89d88a"/>
  <text x="546.705" y="1004.5" text-anchor="start" font-family="Segoe UI, Arial, sans-serif" font-size="15" font-weight="600" fill="#444444">3.40x [45ns]</text>
  <text x="241" y="1039" text-anchor="end" font-family="Segoe UI, Arial, sans-serif" font-size="18" fill="#222222">fmin</text>
  <rect x="253" y="1021" width="262.47" height="24" rx="2" ry="2" fill="#89d88a"/>
  <text x="525.47" y="1038.5" text-anchor="start" font-family="Segoe UI, Arial, sans-serif" font-size="15" font-weight="600" fill="#444444">3.15x [47ns]</text>
  <text x="241" y="1073" text-anchor="end" font-family="Segoe UI, Arial, sans-serif" font-size="18" fill="#222222">logb</text>
  <rect x="253" y="1055" width="260.825" height="24" rx="2" ry="2" fill="#89d88a"/>
  <text x="523.825" y="1072.5" text-anchor="start" font-family="Segoe UI, Arial, sans-serif" font-size="15" font-weight="600" fill="#444444">3.13x [58ns]</text>
  <text x="241" y="1107" text-anchor="end" font-family="Segoe UI, Arial, sans-serif" font-size="18" fill="#222222">fdim</text>
  <rect x="253" y="1089" width="259.037" height="24" rx="2" ry="2" fill="#89d88a"/>
  <text x="522.037" y="1106.5" text-anchor="start" font-family="Segoe UI, Arial, sans-serif" font-size="15" font-weight="600" fill="#444444">3.11x [46ns]</text>
  <text x="241" y="1141" text-anchor="end" font-family="Segoe UI, Arial, sans-serif" font-size="18" fill="#222222">fmax</text>
  <rect x="253" y="1123" width="258.67" height="24" rx="2" ry="2" fill="#89d88a"/>
  <text x="521.67" y="1140.5" text-anchor="start" font-family="Segoe UI, Arial, sans-serif" font-size="15" font-weight="600" fill="#444444">3.10x [46ns]</text>
  <text x="241" y="1175" text-anchor="end" font-family="Segoe UI, Arial, sans-serif" font-size="18" fill="#222222">frexp</text>
  <rect x="253" y="1157" width="248.048" height="24" rx="2" ry="2" fill="#89d88a"/>
  <text x="511.048" y="1174.5" text-anchor="start" font-family="Segoe UI, Arial, sans-serif" font-size="15" font-weight="600" fill="#444444">2.98x [58ns]</text>
  <text x="241" y="1209" text-anchor="end" font-family="Segoe UI, Arial, sans-serif" font-size="18" fill="#222222">scalbn</text>
  <rect x="253" y="1191" width="246.159" height="24" rx="2" ry="2" fill="#89d88a"/>
  <text x="509.159" y="1208.5" text-anchor="start" font-family="Segoe UI, Arial, sans-serif" font-size="15" font-weight="600" fill="#444444">2.95x [48ns]</text>
  <text x="241" y="1243" text-anchor="end" font-family="Segoe UI, Arial, sans-serif" font-size="18" fill="#222222">ldexp</text>
  <rect x="253" y="1225" width="233.719" height="24" rx="2" ry="2" fill="#89d88a"/>
  <text x="496.719" y="1242.5" text-anchor="start" font-family="Segoe UI, Arial, sans-serif" font-size="15" font-weight="600" fill="#444444">2.80x [46ns]</text>
  <text x="241" y="1277" text-anchor="end" font-family="Segoe UI, Arial, sans-serif" font-size="18" fill="#222222">scalbln</text>
  <rect x="253" y="1259" width="229.198" height="24" rx="2" ry="2" fill="#89d88a"/>
  <text x="492.198" y="1276.5" text-anchor="start" font-family="Segoe UI, Arial, sans-serif" font-size="15" font-weight="600" fill="#444444">2.75x [50ns]</text>
  <text x="241" y="1311" text-anchor="end" font-family="Segoe UI, Arial, sans-serif" font-size="18" fill="#222222">abs</text>
  <rect x="253" y="1293" width="224.275" height="24" rx="2" ry="2" fill="#89d88a"/>
  <text x="487.275" y="1310.5" text-anchor="start" font-family="Segoe UI, Arial, sans-serif" font-size="15" font-weight="600" fill="#444444">2.69x [45ns]</text>
  <text x="241" y="1345" text-anchor="end" font-family="Segoe UI, Arial, sans-serif" font-size="18" fill="#222222">fma</text>
  <rect x="253" y="1327" width="185.765" height="24" rx="2" ry="2" fill="#89d88a"/>
  <text x="448.765" y="1344.5" text-anchor="start" font-family="Segoe UI, Arial, sans-serif" font-size="15" font-weight="600" fill="#444444">2.23x [86ns]</text>
  <text x="241" y="1379" text-anchor="end" font-family="Segoe UI, Arial, sans-serif" font-size="18" fill="#222222">ilogb</text>
  <rect x="253" y="1361" width="162.82" height="24" rx="2" ry="2" fill="#89d88a"/>
  <text x="425.82" y="1378.5" text-anchor="start" font-family="Segoe UI, Arial, sans-serif" font-size="15" font-weight="600" fill="#444444">1.95x [17ns]</text>
  <line x1="245" y1="1390" x2="753" y2="1390" stroke="#cfcfcf" stroke-width="1"/>
  <text x="245" y="1420" text-anchor="end" font-family="Segoe UI, Arial, sans-serif" font-size="20" font-weight="700" fill="#1f1f1f">Roots &amp; powers</text>
  <text x="241" y="1453" text-anchor="end" font-family="Segoe UI, Arial, sans-serif" font-size="18" fill="#222222">pow</text>
  <rect x="253" y="1435" width="112.269" height="24" rx="2" ry="2" fill="#89d88a"/>
  <text x="375.269" y="1452.5" text-anchor="start" font-family="Segoe UI, Arial, sans-serif" font-size="15" font-weight="600" fill="#444444">1.35x [3437ns]</text>
  <text x="241" y="1487" text-anchor="end" font-family="Segoe UI, Arial, sans-serif" font-size="18" fill="#222222">hypot</text>
  <rect x="253" y="1469" width="98.4247" height="24" rx="2" ry="2" fill="#89d88a"/>
  <text x="361.425" y="1486.5" text-anchor="start" font-family="Segoe UI, Arial, sans-serif" font-size="15" font-weight="600" fill="#444444">1.18x [272ns]</text>
  <text x="241" y="1521" text-anchor="end" font-family="Segoe UI, Arial, sans-serif" font-size="18" fill="#222222">cbrt</text>
  <rect x="253" y="1503" width="93.8255" height="24" rx="2" ry="2" fill="#89d88a"/>
  <text x="356.826" y="1520.5" text-anchor="start" font-family="Segoe UI, Arial, sans-serif" font-size="15" font-weight="600" fill="#444444">1.13x [486ns]</text>
  <text x="241" y="1555" text-anchor="end" font-family="Segoe UI, Arial, sans-serif" font-size="18" fill="#222222">sqrt</text>
  <rect x="253" y="1537" width="93.209" height="24" rx="2" ry="2" fill="#89d88a"/>
  <text x="356.209" y="1554.5" text-anchor="start" font-family="Segoe UI, Arial, sans-serif" font-size="15" font-weight="600" fill="#444444">1.12x [225ns]</text>
  <line x1="245" y1="1566" x2="753" y2="1566" stroke="#cfcfcf" stroke-width="1"/>
  <text x="245" y="1596" text-anchor="end" font-family="Segoe UI, Arial, sans-serif" font-size="20" font-weight="700" fill="#1f1f1f">Exponentials</text>
  <text x="241" y="1629" text-anchor="end" font-family="Segoe UI, Arial, sans-serif" font-size="18" fill="#222222">exp2</text>
  <rect x="253" y="1611" width="124.543" height="24" rx="2" ry="2" fill="#89d88a"/>
  <text x="387.543" y="1628.5" text-anchor="start" font-family="Segoe UI, Arial, sans-serif" font-size="15" font-weight="600" fill="#444444">1.49x [1087ns]</text>
  <text x="241" y="1663" text-anchor="end" font-family="Segoe UI, Arial, sans-serif" font-size="18" fill="#222222">exp</text>
  <rect x="253" y="1645" width="118.565" height="24" rx="2" ry="2" fill="#89d88a"/>
  <text x="381.565" y="1662.5" text-anchor="start" font-family="Segoe UI, Arial, sans-serif" font-size="15" font-weight="600" fill="#444444">1.42x [1049ns]</text>
  <text x="241" y="1697" text-anchor="end" font-family="Segoe UI, Arial, sans-serif" font-size="18" fill="#222222">expm1</text>
  <rect x="253" y="1679" width="98.3898" height="24" rx="2" ry="2" fill="#89d88a"/>
  <text x="361.39" y="1696.5" text-anchor="start" font-family="Segoe UI, Arial, sans-serif" font-size="15" font-weight="600" fill="#444444">1.18x [1329ns]</text>
  <line x1="245" y1="1708" x2="753" y2="1708" stroke="#cfcfcf" stroke-width="1"/>
  <text x="245" y="1738" text-anchor="end" font-family="Segoe UI, Arial, sans-serif" font-size="20" font-weight="700" fill="#1f1f1f">Logarithms</text>
  <text x="241" y="1771" text-anchor="end" font-family="Segoe UI, Arial, sans-serif" font-size="18" fill="#222222">log10</text>
  <rect x="253" y="1753" width="176.542" height="24" rx="2" ry="2" fill="#89d88a"/>
  <text x="439.542" y="1770.5" text-anchor="start" font-family="Segoe UI, Arial, sans-serif" font-size="15" font-weight="600" fill="#444444">2.12x [2442ns]</text>
  <text x="241" y="1805" text-anchor="end" font-family="Segoe UI, Arial, sans-serif" font-size="18" fill="#222222">log2</text>
  <rect x="253" y="1787" width="107.579" height="24" rx="2" ry="2" fill="#89d88a"/>
  <text x="370.579" y="1804.5" text-anchor="start" font-family="Segoe UI, Arial, sans-serif" font-size="15" font-weight="600" fill="#444444">1.29x [2399ns]</text>
  <text x="241" y="1839" text-anchor="end" font-family="Segoe UI, Arial, sans-serif" font-size="18" fill="#222222">log</text>
  <rect x="253" y="1821" width="98.091" height="24" rx="2" ry="2" fill="#89d88a"/>
  <text x="361.091" y="1838.5" text-anchor="start" font-family="Segoe UI, Arial, sans-serif" font-size="15" font-weight="600" fill="#444444">1.18x [2365ns]</text>
  <text x="241" y="1873" text-anchor="end" font-family="Segoe UI, Arial, sans-serif" font-size="18" fill="#222222">log1p</text>
  <rect x="253" y="1855" width="97.5774" height="24" rx="2" ry="2" fill="#89d88a"/>
  <text x="360.577" y="1872.5" text-anchor="start" font-family="Segoe UI, Arial, sans-serif" font-size="15" font-weight="600" fill="#444444">1.17x [2562ns]</text>
  <line x1="245" y1="1884" x2="753" y2="1884" stroke="#cfcfcf" stroke-width="1"/>
  <text x="245" y="1914" text-anchor="end" font-family="Segoe UI, Arial, sans-serif" font-size="20" font-weight="700" fill="#1f1f1f">Trigonometric</text>
  <text x="241" y="1947" text-anchor="end" font-family="Segoe UI, Arial, sans-serif" font-size="18" fill="#222222">atan2</text>
  <rect x="253" y="1929" width="215.062" height="24" rx="2" ry="2" fill="#89d88a"/>
  <text x="478.062" y="1946.5" text-anchor="start" font-family="Segoe UI, Arial, sans-serif" font-size="15" font-weight="600" fill="#444444">2.58x [855ns]</text>
  <text x="241" y="1981" text-anchor="end" font-family="Segoe UI, Arial, sans-serif" font-size="18" fill="#222222">sin</text>
  <rect x="253" y="1963" width="154.258" height="24" rx="2" ry="2" fill="#89d88a"/>
  <text x="417.258" y="1980.5" text-anchor="start" font-family="Segoe UI, Arial, sans-serif" font-size="15" font-weight="600" fill="#444444">1.85x [1074ns]</text>
  <text x="241" y="2015" text-anchor="end" font-family="Segoe UI, Arial, sans-serif" font-size="18" fill="#222222">acos</text>
  <rect x="253" y="1997" width="133.623" height="24" rx="2" ry="2" fill="#89d88a"/>
  <text x="396.623" y="2014.5" text-anchor="start" font-family="Segoe UI, Arial, sans-serif" font-size="15" font-weight="600" fill="#444444">1.60x [3923ns]</text>
  <text x="241" y="2049" text-anchor="end" font-family="Segoe UI, Arial, sans-serif" font-size="18" fill="#222222">asin</text>
  <rect x="253" y="2031" width="125.215" height="24" rx="2" ry="2" fill="#89d88a"/>
  <text x="388.215" y="2048.5" text-anchor="start" font-family="Segoe UI, Arial, sans-serif" font-size="15" font-weight="600" fill="#444444">1.50x [3898ns]</text>
  <text x="241" y="2083" text-anchor="end" font-family="Segoe UI, Arial, sans-serif" font-size="18" fill="#222222">cos</text>
  <rect x="253" y="2065" width="122.094" height="24" rx="2" ry="2" fill="#89d88a"/>
  <text x="385.094" y="2082.5" text-anchor="start" font-family="Segoe UI, Arial, sans-serif" font-size="15" font-weight="600" fill="#444444">1.47x [1110ns]</text>
  <text x="241" y="2117" text-anchor="end" font-family="Segoe UI, Arial, sans-serif" font-size="18" fill="#222222">atan</text>
  <rect x="253" y="2099" width="105.976" height="24" rx="2" ry="2" fill="#89d88a"/>
  <text x="368.976" y="2116.5" text-anchor="start" font-family="Segoe UI, Arial, sans-serif" font-size="15" font-weight="600" fill="#444444">1.27x [2501ns]</text>
  <text x="241" y="2151" text-anchor="end" font-family="Segoe UI, Arial, sans-serif" font-size="18" fill="#222222">tan</text>
  <rect x="253" y="2133" width="87.2091" height="24" rx="2" ry="2" fill="#89d88a"/>
  <text x="350.209" y="2150.5" text-anchor="start" font-family="Segoe UI, Arial, sans-serif" font-size="15" font-weight="600" fill="#444444">1.05x [1837ns]</text>
  <line x1="245" y1="2162" x2="753" y2="2162" stroke="#cfcfcf" stroke-width="1"/>
  <text x="245" y="2192" text-anchor="end" font-family="Segoe UI, Arial, sans-serif" font-size="20" font-weight="700" fill="#1f1f1f">Hyperbolic</text>
  <text x="241" y="2225" text-anchor="end" font-family="Segoe UI, Arial, sans-serif" font-size="18" fill="#222222">tanh</text>
  <rect x="253" y="2207" width="119.546" height="24" rx="2" ry="2" fill="#89d88a"/>
  <text x="382.546" y="2224.5" text-anchor="start" font-family="Segoe UI, Arial, sans-serif" font-size="15" font-weight="600" fill="#444444">1.43x [1144ns]</text>
  <text x="241" y="2259" text-anchor="end" font-family="Segoe UI, Arial, sans-serif" font-size="18" fill="#222222">sinh</text>
  <rect x="253" y="2241" width="104.52" height="24" rx="2" ry="2" fill="#89d88a"/>
  <text x="367.52" y="2258.5" text-anchor="start" font-family="Segoe UI, Arial, sans-serif" font-size="15" font-weight="600" fill="#444444">1.25x [1408ns]</text>
  <text x="241" y="2293" text-anchor="end" font-family="Segoe UI, Arial, sans-serif" font-size="18" fill="#222222">cosh</text>
  <rect x="253" y="2275" width="103.594" height="24" rx="2" ry="2" fill="#89d88a"/>
  <text x="366.594" y="2292.5" text-anchor="start" font-family="Segoe UI, Arial, sans-serif" font-size="15" font-weight="600" fill="#444444">1.24x [1203ns]</text>
  <line x1="245" y1="2304" x2="753" y2="2304" stroke="#cfcfcf" stroke-width="1"/>
  <text x="245" y="2334" text-anchor="end" font-family="Segoe UI, Arial, sans-serif" font-size="20" font-weight="700" fill="#1f1f1f">Inverse hyperbolic</text>
  <text x="241" y="2367" text-anchor="end" font-family="Segoe UI, Arial, sans-serif" font-size="18" fill="#222222">asinh</text>
  <rect x="253" y="2349" width="114.914" height="24" rx="2" ry="2" fill="#89d88a"/>
  <text x="377.914" y="2366.5" text-anchor="start" font-family="Segoe UI, Arial, sans-serif" font-size="15" font-weight="600" fill="#444444">1.38x [2648ns]</text>
  <text x="241" y="2401" text-anchor="end" font-family="Segoe UI, Arial, sans-serif" font-size="18" fill="#222222">atanh</text>
  <rect x="253" y="2383" width="101.239" height="24" rx="2" ry="2" fill="#89d88a"/>
  <text x="364.239" y="2400.5" text-anchor="start" font-family="Segoe UI, Arial, sans-serif" font-size="15" font-weight="600" fill="#444444">1.21x [2462ns]</text>
  <text x="241" y="2435" text-anchor="end" font-family="Segoe UI, Arial, sans-serif" font-size="18" fill="#222222">acosh</text>
  <rect x="253" y="2417" width="100.386" height="24" rx="2" ry="2" fill="#89d88a"/>
  <text x="363.386" y="2434.5" text-anchor="start" font-family="Segoe UI, Arial, sans-serif" font-size="15" font-weight="600" fill="#444444">1.20x [2698ns]</text>
  <line x1="245" y1="2446" x2="753" y2="2446" stroke="#cfcfcf" stroke-width="1"/>
  <text x="245" y="2476" text-anchor="end" font-family="Segoe UI, Arial, sans-serif" font-size="20" font-weight="700" fill="#1f1f1f">Special functions</text>
  <text x="241" y="2509" text-anchor="end" font-family="Segoe UI, Arial, sans-serif" font-size="18" fill="#222222">erfc</text>
  <rect x="253" y="2491" width="495.659" height="24" rx="2" ry="2" fill="#89d88a"/>
  <text x="745" y="2508.5" text-anchor="start" font-family="Segoe UI, Arial, sans-serif" font-size="15" font-weight="600" fill="#444444">5.95x [3389ns]</text>
  <text x="241" y="2543" text-anchor="end" font-family="Segoe UI, Arial, sans-serif" font-size="18" fill="#222222">erf</text>
  <rect x="253" y="2525" width="307.24" height="24" rx="2" ry="2" fill="#89d88a"/>
  <text x="570.24" y="2542.5" text-anchor="start" font-family="Segoe UI, Arial, sans-serif" font-size="15" font-weight="600" fill="#444444">3.69x [3200ns]</text>
  <text x="241" y="2577" text-anchor="end" font-family="Segoe UI, Arial, sans-serif" font-size="18" fill="#222222">tgamma</text>
  <rect x="253" y="2559" width="111.217" height="24" rx="2" ry="2" fill="#89d88a"/>
  <text x="374.217" y="2576.5" text-anchor="start" font-family="Segoe UI, Arial, sans-serif" font-size="15" font-weight="600" fill="#444444">1.33x [11747ns]</text>
  <text x="241" y="2611" text-anchor="end" font-family="Segoe UI, Arial, sans-serif" font-size="18" fill="#222222">lgamma</text>
  <rect x="253" y="2593" width="96.9086" height="24" rx="2" ry="2" fill="#89d88a"/>
  <text x="359.909" y="2610.5" text-anchor="start" font-family="Segoe UI, Arial, sans-serif" font-size="15" font-weight="600" fill="#444444">1.16x [12635ns]</text>
</svg>
