<?xml version="1.0" encoding="UTF-8"?>
<svg xmlns="http://www.w3.org/2000/svg" width="877" height="3718" viewBox="0 0 877 3718">
  <rect x="0" y="0" width="877" height="3718" fill="#f2f2f2"/>
  <text x="438" y="38" text-anchor="middle" font-family="Segoe UI, Arial, sans-serif" font-size="28" font-weight="600" fill="#222222">f256 vs MPFR typical benchmark ratios</text>
  <line x1="253" y1="82" x2="253" y2="3700" stroke="#dddddd" stroke-width="1"/>
  <line x1="353" y1="82" x2="353" y2="3700" stroke="#dddddd" stroke-width="1"/>
  <line x1="453" y1="82" x2="453" y2="3700" stroke="#dddddd" stroke-width="1"/>
  <line x1="553" y1="82" x2="553" y2="3700" stroke="#dddddd" stroke-width="1"/>
  <line x1="653" y1="82" x2="653" y2="3700" stroke="#dddddd" stroke-width="1"/>
  <line x1="353" y1="82" x2="353" y2="3700" stroke="#6da7d9" stroke-width="2" stroke-dasharray="6,6"/>
  <text x="245" y="104" text-anchor="end" font-family="Segoe UI, Arial, sans-serif" font-size="20" font-weight="700" fill="#1f1f1f">f256 &lt;-&gt; f256</text>
  <text x="241" y="137" text-anchor="end" font-family="Segoe UI, Arial, sans-serif" font-size="18" fill="#222222">add</text>
  <rect x="253" y="119" width="400" height="24" rx="2" ry="2" fill="#89d88a"/>
  <polygon points="653,119 671,131 653,143" fill="#89d88a"/>
  <text x="679" y="136.5" text-anchor="start" font-family="Segoe UI, Arial, sans-serif" font-size="15" font-weight="600" fill="#444444">7.68x [28ns]</text>
  <text x="241" y="171" text-anchor="end" font-family="Segoe UI, Arial, sans-serif" font-size="18" fill="#222222">subtract</text>
  <rect x="253" y="153" width="400" height="24" rx="2" ry="2" fill="#89d88a"/>
  <polygon points="653,153 671,165 653,177" fill="#89d88a"/>
  <text x="679" y="170.5" text-anchor="start" font-family="Segoe UI, Arial, sans-serif" font-size="15" font-weight="600" fill="#444444">7.77x [28ns]</text>
  <text x="241" y="205" text-anchor="end" font-family="Segoe UI, Arial, sans-serif" font-size="18" fill="#222222">multiply</text>
  <rect x="253" y="187" width="400" height="24" rx="2" ry="2" fill="#89d88a"/>
  <polygon points="653,187 671,199 653,211" fill="#89d88a"/>
  <text x="679" y="204.5" text-anchor="start" font-family="Segoe UI, Arial, sans-serif" font-size="15" font-weight="600" fill="#444444">6.50x [35ns]</text>
  <text x="241" y="239" text-anchor="end" font-family="Segoe UI, Arial, sans-serif" font-size="18" fill="#222222">divide</text>
  <rect x="253" y="221" width="290.308" height="24" rx="2" ry="2" fill="#89d88a"/>
  <text x="553.308" y="238.5" text-anchor="start" font-family="Segoe UI, Arial, sans-serif" font-size="15" font-weight="600" fill="#444444">2.90x [85ns]</text>
  <line x1="245" y1="250" x2="653" y2="250" stroke="#cfcfcf" stroke-width="1"/>
  <text x="245" y="280" text-anchor="end" font-family="Segoe UI, Arial, sans-serif" font-size="20" font-weight="700" fill="#1f1f1f">f256 &lt;-&gt; f128</text>
  <text x="241" y="313" text-anchor="end" font-family="Segoe UI, Arial, sans-serif" font-size="18" fill="#222222">add</text>
  <rect x="253" y="295" width="400" height="24" rx="2" ry="2" fill="#89d88a"/>
  <polygon points="653,295 671,307 653,319" fill="#89d88a"/>
  <text x="679" y="312.5" text-anchor="start" font-family="Segoe UI, Arial, sans-serif" font-size="15" font-weight="600" fill="#444444">13.84x [28ns]</text>
  <text x="241" y="347" text-anchor="end" font-family="Segoe UI, Arial, sans-serif" font-size="18" fill="#222222">subtract</text>
  <rect x="253" y="329" width="400" height="24" rx="2" ry="2" fill="#89d88a"/>
  <polygon points="653,329 671,341 653,353" fill="#89d88a"/>
  <text x="679" y="346.5" text-anchor="start" font-family="Segoe UI, Arial, sans-serif" font-size="15" font-weight="600" fill="#444444">13.24x [29ns]</text>
  <text x="241" y="381" text-anchor="end" font-family="Segoe UI, Arial, sans-serif" font-size="18" fill="#222222">multiply</text>
  <rect x="253" y="363" width="400" height="24" rx="2" ry="2" fill="#89d88a"/>
  <polygon points="653,363 671,375 653,387" fill="#89d88a"/>
  <text x="679" y="380.5" text-anchor="start" font-family="Segoe UI, Arial, sans-serif" font-size="15" font-weight="600" fill="#444444">11.16x [36ns]</text>
  <text x="241" y="415" text-anchor="end" font-family="Segoe UI, Arial, sans-serif" font-size="18" fill="#222222">divide</text>
  <rect x="253" y="397" width="400" height="24" rx="2" ry="2" fill="#89d88a"/>
  <polygon points="653,397 671,409 653,421" fill="#89d88a"/>
  <text x="679" y="414.5" text-anchor="start" font-family="Segoe UI, Arial, sans-serif" font-size="15" font-weight="600" fill="#444444">5.32x [82ns]</text>
  <line x1="245" y1="426" x2="653" y2="426" stroke="#cfcfcf" stroke-width="1"/>
  <text x="245" y="456" text-anchor="end" font-family="Segoe UI, Arial, sans-serif" font-size="20" font-weight="700" fill="#1f1f1f">f256 &lt;-&gt; f64</text>
  <text x="241" y="489" text-anchor="end" font-family="Segoe UI, Arial, sans-serif" font-size="18" fill="#222222">add</text>
  <rect x="253" y="471" width="400" height="24" rx="2" ry="2" fill="#89d88a"/>
  <polygon points="653,471 671,483 653,495" fill="#89d88a"/>
  <text x="679" y="488.5" text-anchor="start" font-family="Segoe UI, Arial, sans-serif" font-size="15" font-weight="600" fill="#444444">11.39x [26ns]</text>
  <text x="241" y="523" text-anchor="end" font-family="Segoe UI, Arial, sans-serif" font-size="18" fill="#222222">subtract</text>
  <rect x="253" y="505" width="400" height="24" rx="2" ry="2" fill="#89d88a"/>
  <polygon points="653,505 671,517 653,529" fill="#89d88a"/>
  <text x="679" y="522.5" text-anchor="start" font-family="Segoe UI, Arial, sans-serif" font-size="15" font-weight="600" fill="#444444">12.32x [26ns]</text>
  <text x="241" y="557" text-anchor="end" font-family="Segoe UI, Arial, sans-serif" font-size="18" fill="#222222">multiply</text>
  <rect x="253" y="539" width="400" height="24" rx="2" ry="2" fill="#89d88a"/>
  <polygon points="653,539 671,551 653,563" fill="#89d88a"/>
  <text x="679" y="556.5" text-anchor="start" font-family="Segoe UI, Arial, sans-serif" font-size="15" font-weight="600" fill="#444444">8.21x [42ns]</text>
  <text x="241" y="591" text-anchor="end" font-family="Segoe UI, Arial, sans-serif" font-size="18" fill="#222222">divide</text>
  <rect x="253" y="573" width="400" height="24" rx="2" ry="2" fill="#89d88a"/>
  <polygon points="653,573 671,585 653,597" fill="#89d88a"/>
  <text x="679" y="590.5" text-anchor="start" font-family="Segoe UI, Arial, sans-serif" font-size="15" font-weight="600" fill="#444444">4.19x [81ns]</text>
  <line x1="245" y1="602" x2="653" y2="602" stroke="#cfcfcf" stroke-width="1"/>
  <text x="245" y="632" text-anchor="end" font-family="Segoe UI, Arial, sans-serif" font-size="20" font-weight="700" fill="#1f1f1f">f256 &lt;-&gt; f32</text>
  <text x="241" y="665" text-anchor="end" font-family="Segoe UI, Arial, sans-serif" font-size="18" fill="#222222">add</text>
  <rect x="253" y="647" width="400" height="24" rx="2" ry="2" fill="#89d88a"/>
  <polygon points="653,647 671,659 653,671" fill="#89d88a"/>
  <text x="679" y="664.5" text-anchor="start" font-family="Segoe UI, Arial, sans-serif" font-size="15" font-weight="600" fill="#444444">11.26x [26ns]</text>
  <text x="241" y="699" text-anchor="end" font-family="Segoe UI, Arial, sans-serif" font-size="18" fill="#222222">subtract</text>
  <rect x="253" y="681" width="400" height="24" rx="2" ry="2" fill="#89d88a"/>
  <polygon points="653,681 671,693 653,705" fill="#89d88a"/>
  <text x="679" y="698.5" text-anchor="start" font-family="Segoe UI, Arial, sans-serif" font-size="15" font-weight="600" fill="#444444">11.45x [26ns]</text>
  <text x="241" y="733" text-anchor="end" font-family="Segoe UI, Arial, sans-serif" font-size="18" fill="#222222">multiply</text>
  <rect x="253" y="715" width="400" height="24" rx="2" ry="2" fill="#89d88a"/>
  <polygon points="653,715 671,727 653,739" fill="#89d88a"/>
  <text x="679" y="732.5" text-anchor="start" font-family="Segoe UI, Arial, sans-serif" font-size="15" font-weight="600" fill="#444444">7.60x [42ns]</text>
  <text x="241" y="767" text-anchor="end" font-family="Segoe UI, Arial, sans-serif" font-size="18" fill="#222222">divide</text>
  <rect x="253" y="749" width="400" height="24" rx="2" ry="2" fill="#89d88a"/>
  <polygon points="653,749 671,761 653,773" fill="#89d88a"/>
  <text x="679" y="766.5" text-anchor="start" font-family="Segoe UI, Arial, sans-serif" font-size="15" font-weight="600" fill="#444444">4.41x [82ns]</text>
  <line x1="245" y1="778" x2="653" y2="778" stroke="#cfcfcf" stroke-width="1"/>
  <text x="245" y="808" text-anchor="end" font-family="Segoe UI, Arial, sans-serif" font-size="20" font-weight="700" fill="#1f1f1f">f256 &lt;-&gt; i64</text>
  <text x="241" y="841" text-anchor="end" font-family="Segoe UI, Arial, sans-serif" font-size="18" fill="#222222">add</text>
  <rect x="253" y="823" width="400" height="24" rx="2" ry="2" fill="#89d88a"/>
  <polygon points="653,823 671,835 653,847" fill="#89d88a"/>
  <text x="679" y="840.5" text-anchor="start" font-family="Segoe UI, Arial, sans-serif" font-size="15" font-weight="600" fill="#444444">9.03x [32ns]</text>
  <text x="241" y="875" text-anchor="end" font-family="Segoe UI, Arial, sans-serif" font-size="18" fill="#222222">subtract</text>
  <rect x="253" y="857" width="400" height="24" rx="2" ry="2" fill="#89d88a"/>
  <polygon points="653,857 671,869 653,881" fill="#89d88a"/>
  <text x="679" y="874.5" text-anchor="start" font-family="Segoe UI, Arial, sans-serif" font-size="15" font-weight="600" fill="#444444">9.59x [31ns]</text>
  <text x="241" y="909" text-anchor="end" font-family="Segoe UI, Arial, sans-serif" font-size="18" fill="#222222">multiply</text>
  <rect x="253" y="891" width="400" height="24" rx="2" ry="2" fill="#89d88a"/>
  <polygon points="653,891 671,903 653,915" fill="#89d88a"/>
  <text x="679" y="908.5" text-anchor="start" font-family="Segoe UI, Arial, sans-serif" font-size="15" font-weight="600" fill="#444444">8.22x [37ns]</text>
  <text x="241" y="943" text-anchor="end" font-family="Segoe UI, Arial, sans-serif" font-size="18" fill="#222222">divide</text>
  <rect x="253" y="925" width="400" height="24" rx="2" ry="2" fill="#89d88a"/>
  <polygon points="653,925 671,937 653,949" fill="#89d88a"/>
  <text x="679" y="942.5" text-anchor="start" font-family="Segoe UI, Arial, sans-serif" font-size="15" font-weight="600" fill="#444444">4.22x [86ns]</text>
  <line x1="245" y1="954" x2="653" y2="954" stroke="#cfcfcf" stroke-width="1"/>
  <text x="245" y="984" text-anchor="end" font-family="Segoe UI, Arial, sans-serif" font-size="20" font-weight="700" fill="#1f1f1f">f256 &lt;-&gt; i32</text>
  <text x="241" y="1017" text-anchor="end" font-family="Segoe UI, Arial, sans-serif" font-size="18" fill="#222222">add</text>
  <rect x="253" y="999" width="400" height="24" rx="2" ry="2" fill="#89d88a"/>
  <polygon points="653,999 671,1011 653,1023" fill="#89d88a"/>
  <text x="679" y="1016.5" text-anchor="start" font-family="Segoe UI, Arial, sans-serif" font-size="15" font-weight="600" fill="#444444">11.21x [26ns]</text>
  <text x="241" y="1051" text-anchor="end" font-family="Segoe UI, Arial, sans-serif" font-size="18" fill="#222222">subtract</text>
  <rect x="253" y="1033" width="400" height="24" rx="2" ry="2" fill="#89d88a"/>
  <polygon points="653,1033 671,1045 653,1057" fill="#89d88a"/>
  <text x="679" y="1050.5" text-anchor="start" font-family="Segoe UI, Arial, sans-serif" font-size="15" font-weight="600" fill="#444444">11.50x [26ns]</text>
  <text x="241" y="1085" text-anchor="end" font-family="Segoe UI, Arial, sans-serif" font-size="18" fill="#222222">multiply</text>
  <rect x="253" y="1067" width="400" height="24" rx="2" ry="2" fill="#89d88a"/>
  <polygon points="653,1067 671,1079 653,1091" fill="#89d88a"/>
  <text x="679" y="1084.5" text-anchor="start" font-family="Segoe UI, Arial, sans-serif" font-size="15" font-weight="600" fill="#444444">6.37x [40ns]</text>
  <text x="241" y="1119" text-anchor="end" font-family="Segoe UI, Arial, sans-serif" font-size="18" fill="#222222">divide</text>
  <rect x="253" y="1101" width="385.18" height="24" rx="2" ry="2" fill="#89d88a"/>
  <text x="645" y="1118.5" text-anchor="start" font-family="Segoe UI, Arial, sans-serif" font-size="15" font-weight="600" fill="#444444">3.85x [82ns]</text>
  <line x1="245" y1="1130" x2="653" y2="1130" stroke="#cfcfcf" stroke-width="1"/>
  <text x="245" y="1160" text-anchor="end" font-family="Segoe UI, Arial, sans-serif" font-size="20" font-weight="700" fill="#1f1f1f">Arithmetic</text>
  <text x="241" y="1193" text-anchor="end" font-family="Segoe UI, Arial, sans-serif" font-size="18" fill="#222222">mixed recurrence</text>
  <rect x="253" y="1175" width="357.54" height="24" rx="2" ry="2" fill="#89d88a"/>
  <text x="620.54" y="1192.5" text-anchor="start" font-family="Segoe UI, Arial, sans-serif" font-size="15" font-weight="600" fill="#444444">3.58x [263ns]</text>
  <text x="241" y="1227" text-anchor="end" font-family="Segoe UI, Arial, sans-serif" font-size="18" fill="#222222">fused mixed expression</text>
  <rect x="253" y="1209" width="400" height="24" rx="2" ry="2" fill="#89d88a"/>
  <polygon points="653,1209 671,1221 653,1233" fill="#89d88a"/>
  <text x="679" y="1226.5" text-anchor="start" font-family="Segoe UI, Arial, sans-serif" font-size="15" font-weight="600" fill="#444444">4.42x [307ns]</text>
  <text x="241" y="1261" text-anchor="end" font-family="Segoe UI, Arial, sans-serif" font-size="18" fill="#222222">scalar mixed recurrence</text>
  <rect x="253" y="1243" width="400" height="24" rx="2" ry="2" fill="#89d88a"/>
  <polygon points="653,1243 671,1255 653,1267" fill="#89d88a"/>
  <text x="679" y="1260.5" text-anchor="start" font-family="Segoe UI, Arial, sans-serif" font-size="15" font-weight="600" fill="#444444">4.82x [538ns]</text>
  <line x1="245" y1="1272" x2="653" y2="1272" stroke="#cfcfcf" stroke-width="1"/>
  <text x="245" y="1302" text-anchor="end" font-family="Segoe UI, Arial, sans-serif" font-size="20" font-weight="700" fill="#1f1f1f">Rounding</text>
  <text x="241" y="1335" text-anchor="end" font-family="Segoe UI, Arial, sans-serif" font-size="18" fill="#222222">floor</text>
  <rect x="253" y="1317" width="400" height="24" rx="2" ry="2" fill="#89d88a"/>
  <polygon points="653,1317 671,1329 653,1341" fill="#89d88a"/>
  <text x="679" y="1334.5" text-anchor="start" font-family="Segoe UI, Arial, sans-serif" font-size="15" font-weight="600" fill="#444444">10.77x [24ns]</text>
  <text x="241" y="1369" text-anchor="end" font-family="Segoe UI, Arial, sans-serif" font-size="18" fill="#222222">ceil</text>
  <rect x="253" y="1351" width="400" height="24" rx="2" ry="2" fill="#89d88a"/>
  <polygon points="653,1351 671,1363 653,1375" fill="#89d88a"/>
  <text x="679" y="1368.5" text-anchor="start" font-family="Segoe UI, Arial, sans-serif" font-size="15" font-weight="600" fill="#444444">10.38x [24ns]</text>
  <text x="241" y="1403" text-anchor="end" font-family="Segoe UI, Arial, sans-serif" font-size="18" fill="#222222">trunc</text>
  <rect x="253" y="1385" width="400" height="24" rx="2" ry="2" fill="#89d88a"/>
  <polygon points="653,1385 671,1397 653,1409" fill="#89d88a"/>
  <text x="679" y="1402.5" text-anchor="start" font-family="Segoe UI, Arial, sans-serif" font-size="15" font-weight="600" fill="#444444">10.60x [24ns]</text>
  <text x="241" y="1437" text-anchor="end" font-family="Segoe UI, Arial, sans-serif" font-size="18" fill="#222222">round</text>
  <rect x="253" y="1419" width="400" height="24" rx="2" ry="2" fill="#89d88a"/>
  <polygon points="653,1419 671,1431 653,1443" fill="#89d88a"/>
  <text x="679" y="1436.5" text-anchor="start" font-family="Segoe UI, Arial, sans-serif" font-size="15" font-weight="600" fill="#444444">9.22x [36ns]</text>
  <text x="241" y="1471" text-anchor="end" font-family="Segoe UI, Arial, sans-serif" font-size="18" fill="#222222">nearbyint</text>
  <rect x="253" y="1453" width="400" height="24" rx="2" ry="2" fill="#89d88a"/>
  <polygon points="653,1453 671,1465 653,1477" fill="#89d88a"/>
  <text x="679" y="1470.5" text-anchor="start" font-family="Segoe UI, Arial, sans-serif" font-size="15" font-weight="600" fill="#444444">20.92x [34ns]</text>
  <text x="241" y="1505" text-anchor="end" font-family="Segoe UI, Arial, sans-serif" font-size="18" fill="#222222">rint</text>
  <rect x="253" y="1487" width="400" height="24" rx="2" ry="2" fill="#89d88a"/>
  <polygon points="653,1487 671,1499 653,1511" fill="#89d88a"/>
  <text x="679" y="1504.5" text-anchor="start" font-family="Segoe UI, Arial, sans-serif" font-size="15" font-weight="600" fill="#444444">20.68x [34ns]</text>
  <text x="241" y="1539" text-anchor="end" font-family="Segoe UI, Arial, sans-serif" font-size="18" fill="#222222">lround</text>
  <rect x="253" y="1521" width="400" height="24" rx="2" ry="2" fill="#89d88a"/>
  <polygon points="653,1521 671,1533 653,1545" fill="#89d88a"/>
  <text x="679" y="1538.5" text-anchor="start" font-family="Segoe UI, Arial, sans-serif" font-size="15" font-weight="600" fill="#444444">35.53x [4ns]</text>
  <text x="241" y="1573" text-anchor="end" font-family="Segoe UI, Arial, sans-serif" font-size="18" fill="#222222">llround</text>
  <rect x="253" y="1555" width="400" height="24" rx="2" ry="2" fill="#89d88a"/>
  <polygon points="653,1555 671,1567 653,1579" fill="#89d88a"/>
  <text x="679" y="1572.5" text-anchor="start" font-family="Segoe UI, Arial, sans-serif" font-size="15" font-weight="600" fill="#444444">12.61x [21ns]</text>
  <text x="241" y="1607" text-anchor="end" font-family="Segoe UI, Arial, sans-serif" font-size="18" fill="#222222">lrint</text>
  <rect x="253" y="1589" width="400" height="24" rx="2" ry="2" fill="#89d88a"/>
  <polygon points="653,1589 671,1601 653,1613" fill="#89d88a"/>
  <text x="679" y="1606.5" text-anchor="start" font-family="Segoe UI, Arial, sans-serif" font-size="15" font-weight="600" fill="#444444">35.71x [5ns]</text>
  <text x="241" y="1641" text-anchor="end" font-family="Segoe UI, Arial, sans-serif" font-size="18" fill="#222222">llrint</text>
  <rect x="253" y="1623" width="400" height="24" rx="2" ry="2" fill="#89d88a"/>
  <polygon points="653,1623 671,1635 653,1647" fill="#89d88a"/>
  <text x="679" y="1640.5" text-anchor="start" font-family="Segoe UI, Arial, sans-serif" font-size="15" font-weight="600" fill="#444444">11.01x [23ns]</text>
  <line x1="245" y1="1652" x2="653" y2="1652" stroke="#cfcfcf" stroke-width="1"/>
  <text x="245" y="1682" text-anchor="end" font-family="Segoe UI, Arial, sans-serif" font-size="20" font-weight="700" fill="#1f1f1f">Remainders</text>
  <text x="241" y="1715" text-anchor="end" font-family="Segoe UI, Arial, sans-serif" font-size="18" fill="#222222">fmod</text>
  <rect x="253" y="1697" width="293.23" height="24" rx="2" ry="2" fill="#89d88a"/>
  <text x="556.23" y="1714.5" text-anchor="start" font-family="Segoe UI, Arial, sans-serif" font-size="15" font-weight="600" fill="#444444">2.93x [172ns]</text>
  <text x="241" y="1749" text-anchor="end" font-family="Segoe UI, Arial, sans-serif" font-size="18" fill="#222222">remainder</text>
  <rect x="253" y="1731" width="400" height="24" rx="2" ry="2" fill="#89d88a"/>
  <polygon points="653,1731 671,1743 653,1755" fill="#89d88a"/>
  <text x="679" y="1748.5" text-anchor="start" font-family="Segoe UI, Arial, sans-serif" font-size="15" font-weight="600" fill="#444444">6.25x [136ns]</text>
  <text x="241" y="1783" text-anchor="end" font-family="Segoe UI, Arial, sans-serif" font-size="18" fill="#222222">remquo</text>
  <rect x="253" y="1765" width="400" height="24" rx="2" ry="2" fill="#89d88a"/>
  <polygon points="653,1765 671,1777 653,1789" fill="#89d88a"/>
  <text x="679" y="1782.5" text-anchor="start" font-family="Segoe UI, Arial, sans-serif" font-size="15" font-weight="600" fill="#444444">4.67x [137ns]</text>
  <line x1="245" y1="1794" x2="653" y2="1794" stroke="#cfcfcf" stroke-width="1"/>
  <text x="245" y="1824" text-anchor="end" font-family="Segoe UI, Arial, sans-serif" font-size="20" font-weight="700" fill="#1f1f1f">Floating-point utilities</text>
  <text x="241" y="1857" text-anchor="end" font-family="Segoe UI, Arial, sans-serif" font-size="18" fill="#222222">abs</text>
  <rect x="253" y="1839" width="400" height="24" rx="2" ry="2" fill="#89d88a"/>
  <polygon points="653,1839 671,1851 653,1863" fill="#89d88a"/>
  <text x="679" y="1856.5" text-anchor="start" font-family="Segoe UI, Arial, sans-serif" font-size="15" font-weight="600" fill="#444444">10.61x [25ns]</text>
  <text x="241" y="1891" text-anchor="end" font-family="Segoe UI, Arial, sans-serif" font-size="18" fill="#222222">fma</text>
  <rect x="253" y="1873" width="400" height="24" rx="2" ry="2" fill="#89d88a"/>
  <polygon points="653,1873 671,1885 653,1897" fill="#89d88a"/>
  <text x="679" y="1890.5" text-anchor="start" font-family="Segoe UI, Arial, sans-serif" font-size="15" font-weight="600" fill="#444444">7.10x [48ns]</text>
  <text x="241" y="1925" text-anchor="end" font-family="Segoe UI, Arial, sans-serif" font-size="18" fill="#222222">fmin</text>
  <rect x="253" y="1907" width="400" height="24" rx="2" ry="2" fill="#89d88a"/>
  <polygon points="653,1907 671,1919 653,1931" fill="#89d88a"/>
  <text x="679" y="1924.5" text-anchor="start" font-family="Segoe UI, Arial, sans-serif" font-size="15" font-weight="600" fill="#444444">10.54x [25ns]</text>
  <text x="241" y="1959" text-anchor="end" font-family="Segoe UI, Arial, sans-serif" font-size="18" fill="#222222">fmax</text>
  <rect x="253" y="1941" width="400" height="24" rx="2" ry="2" fill="#89d88a"/>
  <polygon points="653,1941 671,1953 653,1965" fill="#89d88a"/>
  <text x="679" y="1958.5" text-anchor="start" font-family="Segoe UI, Arial, sans-serif" font-size="15" font-weight="600" fill="#444444">11.35x [25ns]</text>
  <text x="241" y="1993" text-anchor="end" font-family="Segoe UI, Arial, sans-serif" font-size="18" fill="#222222">fdim</text>
  <rect x="253" y="1975" width="400" height="24" rx="2" ry="2" fill="#89d88a"/>
  <polygon points="653,1975 671,1987 653,1999" fill="#89d88a"/>
  <text x="679" y="1992.5" text-anchor="start" font-family="Segoe UI, Arial, sans-serif" font-size="15" font-weight="600" fill="#444444">9.50x [28ns]</text>
  <text x="241" y="2027" text-anchor="end" font-family="Segoe UI, Arial, sans-serif" font-size="18" fill="#222222">copysign</text>
  <rect x="253" y="2009" width="400" height="24" rx="2" ry="2" fill="#89d88a"/>
  <polygon points="653,2009 671,2021 653,2033" fill="#89d88a"/>
  <text x="679" y="2026.5" text-anchor="start" font-family="Segoe UI, Arial, sans-serif" font-size="15" font-weight="600" fill="#444444">10.62x [25ns]</text>
  <text x="241" y="2061" text-anchor="end" font-family="Segoe UI, Arial, sans-serif" font-size="18" fill="#222222">ldexp</text>
  <rect x="253" y="2043" width="400" height="24" rx="2" ry="2" fill="#89d88a"/>
  <polygon points="653,2043 671,2055 653,2067" fill="#89d88a"/>
  <text x="679" y="2060.5" text-anchor="start" font-family="Segoe UI, Arial, sans-serif" font-size="15" font-weight="600" fill="#444444">8.41x [30ns]</text>
  <text x="241" y="2095" text-anchor="end" font-family="Segoe UI, Arial, sans-serif" font-size="18" fill="#222222">scalbn</text>
  <rect x="253" y="2077" width="400" height="24" rx="2" ry="2" fill="#89d88a"/>
  <polygon points="653,2077 671,2089 653,2101" fill="#89d88a"/>
  <text x="679" y="2094.5" text-anchor="start" font-family="Segoe UI, Arial, sans-serif" font-size="15" font-weight="600" fill="#444444">8.58x [30ns]</text>
  <text x="241" y="2129" text-anchor="end" font-family="Segoe UI, Arial, sans-serif" font-size="18" fill="#222222">scalbln</text>
  <rect x="253" y="2111" width="400" height="24" rx="2" ry="2" fill="#89d88a"/>
  <polygon points="653,2111 671,2123 653,2135" fill="#89d88a"/>
  <text x="679" y="2128.5" text-anchor="start" font-family="Segoe UI, Arial, sans-serif" font-size="15" font-weight="600" fill="#444444">8.27x [30ns]</text>
  <text x="241" y="2163" text-anchor="end" font-family="Segoe UI, Arial, sans-serif" font-size="18" fill="#222222">frexp</text>
  <rect x="253" y="2145" width="400" height="24" rx="2" ry="2" fill="#89d88a"/>
  <polygon points="653,2145 671,2157 653,2169" fill="#89d88a"/>
  <text x="679" y="2162.5" text-anchor="start" font-family="Segoe UI, Arial, sans-serif" font-size="15" font-weight="600" fill="#444444">6.73x [39ns]</text>
  <text x="241" y="2197" text-anchor="end" font-family="Segoe UI, Arial, sans-serif" font-size="18" fill="#222222">modf</text>
  <rect x="253" y="2179" width="400" height="24" rx="2" ry="2" fill="#89d88a"/>
  <polygon points="653,2179 671,2191 653,2203" fill="#89d88a"/>
  <text x="679" y="2196.5" text-anchor="start" font-family="Segoe UI, Arial, sans-serif" font-size="15" font-weight="600" fill="#444444">12.29x [53ns]</text>
  <text x="241" y="2231" text-anchor="end" font-family="Segoe UI, Arial, sans-serif" font-size="18" fill="#222222">ilogb</text>
  <rect x="253" y="2213" width="289.084" height="24" rx="2" ry="2" fill="#89d88a"/>
  <text x="552.084" y="2230.5" text-anchor="start" font-family="Segoe UI, Arial, sans-serif" font-size="15" font-weight="600" fill="#444444">2.89x [14ns]</text>
  <text x="241" y="2265" text-anchor="end" font-family="Segoe UI, Arial, sans-serif" font-size="18" fill="#222222">logb</text>
  <rect x="253" y="2247" width="400" height="24" rx="2" ry="2" fill="#89d88a"/>
  <polygon points="653,2247 671,2259 653,2271" fill="#89d88a"/>
  <text x="679" y="2264.5" text-anchor="start" font-family="Segoe UI, Arial, sans-serif" font-size="15" font-weight="600" fill="#444444">12.03x [25ns]</text>
  <text x="241" y="2299" text-anchor="end" font-family="Segoe UI, Arial, sans-serif" font-size="18" fill="#222222">nextafter</text>
  <rect x="253" y="2281" width="400" height="24" rx="2" ry="2" fill="#89d88a"/>
  <polygon points="653,2281 671,2293 653,2305" fill="#89d88a"/>
  <text x="679" y="2298.5" text-anchor="start" font-family="Segoe UI, Arial, sans-serif" font-size="15" font-weight="600" fill="#444444">33.11x [28ns]</text>
  <text x="241" y="2333" text-anchor="end" font-family="Segoe UI, Arial, sans-serif" font-size="18" fill="#222222">nexttoward(type)</text>
  <rect x="253" y="2315" width="400" height="24" rx="2" ry="2" fill="#89d88a"/>
  <polygon points="653,2315 671,2327 653,2339" fill="#89d88a"/>
  <text x="679" y="2332.5" text-anchor="start" font-family="Segoe UI, Arial, sans-serif" font-size="15" font-weight="600" fill="#444444">36.77x [26ns]</text>
  <text x="241" y="2367" text-anchor="end" font-family="Segoe UI, Arial, sans-serif" font-size="18" fill="#222222">nexttoward(long double)</text>
  <rect x="253" y="2349" width="400" height="24" rx="2" ry="2" fill="#89d88a"/>
  <polygon points="653,2349 671,2361 653,2373" fill="#89d88a"/>
  <text x="679" y="2366.5" text-anchor="start" font-family="Segoe UI, Arial, sans-serif" font-size="15" font-weight="600" fill="#444444">38.30x [26ns]</text>
  <line x1="245" y1="2378" x2="653" y2="2378" stroke="#cfcfcf" stroke-width="1"/>
  <text x="245" y="2408" text-anchor="end" font-family="Segoe UI, Arial, sans-serif" font-size="20" font-weight="700" fill="#1f1f1f">Roots &amp; powers</text>
  <text x="241" y="2441" text-anchor="end" font-family="Segoe UI, Arial, sans-serif" font-size="18" fill="#222222">sqrt</text>
  <rect x="253" y="2423" width="253.602" height="24" rx="2" ry="2" fill="#89d88a"/>
  <text x="516.602" y="2440.5" text-anchor="start" font-family="Segoe UI, Arial, sans-serif" font-size="15" font-weight="600" fill="#444444">2.54x [143ns]</text>
  <text x="241" y="2475" text-anchor="end" font-family="Segoe UI, Arial, sans-serif" font-size="18" fill="#222222">cbrt</text>
  <rect x="253" y="2457" width="177.891" height="24" rx="2" ry="2" fill="#89d88a"/>
  <text x="440.891" y="2474.5" text-anchor="start" font-family="Segoe UI, Arial, sans-serif" font-size="15" font-weight="600" fill="#444444">1.78x [394ns]</text>
  <text x="241" y="2509" text-anchor="end" font-family="Segoe UI, Arial, sans-serif" font-size="18" fill="#222222">hypot</text>
  <rect x="253" y="2491" width="317.554" height="24" rx="2" ry="2" fill="#89d88a"/>
  <text x="580.554" y="2508.5" text-anchor="start" font-family="Segoe UI, Arial, sans-serif" font-size="15" font-weight="600" fill="#444444">3.18x [172ns]</text>
  <text x="241" y="2543" text-anchor="end" font-family="Segoe UI, Arial, sans-serif" font-size="18" fill="#222222">pow</text>
  <rect x="253" y="2525" width="400" height="24" rx="2" ry="2" fill="#89d88a"/>
  <polygon points="653,2525 671,2537 653,2549" fill="#89d88a"/>
  <text x="679" y="2542.5" text-anchor="start" font-family="Segoe UI, Arial, sans-serif" font-size="15" font-weight="600" fill="#444444">4.45x [1181ns]</text>
  <line x1="245" y1="2554" x2="653" y2="2554" stroke="#cfcfcf" stroke-width="1"/>
  <text x="245" y="2584" text-anchor="end" font-family="Segoe UI, Arial, sans-serif" font-size="20" font-weight="700" fill="#1f1f1f">Exponentials</text>
  <text x="241" y="2617" text-anchor="end" font-family="Segoe UI, Arial, sans-serif" font-size="18" fill="#222222">exp</text>
  <rect x="253" y="2599" width="260.724" height="24" rx="2" ry="2" fill="#89d88a"/>
  <text x="523.724" y="2616.5" text-anchor="start" font-family="Segoe UI, Arial, sans-serif" font-size="15" font-weight="600" fill="#444444">2.61x [599ns]</text>
  <text x="241" y="2651" text-anchor="end" font-family="Segoe UI, Arial, sans-serif" font-size="18" fill="#222222">exp2</text>
  <rect x="253" y="2633" width="323.128" height="24" rx="2" ry="2" fill="#89d88a"/>
  <text x="586.128" y="2650.5" text-anchor="start" font-family="Segoe UI, Arial, sans-serif" font-size="15" font-weight="600" fill="#444444">3.23x [572ns]</text>
  <text x="241" y="2685" text-anchor="end" font-family="Segoe UI, Arial, sans-serif" font-size="18" fill="#222222">expm1</text>
  <rect x="253" y="2667" width="196.572" height="24" rx="2" ry="2" fill="#89d88a"/>
  <text x="459.572" y="2684.5" text-anchor="start" font-family="Segoe UI, Arial, sans-serif" font-size="15" font-weight="600" fill="#444444">1.97x [890ns]</text>
  <line x1="245" y1="2696" x2="653" y2="2696" stroke="#cfcfcf" stroke-width="1"/>
  <text x="245" y="2726" text-anchor="end" font-family="Segoe UI, Arial, sans-serif" font-size="20" font-weight="700" fill="#1f1f1f">Logarithms</text>
  <text x="241" y="2759" text-anchor="end" font-family="Segoe UI, Arial, sans-serif" font-size="18" fill="#222222">log</text>
  <rect x="253" y="2741" width="400" height="24" rx="2" ry="2" fill="#89d88a"/>
  <polygon points="653,2741 671,2753 653,2765" fill="#89d88a"/>
  <text x="679" y="2758.5" text-anchor="start" font-family="Segoe UI, Arial, sans-serif" font-size="15" font-weight="600" fill="#444444">5.66x [526ns]</text>
  <text x="241" y="2793" text-anchor="end" font-family="Segoe UI, Arial, sans-serif" font-size="18" fill="#222222">log2</text>
  <rect x="253" y="2775" width="400" height="24" rx="2" ry="2" fill="#89d88a"/>
  <polygon points="653,2775 671,2787 653,2799" fill="#89d88a"/>
  <text x="679" y="2792.5" text-anchor="start" font-family="Segoe UI, Arial, sans-serif" font-size="15" font-weight="600" fill="#444444">5.99x [548ns]</text>
  <text x="241" y="2827" text-anchor="end" font-family="Segoe UI, Arial, sans-serif" font-size="18" fill="#222222">log10</text>
  <rect x="253" y="2809" width="400" height="24" rx="2" ry="2" fill="#89d88a"/>
  <polygon points="653,2809 671,2821 653,2833" fill="#89d88a"/>
  <text x="679" y="2826.5" text-anchor="start" font-family="Segoe UI, Arial, sans-serif" font-size="15" font-weight="600" fill="#444444">9.24x [591ns]</text>
  <text x="241" y="2861" text-anchor="end" font-family="Segoe UI, Arial, sans-serif" font-size="18" fill="#222222">log1p</text>
  <rect x="253" y="2843" width="221.468" height="24" rx="2" ry="2" fill="#89d88a"/>
  <text x="484.468" y="2860.5" text-anchor="start" font-family="Segoe UI, Arial, sans-serif" font-size="15" font-weight="600" fill="#444444">2.21x [1388ns]</text>
  <line x1="245" y1="2872" x2="653" y2="2872" stroke="#cfcfcf" stroke-width="1"/>
  <text x="245" y="2902" text-anchor="end" font-family="Segoe UI, Arial, sans-serif" font-size="20" font-weight="700" fill="#1f1f1f">Trigonometric</text>
  <text x="241" y="2935" text-anchor="end" font-family="Segoe UI, Arial, sans-serif" font-size="18" fill="#222222">sin</text>
  <rect x="253" y="2917" width="320.097" height="24" rx="2" ry="2" fill="#89d88a"/>
  <text x="583.097" y="2934.5" text-anchor="start" font-family="Segoe UI, Arial, sans-serif" font-size="15" font-weight="600" fill="#444444">3.20x [778ns]</text>
  <text x="241" y="2969" text-anchor="end" font-family="Segoe UI, Arial, sans-serif" font-size="18" fill="#222222">cos</text>
  <rect x="253" y="2951" width="249.113" height="24" rx="2" ry="2" fill="#89d88a"/>
  <text x="512.113" y="2968.5" text-anchor="start" font-family="Segoe UI, Arial, sans-serif" font-size="15" font-weight="600" fill="#444444">2.49x [775ns]</text>
  <text x="241" y="3003" text-anchor="end" font-family="Segoe UI, Arial, sans-serif" font-size="18" fill="#222222">tan</text>
  <rect x="253" y="2985" width="263.747" height="24" rx="2" ry="2" fill="#89d88a"/>
  <text x="526.747" y="3002.5" text-anchor="start" font-family="Segoe UI, Arial, sans-serif" font-size="15" font-weight="600" fill="#444444">2.64x [976ns]</text>
  <text x="241" y="3037" text-anchor="end" font-family="Segoe UI, Arial, sans-serif" font-size="18" fill="#222222">asin</text>
  <rect x="253" y="3019" width="400" height="24" rx="2" ry="2" fill="#89d88a"/>
  <polygon points="653,3019 671,3031 653,3043" fill="#89d88a"/>
  <text x="679" y="3036.5" text-anchor="start" font-family="Segoe UI, Arial, sans-serif" font-size="15" font-weight="600" fill="#444444">6.58x [1020ns]</text>
  <text x="241" y="3071" text-anchor="end" font-family="Segoe UI, Arial, sans-serif" font-size="18" fill="#222222">acos</text>
  <rect x="253" y="3053" width="400" height="24" rx="2" ry="2" fill="#89d88a"/>
  <polygon points="653,3053 671,3065 653,3077" fill="#89d88a"/>
  <text x="679" y="3070.5" text-anchor="start" font-family="Segoe UI, Arial, sans-serif" font-size="15" font-weight="600" fill="#444444">7.44x [1041ns]</text>
  <text x="241" y="3105" text-anchor="end" font-family="Segoe UI, Arial, sans-serif" font-size="18" fill="#222222">atan</text>
  <rect x="253" y="3087" width="400" height="24" rx="2" ry="2" fill="#89d88a"/>
  <polygon points="653,3087 671,3099 653,3111" fill="#89d88a"/>
  <text x="679" y="3104.5" text-anchor="start" font-family="Segoe UI, Arial, sans-serif" font-size="15" font-weight="600" fill="#444444">7.18x [820ns]</text>
  <text x="241" y="3139" text-anchor="end" font-family="Segoe UI, Arial, sans-serif" font-size="18" fill="#222222">atan2</text>
  <rect x="253" y="3121" width="400" height="24" rx="2" ry="2" fill="#89d88a"/>
  <polygon points="653,3121 671,3133 653,3145" fill="#89d88a"/>
  <text x="679" y="3138.5" text-anchor="start" font-family="Segoe UI, Arial, sans-serif" font-size="15" font-weight="600" fill="#444444">7.39x [902ns]</text>
  <line x1="245" y1="3150" x2="653" y2="3150" stroke="#cfcfcf" stroke-width="1"/>
  <text x="245" y="3180" text-anchor="end" font-family="Segoe UI, Arial, sans-serif" font-size="20" font-weight="700" fill="#1f1f1f">Hyperbolic</text>
  <text x="241" y="3213" text-anchor="end" font-family="Segoe UI, Arial, sans-serif" font-size="18" fill="#222222">sinh</text>
  <rect x="253" y="3195" width="178.001" height="24" rx="2" ry="2" fill="#89d88a"/>
  <text x="441.001" y="3212.5" text-anchor="start" font-family="Segoe UI, Arial, sans-serif" font-size="15" font-weight="600" fill="#444444">1.78x [1012ns]</text>
  <text x="241" y="3247" text-anchor="end" font-family="Segoe UI, Arial, sans-serif" font-size="18" fill="#222222">cosh</text>
  <rect x="253" y="3229" width="175.564" height="24" rx="2" ry="2" fill="#89d88a"/>
  <text x="438.564" y="3246.5" text-anchor="start" font-family="Segoe UI, Arial, sans-serif" font-size="15" font-weight="600" fill="#444444">1.76x [990ns]</text>
  <text x="241" y="3281" text-anchor="end" font-family="Segoe UI, Arial, sans-serif" font-size="18" fill="#222222">tanh</text>
  <rect x="253" y="3263" width="186.163" height="24" rx="2" ry="2" fill="#89d88a"/>
  <text x="449.163" y="3280.5" text-anchor="start" font-family="Segoe UI, Arial, sans-serif" font-size="15" font-weight="600" fill="#444444">1.86x [993ns]</text>
  <line x1="245" y1="3292" x2="653" y2="3292" stroke="#cfcfcf" stroke-width="1"/>
  <text x="245" y="3322" text-anchor="end" font-family="Segoe UI, Arial, sans-serif" font-size="20" font-weight="700" fill="#1f1f1f">Inverse hyperbolic</text>
  <text x="241" y="3355" text-anchor="end" font-family="Segoe UI, Arial, sans-serif" font-size="18" fill="#222222">asinh</text>
  <rect x="253" y="3337" width="245.694" height="24" rx="2" ry="2" fill="#89d88a"/>
  <text x="508.694" y="3354.5" text-anchor="start" font-family="Segoe UI, Arial, sans-serif" font-size="15" font-weight="600" fill="#444444">2.46x [1407ns]</text>
  <text x="241" y="3389" text-anchor="end" font-family="Segoe UI, Arial, sans-serif" font-size="18" fill="#222222">acosh</text>
  <rect x="253" y="3371" width="246.639" height="24" rx="2" ry="2" fill="#89d88a"/>
  <text x="509.639" y="3388.5" text-anchor="start" font-family="Segoe UI, Arial, sans-serif" font-size="15" font-weight="600" fill="#444444">2.47x [1401ns]</text>
  <text x="241" y="3423" text-anchor="end" font-family="Segoe UI, Arial, sans-serif" font-size="18" fill="#222222">atanh</text>
  <rect x="253" y="3405" width="262.276" height="24" rx="2" ry="2" fill="#89d88a"/>
  <text x="525.276" y="3422.5" text-anchor="start" font-family="Segoe UI, Arial, sans-serif" font-size="15" font-weight="600" fill="#444444">2.62x [1421ns]</text>
  <line x1="245" y1="3434" x2="653" y2="3434" stroke="#cfcfcf" stroke-width="1"/>
  <text x="245" y="3464" text-anchor="end" font-family="Segoe UI, Arial, sans-serif" font-size="20" font-weight="700" fill="#1f1f1f">Special functions</text>
  <text x="241" y="3497" text-anchor="end" font-family="Segoe UI, Arial, sans-serif" font-size="18" fill="#222222">erfc</text>
  <rect x="253" y="3479" width="400" height="24" rx="2" ry="2" fill="#89d88a"/>
  <polygon points="653,3479 671,3491 653,3503" fill="#89d88a"/>
  <text x="679" y="3496.5" text-anchor="start" font-family="Segoe UI, Arial, sans-serif" font-size="15" font-weight="600" fill="#444444">9.45x [3199ns]</text>
  <text x="241" y="3531" text-anchor="end" font-family="Segoe UI, Arial, sans-serif" font-size="18" fill="#222222">erf</text>
  <rect x="253" y="3513" width="400" height="24" rx="2" ry="2" fill="#89d88a"/>
  <polygon points="653,3513 671,3525 653,3537" fill="#89d88a"/>
  <text x="679" y="3530.5" text-anchor="start" font-family="Segoe UI, Arial, sans-serif" font-size="15" font-weight="600" fill="#444444">5.93x [3189ns]</text>
  <text x="241" y="3565" text-anchor="end" font-family="Segoe UI, Arial, sans-serif" font-size="18" fill="#222222">tgamma</text>
  <rect x="253" y="3547" width="291.383" height="24" rx="2" ry="2" fill="#89d88a"/>
  <text x="554.383" y="3564.5" text-anchor="start" font-family="Segoe UI, Arial, sans-serif" font-size="15" font-weight="600" fill="#444444">2.91x [6683ns]</text>
  <text x="241" y="3599" text-anchor="end" font-family="Segoe UI, Arial, sans-serif" font-size="18" fill="#222222">lgamma</text>
  <rect x="253" y="3581" width="296.522" height="24" rx="2" ry="2" fill="#89d88a"/>
  <text x="559.522" y="3598.5" text-anchor="start" font-family="Segoe UI, Arial, sans-serif" font-size="15" font-weight="600" fill="#444444">2.97x [6794ns]</text>
  <line x1="245" y1="3610" x2="653" y2="3610" stroke="#cfcfcf" stroke-width="1"/>
  <text x="245" y="3640" text-anchor="end" font-family="Segoe UI, Arial, sans-serif" font-size="20" font-weight="700" fill="#1f1f1f">Mandelbrot</text>
  <text x="241" y="3673" text-anchor="end" font-family="Segoe UI, Arial, sans-serif" font-size="18" fill="#222222">Mandelbrot kernel</text>
  <rect x="253" y="3655" width="400" height="24" rx="2" ry="2" fill="#89d88a"/>
  <polygon points="653,3655 671,3667 653,3679" fill="#89d88a"/>
  <text x="679" y="3672.5" text-anchor="start" font-family="Segoe UI, Arial, sans-serif" font-size="15" font-weight="600" fill="#444444">4.08x [1057232ns]</text>
</svg>
