<?xml version="1.0" encoding="UTF-8"?>
<svg xmlns="http://www.w3.org/2000/svg" width="1207" height="3882" viewBox="0 0 1207 3882">
  <rect x="0" y="0" width="1207" height="3882" fill="#f2f2f2"/>
  <text x="603" y="38" text-anchor="middle" font-family="Segoe UI, Arial, sans-serif" font-size="28" font-weight="600" fill="#222222">f256 vs MPFR typical benchmark ratios</text>
  <line x1="583" y1="82" x2="583" y2="3864" stroke="#dddddd" stroke-width="1"/>
  <line x1="683" y1="82" x2="683" y2="3864" stroke="#dddddd" stroke-width="1"/>
  <line x1="783" y1="82" x2="783" y2="3864" stroke="#dddddd" stroke-width="1"/>
  <line x1="883" y1="82" x2="883" y2="3864" stroke="#dddddd" stroke-width="1"/>
  <line x1="983" y1="82" x2="983" y2="3864" stroke="#dddddd" stroke-width="1"/>
  <line x1="683" y1="82" x2="683" y2="3864" stroke="#6da7d9" stroke-width="2" stroke-dasharray="6,6"/>
  <text x="575" y="104" text-anchor="end" font-family="Segoe UI, Arial, sans-serif" font-size="20" font-weight="700" fill="#1f1f1f">f256 &lt;-&gt; f256</text>
  <text x="571" y="137" text-anchor="end" font-family="Segoe UI, Arial, sans-serif" font-size="18" fill="#222222">add</text>
  <rect x="583" y="119" width="235.343" height="24" rx="2" ry="2" fill="#89d88a"/>
  <text x="828.343" y="136.5" text-anchor="start" font-family="Segoe UI, Arial, sans-serif" font-size="15" font-weight="600" fill="#444444">2.35x [30ns]</text>
  <text x="571" y="171" text-anchor="end" font-family="Segoe UI, Arial, sans-serif" font-size="18" fill="#222222">subtract</text>
  <rect x="583" y="153" width="238.73" height="24" rx="2" ry="2" fill="#89d88a"/>
  <text x="831.73" y="170.5" text-anchor="start" font-family="Segoe UI, Arial, sans-serif" font-size="15" font-weight="600" fill="#444444">2.39x [30ns]</text>
  <text x="571" y="205" text-anchor="end" font-family="Segoe UI, Arial, sans-serif" font-size="18" fill="#222222">multiply</text>
  <rect x="583" y="187" width="241.313" height="24" rx="2" ry="2" fill="#89d88a"/>
  <text x="834.313" y="204.5" text-anchor="start" font-family="Segoe UI, Arial, sans-serif" font-size="15" font-weight="600" fill="#444444">2.41x [33ns]</text>
  <text x="571" y="239" text-anchor="end" font-family="Segoe UI, Arial, sans-serif" font-size="18" fill="#222222">divide</text>
  <rect x="583" y="221" width="99.9225" height="24" rx="2" ry="2" fill="#2c7fb8"/>
  <text x="692.923" y="238.5" text-anchor="start" font-family="Segoe UI, Arial, sans-serif" font-size="15" font-weight="600" fill="#444444">1.00x [92ns]</text>
  <line x1="575" y1="250" x2="983" y2="250" stroke="#cfcfcf" stroke-width="1"/>
  <text x="575" y="280" text-anchor="end" font-family="Segoe UI, Arial, sans-serif" font-size="20" font-weight="700" fill="#1f1f1f">f256 &lt;-&gt; f128</text>
  <text x="571" y="313" text-anchor="end" font-family="Segoe UI, Arial, sans-serif" font-size="18" fill="#222222">add</text>
  <rect x="583" y="295" width="400" height="24" rx="2" ry="2" fill="#89d88a"/>
  <polygon points="983,295 1001,307 983,319" fill="#89d88a"/>
  <text x="1009" y="312.5" text-anchor="start" font-family="Segoe UI, Arial, sans-serif" font-size="15" font-weight="600" fill="#444444">4.08x [28ns]</text>
  <text x="571" y="347" text-anchor="end" font-family="Segoe UI, Arial, sans-serif" font-size="18" fill="#222222">subtract</text>
  <rect x="583" y="329" width="397.516" height="24" rx="2" ry="2" fill="#89d88a"/>
  <text x="975" y="346.5" text-anchor="start" font-family="Segoe UI, Arial, sans-serif" font-size="15" font-weight="600" fill="#444444">3.98x [29ns]</text>
  <text x="571" y="381" text-anchor="end" font-family="Segoe UI, Arial, sans-serif" font-size="18" fill="#222222">multiply</text>
  <rect x="583" y="363" width="360.718" height="24" rx="2" ry="2" fill="#89d88a"/>
  <text x="953.718" y="380.5" text-anchor="start" font-family="Segoe UI, Arial, sans-serif" font-size="15" font-weight="600" fill="#444444">3.61x [35ns]</text>
  <text x="571" y="415" text-anchor="end" font-family="Segoe UI, Arial, sans-serif" font-size="18" fill="#222222">divide</text>
  <rect x="583" y="397" width="173.565" height="24" rx="2" ry="2" fill="#89d88a"/>
  <text x="766.565" y="414.5" text-anchor="start" font-family="Segoe UI, Arial, sans-serif" font-size="15" font-weight="600" fill="#444444">1.74x [89ns]</text>
  <line x1="575" y1="426" x2="983" y2="426" stroke="#cfcfcf" stroke-width="1"/>
  <text x="575" y="456" text-anchor="end" font-family="Segoe UI, Arial, sans-serif" font-size="20" font-weight="700" fill="#1f1f1f">f256 &lt;-&gt; f64</text>
  <text x="571" y="489" text-anchor="end" font-family="Segoe UI, Arial, sans-serif" font-size="18" fill="#222222">add</text>
  <rect x="583" y="471" width="345.159" height="24" rx="2" ry="2" fill="#89d88a"/>
  <text x="938.159" y="488.5" text-anchor="start" font-family="Segoe UI, Arial, sans-serif" font-size="15" font-weight="600" fill="#444444">3.45x [27ns]</text>
  <text x="571" y="523" text-anchor="end" font-family="Segoe UI, Arial, sans-serif" font-size="18" fill="#222222">subtract</text>
  <rect x="583" y="505" width="338.99" height="24" rx="2" ry="2" fill="#89d88a"/>
  <text x="931.99" y="522.5" text-anchor="start" font-family="Segoe UI, Arial, sans-serif" font-size="15" font-weight="600" fill="#444444">3.39x [27ns]</text>
  <text x="571" y="557" text-anchor="end" font-family="Segoe UI, Arial, sans-serif" font-size="18" fill="#222222">multiply</text>
  <rect x="583" y="539" width="351.138" height="24" rx="2" ry="2" fill="#89d88a"/>
  <text x="944.138" y="556.5" text-anchor="start" font-family="Segoe UI, Arial, sans-serif" font-size="15" font-weight="600" fill="#444444">3.51x [29ns]</text>
  <text x="571" y="591" text-anchor="end" font-family="Segoe UI, Arial, sans-serif" font-size="18" fill="#222222">divide</text>
  <rect x="583" y="573" width="140.041" height="24" rx="2" ry="2" fill="#89d88a"/>
  <text x="733.041" y="590.5" text-anchor="start" font-family="Segoe UI, Arial, sans-serif" font-size="15" font-weight="600" fill="#444444">1.40x [90ns]</text>
  <line x1="575" y1="602" x2="983" y2="602" stroke="#cfcfcf" stroke-width="1"/>
  <text x="575" y="632" text-anchor="end" font-family="Segoe UI, Arial, sans-serif" font-size="20" font-weight="700" fill="#1f1f1f">f256 &lt;-&gt; f32</text>
  <text x="571" y="665" text-anchor="end" font-family="Segoe UI, Arial, sans-serif" font-size="18" fill="#222222">add</text>
  <rect x="583" y="647" width="345.155" height="24" rx="2" ry="2" fill="#89d88a"/>
  <text x="938.155" y="664.5" text-anchor="start" font-family="Segoe UI, Arial, sans-serif" font-size="15" font-weight="600" fill="#444444">3.45x [27ns]</text>
  <text x="571" y="699" text-anchor="end" font-family="Segoe UI, Arial, sans-serif" font-size="18" fill="#222222">subtract</text>
  <rect x="583" y="681" width="338.687" height="24" rx="2" ry="2" fill="#89d88a"/>
  <text x="931.687" y="698.5" text-anchor="start" font-family="Segoe UI, Arial, sans-serif" font-size="15" font-weight="600" fill="#444444">3.39x [27ns]</text>
  <text x="571" y="733" text-anchor="end" font-family="Segoe UI, Arial, sans-serif" font-size="18" fill="#222222">multiply</text>
  <rect x="583" y="715" width="350.139" height="24" rx="2" ry="2" fill="#89d88a"/>
  <text x="943.139" y="732.5" text-anchor="start" font-family="Segoe UI, Arial, sans-serif" font-size="15" font-weight="600" fill="#444444">3.50x [29ns]</text>
  <text x="571" y="767" text-anchor="end" font-family="Segoe UI, Arial, sans-serif" font-size="18" fill="#222222">divide</text>
  <rect x="583" y="749" width="141.237" height="24" rx="2" ry="2" fill="#89d88a"/>
  <text x="734.237" y="766.5" text-anchor="start" font-family="Segoe UI, Arial, sans-serif" font-size="15" font-weight="600" fill="#444444">1.41x [89ns]</text>
  <line x1="575" y1="778" x2="983" y2="778" stroke="#cfcfcf" stroke-width="1"/>
  <text x="575" y="808" text-anchor="end" font-family="Segoe UI, Arial, sans-serif" font-size="20" font-weight="700" fill="#1f1f1f">f256 &lt;-&gt; i64</text>
  <text x="571" y="841" text-anchor="end" font-family="Segoe UI, Arial, sans-serif" font-size="18" fill="#222222">add</text>
  <rect x="583" y="823" width="261.656" height="24" rx="2" ry="2" fill="#89d88a"/>
  <text x="854.656" y="840.5" text-anchor="start" font-family="Segoe UI, Arial, sans-serif" font-size="15" font-weight="600" fill="#444444">2.62x [32ns]</text>
  <text x="571" y="875" text-anchor="end" font-family="Segoe UI, Arial, sans-serif" font-size="18" fill="#222222">subtract</text>
  <rect x="583" y="857" width="256.411" height="24" rx="2" ry="2" fill="#89d88a"/>
  <text x="849.411" y="874.5" text-anchor="start" font-family="Segoe UI, Arial, sans-serif" font-size="15" font-weight="600" fill="#444444">2.56x [32ns]</text>
  <text x="571" y="909" text-anchor="end" font-family="Segoe UI, Arial, sans-serif" font-size="18" fill="#222222">multiply</text>
  <rect x="583" y="891" width="197.944" height="24" rx="2" ry="2" fill="#89d88a"/>
  <text x="790.944" y="908.5" text-anchor="start" font-family="Segoe UI, Arial, sans-serif" font-size="15" font-weight="600" fill="#444444">1.98x [42ns]</text>
  <text x="571" y="943" text-anchor="end" font-family="Segoe UI, Arial, sans-serif" font-size="18" fill="#222222">divide</text>
  <rect x="583" y="925" width="116.004" height="24" rx="2" ry="2" fill="#89d88a"/>
  <text x="709.004" y="942.5" text-anchor="start" font-family="Segoe UI, Arial, sans-serif" font-size="15" font-weight="600" fill="#444444">1.16x [92ns]</text>
  <line x1="575" y1="954" x2="983" y2="954" stroke="#cfcfcf" stroke-width="1"/>
  <text x="575" y="984" text-anchor="end" font-family="Segoe UI, Arial, sans-serif" font-size="20" font-weight="700" fill="#1f1f1f">f256 &lt;-&gt; i32</text>
  <text x="571" y="1017" text-anchor="end" font-family="Segoe UI, Arial, sans-serif" font-size="18" fill="#222222">add</text>
  <rect x="583" y="999" width="303.656" height="24" rx="2" ry="2" fill="#89d88a"/>
  <text x="896.656" y="1016.5" text-anchor="start" font-family="Segoe UI, Arial, sans-serif" font-size="15" font-weight="600" fill="#444444">3.04x [27ns]</text>
  <text x="571" y="1051" text-anchor="end" font-family="Segoe UI, Arial, sans-serif" font-size="18" fill="#222222">subtract</text>
  <rect x="583" y="1033" width="314.061" height="24" rx="2" ry="2" fill="#89d88a"/>
  <text x="907.061" y="1050.5" text-anchor="start" font-family="Segoe UI, Arial, sans-serif" font-size="15" font-weight="600" fill="#444444">3.14x [27ns]</text>
  <text x="571" y="1085" text-anchor="end" font-family="Segoe UI, Arial, sans-serif" font-size="18" fill="#222222">multiply</text>
  <rect x="583" y="1067" width="297.912" height="24" rx="2" ry="2" fill="#89d88a"/>
  <text x="890.912" y="1084.5" text-anchor="start" font-family="Segoe UI, Arial, sans-serif" font-size="15" font-weight="600" fill="#444444">2.98x [28ns]</text>
  <text x="571" y="1119" text-anchor="end" font-family="Segoe UI, Arial, sans-serif" font-size="18" fill="#222222">divide</text>
  <rect x="583" y="1101" width="120.266" height="24" rx="2" ry="2" fill="#89d88a"/>
  <text x="713.266" y="1118.5" text-anchor="start" font-family="Segoe UI, Arial, sans-serif" font-size="15" font-weight="600" fill="#444444">1.20x [89ns]</text>
  <line x1="575" y1="1130" x2="983" y2="1130" stroke="#cfcfcf" stroke-width="1"/>
  <text x="575" y="1160" text-anchor="end" font-family="Segoe UI, Arial, sans-serif" font-size="20" font-weight="700" fill="#1f1f1f">Mixed Workloads</text>
  <text x="571" y="1193" text-anchor="end" font-family="Segoe UI, Arial, sans-serif" font-size="18" fill="#222222">affine trig transform</text>
  <rect x="583" y="1175" width="125.803" height="24" rx="2" ry="2" fill="#89d88a"/>
  <text x="718.803" y="1192.5" text-anchor="start" font-family="Segoe UI, Arial, sans-serif" font-size="15" font-weight="600" fill="#444444">1.26x [1794ns]</text>
  <text x="571" y="1227" text-anchor="end" font-family="Segoe UI, Arial, sans-serif" font-size="18" fill="#222222">mandelbrot kernel</text>
  <rect x="583" y="1209" width="174.611" height="24" rx="2" ry="2" fill="#89d88a"/>
  <text x="767.611" y="1226.5" text-anchor="start" font-family="Segoe UI, Arial, sans-serif" font-size="15" font-weight="600" fill="#444444">1.75x [121ns]</text>
  <text x="571" y="1261" text-anchor="end" font-family="Segoe UI, Arial, sans-serif" font-size="18" fill="#222222">((x*x - y*y) + a) / (c + scalar)</text>
  <rect x="583" y="1243" width="104.434" height="24" rx="2" ry="2" fill="#89d88a"/>
  <text x="697.434" y="1260.5" text-anchor="start" font-family="Segoe UI, Arial, sans-serif" font-size="15" font-weight="600" fill="#444444">1.04x [267ns]</text>
  <text x="571" y="1295" text-anchor="end" font-family="Segoe UI, Arial, sans-serif" font-size="18" fill="#222222">((x*a + y*b) + c) / (c + scalar)</text>
  <rect x="583" y="1277" width="162.796" height="24" rx="2" ry="2" fill="#89d88a"/>
  <text x="755.796" y="1294.5" text-anchor="start" font-family="Segoe UI, Arial, sans-serif" font-size="15" font-weight="600" fill="#444444">1.63x [314ns]</text>
  <text x="571" y="1329" text-anchor="end" font-family="Segoe UI, Arial, sans-serif" font-size="18" fill="#222222">((x*sa + y*sb) + a) / (c + scalar)</text>
  <rect x="583" y="1311" width="229.989" height="24" rx="2" ry="2" fill="#89d88a"/>
  <text x="822.989" y="1328.5" text-anchor="start" font-family="Segoe UI, Arial, sans-serif" font-size="15" font-weight="600" fill="#444444">2.30x [227ns]</text>
  <text x="571" y="1363" text-anchor="end" font-family="Segoe UI, Arial, sans-serif" font-size="18" fill="#222222">((x + a) + b) / ((c + d) + scalar)</text>
  <rect x="583" y="1345" width="172.443" height="24" rx="2" ry="2" fill="#89d88a"/>
  <text x="765.443" y="1362.5" text-anchor="start" font-family="Segoe UI, Arial, sans-serif" font-size="15" font-weight="600" fill="#444444">1.72x [237ns]</text>
  <text x="571" y="1397" text-anchor="end" font-family="Segoe UI, Arial, sans-serif" font-size="18" fill="#222222">((x*a + y*b) + c*d) / ((c + d) + scalar)</text>
  <rect x="583" y="1379" width="176.504" height="24" rx="2" ry="2" fill="#89d88a"/>
  <text x="769.504" y="1396.5" text-anchor="start" font-family="Segoe UI, Arial, sans-serif" font-size="15" font-weight="600" fill="#444444">1.77x [335ns]</text>
  <text x="571" y="1431" text-anchor="end" font-family="Segoe UI, Arial, sans-serif" font-size="18" fill="#222222">((x + scalar)*scalar + a) * (scalar*(y + scalar) - b)</text>
  <rect x="583" y="1413" width="191.296" height="24" rx="2" ry="2" fill="#89d88a"/>
  <text x="784.296" y="1430.5" text-anchor="start" font-family="Segoe UI, Arial, sans-serif" font-size="15" font-weight="600" fill="#444444">1.91x [531ns]</text>
  <text x="571" y="1465" text-anchor="end" font-family="Segoe UI, Arial, sans-serif" font-size="18" fill="#222222">((x*y + a*b) + c) / (c*c + scalar)</text>
  <rect x="583" y="1447" width="152.324" height="24" rx="2" ry="2" fill="#89d88a"/>
  <text x="745.324" y="1464.5" text-anchor="start" font-family="Segoe UI, Arial, sans-serif" font-size="15" font-weight="600" fill="#444444">1.52x [318ns]</text>
  <text x="571" y="1499" text-anchor="end" font-family="Segoe UI, Arial, sans-serif" font-size="18" fill="#222222">mixed workload average</text>
  <rect x="583" y="1481" width="165.578" height="24" rx="2" ry="2" fill="#89d88a"/>
  <text x="758.578" y="1498.5" text-anchor="start" font-family="Segoe UI, Arial, sans-serif" font-size="15" font-weight="600" fill="#444444">1.66x [460ns]</text>
  <line x1="575" y1="1510" x2="983" y2="1510" stroke="#cfcfcf" stroke-width="1"/>
  <text x="575" y="1540" text-anchor="end" font-family="Segoe UI, Arial, sans-serif" font-size="20" font-weight="700" fill="#1f1f1f">Rounding</text>
  <text x="571" y="1573" text-anchor="end" font-family="Segoe UI, Arial, sans-serif" font-size="18" fill="#222222">floor</text>
  <rect x="583" y="1555" width="316.891" height="24" rx="2" ry="2" fill="#89d88a"/>
  <text x="909.891" y="1572.5" text-anchor="start" font-family="Segoe UI, Arial, sans-serif" font-size="15" font-weight="600" fill="#444444">3.17x [21ns]</text>
  <text x="571" y="1607" text-anchor="end" font-family="Segoe UI, Arial, sans-serif" font-size="18" fill="#222222">ceil</text>
  <rect x="583" y="1589" width="316.761" height="24" rx="2" ry="2" fill="#89d88a"/>
  <text x="909.761" y="1606.5" text-anchor="start" font-family="Segoe UI, Arial, sans-serif" font-size="15" font-weight="600" fill="#444444">3.17x [21ns]</text>
  <text x="571" y="1641" text-anchor="end" font-family="Segoe UI, Arial, sans-serif" font-size="18" fill="#222222">trunc</text>
  <rect x="583" y="1623" width="304.623" height="24" rx="2" ry="2" fill="#89d88a"/>
  <text x="897.623" y="1640.5" text-anchor="start" font-family="Segoe UI, Arial, sans-serif" font-size="15" font-weight="600" fill="#444444">3.05x [22ns]</text>
  <text x="571" y="1675" text-anchor="end" font-family="Segoe UI, Arial, sans-serif" font-size="18" fill="#222222">round</text>
  <rect x="583" y="1657" width="287.092" height="24" rx="2" ry="2" fill="#89d88a"/>
  <text x="880.092" y="1674.5" text-anchor="start" font-family="Segoe UI, Arial, sans-serif" font-size="15" font-weight="600" fill="#444444">2.87x [30ns]</text>
  <text x="571" y="1709" text-anchor="end" font-family="Segoe UI, Arial, sans-serif" font-size="18" fill="#222222">nearbyint</text>
  <rect x="583" y="1691" width="400" height="24" rx="2" ry="2" fill="#89d88a"/>
  <polygon points="983,1691 1001,1703 983,1715" fill="#89d88a"/>
  <text x="1009" y="1708.5" text-anchor="start" font-family="Segoe UI, Arial, sans-serif" font-size="15" font-weight="600" fill="#444444">8.60x [34ns]</text>
  <text x="571" y="1743" text-anchor="end" font-family="Segoe UI, Arial, sans-serif" font-size="18" fill="#222222">rint</text>
  <rect x="583" y="1725" width="400" height="24" rx="2" ry="2" fill="#89d88a"/>
  <polygon points="983,1725 1001,1737 983,1749" fill="#89d88a"/>
  <text x="1009" y="1742.5" text-anchor="start" font-family="Segoe UI, Arial, sans-serif" font-size="15" font-weight="600" fill="#444444">8.56x [34ns]</text>
  <text x="571" y="1777" text-anchor="end" font-family="Segoe UI, Arial, sans-serif" font-size="18" fill="#222222">lround</text>
  <rect x="583" y="1759" width="271.712" height="24" rx="2" ry="2" fill="#89d88a"/>
  <text x="864.712" y="1776.5" text-anchor="start" font-family="Segoe UI, Arial, sans-serif" font-size="15" font-weight="600" fill="#444444">2.72x [21ns]</text>
  <text x="571" y="1811" text-anchor="end" font-family="Segoe UI, Arial, sans-serif" font-size="18" fill="#222222">llround</text>
  <rect x="583" y="1793" width="278.229" height="24" rx="2" ry="2" fill="#89d88a"/>
  <text x="871.229" y="1810.5" text-anchor="start" font-family="Segoe UI, Arial, sans-serif" font-size="15" font-weight="600" fill="#444444">2.78x [21ns]</text>
  <text x="571" y="1845" text-anchor="end" font-family="Segoe UI, Arial, sans-serif" font-size="18" fill="#222222">lrint</text>
  <rect x="583" y="1827" width="284.35" height="24" rx="2" ry="2" fill="#89d88a"/>
  <text x="877.35" y="1844.5" text-anchor="start" font-family="Segoe UI, Arial, sans-serif" font-size="15" font-weight="600" fill="#444444">2.84x [20ns]</text>
  <text x="571" y="1879" text-anchor="end" font-family="Segoe UI, Arial, sans-serif" font-size="18" fill="#222222">llrint</text>
  <rect x="583" y="1861" width="289.134" height="24" rx="2" ry="2" fill="#89d88a"/>
  <text x="882.134" y="1878.5" text-anchor="start" font-family="Segoe UI, Arial, sans-serif" font-size="15" font-weight="600" fill="#444444">2.89x [20ns]</text>
  <line x1="575" y1="1890" x2="983" y2="1890" stroke="#cfcfcf" stroke-width="1"/>
  <text x="575" y="1920" text-anchor="end" font-family="Segoe UI, Arial, sans-serif" font-size="20" font-weight="700" fill="#1f1f1f">Remainders</text>
  <text x="571" y="1953" text-anchor="end" font-family="Segoe UI, Arial, sans-serif" font-size="18" fill="#222222">fmod</text>
  <rect x="583" y="1935" width="118.435" height="24" rx="2" ry="2" fill="#89d88a"/>
  <text x="711.435" y="1952.5" text-anchor="start" font-family="Segoe UI, Arial, sans-serif" font-size="15" font-weight="600" fill="#444444">1.18x [105ns]</text>
  <text x="571" y="1987" text-anchor="end" font-family="Segoe UI, Arial, sans-serif" font-size="18" fill="#222222">remainder</text>
  <rect x="583" y="1969" width="300.013" height="24" rx="2" ry="2" fill="#89d88a"/>
  <text x="893.013" y="1986.5" text-anchor="start" font-family="Segoe UI, Arial, sans-serif" font-size="15" font-weight="600" fill="#444444">3.00x [130ns]</text>
  <text x="571" y="2021" text-anchor="end" font-family="Segoe UI, Arial, sans-serif" font-size="18" fill="#222222">remquo</text>
  <rect x="583" y="2003" width="127.207" height="24" rx="2" ry="2" fill="#89d88a"/>
  <text x="720.207" y="2020.5" text-anchor="start" font-family="Segoe UI, Arial, sans-serif" font-size="15" font-weight="600" fill="#444444">1.27x [139ns]</text>
  <line x1="575" y1="2032" x2="983" y2="2032" stroke="#cfcfcf" stroke-width="1"/>
  <text x="575" y="2062" text-anchor="end" font-family="Segoe UI, Arial, sans-serif" font-size="20" font-weight="700" fill="#1f1f1f">Floating-point utilities</text>
  <text x="571" y="2095" text-anchor="end" font-family="Segoe UI, Arial, sans-serif" font-size="18" fill="#222222">abs</text>
  <rect x="583" y="2077" width="293.119" height="24" rx="2" ry="2" fill="#89d88a"/>
  <text x="886.119" y="2094.5" text-anchor="start" font-family="Segoe UI, Arial, sans-serif" font-size="15" font-weight="600" fill="#444444">2.93x [21ns]</text>
  <text x="571" y="2129" text-anchor="end" font-family="Segoe UI, Arial, sans-serif" font-size="18" fill="#222222">fma</text>
  <rect x="583" y="2111" width="249.216" height="24" rx="2" ry="2" fill="#89d88a"/>
  <text x="842.216" y="2128.5" text-anchor="start" font-family="Segoe UI, Arial, sans-serif" font-size="15" font-weight="600" fill="#444444">2.49x [36ns]</text>
  <text x="571" y="2163" text-anchor="end" font-family="Segoe UI, Arial, sans-serif" font-size="18" fill="#222222">fmin</text>
  <rect x="583" y="2145" width="400" height="24" rx="2" ry="2" fill="#89d88a"/>
  <polygon points="983,2145 1001,2157 983,2169" fill="#89d88a"/>
  <text x="1009" y="2162.5" text-anchor="start" font-family="Segoe UI, Arial, sans-serif" font-size="15" font-weight="600" fill="#444444">4.46x [16ns]</text>
  <text x="571" y="2197" text-anchor="end" font-family="Segoe UI, Arial, sans-serif" font-size="18" fill="#222222">fmax</text>
  <rect x="583" y="2179" width="400" height="24" rx="2" ry="2" fill="#89d88a"/>
  <polygon points="983,2179 1001,2191 983,2203" fill="#89d88a"/>
  <text x="1009" y="2196.5" text-anchor="start" font-family="Segoe UI, Arial, sans-serif" font-size="15" font-weight="600" fill="#444444">4.42x [16ns]</text>
  <text x="571" y="2231" text-anchor="end" font-family="Segoe UI, Arial, sans-serif" font-size="18" fill="#222222">fdim</text>
  <rect x="583" y="2213" width="274.729" height="24" rx="2" ry="2" fill="#89d88a"/>
  <text x="867.729" y="2230.5" text-anchor="start" font-family="Segoe UI, Arial, sans-serif" font-size="15" font-weight="600" fill="#444444">2.75x [24ns]</text>
  <text x="571" y="2265" text-anchor="end" font-family="Segoe UI, Arial, sans-serif" font-size="18" fill="#222222">copysign</text>
  <rect x="583" y="2247" width="325.829" height="24" rx="2" ry="2" fill="#89d88a"/>
  <text x="918.829" y="2264.5" text-anchor="start" font-family="Segoe UI, Arial, sans-serif" font-size="15" font-weight="600" fill="#444444">3.26x [21ns]</text>
  <text x="571" y="2299" text-anchor="end" font-family="Segoe UI, Arial, sans-serif" font-size="18" fill="#222222">ldexp</text>
  <rect x="583" y="2281" width="295.483" height="24" rx="2" ry="2" fill="#89d88a"/>
  <text x="888.483" y="2298.5" text-anchor="start" font-family="Segoe UI, Arial, sans-serif" font-size="15" font-weight="600" fill="#444444">2.95x [24ns]</text>
  <text x="571" y="2333" text-anchor="end" font-family="Segoe UI, Arial, sans-serif" font-size="18" fill="#222222">scalbn</text>
  <rect x="583" y="2315" width="290.095" height="24" rx="2" ry="2" fill="#89d88a"/>
  <text x="883.095" y="2332.5" text-anchor="start" font-family="Segoe UI, Arial, sans-serif" font-size="15" font-weight="600" fill="#444444">2.90x [24ns]</text>
  <text x="571" y="2367" text-anchor="end" font-family="Segoe UI, Arial, sans-serif" font-size="18" fill="#222222">scalbln</text>
  <rect x="583" y="2349" width="288.909" height="24" rx="2" ry="2" fill="#89d88a"/>
  <text x="881.909" y="2366.5" text-anchor="start" font-family="Segoe UI, Arial, sans-serif" font-size="15" font-weight="600" fill="#444444">2.89x [24ns]</text>
  <text x="571" y="2401" text-anchor="end" font-family="Segoe UI, Arial, sans-serif" font-size="18" fill="#222222">frexp</text>
  <rect x="583" y="2383" width="325.608" height="24" rx="2" ry="2" fill="#89d88a"/>
  <text x="918.608" y="2400.5" text-anchor="start" font-family="Segoe UI, Arial, sans-serif" font-size="15" font-weight="600" fill="#444444">3.26x [28ns]</text>
  <text x="571" y="2435" text-anchor="end" font-family="Segoe UI, Arial, sans-serif" font-size="18" fill="#222222">modf</text>
  <rect x="583" y="2417" width="400" height="24" rx="2" ry="2" fill="#89d88a"/>
  <polygon points="983,2417 1001,2429 983,2441" fill="#89d88a"/>
  <text x="1009" y="2434.5" text-anchor="start" font-family="Segoe UI, Arial, sans-serif" font-size="15" font-weight="600" fill="#444444">4.77x [42ns]</text>
  <text x="571" y="2469" text-anchor="end" font-family="Segoe UI, Arial, sans-serif" font-size="18" fill="#222222">ilogb</text>
  <rect x="583" y="2451" width="180.599" height="24" rx="2" ry="2" fill="#89d88a"/>
  <text x="773.599" y="2468.5" text-anchor="start" font-family="Segoe UI, Arial, sans-serif" font-size="15" font-weight="600" fill="#444444">1.81x [7ns]</text>
  <text x="571" y="2503" text-anchor="end" font-family="Segoe UI, Arial, sans-serif" font-size="18" fill="#222222">logb</text>
  <rect x="583" y="2485" width="365.832" height="24" rx="2" ry="2" fill="#89d88a"/>
  <text x="958.832" y="2502.5" text-anchor="start" font-family="Segoe UI, Arial, sans-serif" font-size="15" font-weight="600" fill="#444444">3.66x [22ns]</text>
  <text x="571" y="2537" text-anchor="end" font-family="Segoe UI, Arial, sans-serif" font-size="18" fill="#222222">nextafter</text>
  <rect x="583" y="2519" width="400" height="24" rx="2" ry="2" fill="#89d88a"/>
  <polygon points="983,2519 1001,2531 983,2543" fill="#89d88a"/>
  <text x="1009" y="2536.5" text-anchor="start" font-family="Segoe UI, Arial, sans-serif" font-size="15" font-weight="600" fill="#444444">11.02x [24ns]</text>
  <text x="571" y="2571" text-anchor="end" font-family="Segoe UI, Arial, sans-serif" font-size="18" fill="#222222">nexttoward(type)</text>
  <rect x="583" y="2553" width="400" height="24" rx="2" ry="2" fill="#89d88a"/>
  <polygon points="983,2553 1001,2565 983,2577" fill="#89d88a"/>
  <text x="1009" y="2570.5" text-anchor="start" font-family="Segoe UI, Arial, sans-serif" font-size="15" font-weight="600" fill="#444444">11.16x [24ns]</text>
  <text x="571" y="2605" text-anchor="end" font-family="Segoe UI, Arial, sans-serif" font-size="18" fill="#222222">nexttoward(long double)</text>
  <rect x="583" y="2587" width="400" height="24" rx="2" ry="2" fill="#89d88a"/>
  <polygon points="983,2587 1001,2599 983,2611" fill="#89d88a"/>
  <text x="1009" y="2604.5" text-anchor="start" font-family="Segoe UI, Arial, sans-serif" font-size="15" font-weight="600" fill="#444444">12.29x [24ns]</text>
  <line x1="575" y1="2616" x2="983" y2="2616" stroke="#cfcfcf" stroke-width="1"/>
  <text x="575" y="2646" text-anchor="end" font-family="Segoe UI, Arial, sans-serif" font-size="20" font-weight="700" fill="#1f1f1f">Roots &amp; powers</text>
  <text x="571" y="2679" text-anchor="end" font-family="Segoe UI, Arial, sans-serif" font-size="18" fill="#222222">sqrt</text>
  <rect x="583" y="2661" width="101.092" height="24" rx="2" ry="2" fill="#89d88a"/>
  <text x="694.092" y="2678.5" text-anchor="start" font-family="Segoe UI, Arial, sans-serif" font-size="15" font-weight="600" fill="#444444">1.01x [129ns]</text>
  <text x="571" y="2713" text-anchor="end" font-family="Segoe UI, Arial, sans-serif" font-size="18" fill="#222222">cbrt</text>
  <rect x="583" y="2695" width="106.113" height="24" rx="2" ry="2" fill="#89d88a"/>
  <text x="699.113" y="2712.5" text-anchor="start" font-family="Segoe UI, Arial, sans-serif" font-size="15" font-weight="600" fill="#444444">1.06x [347ns]</text>
  <text x="571" y="2747" text-anchor="end" font-family="Segoe UI, Arial, sans-serif" font-size="18" fill="#222222">hypot</text>
  <rect x="583" y="2729" width="133.96" height="24" rx="2" ry="2" fill="#89d88a"/>
  <text x="726.96" y="2746.5" text-anchor="start" font-family="Segoe UI, Arial, sans-serif" font-size="15" font-weight="600" fill="#444444">1.34x [149ns]</text>
  <text x="571" y="2781" text-anchor="end" font-family="Segoe UI, Arial, sans-serif" font-size="18" fill="#222222">pow</text>
  <rect x="583" y="2763" width="280.79" height="24" rx="2" ry="2" fill="#89d88a"/>
  <text x="873.79" y="2780.5" text-anchor="start" font-family="Segoe UI, Arial, sans-serif" font-size="15" font-weight="600" fill="#444444">2.81x [1125ns]</text>
  <line x1="575" y1="2792" x2="983" y2="2792" stroke="#cfcfcf" stroke-width="1"/>
  <text x="575" y="2822" text-anchor="end" font-family="Segoe UI, Arial, sans-serif" font-size="20" font-weight="700" fill="#1f1f1f">Exponentials</text>
  <text x="571" y="2855" text-anchor="end" font-family="Segoe UI, Arial, sans-serif" font-size="18" fill="#222222">exp</text>
  <rect x="583" y="2837" width="173.898" height="24" rx="2" ry="2" fill="#89d88a"/>
  <text x="766.898" y="2854.5" text-anchor="start" font-family="Segoe UI, Arial, sans-serif" font-size="15" font-weight="600" fill="#444444">1.74x [585ns]</text>
  <text x="571" y="2889" text-anchor="end" font-family="Segoe UI, Arial, sans-serif" font-size="18" fill="#222222">exp2</text>
  <rect x="583" y="2871" width="196.893" height="24" rx="2" ry="2" fill="#89d88a"/>
  <text x="789.893" y="2888.5" text-anchor="start" font-family="Segoe UI, Arial, sans-serif" font-size="15" font-weight="600" fill="#444444">1.97x [564ns]</text>
  <text x="571" y="2923" text-anchor="end" font-family="Segoe UI, Arial, sans-serif" font-size="18" fill="#222222">expm1</text>
  <rect x="583" y="2905" width="128.186" height="24" rx="2" ry="2" fill="#89d88a"/>
  <text x="721.186" y="2922.5" text-anchor="start" font-family="Segoe UI, Arial, sans-serif" font-size="15" font-weight="600" fill="#444444">1.28x [863ns]</text>
  <line x1="575" y1="2934" x2="983" y2="2934" stroke="#cfcfcf" stroke-width="1"/>
  <text x="575" y="2964" text-anchor="end" font-family="Segoe UI, Arial, sans-serif" font-size="20" font-weight="700" fill="#1f1f1f">Logarithms</text>
  <text x="571" y="2997" text-anchor="end" font-family="Segoe UI, Arial, sans-serif" font-size="18" fill="#222222">log</text>
  <rect x="583" y="2979" width="324.782" height="24" rx="2" ry="2" fill="#89d88a"/>
  <text x="917.782" y="2996.5" text-anchor="start" font-family="Segoe UI, Arial, sans-serif" font-size="15" font-weight="600" fill="#444444">3.25x [506ns]</text>
  <text x="571" y="3031" text-anchor="end" font-family="Segoe UI, Arial, sans-serif" font-size="18" fill="#222222">log2</text>
  <rect x="583" y="3013" width="347.041" height="24" rx="2" ry="2" fill="#89d88a"/>
  <text x="940.041" y="3030.5" text-anchor="start" font-family="Segoe UI, Arial, sans-serif" font-size="15" font-weight="600" fill="#444444">3.47x [520ns]</text>
  <text x="571" y="3065" text-anchor="end" font-family="Segoe UI, Arial, sans-serif" font-size="18" fill="#222222">log10</text>
  <rect x="583" y="3047" width="400" height="24" rx="2" ry="2" fill="#89d88a"/>
  <polygon points="983,3047 1001,3059 983,3071" fill="#89d88a"/>
  <text x="1009" y="3064.5" text-anchor="start" font-family="Segoe UI, Arial, sans-serif" font-size="15" font-weight="600" fill="#444444">5.23x [575ns]</text>
  <text x="571" y="3099" text-anchor="end" font-family="Segoe UI, Arial, sans-serif" font-size="18" fill="#222222">log1p</text>
  <rect x="583" y="3081" width="242.641" height="24" rx="2" ry="2" fill="#89d88a"/>
  <text x="835.641" y="3098.5" text-anchor="start" font-family="Segoe UI, Arial, sans-serif" font-size="15" font-weight="600" fill="#444444">2.43x [691ns]</text>
  <line x1="575" y1="3110" x2="983" y2="3110" stroke="#cfcfcf" stroke-width="1"/>
  <text x="575" y="3140" text-anchor="end" font-family="Segoe UI, Arial, sans-serif" font-size="20" font-weight="700" fill="#1f1f1f">Trigonometric</text>
  <text x="571" y="3173" text-anchor="end" font-family="Segoe UI, Arial, sans-serif" font-size="18" fill="#222222">sin</text>
  <rect x="583" y="3155" width="158.022" height="24" rx="2" ry="2" fill="#89d88a"/>
  <text x="751.022" y="3172.5" text-anchor="start" font-family="Segoe UI, Arial, sans-serif" font-size="15" font-weight="600" fill="#444444">1.58x [768ns]</text>
  <text x="571" y="3207" text-anchor="end" font-family="Segoe UI, Arial, sans-serif" font-size="18" fill="#222222">cos</text>
  <rect x="583" y="3189" width="121.181" height="24" rx="2" ry="2" fill="#89d88a"/>
  <text x="714.181" y="3206.5" text-anchor="start" font-family="Segoe UI, Arial, sans-serif" font-size="15" font-weight="600" fill="#444444">1.21x [770ns]</text>
  <text x="571" y="3241" text-anchor="end" font-family="Segoe UI, Arial, sans-serif" font-size="18" fill="#222222">tan</text>
  <rect x="583" y="3223" width="148.067" height="24" rx="2" ry="2" fill="#89d88a"/>
  <text x="741.067" y="3240.5" text-anchor="start" font-family="Segoe UI, Arial, sans-serif" font-size="15" font-weight="600" fill="#444444">1.48x [917ns]</text>
  <text x="571" y="3275" text-anchor="end" font-family="Segoe UI, Arial, sans-serif" font-size="18" fill="#222222">asin</text>
  <rect x="583" y="3257" width="367.398" height="24" rx="2" ry="2" fill="#89d88a"/>
  <text x="960.398" y="3274.5" text-anchor="start" font-family="Segoe UI, Arial, sans-serif" font-size="15" font-weight="600" fill="#444444">3.67x [1026ns]</text>
  <text x="571" y="3309" text-anchor="end" font-family="Segoe UI, Arial, sans-serif" font-size="18" fill="#222222">acos</text>
  <rect x="583" y="3291" width="384.863" height="24" rx="2" ry="2" fill="#89d88a"/>
  <text x="975" y="3308.5" text-anchor="start" font-family="Segoe UI, Arial, sans-serif" font-size="15" font-weight="600" fill="#444444">3.85x [1043ns]</text>
  <text x="571" y="3343" text-anchor="end" font-family="Segoe UI, Arial, sans-serif" font-size="18" fill="#222222">atan</text>
  <rect x="583" y="3325" width="400" height="24" rx="2" ry="2" fill="#89d88a"/>
  <polygon points="983,3325 1001,3337 983,3349" fill="#89d88a"/>
  <text x="1009" y="3342.5" text-anchor="start" font-family="Segoe UI, Arial, sans-serif" font-size="15" font-weight="600" fill="#444444">4.03x [826ns]</text>
  <text x="571" y="3377" text-anchor="end" font-family="Segoe UI, Arial, sans-serif" font-size="18" fill="#222222">atan2</text>
  <rect x="583" y="3359" width="400" height="24" rx="2" ry="2" fill="#89d88a"/>
  <polygon points="983,3359 1001,3371 983,3383" fill="#89d88a"/>
  <text x="1009" y="3376.5" text-anchor="start" font-family="Segoe UI, Arial, sans-serif" font-size="15" font-weight="600" fill="#444444">4.10x [911ns]</text>
  <line x1="575" y1="3388" x2="983" y2="3388" stroke="#cfcfcf" stroke-width="1"/>
  <text x="575" y="3418" text-anchor="end" font-family="Segoe UI, Arial, sans-serif" font-size="20" font-weight="700" fill="#1f1f1f">Hyperbolic</text>
  <text x="571" y="3451" text-anchor="end" font-family="Segoe UI, Arial, sans-serif" font-size="18" fill="#222222">sinh</text>
  <rect x="583" y="3433" width="118.718" height="24" rx="2" ry="2" fill="#89d88a"/>
  <text x="711.718" y="3450.5" text-anchor="start" font-family="Segoe UI, Arial, sans-serif" font-size="15" font-weight="600" fill="#444444">1.19x [989ns]</text>
  <text x="571" y="3485" text-anchor="end" font-family="Segoe UI, Arial, sans-serif" font-size="18" fill="#222222">cosh</text>
  <rect x="583" y="3467" width="161.525" height="24" rx="2" ry="2" fill="#89d88a"/>
  <text x="754.525" y="3484.5" text-anchor="start" font-family="Segoe UI, Arial, sans-serif" font-size="15" font-weight="600" fill="#444444">1.62x [691ns]</text>
  <text x="571" y="3519" text-anchor="end" font-family="Segoe UI, Arial, sans-serif" font-size="18" fill="#222222">tanh</text>
  <rect x="583" y="3501" width="126.843" height="24" rx="2" ry="2" fill="#89d88a"/>
  <text x="719.843" y="3518.5" text-anchor="start" font-family="Segoe UI, Arial, sans-serif" font-size="15" font-weight="600" fill="#444444">1.27x [963ns]</text>
  <line x1="575" y1="3530" x2="983" y2="3530" stroke="#cfcfcf" stroke-width="1"/>
  <text x="575" y="3560" text-anchor="end" font-family="Segoe UI, Arial, sans-serif" font-size="20" font-weight="700" fill="#1f1f1f">Inverse hyperbolic</text>
  <text x="571" y="3593" text-anchor="end" font-family="Segoe UI, Arial, sans-serif" font-size="18" fill="#222222">asinh</text>
  <rect x="583" y="3575" width="295.922" height="24" rx="2" ry="2" fill="#89d88a"/>
  <text x="888.922" y="3592.5" text-anchor="start" font-family="Segoe UI, Arial, sans-serif" font-size="15" font-weight="600" fill="#444444">2.96x [658ns]</text>
  <text x="571" y="3627" text-anchor="end" font-family="Segoe UI, Arial, sans-serif" font-size="18" fill="#222222">acosh</text>
  <rect x="583" y="3609" width="284.831" height="24" rx="2" ry="2" fill="#89d88a"/>
  <text x="877.831" y="3626.5" text-anchor="start" font-family="Segoe UI, Arial, sans-serif" font-size="15" font-weight="600" fill="#444444">2.85x [658ns]</text>
  <text x="571" y="3661" text-anchor="end" font-family="Segoe UI, Arial, sans-serif" font-size="18" fill="#222222">atanh</text>
  <rect x="583" y="3643" width="281.997" height="24" rx="2" ry="2" fill="#89d88a"/>
  <text x="874.997" y="3660.5" text-anchor="start" font-family="Segoe UI, Arial, sans-serif" font-size="15" font-weight="600" fill="#444444">2.82x [706ns]</text>
  <line x1="575" y1="3672" x2="983" y2="3672" stroke="#cfcfcf" stroke-width="1"/>
  <text x="575" y="3702" text-anchor="end" font-family="Segoe UI, Arial, sans-serif" font-size="20" font-weight="700" fill="#1f1f1f">Special functions</text>
  <text x="571" y="3735" text-anchor="end" font-family="Segoe UI, Arial, sans-serif" font-size="18" fill="#222222">erfc</text>
  <rect x="583" y="3717" width="400" height="24" rx="2" ry="2" fill="#89d88a"/>
  <polygon points="983,3717 1001,3729 983,3741" fill="#89d88a"/>
  <text x="1009" y="3734.5" text-anchor="start" font-family="Segoe UI, Arial, sans-serif" font-size="15" font-weight="600" fill="#444444">4.49x [3249ns]</text>
  <text x="571" y="3769" text-anchor="end" font-family="Segoe UI, Arial, sans-serif" font-size="18" fill="#222222">erf</text>
  <rect x="583" y="3751" width="273.941" height="24" rx="2" ry="2" fill="#89d88a"/>
  <text x="866.941" y="3768.5" text-anchor="start" font-family="Segoe UI, Arial, sans-serif" font-size="15" font-weight="600" fill="#444444">2.74x [3246ns]</text>
  <text x="571" y="3803" text-anchor="end" font-family="Segoe UI, Arial, sans-serif" font-size="18" fill="#222222">tgamma</text>
  <rect x="583" y="3785" width="154.074" height="24" rx="2" ry="2" fill="#89d88a"/>
  <text x="747.074" y="3802.5" text-anchor="start" font-family="Segoe UI, Arial, sans-serif" font-size="15" font-weight="600" fill="#444444">1.54x [6562ns]</text>
  <text x="571" y="3837" text-anchor="end" font-family="Segoe UI, Arial, sans-serif" font-size="18" fill="#222222">lgamma</text>
  <rect x="583" y="3819" width="163.965" height="24" rx="2" ry="2" fill="#89d88a"/>
  <text x="756.965" y="3836.5" text-anchor="start" font-family="Segoe UI, Arial, sans-serif" font-size="15" font-weight="600" fill="#444444">1.64x [6388ns]</text>
</svg>
