<?xml version="1.0" encoding="UTF-8"?>
<svg xmlns="http://www.w3.org/2000/svg" width="954" height="2906" viewBox="0 0 954 2906">
  <rect x="0" y="0" width="954" height="2906" fill="#f2f2f2"/>
  <text x="477" y="38" text-anchor="middle" font-family="Segoe UI, Arial, sans-serif" font-size="28" font-weight="600" fill="#222222">f128 vs MPFR typical benchmark ratios</text>
  <line x1="330" y1="82" x2="330" y2="2888" stroke="#dddddd" stroke-width="1"/>
  <line x1="380" y1="82" x2="380" y2="2888" stroke="#dddddd" stroke-width="1"/>
  <line x1="430" y1="82" x2="430" y2="2888" stroke="#dddddd" stroke-width="1"/>
  <line x1="480" y1="82" x2="480" y2="2888" stroke="#dddddd" stroke-width="1"/>
  <line x1="530" y1="82" x2="530" y2="2888" stroke="#dddddd" stroke-width="1"/>
  <line x1="580" y1="82" x2="580" y2="2888" stroke="#dddddd" stroke-width="1"/>
  <line x1="630" y1="82" x2="630" y2="2888" stroke="#dddddd" stroke-width="1"/>
  <line x1="680" y1="82" x2="680" y2="2888" stroke="#dddddd" stroke-width="1"/>
  <line x1="730" y1="82" x2="730" y2="2888" stroke="#dddddd" stroke-width="1"/>
  <line x1="380" y1="82" x2="380" y2="2888" stroke="#6da7d9" stroke-width="2" stroke-dasharray="6,6"/>
  <text x="322" y="104" text-anchor="end" font-family="Segoe UI, Arial, sans-serif" font-size="20" font-weight="700" fill="#1f1f1f">f128 &lt;-&gt; f128</text>
  <text x="318" y="137" text-anchor="end" font-family="Segoe UI, Arial, sans-serif" font-size="18" fill="#222222">add</text>
  <rect x="330" y="119" width="400" height="24" rx="2" ry="2" fill="#89d88a"/>
  <polygon points="730,119 748,131 730,143" fill="#89d88a"/>
  <text x="756" y="136.5" text-anchor="start" font-family="Segoe UI, Arial, sans-serif" font-size="15" font-weight="600" fill="#444444">8.55x [7ns]</text>
  <text x="318" y="171" text-anchor="end" font-family="Segoe UI, Arial, sans-serif" font-size="18" fill="#222222">subtract</text>
  <rect x="330" y="153" width="400" height="24" rx="2" ry="2" fill="#89d88a"/>
  <polygon points="730,153 748,165 730,177" fill="#89d88a"/>
  <text x="756" y="170.5" text-anchor="start" font-family="Segoe UI, Arial, sans-serif" font-size="15" font-weight="600" fill="#444444">8.29x [7ns]</text>
  <text x="318" y="205" text-anchor="end" font-family="Segoe UI, Arial, sans-serif" font-size="18" fill="#222222">multiply</text>
  <rect x="330" y="187" width="400" height="24" rx="2" ry="2" fill="#89d88a"/>
  <polygon points="730,187 748,199 730,211" fill="#89d88a"/>
  <text x="756" y="204.5" text-anchor="start" font-family="Segoe UI, Arial, sans-serif" font-size="15" font-weight="600" fill="#444444">8.63x [7ns]</text>
  <text x="318" y="239" text-anchor="end" font-family="Segoe UI, Arial, sans-serif" font-size="18" fill="#222222">divide</text>
  <rect x="330" y="221" width="400" height="24" rx="2" ry="2" fill="#89d88a"/>
  <polygon points="730,221 748,233 730,245" fill="#89d88a"/>
  <text x="756" y="238.5" text-anchor="start" font-family="Segoe UI, Arial, sans-serif" font-size="15" font-weight="600" fill="#444444">10.11x [7ns]</text>
  <line x1="322" y1="250" x2="730" y2="250" stroke="#cfcfcf" stroke-width="1"/>
  <text x="322" y="280" text-anchor="end" font-family="Segoe UI, Arial, sans-serif" font-size="20" font-weight="700" fill="#1f1f1f">Mixed Workloads</text>
  <text x="318" y="313" text-anchor="end" font-family="Segoe UI, Arial, sans-serif" font-size="18" fill="#222222">affine trig transform</text>
  <rect x="330" y="295" width="400" height="24" rx="2" ry="2" fill="#89d88a"/>
  <polygon points="730,295 748,307 730,319" fill="#89d88a"/>
  <text x="756" y="312.5" text-anchor="start" font-family="Segoe UI, Arial, sans-serif" font-size="15" font-weight="600" fill="#444444">8.51x [189ns]</text>
  <text x="318" y="347" text-anchor="end" font-family="Segoe UI, Arial, sans-serif" font-size="18" fill="#222222">mandelbrot kernel</text>
  <rect x="330" y="329" width="399.19" height="24" rx="2" ry="2" fill="#89d88a"/>
  <text x="722" y="346.5" text-anchor="start" font-family="Segoe UI, Arial, sans-serif" font-size="15" font-weight="600" fill="#444444">7.98x [16ns]</text>
  <text x="318" y="381" text-anchor="end" font-family="Segoe UI, Arial, sans-serif" font-size="18" fill="#222222">mixed arithmetic</text>
  <rect x="330" y="363" width="400" height="24" rx="2" ry="2" fill="#89d88a"/>
  <polygon points="730,363 748,375 730,387" fill="#89d88a"/>
  <text x="756" y="380.5" text-anchor="start" font-family="Segoe UI, Arial, sans-serif" font-size="15" font-weight="600" fill="#444444">18.59x [21ns]</text>
  <line x1="322" y1="392" x2="730" y2="392" stroke="#cfcfcf" stroke-width="1"/>
  <text x="322" y="422" text-anchor="end" font-family="Segoe UI, Arial, sans-serif" font-size="20" font-weight="700" fill="#1f1f1f">Rounding</text>
  <text x="318" y="455" text-anchor="end" font-family="Segoe UI, Arial, sans-serif" font-size="18" fill="#222222">floor</text>
  <rect x="330" y="437" width="400" height="24" rx="2" ry="2" fill="#89d88a"/>
  <polygon points="730,437 748,449 730,461" fill="#89d88a"/>
  <text x="756" y="454.5" text-anchor="start" font-family="Segoe UI, Arial, sans-serif" font-size="15" font-weight="600" fill="#444444">9.26x [7ns]</text>
  <text x="318" y="489" text-anchor="end" font-family="Segoe UI, Arial, sans-serif" font-size="18" fill="#222222">ceil</text>
  <rect x="330" y="471" width="400" height="24" rx="2" ry="2" fill="#89d88a"/>
  <polygon points="730,471 748,483 730,495" fill="#89d88a"/>
  <text x="756" y="488.5" text-anchor="start" font-family="Segoe UI, Arial, sans-serif" font-size="15" font-weight="600" fill="#444444">9.11x [7ns]</text>
  <text x="318" y="523" text-anchor="end" font-family="Segoe UI, Arial, sans-serif" font-size="18" fill="#222222">trunc</text>
  <rect x="330" y="505" width="389.469" height="24" rx="2" ry="2" fill="#89d88a"/>
  <text x="722" y="522.5" text-anchor="start" font-family="Segoe UI, Arial, sans-serif" font-size="15" font-weight="600" fill="#444444">7.79x [8ns]</text>
  <text x="318" y="557" text-anchor="end" font-family="Segoe UI, Arial, sans-serif" font-size="18" fill="#222222">round</text>
  <rect x="330" y="539" width="400" height="24" rx="2" ry="2" fill="#89d88a"/>
  <polygon points="730,539 748,551 730,563" fill="#89d88a"/>
  <text x="756" y="556.5" text-anchor="start" font-family="Segoe UI, Arial, sans-serif" font-size="15" font-weight="600" fill="#444444">10.82x [7ns]</text>
  <text x="318" y="591" text-anchor="end" font-family="Segoe UI, Arial, sans-serif" font-size="18" fill="#222222">nearbyint</text>
  <rect x="330" y="573" width="400" height="24" rx="2" ry="2" fill="#89d88a"/>
  <polygon points="730,573 748,585 730,597" fill="#89d88a"/>
  <text x="756" y="590.5" text-anchor="start" font-family="Segoe UI, Arial, sans-serif" font-size="15" font-weight="600" fill="#444444">12.11x [7ns]</text>
  <text x="318" y="625" text-anchor="end" font-family="Segoe UI, Arial, sans-serif" font-size="18" fill="#222222">rint</text>
  <rect x="330" y="607" width="400" height="24" rx="2" ry="2" fill="#89d88a"/>
  <polygon points="730,607 748,619 730,631" fill="#89d88a"/>
  <text x="756" y="624.5" text-anchor="start" font-family="Segoe UI, Arial, sans-serif" font-size="15" font-weight="600" fill="#444444">10.69x [7ns]</text>
  <text x="318" y="659" text-anchor="end" font-family="Segoe UI, Arial, sans-serif" font-size="18" fill="#222222">lround</text>
  <rect x="330" y="641" width="400" height="24" rx="2" ry="2" fill="#89d88a"/>
  <polygon points="730,641 748,653 730,665" fill="#89d88a"/>
  <text x="756" y="658.5" text-anchor="start" font-family="Segoe UI, Arial, sans-serif" font-size="15" font-weight="600" fill="#444444">11.43x [4ns]</text>
  <text x="318" y="693" text-anchor="end" font-family="Segoe UI, Arial, sans-serif" font-size="18" fill="#222222">llround</text>
  <rect x="330" y="675" width="400" height="24" rx="2" ry="2" fill="#89d88a"/>
  <polygon points="730,675 748,687 730,699" fill="#89d88a"/>
  <text x="756" y="692.5" text-anchor="start" font-family="Segoe UI, Arial, sans-serif" font-size="15" font-weight="600" fill="#444444">11.59x [4ns]</text>
  <text x="318" y="727" text-anchor="end" font-family="Segoe UI, Arial, sans-serif" font-size="18" fill="#222222">lrint</text>
  <rect x="330" y="709" width="400" height="24" rx="2" ry="2" fill="#89d88a"/>
  <polygon points="730,709 748,721 730,733" fill="#89d88a"/>
  <text x="756" y="726.5" text-anchor="start" font-family="Segoe UI, Arial, sans-serif" font-size="15" font-weight="600" fill="#444444">9.98x [5ns]</text>
  <text x="318" y="761" text-anchor="end" font-family="Segoe UI, Arial, sans-serif" font-size="18" fill="#222222">llrint</text>
  <rect x="330" y="743" width="400" height="24" rx="2" ry="2" fill="#89d88a"/>
  <polygon points="730,743 748,755 730,767" fill="#89d88a"/>
  <text x="756" y="760.5" text-anchor="start" font-family="Segoe UI, Arial, sans-serif" font-size="15" font-weight="600" fill="#444444">10.48x [5ns]</text>
  <line x1="322" y1="772" x2="730" y2="772" stroke="#cfcfcf" stroke-width="1"/>
  <text x="322" y="802" text-anchor="end" font-family="Segoe UI, Arial, sans-serif" font-size="20" font-weight="700" fill="#1f1f1f">Remainders</text>
  <text x="318" y="835" text-anchor="end" font-family="Segoe UI, Arial, sans-serif" font-size="18" fill="#222222">fmod</text>
  <rect x="330" y="817" width="213.549" height="24" rx="2" ry="2" fill="#89d88a"/>
  <text x="553.549" y="834.5" text-anchor="start" font-family="Segoe UI, Arial, sans-serif" font-size="15" font-weight="600" fill="#444444">4.27x [27ns]</text>
  <text x="318" y="869" text-anchor="end" font-family="Segoe UI, Arial, sans-serif" font-size="18" fill="#222222">remainder</text>
  <rect x="330" y="851" width="243.906" height="24" rx="2" ry="2" fill="#89d88a"/>
  <text x="583.906" y="868.5" text-anchor="start" font-family="Segoe UI, Arial, sans-serif" font-size="15" font-weight="600" fill="#444444">4.88x [28ns]</text>
  <text x="318" y="903" text-anchor="end" font-family="Segoe UI, Arial, sans-serif" font-size="18" fill="#222222">remquo</text>
  <rect x="330" y="885" width="400" height="24" rx="2" ry="2" fill="#89d88a"/>
  <polygon points="730,885 748,897 730,909" fill="#89d88a"/>
  <text x="756" y="902.5" text-anchor="start" font-family="Segoe UI, Arial, sans-serif" font-size="15" font-weight="600" fill="#444444">11.00x [14ns]</text>
  <line x1="322" y1="914" x2="730" y2="914" stroke="#cfcfcf" stroke-width="1"/>
  <text x="322" y="944" text-anchor="end" font-family="Segoe UI, Arial, sans-serif" font-size="20" font-weight="700" fill="#1f1f1f">Floating-point utilities</text>
  <text x="318" y="977" text-anchor="end" font-family="Segoe UI, Arial, sans-serif" font-size="18" fill="#222222">abs</text>
  <rect x="330" y="959" width="400" height="24" rx="2" ry="2" fill="#89d88a"/>
  <polygon points="730,959 748,971 730,983" fill="#89d88a"/>
  <text x="756" y="976.5" text-anchor="start" font-family="Segoe UI, Arial, sans-serif" font-size="15" font-weight="600" fill="#444444">8.40x [7ns]</text>
  <text x="318" y="1011" text-anchor="end" font-family="Segoe UI, Arial, sans-serif" font-size="18" fill="#222222">fma</text>
  <rect x="330" y="993" width="400" height="24" rx="2" ry="2" fill="#89d88a"/>
  <polygon points="730,993 748,1005 730,1017" fill="#89d88a"/>
  <text x="756" y="1010.5" text-anchor="start" font-family="Segoe UI, Arial, sans-serif" font-size="15" font-weight="600" fill="#444444">11.60x [7ns]</text>
  <text x="318" y="1045" text-anchor="end" font-family="Segoe UI, Arial, sans-serif" font-size="18" fill="#222222">fmin</text>
  <rect x="330" y="1027" width="400" height="24" rx="2" ry="2" fill="#89d88a"/>
  <polygon points="730,1027 748,1039 730,1051" fill="#89d88a"/>
  <text x="756" y="1044.5" text-anchor="start" font-family="Segoe UI, Arial, sans-serif" font-size="15" font-weight="600" fill="#444444">9.17x [7ns]</text>
  <text x="318" y="1079" text-anchor="end" font-family="Segoe UI, Arial, sans-serif" font-size="18" fill="#222222">fmax</text>
  <rect x="330" y="1061" width="400" height="24" rx="2" ry="2" fill="#89d88a"/>
  <polygon points="730,1061 748,1073 730,1085" fill="#89d88a"/>
  <text x="756" y="1078.5" text-anchor="start" font-family="Segoe UI, Arial, sans-serif" font-size="15" font-weight="600" fill="#444444">9.34x [7ns]</text>
  <text x="318" y="1113" text-anchor="end" font-family="Segoe UI, Arial, sans-serif" font-size="18" fill="#222222">fdim</text>
  <rect x="330" y="1095" width="400" height="24" rx="2" ry="2" fill="#89d88a"/>
  <polygon points="730,1095 748,1107 730,1119" fill="#89d88a"/>
  <text x="756" y="1112.5" text-anchor="start" font-family="Segoe UI, Arial, sans-serif" font-size="15" font-weight="600" fill="#444444">8.49x [7ns]</text>
  <text x="318" y="1147" text-anchor="end" font-family="Segoe UI, Arial, sans-serif" font-size="18" fill="#222222">copysign</text>
  <rect x="330" y="1129" width="400" height="24" rx="2" ry="2" fill="#89d88a"/>
  <polygon points="730,1129 748,1141 730,1153" fill="#89d88a"/>
  <text x="756" y="1146.5" text-anchor="start" font-family="Segoe UI, Arial, sans-serif" font-size="15" font-weight="600" fill="#444444">8.90x [7ns]</text>
  <text x="318" y="1181" text-anchor="end" font-family="Segoe UI, Arial, sans-serif" font-size="18" fill="#222222">ldexp</text>
  <rect x="330" y="1163" width="337.481" height="24" rx="2" ry="2" fill="#89d88a"/>
  <text x="677.481" y="1180.5" text-anchor="start" font-family="Segoe UI, Arial, sans-serif" font-size="15" font-weight="600" fill="#444444">6.75x [9ns]</text>
  <text x="318" y="1215" text-anchor="end" font-family="Segoe UI, Arial, sans-serif" font-size="18" fill="#222222">scalbn</text>
  <rect x="330" y="1197" width="344.819" height="24" rx="2" ry="2" fill="#89d88a"/>
  <text x="684.819" y="1214.5" text-anchor="start" font-family="Segoe UI, Arial, sans-serif" font-size="15" font-weight="600" fill="#444444">6.90x [8ns]</text>
  <text x="318" y="1249" text-anchor="end" font-family="Segoe UI, Arial, sans-serif" font-size="18" fill="#222222">scalbln</text>
  <rect x="330" y="1231" width="342.065" height="24" rx="2" ry="2" fill="#89d88a"/>
  <text x="682.065" y="1248.5" text-anchor="start" font-family="Segoe UI, Arial, sans-serif" font-size="15" font-weight="600" fill="#444444">6.84x [8ns]</text>
  <text x="318" y="1283" text-anchor="end" font-family="Segoe UI, Arial, sans-serif" font-size="18" fill="#222222">frexp</text>
  <rect x="330" y="1265" width="400" height="24" rx="2" ry="2" fill="#89d88a"/>
  <polygon points="730,1265 748,1277 730,1289" fill="#89d88a"/>
  <text x="756" y="1282.5" text-anchor="start" font-family="Segoe UI, Arial, sans-serif" font-size="15" font-weight="600" fill="#444444">8.77x [8ns]</text>
  <text x="318" y="1317" text-anchor="end" font-family="Segoe UI, Arial, sans-serif" font-size="18" fill="#222222">modf</text>
  <rect x="330" y="1299" width="400" height="24" rx="2" ry="2" fill="#89d88a"/>
  <polygon points="730,1299 748,1311 730,1323" fill="#89d88a"/>
  <text x="756" y="1316.5" text-anchor="start" font-family="Segoe UI, Arial, sans-serif" font-size="15" font-weight="600" fill="#444444">17.68x [9ns]</text>
  <text x="318" y="1351" text-anchor="end" font-family="Segoe UI, Arial, sans-serif" font-size="18" fill="#222222">ilogb</text>
  <rect x="330" y="1333" width="181.234" height="24" rx="2" ry="2" fill="#89d88a"/>
  <text x="521.234" y="1350.5" text-anchor="start" font-family="Segoe UI, Arial, sans-serif" font-size="15" font-weight="600" fill="#444444">3.62x [4ns]</text>
  <text x="318" y="1385" text-anchor="end" font-family="Segoe UI, Arial, sans-serif" font-size="18" fill="#222222">logb</text>
  <rect x="330" y="1367" width="400" height="24" rx="2" ry="2" fill="#89d88a"/>
  <polygon points="730,1367 748,1379 730,1391" fill="#89d88a"/>
  <text x="756" y="1384.5" text-anchor="start" font-family="Segoe UI, Arial, sans-serif" font-size="15" font-weight="600" fill="#444444">8.88x [9ns]</text>
  <text x="318" y="1419" text-anchor="end" font-family="Segoe UI, Arial, sans-serif" font-size="18" fill="#222222">nextafter</text>
  <rect x="330" y="1401" width="400" height="24" rx="2" ry="2" fill="#89d88a"/>
  <polygon points="730,1401 748,1413 730,1425" fill="#89d88a"/>
  <text x="756" y="1418.5" text-anchor="start" font-family="Segoe UI, Arial, sans-serif" font-size="15" font-weight="600" fill="#444444">28.01x [8ns]</text>
  <text x="318" y="1453" text-anchor="end" font-family="Segoe UI, Arial, sans-serif" font-size="18" fill="#222222">nexttoward(type)</text>
  <rect x="330" y="1435" width="400" height="24" rx="2" ry="2" fill="#89d88a"/>
  <polygon points="730,1435 748,1447 730,1459" fill="#89d88a"/>
  <text x="756" y="1452.5" text-anchor="start" font-family="Segoe UI, Arial, sans-serif" font-size="15" font-weight="600" fill="#444444">34.11x [7ns]</text>
  <text x="318" y="1487" text-anchor="end" font-family="Segoe UI, Arial, sans-serif" font-size="18" fill="#222222">nexttoward(long double)</text>
  <rect x="330" y="1469" width="400" height="24" rx="2" ry="2" fill="#89d88a"/>
  <polygon points="730,1469 748,1481 730,1493" fill="#89d88a"/>
  <text x="756" y="1486.5" text-anchor="start" font-family="Segoe UI, Arial, sans-serif" font-size="15" font-weight="600" fill="#444444">38.86x [7ns]</text>
  <line x1="322" y1="1498" x2="730" y2="1498" stroke="#cfcfcf" stroke-width="1"/>
  <text x="322" y="1528" text-anchor="end" font-family="Segoe UI, Arial, sans-serif" font-size="20" font-weight="700" fill="#1f1f1f">Roots &amp; powers</text>
  <text x="318" y="1561" text-anchor="end" font-family="Segoe UI, Arial, sans-serif" font-size="18" fill="#222222">sqrt</text>
  <rect x="330" y="1543" width="400" height="24" rx="2" ry="2" fill="#89d88a"/>
  <polygon points="730,1543 748,1555 730,1567" fill="#89d88a"/>
  <text x="756" y="1560.5" text-anchor="start" font-family="Segoe UI, Arial, sans-serif" font-size="15" font-weight="600" fill="#444444">10.30x [7ns]</text>
  <text x="318" y="1595" text-anchor="end" font-family="Segoe UI, Arial, sans-serif" font-size="18" fill="#222222">cbrt</text>
  <rect x="330" y="1577" width="266.665" height="24" rx="2" ry="2" fill="#89d88a"/>
  <text x="606.665" y="1594.5" text-anchor="start" font-family="Segoe UI, Arial, sans-serif" font-size="15" font-weight="600" fill="#444444">5.33x [55ns]</text>
  <text x="318" y="1629" text-anchor="end" font-family="Segoe UI, Arial, sans-serif" font-size="18" fill="#222222">hypot</text>
  <rect x="330" y="1611" width="400" height="24" rx="2" ry="2" fill="#89d88a"/>
  <polygon points="730,1611 748,1623 730,1635" fill="#89d88a"/>
  <text x="756" y="1628.5" text-anchor="start" font-family="Segoe UI, Arial, sans-serif" font-size="15" font-weight="600" fill="#444444">10.43x [15ns]</text>
  <text x="318" y="1663" text-anchor="end" font-family="Segoe UI, Arial, sans-serif" font-size="18" fill="#222222">pow</text>
  <rect x="330" y="1645" width="234.051" height="24" rx="2" ry="2" fill="#89d88a"/>
  <text x="574.051" y="1662.5" text-anchor="start" font-family="Segoe UI, Arial, sans-serif" font-size="15" font-weight="600" fill="#444444">4.68x [378ns]</text>
  <line x1="322" y1="1674" x2="730" y2="1674" stroke="#cfcfcf" stroke-width="1"/>
  <text x="322" y="1704" text-anchor="end" font-family="Segoe UI, Arial, sans-serif" font-size="20" font-weight="700" fill="#1f1f1f">Exponentials</text>
  <text x="318" y="1737" text-anchor="end" font-family="Segoe UI, Arial, sans-serif" font-size="18" fill="#222222">exp</text>
  <rect x="330" y="1719" width="233.226" height="24" rx="2" ry="2" fill="#89d88a"/>
  <text x="573.226" y="1736.5" text-anchor="start" font-family="Segoe UI, Arial, sans-serif" font-size="15" font-weight="600" fill="#444444">4.66x [146ns]</text>
  <text x="318" y="1771" text-anchor="end" font-family="Segoe UI, Arial, sans-serif" font-size="18" fill="#222222">exp2</text>
  <rect x="330" y="1753" width="273.177" height="24" rx="2" ry="2" fill="#89d88a"/>
  <text x="613.177" y="1770.5" text-anchor="start" font-family="Segoe UI, Arial, sans-serif" font-size="15" font-weight="600" fill="#444444">5.46x [147ns]</text>
  <text x="318" y="1805" text-anchor="end" font-family="Segoe UI, Arial, sans-serif" font-size="18" fill="#222222">expm1</text>
  <rect x="330" y="1787" width="260.201" height="24" rx="2" ry="2" fill="#89d88a"/>
  <text x="600.201" y="1804.5" text-anchor="start" font-family="Segoe UI, Arial, sans-serif" font-size="15" font-weight="600" fill="#444444">5.20x [151ns]</text>
  <line x1="322" y1="1816" x2="730" y2="1816" stroke="#cfcfcf" stroke-width="1"/>
  <text x="322" y="1846" text-anchor="end" font-family="Segoe UI, Arial, sans-serif" font-size="20" font-weight="700" fill="#1f1f1f">Logarithms</text>
  <text x="318" y="1879" text-anchor="end" font-family="Segoe UI, Arial, sans-serif" font-size="18" fill="#222222">log</text>
  <rect x="330" y="1861" width="229.988" height="24" rx="2" ry="2" fill="#89d88a"/>
  <text x="569.988" y="1878.5" text-anchor="start" font-family="Segoe UI, Arial, sans-serif" font-size="15" font-weight="600" fill="#444444">4.60x [215ns]</text>
  <text x="318" y="1913" text-anchor="end" font-family="Segoe UI, Arial, sans-serif" font-size="18" fill="#222222">log2</text>
  <rect x="330" y="1895" width="242.13" height="24" rx="2" ry="2" fill="#89d88a"/>
  <text x="582.13" y="1912.5" text-anchor="start" font-family="Segoe UI, Arial, sans-serif" font-size="15" font-weight="600" fill="#444444">4.84x [218ns]</text>
  <text x="318" y="1947" text-anchor="end" font-family="Segoe UI, Arial, sans-serif" font-size="18" fill="#222222">log10</text>
  <rect x="330" y="1929" width="303.277" height="24" rx="2" ry="2" fill="#89d88a"/>
  <text x="643.277" y="1946.5" text-anchor="start" font-family="Segoe UI, Arial, sans-serif" font-size="15" font-weight="600" fill="#444444">6.07x [316ns]</text>
  <text x="318" y="1981" text-anchor="end" font-family="Segoe UI, Arial, sans-serif" font-size="18" fill="#222222">log1p</text>
  <rect x="330" y="1963" width="238.808" height="24" rx="2" ry="2" fill="#89d88a"/>
  <text x="578.808" y="1980.5" text-anchor="start" font-family="Segoe UI, Arial, sans-serif" font-size="15" font-weight="600" fill="#444444">4.78x [219ns]</text>
  <line x1="322" y1="1992" x2="730" y2="1992" stroke="#cfcfcf" stroke-width="1"/>
  <text x="322" y="2022" text-anchor="end" font-family="Segoe UI, Arial, sans-serif" font-size="20" font-weight="700" fill="#1f1f1f">Trigonometric</text>
  <text x="318" y="2055" text-anchor="end" font-family="Segoe UI, Arial, sans-serif" font-size="18" fill="#222222">sin</text>
  <rect x="330" y="2037" width="400" height="24" rx="2" ry="2" fill="#89d88a"/>
  <polygon points="730,2037 748,2049 730,2061" fill="#89d88a"/>
  <text x="756" y="2054.5" text-anchor="start" font-family="Segoe UI, Arial, sans-serif" font-size="15" font-weight="600" fill="#444444">10.54x [87ns]</text>
  <text x="318" y="2089" text-anchor="end" font-family="Segoe UI, Arial, sans-serif" font-size="18" fill="#222222">cos</text>
  <rect x="330" y="2071" width="372.449" height="24" rx="2" ry="2" fill="#89d88a"/>
  <text x="712.449" y="2088.5" text-anchor="start" font-family="Segoe UI, Arial, sans-serif" font-size="15" font-weight="600" fill="#444444">7.45x [88ns]</text>
  <text x="318" y="2123" text-anchor="end" font-family="Segoe UI, Arial, sans-serif" font-size="18" fill="#222222">tan</text>
  <rect x="330" y="2105" width="400" height="24" rx="2" ry="2" fill="#89d88a"/>
  <polygon points="730,2105 748,2117 730,2129" fill="#89d88a"/>
  <text x="756" y="2122.5" text-anchor="start" font-family="Segoe UI, Arial, sans-serif" font-size="15" font-weight="600" fill="#444444">10.74x [94ns]</text>
  <text x="318" y="2157" text-anchor="end" font-family="Segoe UI, Arial, sans-serif" font-size="18" fill="#222222">asin</text>
  <rect x="330" y="2139" width="400" height="24" rx="2" ry="2" fill="#89d88a"/>
  <polygon points="730,2139 748,2151 730,2163" fill="#89d88a"/>
  <text x="756" y="2156.5" text-anchor="start" font-family="Segoe UI, Arial, sans-serif" font-size="15" font-weight="600" fill="#444444">11.81x [160ns]</text>
  <text x="318" y="2191" text-anchor="end" font-family="Segoe UI, Arial, sans-serif" font-size="18" fill="#222222">acos</text>
  <rect x="330" y="2173" width="400" height="24" rx="2" ry="2" fill="#89d88a"/>
  <polygon points="730,2173 748,2185 730,2197" fill="#89d88a"/>
  <text x="756" y="2190.5" text-anchor="start" font-family="Segoe UI, Arial, sans-serif" font-size="15" font-weight="600" fill="#444444">11.98x [163ns]</text>
  <text x="318" y="2225" text-anchor="end" font-family="Segoe UI, Arial, sans-serif" font-size="18" fill="#222222">atan</text>
  <rect x="330" y="2207" width="400" height="24" rx="2" ry="2" fill="#89d88a"/>
  <polygon points="730,2207 748,2219 730,2231" fill="#89d88a"/>
  <text x="756" y="2224.5" text-anchor="start" font-family="Segoe UI, Arial, sans-serif" font-size="15" font-weight="600" fill="#444444">10.90x [138ns]</text>
  <text x="318" y="2259" text-anchor="end" font-family="Segoe UI, Arial, sans-serif" font-size="18" fill="#222222">atan2</text>
  <rect x="330" y="2241" width="400" height="24" rx="2" ry="2" fill="#89d88a"/>
  <polygon points="730,2241 748,2253 730,2265" fill="#89d88a"/>
  <text x="756" y="2258.5" text-anchor="start" font-family="Segoe UI, Arial, sans-serif" font-size="15" font-weight="600" fill="#444444">13.54x [148ns]</text>
  <text x="318" y="2293" text-anchor="end" font-family="Segoe UI, Arial, sans-serif" font-size="18" fill="#222222">sincos</text>
  <rect x="330" y="2275" width="400" height="24" rx="2" ry="2" fill="#89d88a"/>
  <polygon points="730,2275 748,2287 730,2299" fill="#89d88a"/>
  <text x="756" y="2292.5" text-anchor="start" font-family="Segoe UI, Arial, sans-serif" font-size="15" font-weight="600" fill="#444444">16.93x [95ns]</text>
  <line x1="322" y1="2304" x2="730" y2="2304" stroke="#cfcfcf" stroke-width="1"/>
  <text x="322" y="2334" text-anchor="end" font-family="Segoe UI, Arial, sans-serif" font-size="20" font-weight="700" fill="#1f1f1f">Hyperbolic</text>
  <text x="318" y="2367" text-anchor="end" font-family="Segoe UI, Arial, sans-serif" font-size="18" fill="#222222">sinh</text>
  <rect x="330" y="2349" width="261.838" height="24" rx="2" ry="2" fill="#89d88a"/>
  <text x="601.838" y="2366.5" text-anchor="start" font-family="Segoe UI, Arial, sans-serif" font-size="15" font-weight="600" fill="#444444">5.24x [156ns]</text>
  <text x="318" y="2401" text-anchor="end" font-family="Segoe UI, Arial, sans-serif" font-size="18" fill="#222222">cosh</text>
  <rect x="330" y="2383" width="259.556" height="24" rx="2" ry="2" fill="#89d88a"/>
  <text x="599.556" y="2400.5" text-anchor="start" font-family="Segoe UI, Arial, sans-serif" font-size="15" font-weight="600" fill="#444444">5.19x [156ns]</text>
  <text x="318" y="2435" text-anchor="end" font-family="Segoe UI, Arial, sans-serif" font-size="18" fill="#222222">tanh</text>
  <rect x="330" y="2417" width="267.223" height="24" rx="2" ry="2" fill="#89d88a"/>
  <text x="607.223" y="2434.5" text-anchor="start" font-family="Segoe UI, Arial, sans-serif" font-size="15" font-weight="600" fill="#444444">5.34x [165ns]</text>
  <line x1="322" y1="2446" x2="730" y2="2446" stroke="#cfcfcf" stroke-width="1"/>
  <text x="322" y="2476" text-anchor="end" font-family="Segoe UI, Arial, sans-serif" font-size="20" font-weight="700" fill="#1f1f1f">Inverse hyperbolic</text>
  <text x="318" y="2509" text-anchor="end" font-family="Segoe UI, Arial, sans-serif" font-size="18" fill="#222222">asinh</text>
  <rect x="330" y="2491" width="400" height="24" rx="2" ry="2" fill="#89d88a"/>
  <polygon points="730,2491 748,2503 730,2515" fill="#89d88a"/>
  <text x="756" y="2508.5" text-anchor="start" font-family="Segoe UI, Arial, sans-serif" font-size="15" font-weight="600" fill="#444444">12.25x [241ns]</text>
  <text x="318" y="2543" text-anchor="end" font-family="Segoe UI, Arial, sans-serif" font-size="18" fill="#222222">acosh</text>
  <rect x="330" y="2525" width="239.036" height="24" rx="2" ry="2" fill="#89d88a"/>
  <text x="579.036" y="2542.5" text-anchor="start" font-family="Segoe UI, Arial, sans-serif" font-size="15" font-weight="600" fill="#444444">4.78x [240ns]</text>
  <text x="318" y="2577" text-anchor="end" font-family="Segoe UI, Arial, sans-serif" font-size="18" fill="#222222">atanh</text>
  <rect x="330" y="2559" width="293.805" height="24" rx="2" ry="2" fill="#89d88a"/>
  <text x="633.805" y="2576.5" text-anchor="start" font-family="Segoe UI, Arial, sans-serif" font-size="15" font-weight="600" fill="#444444">5.88x [215ns]</text>
  <line x1="322" y1="2588" x2="730" y2="2588" stroke="#cfcfcf" stroke-width="1"/>
  <text x="322" y="2618" text-anchor="end" font-family="Segoe UI, Arial, sans-serif" font-size="20" font-weight="700" fill="#1f1f1f">Special functions</text>
  <text x="318" y="2651" text-anchor="end" font-family="Segoe UI, Arial, sans-serif" font-size="18" fill="#222222">erfc</text>
  <rect x="330" y="2633" width="400" height="24" rx="2" ry="2" fill="#89d88a"/>
  <polygon points="730,2633 748,2645 730,2657" fill="#89d88a"/>
  <text x="756" y="2650.5" text-anchor="start" font-family="Segoe UI, Arial, sans-serif" font-size="15" font-weight="600" fill="#444444">11.44x [696ns]</text>
  <text x="318" y="2685" text-anchor="end" font-family="Segoe UI, Arial, sans-serif" font-size="18" fill="#222222">erf</text>
  <rect x="330" y="2667" width="289.393" height="24" rx="2" ry="2" fill="#89d88a"/>
  <text x="629.393" y="2684.5" text-anchor="start" font-family="Segoe UI, Arial, sans-serif" font-size="15" font-weight="600" fill="#444444">5.79x [736ns]</text>
  <text x="318" y="2719" text-anchor="end" font-family="Segoe UI, Arial, sans-serif" font-size="18" fill="#222222">tgamma</text>
  <rect x="330" y="2701" width="400" height="24" rx="2" ry="2" fill="#89d88a"/>
  <polygon points="730,2701 748,2713 730,2725" fill="#89d88a"/>
  <text x="756" y="2718.5" text-anchor="start" font-family="Segoe UI, Arial, sans-serif" font-size="15" font-weight="600" fill="#444444">8.44x [588ns]</text>
  <text x="318" y="2753" text-anchor="end" font-family="Segoe UI, Arial, sans-serif" font-size="18" fill="#222222">lgamma</text>
  <rect x="330" y="2735" width="400" height="24" rx="2" ry="2" fill="#89d88a"/>
  <polygon points="730,2735 748,2747 730,2759" fill="#89d88a"/>
  <text x="756" y="2752.5" text-anchor="start" font-family="Segoe UI, Arial, sans-serif" font-size="15" font-weight="600" fill="#444444">8.76x [625ns]</text>
  <line x1="322" y1="2764" x2="730" y2="2764" stroke="#cfcfcf" stroke-width="1"/>
  <text x="322" y="2794" text-anchor="end" font-family="Segoe UI, Arial, sans-serif" font-size="20" font-weight="700" fill="#1f1f1f">f128 internals</text>
  <text x="318" y="2827" text-anchor="end" font-family="Segoe UI, Arial, sans-serif" font-size="18" fill="#222222">diff_products_inline(x*a, y*b)</text>
  <rect x="330" y="2809" width="400" height="24" rx="2" ry="2" fill="#89d88a"/>
  <polygon points="730,2809 748,2821 730,2833" fill="#89d88a"/>
  <text x="756" y="2826.5" text-anchor="start" font-family="Segoe UI, Arial, sans-serif" font-size="15" font-weight="600" fill="#444444">11.30x [7ns]</text>
  <text x="318" y="2861" text-anchor="end" font-family="Segoe UI, Arial, sans-serif" font-size="18" fill="#222222">sum_products_inline(x*a, y*b)</text>
  <rect x="330" y="2843" width="400" height="24" rx="2" ry="2" fill="#89d88a"/>
  <polygon points="730,2843 748,2855 730,2867" fill="#89d88a"/>
  <text x="756" y="2860.5" text-anchor="start" font-family="Segoe UI, Arial, sans-serif" font-size="15" font-weight="600" fill="#444444">11.46x [7ns]</text>
</svg>
