<?xml version="1.0" encoding="UTF-8"?>
<svg xmlns="http://www.w3.org/2000/svg" width="877" height="2764" viewBox="0 0 877 2764">
  <rect x="0" y="0" width="877" height="2764" fill="#f2f2f2"/>
  <text x="438" y="38" text-anchor="middle" font-family="Segoe UI, Arial, sans-serif" font-size="28" font-weight="600" fill="#222222">f256 vs MPFR typical benchmark ratios</text>
  <line x1="253" y1="82" x2="253" y2="2746" stroke="#dddddd" stroke-width="1"/>
  <line x1="353" y1="82" x2="353" y2="2746" stroke="#dddddd" stroke-width="1"/>
  <line x1="453" y1="82" x2="453" y2="2746" stroke="#dddddd" stroke-width="1"/>
  <line x1="553" y1="82" x2="553" y2="2746" stroke="#dddddd" stroke-width="1"/>
  <line x1="653" y1="82" x2="653" y2="2746" stroke="#dddddd" stroke-width="1"/>
  <line x1="353" y1="82" x2="353" y2="2746" stroke="#6da7d9" stroke-width="2" stroke-dasharray="6,6"/>
  <text x="245" y="104" text-anchor="end" font-family="Segoe UI, Arial, sans-serif" font-size="20" font-weight="700" fill="#1f1f1f">f256 &lt;-&gt; f256</text>
  <text x="241" y="137" text-anchor="end" font-family="Segoe UI, Arial, sans-serif" font-size="18" fill="#222222">add</text>
  <rect x="253" y="119" width="238.454" height="24" rx="2" ry="2" fill="#89d88a"/>
  <text x="501.454" y="136.5" text-anchor="start" font-family="Segoe UI, Arial, sans-serif" font-size="15" font-weight="600" fill="#444444">2.38x [30ns]</text>
  <text x="241" y="171" text-anchor="end" font-family="Segoe UI, Arial, sans-serif" font-size="18" fill="#222222">subtract</text>
  <rect x="253" y="153" width="233.759" height="24" rx="2" ry="2" fill="#89d88a"/>
  <text x="496.759" y="170.5" text-anchor="start" font-family="Segoe UI, Arial, sans-serif" font-size="15" font-weight="600" fill="#444444">2.34x [30ns]</text>
  <text x="241" y="205" text-anchor="end" font-family="Segoe UI, Arial, sans-serif" font-size="18" fill="#222222">multiply</text>
  <rect x="253" y="187" width="245.743" height="24" rx="2" ry="2" fill="#89d88a"/>
  <text x="508.743" y="204.5" text-anchor="start" font-family="Segoe UI, Arial, sans-serif" font-size="15" font-weight="600" fill="#444444">2.46x [33ns]</text>
  <text x="241" y="239" text-anchor="end" font-family="Segoe UI, Arial, sans-serif" font-size="18" fill="#222222">divide</text>
  <rect x="253" y="221" width="107.067" height="24" rx="2" ry="2" fill="#89d88a"/>
  <text x="370.067" y="238.5" text-anchor="start" font-family="Segoe UI, Arial, sans-serif" font-size="15" font-weight="600" fill="#444444">1.07x [91ns]</text>
  <line x1="245" y1="250" x2="653" y2="250" stroke="#cfcfcf" stroke-width="1"/>
  <text x="245" y="280" text-anchor="end" font-family="Segoe UI, Arial, sans-serif" font-size="20" font-weight="700" fill="#1f1f1f">Mixed Workloads</text>
  <text x="241" y="313" text-anchor="end" font-family="Segoe UI, Arial, sans-serif" font-size="18" fill="#222222">affine trig transform</text>
  <rect x="253" y="295" width="142.008" height="24" rx="2" ry="2" fill="#89d88a"/>
  <text x="405.008" y="312.5" text-anchor="start" font-family="Segoe UI, Arial, sans-serif" font-size="15" font-weight="600" fill="#444444">1.42x [1777ns]</text>
  <text x="241" y="347" text-anchor="end" font-family="Segoe UI, Arial, sans-serif" font-size="18" fill="#222222">mandelbrot kernel</text>
  <rect x="253" y="329" width="152.666" height="24" rx="2" ry="2" fill="#89d88a"/>
  <text x="415.666" y="346.5" text-anchor="start" font-family="Segoe UI, Arial, sans-serif" font-size="15" font-weight="600" fill="#444444">1.53x [129ns]</text>
  <text x="241" y="381" text-anchor="end" font-family="Segoe UI, Arial, sans-serif" font-size="18" fill="#222222">mixed arithmetic</text>
  <rect x="253" y="363" width="185.164" height="24" rx="2" ry="2" fill="#89d88a"/>
  <text x="448.164" y="380.5" text-anchor="start" font-family="Segoe UI, Arial, sans-serif" font-size="15" font-weight="600" fill="#444444">1.85x [297ns]</text>
  <line x1="245" y1="392" x2="653" y2="392" stroke="#cfcfcf" stroke-width="1"/>
  <text x="245" y="422" text-anchor="end" font-family="Segoe UI, Arial, sans-serif" font-size="20" font-weight="700" fill="#1f1f1f">Rounding</text>
  <text x="241" y="455" text-anchor="end" font-family="Segoe UI, Arial, sans-serif" font-size="18" fill="#222222">floor</text>
  <rect x="253" y="437" width="316.235" height="24" rx="2" ry="2" fill="#89d88a"/>
  <text x="579.235" y="454.5" text-anchor="start" font-family="Segoe UI, Arial, sans-serif" font-size="15" font-weight="600" fill="#444444">3.16x [22ns]</text>
  <text x="241" y="489" text-anchor="end" font-family="Segoe UI, Arial, sans-serif" font-size="18" fill="#222222">ceil</text>
  <rect x="253" y="471" width="316.145" height="24" rx="2" ry="2" fill="#89d88a"/>
  <text x="579.145" y="488.5" text-anchor="start" font-family="Segoe UI, Arial, sans-serif" font-size="15" font-weight="600" fill="#444444">3.16x [22ns]</text>
  <text x="241" y="523" text-anchor="end" font-family="Segoe UI, Arial, sans-serif" font-size="18" fill="#222222">trunc</text>
  <rect x="253" y="505" width="318.027" height="24" rx="2" ry="2" fill="#89d88a"/>
  <text x="581.027" y="522.5" text-anchor="start" font-family="Segoe UI, Arial, sans-serif" font-size="15" font-weight="600" fill="#444444">3.18x [21ns]</text>
  <text x="241" y="557" text-anchor="end" font-family="Segoe UI, Arial, sans-serif" font-size="18" fill="#222222">round</text>
  <rect x="253" y="539" width="278.543" height="24" rx="2" ry="2" fill="#89d88a"/>
  <text x="541.543" y="556.5" text-anchor="start" font-family="Segoe UI, Arial, sans-serif" font-size="15" font-weight="600" fill="#444444">2.79x [32ns]</text>
  <text x="241" y="591" text-anchor="end" font-family="Segoe UI, Arial, sans-serif" font-size="18" fill="#222222">nearbyint</text>
  <rect x="253" y="573" width="400" height="24" rx="2" ry="2" fill="#89d88a"/>
  <polygon points="653,573 671,585 653,597" fill="#89d88a"/>
  <text x="679" y="590.5" text-anchor="start" font-family="Segoe UI, Arial, sans-serif" font-size="15" font-weight="600" fill="#444444">8.85x [34ns]</text>
  <text x="241" y="625" text-anchor="end" font-family="Segoe UI, Arial, sans-serif" font-size="18" fill="#222222">rint</text>
  <rect x="253" y="607" width="400" height="24" rx="2" ry="2" fill="#89d88a"/>
  <polygon points="653,607 671,619 653,631" fill="#89d88a"/>
  <text x="679" y="624.5" text-anchor="start" font-family="Segoe UI, Arial, sans-serif" font-size="15" font-weight="600" fill="#444444">9.99x [30ns]</text>
  <text x="241" y="659" text-anchor="end" font-family="Segoe UI, Arial, sans-serif" font-size="18" fill="#222222">lround</text>
  <rect x="253" y="641" width="267.932" height="24" rx="2" ry="2" fill="#89d88a"/>
  <text x="530.932" y="658.5" text-anchor="start" font-family="Segoe UI, Arial, sans-serif" font-size="15" font-weight="600" fill="#444444">2.68x [21ns]</text>
  <text x="241" y="693" text-anchor="end" font-family="Segoe UI, Arial, sans-serif" font-size="18" fill="#222222">llround</text>
  <rect x="253" y="675" width="274.391" height="24" rx="2" ry="2" fill="#89d88a"/>
  <text x="537.391" y="692.5" text-anchor="start" font-family="Segoe UI, Arial, sans-serif" font-size="15" font-weight="600" fill="#444444">2.74x [21ns]</text>
  <text x="241" y="727" text-anchor="end" font-family="Segoe UI, Arial, sans-serif" font-size="18" fill="#222222">lrint</text>
  <rect x="253" y="709" width="282.213" height="24" rx="2" ry="2" fill="#89d88a"/>
  <text x="545.213" y="726.5" text-anchor="start" font-family="Segoe UI, Arial, sans-serif" font-size="15" font-weight="600" fill="#444444">2.82x [20ns]</text>
  <text x="241" y="761" text-anchor="end" font-family="Segoe UI, Arial, sans-serif" font-size="18" fill="#222222">llrint</text>
  <rect x="253" y="743" width="286.881" height="24" rx="2" ry="2" fill="#89d88a"/>
  <text x="549.881" y="760.5" text-anchor="start" font-family="Segoe UI, Arial, sans-serif" font-size="15" font-weight="600" fill="#444444">2.87x [20ns]</text>
  <line x1="245" y1="772" x2="653" y2="772" stroke="#cfcfcf" stroke-width="1"/>
  <text x="245" y="802" text-anchor="end" font-family="Segoe UI, Arial, sans-serif" font-size="20" font-weight="700" fill="#1f1f1f">Remainders</text>
  <text x="241" y="835" text-anchor="end" font-family="Segoe UI, Arial, sans-serif" font-size="18" fill="#222222">fmod</text>
  <rect x="253" y="817" width="146.41" height="24" rx="2" ry="2" fill="#89d88a"/>
  <text x="409.41" y="834.5" text-anchor="start" font-family="Segoe UI, Arial, sans-serif" font-size="15" font-weight="600" fill="#444444">1.46x [80ns]</text>
  <text x="241" y="869" text-anchor="end" font-family="Segoe UI, Arial, sans-serif" font-size="18" fill="#222222">remainder</text>
  <rect x="253" y="851" width="298.137" height="24" rx="2" ry="2" fill="#89d88a"/>
  <text x="561.137" y="868.5" text-anchor="start" font-family="Segoe UI, Arial, sans-serif" font-size="15" font-weight="600" fill="#444444">2.98x [130ns]</text>
  <text x="241" y="903" text-anchor="end" font-family="Segoe UI, Arial, sans-serif" font-size="18" fill="#222222">remquo</text>
  <rect x="253" y="885" width="132.468" height="24" rx="2" ry="2" fill="#89d88a"/>
  <text x="395.468" y="902.5" text-anchor="start" font-family="Segoe UI, Arial, sans-serif" font-size="15" font-weight="600" fill="#444444">1.32x [139ns]</text>
  <line x1="245" y1="914" x2="653" y2="914" stroke="#cfcfcf" stroke-width="1"/>
  <text x="245" y="944" text-anchor="end" font-family="Segoe UI, Arial, sans-serif" font-size="20" font-weight="700" fill="#1f1f1f">Floating-point utilities</text>
  <text x="241" y="977" text-anchor="end" font-family="Segoe UI, Arial, sans-serif" font-size="18" fill="#222222">abs</text>
  <rect x="253" y="959" width="300.687" height="24" rx="2" ry="2" fill="#89d88a"/>
  <text x="563.687" y="976.5" text-anchor="start" font-family="Segoe UI, Arial, sans-serif" font-size="15" font-weight="600" fill="#444444">3.01x [20ns]</text>
  <text x="241" y="1011" text-anchor="end" font-family="Segoe UI, Arial, sans-serif" font-size="18" fill="#222222">fma</text>
  <rect x="253" y="993" width="250.84" height="24" rx="2" ry="2" fill="#89d88a"/>
  <text x="513.84" y="1010.5" text-anchor="start" font-family="Segoe UI, Arial, sans-serif" font-size="15" font-weight="600" fill="#444444">2.51x [36ns]</text>
  <text x="241" y="1045" text-anchor="end" font-family="Segoe UI, Arial, sans-serif" font-size="18" fill="#222222">fmin</text>
  <rect x="253" y="1027" width="400" height="24" rx="2" ry="2" fill="#89d88a"/>
  <polygon points="653,1027 671,1039 653,1051" fill="#89d88a"/>
  <text x="679" y="1044.5" text-anchor="start" font-family="Segoe UI, Arial, sans-serif" font-size="15" font-weight="600" fill="#444444">4.39x [16ns]</text>
  <text x="241" y="1079" text-anchor="end" font-family="Segoe UI, Arial, sans-serif" font-size="18" fill="#222222">fmax</text>
  <rect x="253" y="1061" width="400" height="24" rx="2" ry="2" fill="#89d88a"/>
  <polygon points="653,1061 671,1073 653,1085" fill="#89d88a"/>
  <text x="679" y="1078.5" text-anchor="start" font-family="Segoe UI, Arial, sans-serif" font-size="15" font-weight="600" fill="#444444">4.41x [16ns]</text>
  <text x="241" y="1113" text-anchor="end" font-family="Segoe UI, Arial, sans-serif" font-size="18" fill="#222222">fdim</text>
  <rect x="253" y="1095" width="285.033" height="24" rx="2" ry="2" fill="#89d88a"/>
  <text x="548.033" y="1112.5" text-anchor="start" font-family="Segoe UI, Arial, sans-serif" font-size="15" font-weight="600" fill="#444444">2.85x [22ns]</text>
  <text x="241" y="1147" text-anchor="end" font-family="Segoe UI, Arial, sans-serif" font-size="18" fill="#222222">copysign</text>
  <rect x="253" y="1129" width="314.305" height="24" rx="2" ry="2" fill="#89d88a"/>
  <text x="577.305" y="1146.5" text-anchor="start" font-family="Segoe UI, Arial, sans-serif" font-size="15" font-weight="600" fill="#444444">3.14x [22ns]</text>
  <text x="241" y="1181" text-anchor="end" font-family="Segoe UI, Arial, sans-serif" font-size="18" fill="#222222">ldexp</text>
  <rect x="253" y="1163" width="303.579" height="24" rx="2" ry="2" fill="#89d88a"/>
  <text x="566.579" y="1180.5" text-anchor="start" font-family="Segoe UI, Arial, sans-serif" font-size="15" font-weight="600" fill="#444444">3.04x [24ns]</text>
  <text x="241" y="1215" text-anchor="end" font-family="Segoe UI, Arial, sans-serif" font-size="18" fill="#222222">scalbn</text>
  <rect x="253" y="1197" width="300.828" height="24" rx="2" ry="2" fill="#89d88a"/>
  <text x="563.828" y="1214.5" text-anchor="start" font-family="Segoe UI, Arial, sans-serif" font-size="15" font-weight="600" fill="#444444">3.01x [24ns]</text>
  <text x="241" y="1249" text-anchor="end" font-family="Segoe UI, Arial, sans-serif" font-size="18" fill="#222222">scalbln</text>
  <rect x="253" y="1231" width="304.798" height="24" rx="2" ry="2" fill="#89d88a"/>
  <text x="567.798" y="1248.5" text-anchor="start" font-family="Segoe UI, Arial, sans-serif" font-size="15" font-weight="600" fill="#444444">3.05x [24ns]</text>
  <text x="241" y="1283" text-anchor="end" font-family="Segoe UI, Arial, sans-serif" font-size="18" fill="#222222">frexp</text>
  <rect x="253" y="1265" width="322.271" height="24" rx="2" ry="2" fill="#89d88a"/>
  <text x="585.271" y="1282.5" text-anchor="start" font-family="Segoe UI, Arial, sans-serif" font-size="15" font-weight="600" fill="#444444">3.22x [28ns]</text>
  <text x="241" y="1317" text-anchor="end" font-family="Segoe UI, Arial, sans-serif" font-size="18" fill="#222222">modf</text>
  <rect x="253" y="1299" width="400" height="24" rx="2" ry="2" fill="#89d88a"/>
  <polygon points="653,1299 671,1311 653,1323" fill="#89d88a"/>
  <text x="679" y="1316.5" text-anchor="start" font-family="Segoe UI, Arial, sans-serif" font-size="15" font-weight="600" fill="#444444">4.69x [42ns]</text>
  <text x="241" y="1351" text-anchor="end" font-family="Segoe UI, Arial, sans-serif" font-size="18" fill="#222222">ilogb</text>
  <rect x="253" y="1333" width="206.874" height="24" rx="2" ry="2" fill="#89d88a"/>
  <text x="469.874" y="1350.5" text-anchor="start" font-family="Segoe UI, Arial, sans-serif" font-size="15" font-weight="600" fill="#444444">2.07x [7ns]</text>
  <text x="241" y="1385" text-anchor="end" font-family="Segoe UI, Arial, sans-serif" font-size="18" fill="#222222">logb</text>
  <rect x="253" y="1367" width="358.851" height="24" rx="2" ry="2" fill="#89d88a"/>
  <text x="621.851" y="1384.5" text-anchor="start" font-family="Segoe UI, Arial, sans-serif" font-size="15" font-weight="600" fill="#444444">3.59x [23ns]</text>
  <text x="241" y="1419" text-anchor="end" font-family="Segoe UI, Arial, sans-serif" font-size="18" fill="#222222">nextafter</text>
  <rect x="253" y="1401" width="400" height="24" rx="2" ry="2" fill="#89d88a"/>
  <polygon points="653,1401 671,1413 653,1425" fill="#89d88a"/>
  <text x="679" y="1418.5" text-anchor="start" font-family="Segoe UI, Arial, sans-serif" font-size="15" font-weight="600" fill="#444444">10.61x [24ns]</text>
  <text x="241" y="1453" text-anchor="end" font-family="Segoe UI, Arial, sans-serif" font-size="18" fill="#222222">nexttoward(type)</text>
  <rect x="253" y="1435" width="400" height="24" rx="2" ry="2" fill="#89d88a"/>
  <polygon points="653,1435 671,1447 653,1459" fill="#89d88a"/>
  <text x="679" y="1452.5" text-anchor="start" font-family="Segoe UI, Arial, sans-serif" font-size="15" font-weight="600" fill="#444444">10.64x [24ns]</text>
  <text x="241" y="1487" text-anchor="end" font-family="Segoe UI, Arial, sans-serif" font-size="18" fill="#222222">nexttoward(long double)</text>
  <rect x="253" y="1469" width="400" height="24" rx="2" ry="2" fill="#89d88a"/>
  <polygon points="653,1469 671,1481 653,1493" fill="#89d88a"/>
  <text x="679" y="1486.5" text-anchor="start" font-family="Segoe UI, Arial, sans-serif" font-size="15" font-weight="600" fill="#444444">11.65x [24ns]</text>
  <line x1="245" y1="1498" x2="653" y2="1498" stroke="#cfcfcf" stroke-width="1"/>
  <text x="245" y="1528" text-anchor="end" font-family="Segoe UI, Arial, sans-serif" font-size="20" font-weight="700" fill="#1f1f1f">Roots &amp; powers</text>
  <text x="241" y="1561" text-anchor="end" font-family="Segoe UI, Arial, sans-serif" font-size="18" fill="#222222">sqrt</text>
  <rect x="253" y="1543" width="101.298" height="24" rx="2" ry="2" fill="#89d88a"/>
  <text x="364.298" y="1560.5" text-anchor="start" font-family="Segoe UI, Arial, sans-serif" font-size="15" font-weight="600" fill="#444444">1.01x [133ns]</text>
  <text x="241" y="1595" text-anchor="end" font-family="Segoe UI, Arial, sans-serif" font-size="18" fill="#222222">cbrt</text>
  <rect x="253" y="1577" width="116.837" height="24" rx="2" ry="2" fill="#89d88a"/>
  <text x="379.837" y="1594.5" text-anchor="start" font-family="Segoe UI, Arial, sans-serif" font-size="15" font-weight="600" fill="#444444">1.17x [344ns]</text>
  <text x="241" y="1629" text-anchor="end" font-family="Segoe UI, Arial, sans-serif" font-size="18" fill="#222222">hypot</text>
  <rect x="253" y="1611" width="140.596" height="24" rx="2" ry="2" fill="#89d88a"/>
  <text x="403.596" y="1628.5" text-anchor="start" font-family="Segoe UI, Arial, sans-serif" font-size="15" font-weight="600" fill="#444444">1.41x [129ns]</text>
  <text x="241" y="1663" text-anchor="end" font-family="Segoe UI, Arial, sans-serif" font-size="18" fill="#222222">pow</text>
  <rect x="253" y="1645" width="287.456" height="24" rx="2" ry="2" fill="#89d88a"/>
  <text x="550.456" y="1662.5" text-anchor="start" font-family="Segoe UI, Arial, sans-serif" font-size="15" font-weight="600" fill="#444444">2.87x [1087ns]</text>
  <line x1="245" y1="1674" x2="653" y2="1674" stroke="#cfcfcf" stroke-width="1"/>
  <text x="245" y="1704" text-anchor="end" font-family="Segoe UI, Arial, sans-serif" font-size="20" font-weight="700" fill="#1f1f1f">Exponentials</text>
  <text x="241" y="1737" text-anchor="end" font-family="Segoe UI, Arial, sans-serif" font-size="18" fill="#222222">exp</text>
  <rect x="253" y="1719" width="189.307" height="24" rx="2" ry="2" fill="#89d88a"/>
  <text x="452.307" y="1736.5" text-anchor="start" font-family="Segoe UI, Arial, sans-serif" font-size="15" font-weight="600" fill="#444444">1.89x [584ns]</text>
  <text x="241" y="1771" text-anchor="end" font-family="Segoe UI, Arial, sans-serif" font-size="18" fill="#222222">exp2</text>
  <rect x="253" y="1753" width="217.816" height="24" rx="2" ry="2" fill="#89d88a"/>
  <text x="480.816" y="1770.5" text-anchor="start" font-family="Segoe UI, Arial, sans-serif" font-size="15" font-weight="600" fill="#444444">2.18x [557ns]</text>
  <text x="241" y="1805" text-anchor="end" font-family="Segoe UI, Arial, sans-serif" font-size="18" fill="#222222">expm1</text>
  <rect x="253" y="1787" width="137.957" height="24" rx="2" ry="2" fill="#89d88a"/>
  <text x="400.957" y="1804.5" text-anchor="start" font-family="Segoe UI, Arial, sans-serif" font-size="15" font-weight="600" fill="#444444">1.38x [860ns]</text>
  <line x1="245" y1="1816" x2="653" y2="1816" stroke="#cfcfcf" stroke-width="1"/>
  <text x="245" y="1846" text-anchor="end" font-family="Segoe UI, Arial, sans-serif" font-size="20" font-weight="700" fill="#1f1f1f">Logarithms</text>
  <text x="241" y="1879" text-anchor="end" font-family="Segoe UI, Arial, sans-serif" font-size="18" fill="#222222">log</text>
  <rect x="253" y="1861" width="339.631" height="24" rx="2" ry="2" fill="#89d88a"/>
  <text x="602.631" y="1878.5" text-anchor="start" font-family="Segoe UI, Arial, sans-serif" font-size="15" font-weight="600" fill="#444444">3.40x [504ns]</text>
  <text x="241" y="1913" text-anchor="end" font-family="Segoe UI, Arial, sans-serif" font-size="18" fill="#222222">log2</text>
  <rect x="253" y="1895" width="349.723" height="24" rx="2" ry="2" fill="#89d88a"/>
  <text x="612.723" y="1912.5" text-anchor="start" font-family="Segoe UI, Arial, sans-serif" font-size="15" font-weight="600" fill="#444444">3.50x [519ns]</text>
  <text x="241" y="1947" text-anchor="end" font-family="Segoe UI, Arial, sans-serif" font-size="18" fill="#222222">log10</text>
  <rect x="253" y="1929" width="400" height="24" rx="2" ry="2" fill="#89d88a"/>
  <polygon points="653,1929 671,1941 653,1953" fill="#89d88a"/>
  <text x="679" y="1946.5" text-anchor="start" font-family="Segoe UI, Arial, sans-serif" font-size="15" font-weight="600" fill="#444444">5.56x [577ns]</text>
  <text x="241" y="1981" text-anchor="end" font-family="Segoe UI, Arial, sans-serif" font-size="18" fill="#222222">log1p</text>
  <rect x="253" y="1963" width="244.684" height="24" rx="2" ry="2" fill="#89d88a"/>
  <text x="507.684" y="1980.5" text-anchor="start" font-family="Segoe UI, Arial, sans-serif" font-size="15" font-weight="600" fill="#444444">2.45x [715ns]</text>
  <line x1="245" y1="1992" x2="653" y2="1992" stroke="#cfcfcf" stroke-width="1"/>
  <text x="245" y="2022" text-anchor="end" font-family="Segoe UI, Arial, sans-serif" font-size="20" font-weight="700" fill="#1f1f1f">Trigonometric</text>
  <text x="241" y="2055" text-anchor="end" font-family="Segoe UI, Arial, sans-serif" font-size="18" fill="#222222">sin</text>
  <rect x="253" y="2037" width="161.225" height="24" rx="2" ry="2" fill="#89d88a"/>
  <text x="424.225" y="2054.5" text-anchor="start" font-family="Segoe UI, Arial, sans-serif" font-size="15" font-weight="600" fill="#444444">1.61x [773ns]</text>
  <text x="241" y="2089" text-anchor="end" font-family="Segoe UI, Arial, sans-serif" font-size="18" fill="#222222">cos</text>
  <rect x="253" y="2071" width="132.506" height="24" rx="2" ry="2" fill="#89d88a"/>
  <text x="395.506" y="2088.5" text-anchor="start" font-family="Segoe UI, Arial, sans-serif" font-size="15" font-weight="600" fill="#444444">1.33x [764ns]</text>
  <text x="241" y="2123" text-anchor="end" font-family="Segoe UI, Arial, sans-serif" font-size="18" fill="#222222">tan</text>
  <rect x="253" y="2105" width="152.89" height="24" rx="2" ry="2" fill="#89d88a"/>
  <text x="415.89" y="2122.5" text-anchor="start" font-family="Segoe UI, Arial, sans-serif" font-size="15" font-weight="600" fill="#444444">1.53x [904ns]</text>
  <text x="241" y="2157" text-anchor="end" font-family="Segoe UI, Arial, sans-serif" font-size="18" fill="#222222">asin</text>
  <rect x="253" y="2139" width="400" height="24" rx="2" ry="2" fill="#89d88a"/>
  <polygon points="653,2139 671,2151 653,2163" fill="#89d88a"/>
  <text x="679" y="2156.5" text-anchor="start" font-family="Segoe UI, Arial, sans-serif" font-size="15" font-weight="600" fill="#444444">4.02x [1027ns]</text>
  <text x="241" y="2191" text-anchor="end" font-family="Segoe UI, Arial, sans-serif" font-size="18" fill="#222222">acos</text>
  <rect x="253" y="2173" width="400" height="24" rx="2" ry="2" fill="#89d88a"/>
  <polygon points="653,2173 671,2185 653,2197" fill="#89d88a"/>
  <text x="679" y="2190.5" text-anchor="start" font-family="Segoe UI, Arial, sans-serif" font-size="15" font-weight="600" fill="#444444">4.55x [1053ns]</text>
  <text x="241" y="2225" text-anchor="end" font-family="Segoe UI, Arial, sans-serif" font-size="18" fill="#222222">atan</text>
  <rect x="253" y="2207" width="400" height="24" rx="2" ry="2" fill="#89d88a"/>
  <polygon points="653,2207 671,2219 653,2231" fill="#89d88a"/>
  <text x="679" y="2224.5" text-anchor="start" font-family="Segoe UI, Arial, sans-serif" font-size="15" font-weight="600" fill="#444444">4.34x [839ns]</text>
  <text x="241" y="2259" text-anchor="end" font-family="Segoe UI, Arial, sans-serif" font-size="18" fill="#222222">atan2</text>
  <rect x="253" y="2241" width="400" height="24" rx="2" ry="2" fill="#89d88a"/>
  <polygon points="653,2241 671,2253 653,2265" fill="#89d88a"/>
  <text x="679" y="2258.5" text-anchor="start" font-family="Segoe UI, Arial, sans-serif" font-size="15" font-weight="600" fill="#444444">4.49x [908ns]</text>
  <line x1="245" y1="2270" x2="653" y2="2270" stroke="#cfcfcf" stroke-width="1"/>
  <text x="245" y="2300" text-anchor="end" font-family="Segoe UI, Arial, sans-serif" font-size="20" font-weight="700" fill="#1f1f1f">Hyperbolic</text>
  <text x="241" y="2333" text-anchor="end" font-family="Segoe UI, Arial, sans-serif" font-size="18" fill="#222222">sinh</text>
  <rect x="253" y="2315" width="120.537" height="24" rx="2" ry="2" fill="#89d88a"/>
  <text x="383.537" y="2332.5" text-anchor="start" font-family="Segoe UI, Arial, sans-serif" font-size="15" font-weight="600" fill="#444444">1.21x [988ns]</text>
  <text x="241" y="2367" text-anchor="end" font-family="Segoe UI, Arial, sans-serif" font-size="18" fill="#222222">cosh</text>
  <rect x="253" y="2349" width="172.44" height="24" rx="2" ry="2" fill="#89d88a"/>
  <text x="435.44" y="2366.5" text-anchor="start" font-family="Segoe UI, Arial, sans-serif" font-size="15" font-weight="600" fill="#444444">1.72x [689ns]</text>
  <text x="241" y="2401" text-anchor="end" font-family="Segoe UI, Arial, sans-serif" font-size="18" fill="#222222">tanh</text>
  <rect x="253" y="2383" width="130.45" height="24" rx="2" ry="2" fill="#89d88a"/>
  <text x="393.45" y="2400.5" text-anchor="start" font-family="Segoe UI, Arial, sans-serif" font-size="15" font-weight="600" fill="#444444">1.30x [962ns]</text>
  <line x1="245" y1="2412" x2="653" y2="2412" stroke="#cfcfcf" stroke-width="1"/>
  <text x="245" y="2442" text-anchor="end" font-family="Segoe UI, Arial, sans-serif" font-size="20" font-weight="700" fill="#1f1f1f">Inverse hyperbolic</text>
  <text x="241" y="2475" text-anchor="end" font-family="Segoe UI, Arial, sans-serif" font-size="18" fill="#222222">asinh</text>
  <rect x="253" y="2457" width="282.74" height="24" rx="2" ry="2" fill="#89d88a"/>
  <text x="545.74" y="2474.5" text-anchor="start" font-family="Segoe UI, Arial, sans-serif" font-size="15" font-weight="600" fill="#444444">2.83x [670ns]</text>
  <text x="241" y="2509" text-anchor="end" font-family="Segoe UI, Arial, sans-serif" font-size="18" fill="#222222">acosh</text>
  <rect x="253" y="2491" width="285.967" height="24" rx="2" ry="2" fill="#89d88a"/>
  <text x="548.967" y="2508.5" text-anchor="start" font-family="Segoe UI, Arial, sans-serif" font-size="15" font-weight="600" fill="#444444">2.86x [666ns]</text>
  <text x="241" y="2543" text-anchor="end" font-family="Segoe UI, Arial, sans-serif" font-size="18" fill="#222222">atanh</text>
  <rect x="253" y="2525" width="286.144" height="24" rx="2" ry="2" fill="#89d88a"/>
  <text x="549.144" y="2542.5" text-anchor="start" font-family="Segoe UI, Arial, sans-serif" font-size="15" font-weight="600" fill="#444444">2.86x [675ns]</text>
  <line x1="245" y1="2554" x2="653" y2="2554" stroke="#cfcfcf" stroke-width="1"/>
  <text x="245" y="2584" text-anchor="end" font-family="Segoe UI, Arial, sans-serif" font-size="20" font-weight="700" fill="#1f1f1f">Special functions</text>
  <text x="241" y="2617" text-anchor="end" font-family="Segoe UI, Arial, sans-serif" font-size="18" fill="#222222">erfc</text>
  <rect x="253" y="2599" width="398.091" height="24" rx="2" ry="2" fill="#89d88a"/>
  <text x="645" y="2616.5" text-anchor="start" font-family="Segoe UI, Arial, sans-serif" font-size="15" font-weight="600" fill="#444444">3.98x [3281ns]</text>
  <text x="241" y="2651" text-anchor="end" font-family="Segoe UI, Arial, sans-serif" font-size="18" fill="#222222">erf</text>
  <rect x="253" y="2633" width="273.181" height="24" rx="2" ry="2" fill="#89d88a"/>
  <text x="536.181" y="2650.5" text-anchor="start" font-family="Segoe UI, Arial, sans-serif" font-size="15" font-weight="600" fill="#444444">2.73x [3271ns]</text>
  <text x="241" y="2685" text-anchor="end" font-family="Segoe UI, Arial, sans-serif" font-size="18" fill="#222222">tgamma</text>
  <rect x="253" y="2667" width="172.981" height="24" rx="2" ry="2" fill="#89d88a"/>
  <text x="435.981" y="2684.5" text-anchor="start" font-family="Segoe UI, Arial, sans-serif" font-size="15" font-weight="600" fill="#444444">1.73x [5839ns]</text>
  <text x="241" y="2719" text-anchor="end" font-family="Segoe UI, Arial, sans-serif" font-size="18" fill="#222222">lgamma</text>
  <rect x="253" y="2701" width="209.678" height="24" rx="2" ry="2" fill="#89d88a"/>
  <text x="472.678" y="2718.5" text-anchor="start" font-family="Segoe UI, Arial, sans-serif" font-size="15" font-weight="600" fill="#444444">2.10x [5269ns]</text>
</svg>
