<?xml version="1.0" encoding="UTF-8"?>
<svg xmlns="http://www.w3.org/2000/svg" width="877" height="2764" viewBox="0 0 877 2764">
  <rect x="0" y="0" width="877" height="2764" fill="#f2f2f2"/>
  <text x="438" y="38" text-anchor="middle" font-family="Segoe UI, Arial, sans-serif" font-size="28" font-weight="600" fill="#222222">f128 vs MPFR typical benchmark ratios</text>
  <line x1="253" y1="82" x2="253" y2="2746" stroke="#dddddd" stroke-width="1"/>
  <line x1="303" y1="82" x2="303" y2="2746" stroke="#dddddd" stroke-width="1"/>
  <line x1="353" y1="82" x2="353" y2="2746" stroke="#dddddd" stroke-width="1"/>
  <line x1="403" y1="82" x2="403" y2="2746" stroke="#dddddd" stroke-width="1"/>
  <line x1="453" y1="82" x2="453" y2="2746" stroke="#dddddd" stroke-width="1"/>
  <line x1="503" y1="82" x2="503" y2="2746" stroke="#dddddd" stroke-width="1"/>
  <line x1="553" y1="82" x2="553" y2="2746" stroke="#dddddd" stroke-width="1"/>
  <line x1="603" y1="82" x2="603" y2="2746" stroke="#dddddd" stroke-width="1"/>
  <line x1="653" y1="82" x2="653" y2="2746" stroke="#dddddd" stroke-width="1"/>
  <line x1="303" y1="82" x2="303" y2="2746" stroke="#6da7d9" stroke-width="2" stroke-dasharray="6,6"/>
  <text x="245" y="104" text-anchor="end" font-family="Segoe UI, Arial, sans-serif" font-size="20" font-weight="700" fill="#1f1f1f">f128 &lt;-&gt; f128</text>
  <text x="241" y="137" text-anchor="end" font-family="Segoe UI, Arial, sans-serif" font-size="18" fill="#222222">add</text>
  <rect x="253" y="119" width="236.654" height="24" rx="2" ry="2" fill="#89d88a"/>
  <text x="499.654" y="136.5" text-anchor="start" font-family="Segoe UI, Arial, sans-serif" font-size="15" font-weight="600" fill="#444444">4.73x [13ns]</text>
  <text x="241" y="171" text-anchor="end" font-family="Segoe UI, Arial, sans-serif" font-size="18" fill="#222222">subtract</text>
  <rect x="253" y="153" width="232.085" height="24" rx="2" ry="2" fill="#89d88a"/>
  <text x="495.085" y="170.5" text-anchor="start" font-family="Segoe UI, Arial, sans-serif" font-size="15" font-weight="600" fill="#444444">4.64x [13ns]</text>
  <text x="241" y="205" text-anchor="end" font-family="Segoe UI, Arial, sans-serif" font-size="18" fill="#222222">multiply</text>
  <rect x="253" y="187" width="240.69" height="24" rx="2" ry="2" fill="#89d88a"/>
  <text x="503.69" y="204.5" text-anchor="start" font-family="Segoe UI, Arial, sans-serif" font-size="15" font-weight="600" fill="#444444">4.81x [13ns]</text>
  <text x="241" y="239" text-anchor="end" font-family="Segoe UI, Arial, sans-serif" font-size="18" fill="#222222">divide</text>
  <rect x="253" y="221" width="263.415" height="24" rx="2" ry="2" fill="#89d88a"/>
  <text x="526.415" y="238.5" text-anchor="start" font-family="Segoe UI, Arial, sans-serif" font-size="15" font-weight="600" fill="#444444">5.27x [13ns]</text>
  <line x1="245" y1="250" x2="653" y2="250" stroke="#cfcfcf" stroke-width="1"/>
  <text x="245" y="280" text-anchor="end" font-family="Segoe UI, Arial, sans-serif" font-size="20" font-weight="700" fill="#1f1f1f">Mixed Workloads</text>
  <text x="241" y="313" text-anchor="end" font-family="Segoe UI, Arial, sans-serif" font-size="18" fill="#222222">affine trig transform</text>
  <rect x="253" y="295" width="373.209" height="24" rx="2" ry="2" fill="#89d88a"/>
  <text x="636.209" y="312.5" text-anchor="start" font-family="Segoe UI, Arial, sans-serif" font-size="15" font-weight="600" fill="#444444">7.46x [196ns]</text>
  <text x="241" y="347" text-anchor="end" font-family="Segoe UI, Arial, sans-serif" font-size="18" fill="#222222">mandelbrot kernel</text>
  <rect x="253" y="329" width="314.507" height="24" rx="2" ry="2" fill="#89d88a"/>
  <text x="577.507" y="346.5" text-anchor="start" font-family="Segoe UI, Arial, sans-serif" font-size="15" font-weight="600" fill="#444444">6.29x [20ns]</text>
  <text x="241" y="381" text-anchor="end" font-family="Segoe UI, Arial, sans-serif" font-size="18" fill="#222222">mixed arithmetic</text>
  <rect x="253" y="363" width="400" height="24" rx="2" ry="2" fill="#89d88a"/>
  <polygon points="653,363 671,375 653,387" fill="#89d88a"/>
  <text x="679" y="380.5" text-anchor="start" font-family="Segoe UI, Arial, sans-serif" font-size="15" font-weight="600" fill="#444444">14.10x [24ns]</text>
  <line x1="245" y1="392" x2="653" y2="392" stroke="#cfcfcf" stroke-width="1"/>
  <text x="245" y="422" text-anchor="end" font-family="Segoe UI, Arial, sans-serif" font-size="20" font-weight="700" fill="#1f1f1f">Rounding</text>
  <text x="241" y="455" text-anchor="end" font-family="Segoe UI, Arial, sans-serif" font-size="18" fill="#222222">floor</text>
  <rect x="253" y="437" width="216.388" height="24" rx="2" ry="2" fill="#89d88a"/>
  <text x="479.388" y="454.5" text-anchor="start" font-family="Segoe UI, Arial, sans-serif" font-size="15" font-weight="600" fill="#444444">4.33x [13ns]</text>
  <text x="241" y="489" text-anchor="end" font-family="Segoe UI, Arial, sans-serif" font-size="18" fill="#222222">ceil</text>
  <rect x="253" y="471" width="216.897" height="24" rx="2" ry="2" fill="#89d88a"/>
  <text x="479.897" y="488.5" text-anchor="start" font-family="Segoe UI, Arial, sans-serif" font-size="15" font-weight="600" fill="#444444">4.34x [13ns]</text>
  <text x="241" y="523" text-anchor="end" font-family="Segoe UI, Arial, sans-serif" font-size="18" fill="#222222">trunc</text>
  <rect x="253" y="505" width="219.472" height="24" rx="2" ry="2" fill="#89d88a"/>
  <text x="482.472" y="522.5" text-anchor="start" font-family="Segoe UI, Arial, sans-serif" font-size="15" font-weight="600" fill="#444444">4.39x [13ns]</text>
  <text x="241" y="557" text-anchor="end" font-family="Segoe UI, Arial, sans-serif" font-size="18" fill="#222222">round</text>
  <rect x="253" y="539" width="284.659" height="24" rx="2" ry="2" fill="#89d88a"/>
  <text x="547.659" y="556.5" text-anchor="start" font-family="Segoe UI, Arial, sans-serif" font-size="15" font-weight="600" fill="#444444">5.69x [13ns]</text>
  <text x="241" y="591" text-anchor="end" font-family="Segoe UI, Arial, sans-serif" font-size="18" fill="#222222">nearbyint</text>
  <rect x="253" y="573" width="282.337" height="24" rx="2" ry="2" fill="#89d88a"/>
  <text x="545.337" y="590.5" text-anchor="start" font-family="Segoe UI, Arial, sans-serif" font-size="15" font-weight="600" fill="#444444">5.65x [13ns]</text>
  <text x="241" y="625" text-anchor="end" font-family="Segoe UI, Arial, sans-serif" font-size="18" fill="#222222">rint</text>
  <rect x="253" y="607" width="279.978" height="24" rx="2" ry="2" fill="#89d88a"/>
  <text x="542.978" y="624.5" text-anchor="start" font-family="Segoe UI, Arial, sans-serif" font-size="15" font-weight="600" fill="#444444">5.60x [13ns]</text>
  <text x="241" y="659" text-anchor="end" font-family="Segoe UI, Arial, sans-serif" font-size="18" fill="#222222">lround</text>
  <rect x="253" y="641" width="290.308" height="24" rx="2" ry="2" fill="#89d88a"/>
  <text x="553.308" y="658.5" text-anchor="start" font-family="Segoe UI, Arial, sans-serif" font-size="15" font-weight="600" fill="#444444">5.81x [9ns]</text>
  <text x="241" y="693" text-anchor="end" font-family="Segoe UI, Arial, sans-serif" font-size="18" fill="#222222">llround</text>
  <rect x="253" y="675" width="289.595" height="24" rx="2" ry="2" fill="#89d88a"/>
  <text x="552.595" y="692.5" text-anchor="start" font-family="Segoe UI, Arial, sans-serif" font-size="15" font-weight="600" fill="#444444">5.79x [9ns]</text>
  <text x="241" y="727" text-anchor="end" font-family="Segoe UI, Arial, sans-serif" font-size="18" fill="#222222">lrint</text>
  <rect x="253" y="709" width="321.733" height="24" rx="2" ry="2" fill="#89d88a"/>
  <text x="584.733" y="726.5" text-anchor="start" font-family="Segoe UI, Arial, sans-serif" font-size="15" font-weight="600" fill="#444444">6.43x [8ns]</text>
  <text x="241" y="761" text-anchor="end" font-family="Segoe UI, Arial, sans-serif" font-size="18" fill="#222222">llrint</text>
  <rect x="253" y="743" width="323.21" height="24" rx="2" ry="2" fill="#89d88a"/>
  <text x="586.21" y="760.5" text-anchor="start" font-family="Segoe UI, Arial, sans-serif" font-size="15" font-weight="600" fill="#444444">6.46x [8ns]</text>
  <line x1="245" y1="772" x2="653" y2="772" stroke="#cfcfcf" stroke-width="1"/>
  <text x="245" y="802" text-anchor="end" font-family="Segoe UI, Arial, sans-serif" font-size="20" font-weight="700" fill="#1f1f1f">Remainders</text>
  <text x="241" y="835" text-anchor="end" font-family="Segoe UI, Arial, sans-serif" font-size="18" fill="#222222">fmod</text>
  <rect x="253" y="817" width="106.426" height="24" rx="2" ry="2" fill="#89d88a"/>
  <text x="369.426" y="834.5" text-anchor="start" font-family="Segoe UI, Arial, sans-serif" font-size="15" font-weight="600" fill="#444444">2.13x [52ns]</text>
  <text x="241" y="869" text-anchor="end" font-family="Segoe UI, Arial, sans-serif" font-size="18" fill="#222222">remainder</text>
  <rect x="253" y="851" width="128.205" height="24" rx="2" ry="2" fill="#89d88a"/>
  <text x="391.205" y="868.5" text-anchor="start" font-family="Segoe UI, Arial, sans-serif" font-size="15" font-weight="600" fill="#444444">2.56x [54ns]</text>
  <text x="241" y="903" text-anchor="end" font-family="Segoe UI, Arial, sans-serif" font-size="18" fill="#222222">remquo</text>
  <rect x="253" y="885" width="400" height="24" rx="2" ry="2" fill="#89d88a"/>
  <polygon points="653,885 671,897 653,909" fill="#89d88a"/>
  <text x="679" y="902.5" text-anchor="start" font-family="Segoe UI, Arial, sans-serif" font-size="15" font-weight="600" fill="#444444">8.64x [18ns]</text>
  <line x1="245" y1="914" x2="653" y2="914" stroke="#cfcfcf" stroke-width="1"/>
  <text x="245" y="944" text-anchor="end" font-family="Segoe UI, Arial, sans-serif" font-size="20" font-weight="700" fill="#1f1f1f">Floating-point utilities</text>
  <text x="241" y="977" text-anchor="end" font-family="Segoe UI, Arial, sans-serif" font-size="18" fill="#222222">abs</text>
  <rect x="253" y="959" width="209.085" height="24" rx="2" ry="2" fill="#89d88a"/>
  <text x="472.085" y="976.5" text-anchor="start" font-family="Segoe UI, Arial, sans-serif" font-size="15" font-weight="600" fill="#444444">4.18x [13ns]</text>
  <text x="241" y="1011" text-anchor="end" font-family="Segoe UI, Arial, sans-serif" font-size="18" fill="#222222">fma</text>
  <rect x="253" y="993" width="290.185" height="24" rx="2" ry="2" fill="#89d88a"/>
  <text x="553.185" y="1010.5" text-anchor="start" font-family="Segoe UI, Arial, sans-serif" font-size="15" font-weight="600" fill="#444444">5.80x [13ns]</text>
  <text x="241" y="1045" text-anchor="end" font-family="Segoe UI, Arial, sans-serif" font-size="18" fill="#222222">fmin</text>
  <rect x="253" y="1027" width="228.713" height="24" rx="2" ry="2" fill="#89d88a"/>
  <text x="491.713" y="1044.5" text-anchor="start" font-family="Segoe UI, Arial, sans-serif" font-size="15" font-weight="600" fill="#444444">4.57x [13ns]</text>
  <text x="241" y="1079" text-anchor="end" font-family="Segoe UI, Arial, sans-serif" font-size="18" fill="#222222">fmax</text>
  <rect x="253" y="1061" width="230.865" height="24" rx="2" ry="2" fill="#89d88a"/>
  <text x="493.865" y="1078.5" text-anchor="start" font-family="Segoe UI, Arial, sans-serif" font-size="15" font-weight="600" fill="#444444">4.62x [13ns]</text>
  <text x="241" y="1113" text-anchor="end" font-family="Segoe UI, Arial, sans-serif" font-size="18" fill="#222222">fdim</text>
  <rect x="253" y="1095" width="223.007" height="24" rx="2" ry="2" fill="#89d88a"/>
  <text x="486.007" y="1112.5" text-anchor="start" font-family="Segoe UI, Arial, sans-serif" font-size="15" font-weight="600" fill="#444444">4.46x [13ns]</text>
  <text x="241" y="1147" text-anchor="end" font-family="Segoe UI, Arial, sans-serif" font-size="18" fill="#222222">copysign</text>
  <rect x="253" y="1129" width="223.702" height="24" rx="2" ry="2" fill="#89d88a"/>
  <text x="486.702" y="1146.5" text-anchor="start" font-family="Segoe UI, Arial, sans-serif" font-size="15" font-weight="600" fill="#444444">4.47x [13ns]</text>
  <text x="241" y="1181" text-anchor="end" font-family="Segoe UI, Arial, sans-serif" font-size="18" fill="#222222">ldexp</text>
  <rect x="253" y="1163" width="212.806" height="24" rx="2" ry="2" fill="#89d88a"/>
  <text x="475.806" y="1180.5" text-anchor="start" font-family="Segoe UI, Arial, sans-serif" font-size="15" font-weight="600" fill="#444444">4.26x [14ns]</text>
  <text x="241" y="1215" text-anchor="end" font-family="Segoe UI, Arial, sans-serif" font-size="18" fill="#222222">scalbn</text>
  <rect x="253" y="1197" width="208.673" height="24" rx="2" ry="2" fill="#89d88a"/>
  <text x="471.673" y="1214.5" text-anchor="start" font-family="Segoe UI, Arial, sans-serif" font-size="15" font-weight="600" fill="#444444">4.17x [14ns]</text>
  <text x="241" y="1249" text-anchor="end" font-family="Segoe UI, Arial, sans-serif" font-size="18" fill="#222222">scalbln</text>
  <rect x="253" y="1231" width="215.919" height="24" rx="2" ry="2" fill="#89d88a"/>
  <text x="478.919" y="1248.5" text-anchor="start" font-family="Segoe UI, Arial, sans-serif" font-size="15" font-weight="600" fill="#444444">4.32x [14ns]</text>
  <text x="241" y="1283" text-anchor="end" font-family="Segoe UI, Arial, sans-serif" font-size="18" fill="#222222">frexp</text>
  <rect x="253" y="1265" width="256.908" height="24" rx="2" ry="2" fill="#89d88a"/>
  <text x="519.908" y="1282.5" text-anchor="start" font-family="Segoe UI, Arial, sans-serif" font-size="15" font-weight="600" fill="#444444">5.14x [14ns]</text>
  <text x="241" y="1317" text-anchor="end" font-family="Segoe UI, Arial, sans-serif" font-size="18" fill="#222222">modf</text>
  <rect x="253" y="1299" width="382.512" height="24" rx="2" ry="2" fill="#89d88a"/>
  <text x="645" y="1316.5" text-anchor="start" font-family="Segoe UI, Arial, sans-serif" font-size="15" font-weight="600" fill="#444444">7.65x [19ns]</text>
  <text x="241" y="1351" text-anchor="end" font-family="Segoe UI, Arial, sans-serif" font-size="18" fill="#222222">ilogb</text>
  <rect x="253" y="1333" width="73.0383" height="24" rx="2" ry="2" fill="#89d88a"/>
  <text x="336.038" y="1350.5" text-anchor="start" font-family="Segoe UI, Arial, sans-serif" font-size="15" font-weight="600" fill="#444444">1.46x [9ns]</text>
  <text x="241" y="1385" text-anchor="end" font-family="Segoe UI, Arial, sans-serif" font-size="18" fill="#222222">logb</text>
  <rect x="253" y="1367" width="261.452" height="24" rx="2" ry="2" fill="#89d88a"/>
  <text x="524.452" y="1384.5" text-anchor="start" font-family="Segoe UI, Arial, sans-serif" font-size="15" font-weight="600" fill="#444444">5.23x [14ns]</text>
  <text x="241" y="1419" text-anchor="end" font-family="Segoe UI, Arial, sans-serif" font-size="18" fill="#222222">nextafter</text>
  <rect x="253" y="1401" width="400" height="24" rx="2" ry="2" fill="#89d88a"/>
  <polygon points="653,1401 671,1413 653,1425" fill="#89d88a"/>
  <text x="679" y="1418.5" text-anchor="start" font-family="Segoe UI, Arial, sans-serif" font-size="15" font-weight="600" fill="#444444">18.91x [13ns]</text>
  <text x="241" y="1453" text-anchor="end" font-family="Segoe UI, Arial, sans-serif" font-size="18" fill="#222222">nexttoward(type)</text>
  <rect x="253" y="1435" width="400" height="24" rx="2" ry="2" fill="#89d88a"/>
  <polygon points="653,1435 671,1447 653,1459" fill="#89d88a"/>
  <text x="679" y="1452.5" text-anchor="start" font-family="Segoe UI, Arial, sans-serif" font-size="15" font-weight="600" fill="#444444">19.04x [13ns]</text>
  <text x="241" y="1487" text-anchor="end" font-family="Segoe UI, Arial, sans-serif" font-size="18" fill="#222222">nexttoward(long double)</text>
  <rect x="253" y="1469" width="400" height="24" rx="2" ry="2" fill="#89d88a"/>
  <polygon points="653,1469 671,1481 653,1493" fill="#89d88a"/>
  <text x="679" y="1486.5" text-anchor="start" font-family="Segoe UI, Arial, sans-serif" font-size="15" font-weight="600" fill="#444444">21.23x [13ns]</text>
  <line x1="245" y1="1498" x2="653" y2="1498" stroke="#cfcfcf" stroke-width="1"/>
  <text x="245" y="1528" text-anchor="end" font-family="Segoe UI, Arial, sans-serif" font-size="20" font-weight="700" fill="#1f1f1f">Roots &amp; powers</text>
  <text x="241" y="1561" text-anchor="end" font-family="Segoe UI, Arial, sans-serif" font-size="18" fill="#222222">sqrt</text>
  <rect x="253" y="1543" width="69.206" height="24" rx="2" ry="2" fill="#89d88a"/>
  <text x="332.206" y="1560.5" text-anchor="start" font-family="Segoe UI, Arial, sans-serif" font-size="15" font-weight="600" fill="#444444">1.38x [49ns]</text>
  <text x="241" y="1595" text-anchor="end" font-family="Segoe UI, Arial, sans-serif" font-size="18" fill="#222222">cbrt</text>
  <rect x="253" y="1577" width="228.745" height="24" rx="2" ry="2" fill="#89d88a"/>
  <text x="491.745" y="1594.5" text-anchor="start" font-family="Segoe UI, Arial, sans-serif" font-size="15" font-weight="600" fill="#444444">4.57x [59ns]</text>
  <text x="241" y="1629" text-anchor="end" font-family="Segoe UI, Arial, sans-serif" font-size="18" fill="#222222">hypot</text>
  <rect x="253" y="1611" width="210.387" height="24" rx="2" ry="2" fill="#89d88a"/>
  <text x="473.387" y="1628.5" text-anchor="start" font-family="Segoe UI, Arial, sans-serif" font-size="15" font-weight="600" fill="#444444">4.21x [35ns]</text>
  <text x="241" y="1663" text-anchor="end" font-family="Segoe UI, Arial, sans-serif" font-size="18" fill="#222222">pow</text>
  <rect x="253" y="1645" width="230.748" height="24" rx="2" ry="2" fill="#89d88a"/>
  <text x="493.748" y="1662.5" text-anchor="start" font-family="Segoe UI, Arial, sans-serif" font-size="15" font-weight="600" fill="#444444">4.61x [392ns]</text>
  <line x1="245" y1="1674" x2="653" y2="1674" stroke="#cfcfcf" stroke-width="1"/>
  <text x="245" y="1704" text-anchor="end" font-family="Segoe UI, Arial, sans-serif" font-size="20" font-weight="700" fill="#1f1f1f">Exponentials</text>
  <text x="241" y="1737" text-anchor="end" font-family="Segoe UI, Arial, sans-serif" font-size="18" fill="#222222">exp</text>
  <rect x="253" y="1719" width="218.243" height="24" rx="2" ry="2" fill="#89d88a"/>
  <text x="481.243" y="1736.5" text-anchor="start" font-family="Segoe UI, Arial, sans-serif" font-size="15" font-weight="600" fill="#444444">4.36x [155ns]</text>
  <text x="241" y="1771" text-anchor="end" font-family="Segoe UI, Arial, sans-serif" font-size="18" fill="#222222">exp2</text>
  <rect x="253" y="1753" width="259.646" height="24" rx="2" ry="2" fill="#89d88a"/>
  <text x="522.646" y="1770.5" text-anchor="start" font-family="Segoe UI, Arial, sans-serif" font-size="15" font-weight="600" fill="#444444">5.19x [151ns]</text>
  <text x="241" y="1805" text-anchor="end" font-family="Segoe UI, Arial, sans-serif" font-size="18" fill="#222222">expm1</text>
  <rect x="253" y="1787" width="235.282" height="24" rx="2" ry="2" fill="#89d88a"/>
  <text x="498.282" y="1804.5" text-anchor="start" font-family="Segoe UI, Arial, sans-serif" font-size="15" font-weight="600" fill="#444444">4.71x [161ns]</text>
  <line x1="245" y1="1816" x2="653" y2="1816" stroke="#cfcfcf" stroke-width="1"/>
  <text x="245" y="1846" text-anchor="end" font-family="Segoe UI, Arial, sans-serif" font-size="20" font-weight="700" fill="#1f1f1f">Logarithms</text>
  <text x="241" y="1879" text-anchor="end" font-family="Segoe UI, Arial, sans-serif" font-size="18" fill="#222222">log</text>
  <rect x="253" y="1861" width="195.904" height="24" rx="2" ry="2" fill="#89d88a"/>
  <text x="458.904" y="1878.5" text-anchor="start" font-family="Segoe UI, Arial, sans-serif" font-size="15" font-weight="600" fill="#444444">3.92x [221ns]</text>
  <text x="241" y="1913" text-anchor="end" font-family="Segoe UI, Arial, sans-serif" font-size="18" fill="#222222">log2</text>
  <rect x="253" y="1895" width="235.098" height="24" rx="2" ry="2" fill="#89d88a"/>
  <text x="498.098" y="1912.5" text-anchor="start" font-family="Segoe UI, Arial, sans-serif" font-size="15" font-weight="600" fill="#444444">4.70x [224ns]</text>
  <text x="241" y="1947" text-anchor="end" font-family="Segoe UI, Arial, sans-serif" font-size="18" fill="#222222">log10</text>
  <rect x="253" y="1929" width="293.467" height="24" rx="2" ry="2" fill="#89d88a"/>
  <text x="556.467" y="1946.5" text-anchor="start" font-family="Segoe UI, Arial, sans-serif" font-size="15" font-weight="600" fill="#444444">5.87x [324ns]</text>
  <text x="241" y="1981" text-anchor="end" font-family="Segoe UI, Arial, sans-serif" font-size="18" fill="#222222">log1p</text>
  <rect x="253" y="1963" width="214.169" height="24" rx="2" ry="2" fill="#89d88a"/>
  <text x="477.169" y="1980.5" text-anchor="start" font-family="Segoe UI, Arial, sans-serif" font-size="15" font-weight="600" fill="#444444">4.28x [213ns]</text>
  <line x1="245" y1="1992" x2="653" y2="1992" stroke="#cfcfcf" stroke-width="1"/>
  <text x="245" y="2022" text-anchor="end" font-family="Segoe UI, Arial, sans-serif" font-size="20" font-weight="700" fill="#1f1f1f">Trigonometric</text>
  <text x="241" y="2055" text-anchor="end" font-family="Segoe UI, Arial, sans-serif" font-size="18" fill="#222222">sin</text>
  <rect x="253" y="2037" width="400" height="24" rx="2" ry="2" fill="#89d88a"/>
  <polygon points="653,2037 671,2049 653,2061" fill="#89d88a"/>
  <text x="679" y="2054.5" text-anchor="start" font-family="Segoe UI, Arial, sans-serif" font-size="15" font-weight="600" fill="#444444">9.68x [89ns]</text>
  <text x="241" y="2089" text-anchor="end" font-family="Segoe UI, Arial, sans-serif" font-size="18" fill="#222222">cos</text>
  <rect x="253" y="2071" width="359.822" height="24" rx="2" ry="2" fill="#89d88a"/>
  <text x="622.822" y="2088.5" text-anchor="start" font-family="Segoe UI, Arial, sans-serif" font-size="15" font-weight="600" fill="#444444">7.20x [90ns]</text>
  <text x="241" y="2123" text-anchor="end" font-family="Segoe UI, Arial, sans-serif" font-size="18" fill="#222222">tan</text>
  <rect x="253" y="2105" width="400" height="24" rx="2" ry="2" fill="#89d88a"/>
  <polygon points="653,2105 671,2117 653,2129" fill="#89d88a"/>
  <text x="679" y="2122.5" text-anchor="start" font-family="Segoe UI, Arial, sans-serif" font-size="15" font-weight="600" fill="#444444">9.01x [106ns]</text>
  <text x="241" y="2157" text-anchor="end" font-family="Segoe UI, Arial, sans-serif" font-size="18" fill="#222222">asin</text>
  <rect x="253" y="2139" width="400" height="24" rx="2" ry="2" fill="#89d88a"/>
  <polygon points="653,2139 671,2151 653,2163" fill="#89d88a"/>
  <text x="679" y="2156.5" text-anchor="start" font-family="Segoe UI, Arial, sans-serif" font-size="15" font-weight="600" fill="#444444">8.97x [211ns]</text>
  <text x="241" y="2191" text-anchor="end" font-family="Segoe UI, Arial, sans-serif" font-size="18" fill="#222222">acos</text>
  <rect x="253" y="2173" width="400" height="24" rx="2" ry="2" fill="#89d88a"/>
  <polygon points="653,2173 671,2185 653,2197" fill="#89d88a"/>
  <text x="679" y="2190.5" text-anchor="start" font-family="Segoe UI, Arial, sans-serif" font-size="15" font-weight="600" fill="#444444">8.69x [216ns]</text>
  <text x="241" y="2225" text-anchor="end" font-family="Segoe UI, Arial, sans-serif" font-size="18" fill="#222222">atan</text>
  <rect x="253" y="2207" width="400" height="24" rx="2" ry="2" fill="#89d88a"/>
  <polygon points="653,2207 671,2219 653,2231" fill="#89d88a"/>
  <text x="679" y="2224.5" text-anchor="start" font-family="Segoe UI, Arial, sans-serif" font-size="15" font-weight="600" fill="#444444">8.74x [149ns]</text>
  <text x="241" y="2259" text-anchor="end" font-family="Segoe UI, Arial, sans-serif" font-size="18" fill="#222222">atan2</text>
  <rect x="253" y="2241" width="400" height="24" rx="2" ry="2" fill="#89d88a"/>
  <polygon points="653,2241 671,2253 653,2265" fill="#89d88a"/>
  <text x="679" y="2258.5" text-anchor="start" font-family="Segoe UI, Arial, sans-serif" font-size="15" font-weight="600" fill="#444444">12.16x [158ns]</text>
  <line x1="245" y1="2270" x2="653" y2="2270" stroke="#cfcfcf" stroke-width="1"/>
  <text x="245" y="2300" text-anchor="end" font-family="Segoe UI, Arial, sans-serif" font-size="20" font-weight="700" fill="#1f1f1f">Hyperbolic</text>
  <text x="241" y="2333" text-anchor="end" font-family="Segoe UI, Arial, sans-serif" font-size="18" fill="#222222">sinh</text>
  <rect x="253" y="2315" width="242.866" height="24" rx="2" ry="2" fill="#89d88a"/>
  <text x="505.866" y="2332.5" text-anchor="start" font-family="Segoe UI, Arial, sans-serif" font-size="15" font-weight="600" fill="#444444">4.86x [168ns]</text>
  <text x="241" y="2367" text-anchor="end" font-family="Segoe UI, Arial, sans-serif" font-size="18" fill="#222222">cosh</text>
  <rect x="253" y="2349" width="239.408" height="24" rx="2" ry="2" fill="#89d88a"/>
  <text x="502.408" y="2366.5" text-anchor="start" font-family="Segoe UI, Arial, sans-serif" font-size="15" font-weight="600" fill="#444444">4.79x [168ns]</text>
  <text x="241" y="2401" text-anchor="end" font-family="Segoe UI, Arial, sans-serif" font-size="18" fill="#222222">tanh</text>
  <rect x="253" y="2383" width="232.571" height="24" rx="2" ry="2" fill="#89d88a"/>
  <text x="495.571" y="2400.5" text-anchor="start" font-family="Segoe UI, Arial, sans-serif" font-size="15" font-weight="600" fill="#444444">4.65x [180ns]</text>
  <line x1="245" y1="2412" x2="653" y2="2412" stroke="#cfcfcf" stroke-width="1"/>
  <text x="245" y="2442" text-anchor="end" font-family="Segoe UI, Arial, sans-serif" font-size="20" font-weight="700" fill="#1f1f1f">Inverse hyperbolic</text>
  <text x="241" y="2475" text-anchor="end" font-family="Segoe UI, Arial, sans-serif" font-size="18" fill="#222222">asinh</text>
  <rect x="253" y="2457" width="400" height="24" rx="2" ry="2" fill="#89d88a"/>
  <polygon points="653,2457 671,2469 653,2481" fill="#89d88a"/>
  <text x="679" y="2474.5" text-anchor="start" font-family="Segoe UI, Arial, sans-serif" font-size="15" font-weight="600" fill="#444444">8.83x [293ns]</text>
  <text x="241" y="2509" text-anchor="end" font-family="Segoe UI, Arial, sans-serif" font-size="18" fill="#222222">acosh</text>
  <rect x="253" y="2491" width="186.471" height="24" rx="2" ry="2" fill="#89d88a"/>
  <text x="449.471" y="2508.5" text-anchor="start" font-family="Segoe UI, Arial, sans-serif" font-size="15" font-weight="600" fill="#444444">3.73x [296ns]</text>
  <text x="241" y="2543" text-anchor="end" font-family="Segoe UI, Arial, sans-serif" font-size="18" fill="#222222">atanh</text>
  <rect x="253" y="2525" width="258.312" height="24" rx="2" ry="2" fill="#89d88a"/>
  <text x="521.312" y="2542.5" text-anchor="start" font-family="Segoe UI, Arial, sans-serif" font-size="15" font-weight="600" fill="#444444">5.17x [228ns]</text>
  <line x1="245" y1="2554" x2="653" y2="2554" stroke="#cfcfcf" stroke-width="1"/>
  <text x="245" y="2584" text-anchor="end" font-family="Segoe UI, Arial, sans-serif" font-size="20" font-weight="700" fill="#1f1f1f">Special functions</text>
  <text x="241" y="2617" text-anchor="end" font-family="Segoe UI, Arial, sans-serif" font-size="18" fill="#222222">erfc</text>
  <rect x="253" y="2599" width="400" height="24" rx="2" ry="2" fill="#89d88a"/>
  <polygon points="653,2599 671,2611 653,2623" fill="#89d88a"/>
  <text x="679" y="2616.5" text-anchor="start" font-family="Segoe UI, Arial, sans-serif" font-size="15" font-weight="600" fill="#444444">8.09x [796ns]</text>
  <text x="241" y="2651" text-anchor="end" font-family="Segoe UI, Arial, sans-serif" font-size="18" fill="#222222">erf</text>
  <rect x="253" y="2633" width="221.938" height="24" rx="2" ry="2" fill="#89d88a"/>
  <text x="484.938" y="2650.5" text-anchor="start" font-family="Segoe UI, Arial, sans-serif" font-size="15" font-weight="600" fill="#444444">4.44x [817ns]</text>
  <text x="241" y="2685" text-anchor="end" font-family="Segoe UI, Arial, sans-serif" font-size="18" fill="#222222">tgamma</text>
  <rect x="253" y="2667" width="359.763" height="24" rx="2" ry="2" fill="#89d88a"/>
  <text x="622.763" y="2684.5" text-anchor="start" font-family="Segoe UI, Arial, sans-serif" font-size="15" font-weight="600" fill="#444444">7.20x [623ns]</text>
  <text x="241" y="2719" text-anchor="end" font-family="Segoe UI, Arial, sans-serif" font-size="18" fill="#222222">lgamma</text>
  <rect x="253" y="2701" width="360.401" height="24" rx="2" ry="2" fill="#89d88a"/>
  <text x="623.401" y="2718.5" text-anchor="start" font-family="Segoe UI, Arial, sans-serif" font-size="15" font-weight="600" fill="#444444">7.21x [680ns]</text>
</svg>
