<?xml version="1.0" encoding="UTF-8"?>
<svg xmlns="http://www.w3.org/2000/svg" width="877" height="2764" viewBox="0 0 877 2764">
  <rect x="0" y="0" width="877" height="2764" fill="#f2f2f2"/>
  <text x="438" y="38" text-anchor="middle" font-family="Segoe UI, Arial, sans-serif" font-size="28" font-weight="600" fill="#222222">f256 vs MPFR typical benchmark ratios</text>
  <line x1="253" y1="82" x2="253" y2="2746" stroke="#dddddd" stroke-width="1"/>
  <line x1="353" y1="82" x2="353" y2="2746" stroke="#dddddd" stroke-width="1"/>
  <line x1="453" y1="82" x2="453" y2="2746" stroke="#dddddd" stroke-width="1"/>
  <line x1="553" y1="82" x2="553" y2="2746" stroke="#dddddd" stroke-width="1"/>
  <line x1="653" y1="82" x2="653" y2="2746" stroke="#dddddd" stroke-width="1"/>
  <line x1="353" y1="82" x2="353" y2="2746" stroke="#6da7d9" stroke-width="2" stroke-dasharray="6,6"/>
  <text x="245" y="104" text-anchor="end" font-family="Segoe UI, Arial, sans-serif" font-size="20" font-weight="700" fill="#1f1f1f">f256 &lt;-&gt; f256</text>
  <text x="241" y="137" text-anchor="end" font-family="Segoe UI, Arial, sans-serif" font-size="18" fill="#222222">add</text>
  <rect x="253" y="119" width="258.798" height="24" rx="2" ry="2" fill="#89d88a"/>
  <text x="521.798" y="136.5" text-anchor="start" font-family="Segoe UI, Arial, sans-serif" font-size="15" font-weight="600" fill="#444444">2.59x [28ns]</text>
  <text x="241" y="171" text-anchor="end" font-family="Segoe UI, Arial, sans-serif" font-size="18" fill="#222222">subtract</text>
  <rect x="253" y="153" width="256.951" height="24" rx="2" ry="2" fill="#89d88a"/>
  <text x="519.951" y="170.5" text-anchor="start" font-family="Segoe UI, Arial, sans-serif" font-size="15" font-weight="600" fill="#444444">2.57x [28ns]</text>
  <text x="241" y="205" text-anchor="end" font-family="Segoe UI, Arial, sans-serif" font-size="18" fill="#222222">multiply</text>
  <rect x="253" y="187" width="238.982" height="24" rx="2" ry="2" fill="#89d88a"/>
  <text x="501.982" y="204.5" text-anchor="start" font-family="Segoe UI, Arial, sans-serif" font-size="15" font-weight="600" fill="#444444">2.39x [34ns]</text>
  <text x="241" y="239" text-anchor="end" font-family="Segoe UI, Arial, sans-serif" font-size="18" fill="#222222">divide</text>
  <rect x="253" y="221" width="117.531" height="24" rx="2" ry="2" fill="#89d88a"/>
  <text x="380.531" y="238.5" text-anchor="start" font-family="Segoe UI, Arial, sans-serif" font-size="15" font-weight="600" fill="#444444">1.18x [83ns]</text>
  <line x1="245" y1="250" x2="653" y2="250" stroke="#cfcfcf" stroke-width="1"/>
  <text x="245" y="280" text-anchor="end" font-family="Segoe UI, Arial, sans-serif" font-size="20" font-weight="700" fill="#1f1f1f">Mixed Workloads</text>
  <text x="241" y="313" text-anchor="end" font-family="Segoe UI, Arial, sans-serif" font-size="18" fill="#222222">affine trig transform</text>
  <rect x="253" y="295" width="124.915" height="24" rx="2" ry="2" fill="#89d88a"/>
  <text x="387.915" y="312.5" text-anchor="start" font-family="Segoe UI, Arial, sans-serif" font-size="15" font-weight="600" fill="#444444">1.25x [1813ns]</text>
  <text x="241" y="347" text-anchor="end" font-family="Segoe UI, Arial, sans-serif" font-size="18" fill="#222222">mandelbrot kernel</text>
  <rect x="253" y="329" width="124.896" height="24" rx="2" ry="2" fill="#89d88a"/>
  <text x="387.896" y="346.5" text-anchor="start" font-family="Segoe UI, Arial, sans-serif" font-size="15" font-weight="600" fill="#444444">1.25x [149ns]</text>
  <text x="241" y="381" text-anchor="end" font-family="Segoe UI, Arial, sans-serif" font-size="18" fill="#222222">mixed arithmetic</text>
  <rect x="253" y="363" width="174.16" height="24" rx="2" ry="2" fill="#89d88a"/>
  <text x="437.16" y="380.5" text-anchor="start" font-family="Segoe UI, Arial, sans-serif" font-size="15" font-weight="600" fill="#444444">1.74x [306ns]</text>
  <line x1="245" y1="392" x2="653" y2="392" stroke="#cfcfcf" stroke-width="1"/>
  <text x="245" y="422" text-anchor="end" font-family="Segoe UI, Arial, sans-serif" font-size="20" font-weight="700" fill="#1f1f1f">Rounding</text>
  <text x="241" y="455" text-anchor="end" font-family="Segoe UI, Arial, sans-serif" font-size="18" fill="#222222">floor</text>
  <rect x="253" y="437" width="296.038" height="24" rx="2" ry="2" fill="#89d88a"/>
  <text x="559.038" y="454.5" text-anchor="start" font-family="Segoe UI, Arial, sans-serif" font-size="15" font-weight="600" fill="#444444">2.96x [24ns]</text>
  <text x="241" y="489" text-anchor="end" font-family="Segoe UI, Arial, sans-serif" font-size="18" fill="#222222">ceil</text>
  <rect x="253" y="471" width="299.749" height="24" rx="2" ry="2" fill="#89d88a"/>
  <text x="562.749" y="488.5" text-anchor="start" font-family="Segoe UI, Arial, sans-serif" font-size="15" font-weight="600" fill="#444444">3.00x [24ns]</text>
  <text x="241" y="523" text-anchor="end" font-family="Segoe UI, Arial, sans-serif" font-size="18" fill="#222222">trunc</text>
  <rect x="253" y="505" width="289.185" height="24" rx="2" ry="2" fill="#89d88a"/>
  <text x="552.185" y="522.5" text-anchor="start" font-family="Segoe UI, Arial, sans-serif" font-size="15" font-weight="600" fill="#444444">2.89x [24ns]</text>
  <text x="241" y="557" text-anchor="end" font-family="Segoe UI, Arial, sans-serif" font-size="18" fill="#222222">round</text>
  <rect x="253" y="539" width="267.938" height="24" rx="2" ry="2" fill="#89d88a"/>
  <text x="530.938" y="556.5" text-anchor="start" font-family="Segoe UI, Arial, sans-serif" font-size="15" font-weight="600" fill="#444444">2.68x [33ns]</text>
  <text x="241" y="591" text-anchor="end" font-family="Segoe UI, Arial, sans-serif" font-size="18" fill="#222222">nearbyint</text>
  <rect x="253" y="573" width="400" height="24" rx="2" ry="2" fill="#89d88a"/>
  <polygon points="653,573 671,585 653,597" fill="#89d88a"/>
  <text x="679" y="590.5" text-anchor="start" font-family="Segoe UI, Arial, sans-serif" font-size="15" font-weight="600" fill="#444444">8.93x [33ns]</text>
  <text x="241" y="625" text-anchor="end" font-family="Segoe UI, Arial, sans-serif" font-size="18" fill="#222222">rint</text>
  <rect x="253" y="607" width="400" height="24" rx="2" ry="2" fill="#89d88a"/>
  <polygon points="653,607 671,619 653,631" fill="#89d88a"/>
  <text x="679" y="624.5" text-anchor="start" font-family="Segoe UI, Arial, sans-serif" font-size="15" font-weight="600" fill="#444444">8.91x [33ns]</text>
  <text x="241" y="659" text-anchor="end" font-family="Segoe UI, Arial, sans-serif" font-size="18" fill="#222222">lround</text>
  <rect x="253" y="641" width="274.67" height="24" rx="2" ry="2" fill="#89d88a"/>
  <text x="537.67" y="658.5" text-anchor="start" font-family="Segoe UI, Arial, sans-serif" font-size="15" font-weight="600" fill="#444444">2.75x [20ns]</text>
  <text x="241" y="693" text-anchor="end" font-family="Segoe UI, Arial, sans-serif" font-size="18" fill="#222222">llround</text>
  <rect x="253" y="675" width="280.805" height="24" rx="2" ry="2" fill="#89d88a"/>
  <text x="543.805" y="692.5" text-anchor="start" font-family="Segoe UI, Arial, sans-serif" font-size="15" font-weight="600" fill="#444444">2.81x [20ns]</text>
  <text x="241" y="727" text-anchor="end" font-family="Segoe UI, Arial, sans-serif" font-size="18" fill="#222222">lrint</text>
  <rect x="253" y="709" width="257.037" height="24" rx="2" ry="2" fill="#89d88a"/>
  <text x="520.037" y="726.5" text-anchor="start" font-family="Segoe UI, Arial, sans-serif" font-size="15" font-weight="600" fill="#444444">2.57x [22ns]</text>
  <text x="241" y="761" text-anchor="end" font-family="Segoe UI, Arial, sans-serif" font-size="18" fill="#222222">llrint</text>
  <rect x="253" y="743" width="259.497" height="24" rx="2" ry="2" fill="#89d88a"/>
  <text x="522.497" y="760.5" text-anchor="start" font-family="Segoe UI, Arial, sans-serif" font-size="15" font-weight="600" fill="#444444">2.59x [22ns]</text>
  <line x1="245" y1="772" x2="653" y2="772" stroke="#cfcfcf" stroke-width="1"/>
  <text x="245" y="802" text-anchor="end" font-family="Segoe UI, Arial, sans-serif" font-size="20" font-weight="700" fill="#1f1f1f">Remainders</text>
  <text x="241" y="835" text-anchor="end" font-family="Segoe UI, Arial, sans-serif" font-size="18" fill="#222222">fmod</text>
  <rect x="253" y="817" width="108.246" height="24" rx="2" ry="2" fill="#89d88a"/>
  <text x="371.246" y="834.5" text-anchor="start" font-family="Segoe UI, Arial, sans-serif" font-size="15" font-weight="600" fill="#444444">1.08x [117ns]</text>
  <text x="241" y="869" text-anchor="end" font-family="Segoe UI, Arial, sans-serif" font-size="18" fill="#222222">remainder</text>
  <rect x="253" y="851" width="286.414" height="24" rx="2" ry="2" fill="#89d88a"/>
  <text x="549.414" y="868.5" text-anchor="start" font-family="Segoe UI, Arial, sans-serif" font-size="15" font-weight="600" fill="#444444">2.86x [135ns]</text>
  <text x="241" y="903" text-anchor="end" font-family="Segoe UI, Arial, sans-serif" font-size="18" fill="#222222">remquo</text>
  <rect x="253" y="885" width="138.483" height="24" rx="2" ry="2" fill="#89d88a"/>
  <text x="401.483" y="902.5" text-anchor="start" font-family="Segoe UI, Arial, sans-serif" font-size="15" font-weight="600" fill="#444444">1.38x [137ns]</text>
  <line x1="245" y1="914" x2="653" y2="914" stroke="#cfcfcf" stroke-width="1"/>
  <text x="245" y="944" text-anchor="end" font-family="Segoe UI, Arial, sans-serif" font-size="20" font-weight="700" fill="#1f1f1f">Floating-point utilities</text>
  <text x="241" y="977" text-anchor="end" font-family="Segoe UI, Arial, sans-serif" font-size="18" fill="#222222">abs</text>
  <rect x="253" y="959" width="316.143" height="24" rx="2" ry="2" fill="#89d88a"/>
  <text x="579.143" y="976.5" text-anchor="start" font-family="Segoe UI, Arial, sans-serif" font-size="15" font-weight="600" fill="#444444">3.16x [20ns]</text>
  <text x="241" y="1011" text-anchor="end" font-family="Segoe UI, Arial, sans-serif" font-size="18" fill="#222222">fma</text>
  <rect x="253" y="993" width="208.487" height="24" rx="2" ry="2" fill="#89d88a"/>
  <text x="471.487" y="1010.5" text-anchor="start" font-family="Segoe UI, Arial, sans-serif" font-size="15" font-weight="600" fill="#444444">2.08x [45ns]</text>
  <text x="241" y="1045" text-anchor="end" font-family="Segoe UI, Arial, sans-serif" font-size="18" fill="#222222">fmin</text>
  <rect x="253" y="1027" width="302.565" height="24" rx="2" ry="2" fill="#89d88a"/>
  <text x="565.565" y="1044.5" text-anchor="start" font-family="Segoe UI, Arial, sans-serif" font-size="15" font-weight="600" fill="#444444">3.03x [24ns]</text>
  <text x="241" y="1079" text-anchor="end" font-family="Segoe UI, Arial, sans-serif" font-size="18" fill="#222222">fmax</text>
  <rect x="253" y="1061" width="306.153" height="24" rx="2" ry="2" fill="#89d88a"/>
  <text x="569.153" y="1078.5" text-anchor="start" font-family="Segoe UI, Arial, sans-serif" font-size="15" font-weight="600" fill="#444444">3.06x [24ns]</text>
  <text x="241" y="1113" text-anchor="end" font-family="Segoe UI, Arial, sans-serif" font-size="18" fill="#222222">fdim</text>
  <rect x="253" y="1095" width="263.342" height="24" rx="2" ry="2" fill="#89d88a"/>
  <text x="526.342" y="1112.5" text-anchor="start" font-family="Segoe UI, Arial, sans-serif" font-size="15" font-weight="600" fill="#444444">2.63x [27ns]</text>
  <text x="241" y="1147" text-anchor="end" font-family="Segoe UI, Arial, sans-serif" font-size="18" fill="#222222">copysign</text>
  <rect x="253" y="1129" width="334.326" height="24" rx="2" ry="2" fill="#89d88a"/>
  <text x="597.326" y="1146.5" text-anchor="start" font-family="Segoe UI, Arial, sans-serif" font-size="15" font-weight="600" fill="#444444">3.34x [22ns]</text>
  <text x="241" y="1181" text-anchor="end" font-family="Segoe UI, Arial, sans-serif" font-size="18" fill="#222222">ldexp</text>
  <rect x="253" y="1163" width="314.175" height="24" rx="2" ry="2" fill="#89d88a"/>
  <text x="577.175" y="1180.5" text-anchor="start" font-family="Segoe UI, Arial, sans-serif" font-size="15" font-weight="600" fill="#444444">3.14x [23ns]</text>
  <text x="241" y="1215" text-anchor="end" font-family="Segoe UI, Arial, sans-serif" font-size="18" fill="#222222">scalbn</text>
  <rect x="253" y="1197" width="321.289" height="24" rx="2" ry="2" fill="#89d88a"/>
  <text x="584.289" y="1214.5" text-anchor="start" font-family="Segoe UI, Arial, sans-serif" font-size="15" font-weight="600" fill="#444444">3.21x [23ns]</text>
  <text x="241" y="1249" text-anchor="end" font-family="Segoe UI, Arial, sans-serif" font-size="18" fill="#222222">scalbln</text>
  <rect x="253" y="1231" width="319.019" height="24" rx="2" ry="2" fill="#89d88a"/>
  <text x="582.019" y="1248.5" text-anchor="start" font-family="Segoe UI, Arial, sans-serif" font-size="15" font-weight="600" fill="#444444">3.19x [23ns]</text>
  <text x="241" y="1283" text-anchor="end" font-family="Segoe UI, Arial, sans-serif" font-size="18" fill="#222222">frexp</text>
  <rect x="253" y="1265" width="371.123" height="24" rx="2" ry="2" fill="#89d88a"/>
  <text x="634.123" y="1282.5" text-anchor="start" font-family="Segoe UI, Arial, sans-serif" font-size="15" font-weight="600" fill="#444444">3.71x [25ns]</text>
  <text x="241" y="1317" text-anchor="end" font-family="Segoe UI, Arial, sans-serif" font-size="18" fill="#222222">modf</text>
  <rect x="253" y="1299" width="379.985" height="24" rx="2" ry="2" fill="#89d88a"/>
  <text x="642.985" y="1316.5" text-anchor="start" font-family="Segoe UI, Arial, sans-serif" font-size="15" font-weight="600" fill="#444444">3.80x [52ns]</text>
  <text x="241" y="1351" text-anchor="end" font-family="Segoe UI, Arial, sans-serif" font-size="18" fill="#222222">ilogb</text>
  <rect x="253" y="1333" width="173.765" height="24" rx="2" ry="2" fill="#89d88a"/>
  <text x="436.765" y="1350.5" text-anchor="start" font-family="Segoe UI, Arial, sans-serif" font-size="15" font-weight="600" fill="#444444">1.74x [8ns]</text>
  <text x="241" y="1385" text-anchor="end" font-family="Segoe UI, Arial, sans-serif" font-size="18" fill="#222222">logb</text>
  <rect x="253" y="1367" width="274.78" height="24" rx="2" ry="2" fill="#89d88a"/>
  <text x="537.78" y="1384.5" text-anchor="start" font-family="Segoe UI, Arial, sans-serif" font-size="15" font-weight="600" fill="#444444">2.75x [31ns]</text>
  <text x="241" y="1419" text-anchor="end" font-family="Segoe UI, Arial, sans-serif" font-size="18" fill="#222222">nextafter</text>
  <rect x="253" y="1401" width="400" height="24" rx="2" ry="2" fill="#89d88a"/>
  <polygon points="653,1401 671,1413 653,1425" fill="#89d88a"/>
  <text x="679" y="1418.5" text-anchor="start" font-family="Segoe UI, Arial, sans-serif" font-size="15" font-weight="600" fill="#444444">11.40x [24ns]</text>
  <text x="241" y="1453" text-anchor="end" font-family="Segoe UI, Arial, sans-serif" font-size="18" fill="#222222">nexttoward(type)</text>
  <rect x="253" y="1435" width="400" height="24" rx="2" ry="2" fill="#89d88a"/>
  <polygon points="653,1435 671,1447 653,1459" fill="#89d88a"/>
  <text x="679" y="1452.5" text-anchor="start" font-family="Segoe UI, Arial, sans-serif" font-size="15" font-weight="600" fill="#444444">11.61x [24ns]</text>
  <text x="241" y="1487" text-anchor="end" font-family="Segoe UI, Arial, sans-serif" font-size="18" fill="#222222">nexttoward(long double)</text>
  <rect x="253" y="1469" width="400" height="24" rx="2" ry="2" fill="#89d88a"/>
  <polygon points="653,1469 671,1481 653,1493" fill="#89d88a"/>
  <text x="679" y="1486.5" text-anchor="start" font-family="Segoe UI, Arial, sans-serif" font-size="15" font-weight="600" fill="#444444">12.45x [24ns]</text>
  <line x1="245" y1="1498" x2="653" y2="1498" stroke="#cfcfcf" stroke-width="1"/>
  <text x="245" y="1528" text-anchor="end" font-family="Segoe UI, Arial, sans-serif" font-size="20" font-weight="700" fill="#1f1f1f">Roots &amp; powers</text>
  <text x="241" y="1561" text-anchor="end" font-family="Segoe UI, Arial, sans-serif" font-size="18" fill="#222222">sqrt</text>
  <rect x="253" y="1543" width="101.204" height="24" rx="2" ry="2" fill="#89d88a"/>
  <text x="364.204" y="1560.5" text-anchor="start" font-family="Segoe UI, Arial, sans-serif" font-size="15" font-weight="600" fill="#444444">1.01x [140ns]</text>
  <text x="241" y="1595" text-anchor="end" font-family="Segoe UI, Arial, sans-serif" font-size="18" fill="#222222">cbrt</text>
  <rect x="253" y="1577" width="109.806" height="24" rx="2" ry="2" fill="#89d88a"/>
  <text x="372.806" y="1594.5" text-anchor="start" font-family="Segoe UI, Arial, sans-serif" font-size="15" font-weight="600" fill="#444444">1.10x [334ns]</text>
  <text x="241" y="1629" text-anchor="end" font-family="Segoe UI, Arial, sans-serif" font-size="18" fill="#222222">hypot</text>
  <rect x="253" y="1611" width="113.004" height="24" rx="2" ry="2" fill="#89d88a"/>
  <text x="376.004" y="1628.5" text-anchor="start" font-family="Segoe UI, Arial, sans-serif" font-size="15" font-weight="600" fill="#444444">1.13x [170ns]</text>
  <text x="241" y="1663" text-anchor="end" font-family="Segoe UI, Arial, sans-serif" font-size="18" fill="#222222">pow</text>
  <rect x="253" y="1645" width="283.553" height="24" rx="2" ry="2" fill="#89d88a"/>
  <text x="546.553" y="1662.5" text-anchor="start" font-family="Segoe UI, Arial, sans-serif" font-size="15" font-weight="600" fill="#444444">2.84x [1133ns]</text>
  <line x1="245" y1="1674" x2="653" y2="1674" stroke="#cfcfcf" stroke-width="1"/>
  <text x="245" y="1704" text-anchor="end" font-family="Segoe UI, Arial, sans-serif" font-size="20" font-weight="700" fill="#1f1f1f">Exponentials</text>
  <text x="241" y="1737" text-anchor="end" font-family="Segoe UI, Arial, sans-serif" font-size="18" fill="#222222">exp</text>
  <rect x="253" y="1719" width="175.04" height="24" rx="2" ry="2" fill="#89d88a"/>
  <text x="438.04" y="1736.5" text-anchor="start" font-family="Segoe UI, Arial, sans-serif" font-size="15" font-weight="600" fill="#444444">1.75x [594ns]</text>
  <text x="241" y="1771" text-anchor="end" font-family="Segoe UI, Arial, sans-serif" font-size="18" fill="#222222">exp2</text>
  <rect x="253" y="1753" width="204.127" height="24" rx="2" ry="2" fill="#89d88a"/>
  <text x="467.127" y="1770.5" text-anchor="start" font-family="Segoe UI, Arial, sans-serif" font-size="15" font-weight="600" fill="#444444">2.04x [571ns]</text>
  <text x="241" y="1805" text-anchor="end" font-family="Segoe UI, Arial, sans-serif" font-size="18" fill="#222222">expm1</text>
  <rect x="253" y="1787" width="128.19" height="24" rx="2" ry="2" fill="#89d88a"/>
  <text x="391.19" y="1804.5" text-anchor="start" font-family="Segoe UI, Arial, sans-serif" font-size="15" font-weight="600" fill="#444444">1.28x [893ns]</text>
  <line x1="245" y1="1816" x2="653" y2="1816" stroke="#cfcfcf" stroke-width="1"/>
  <text x="245" y="1846" text-anchor="end" font-family="Segoe UI, Arial, sans-serif" font-size="20" font-weight="700" fill="#1f1f1f">Logarithms</text>
  <text x="241" y="1879" text-anchor="end" font-family="Segoe UI, Arial, sans-serif" font-size="18" fill="#222222">log</text>
  <rect x="253" y="1861" width="351.919" height="24" rx="2" ry="2" fill="#89d88a"/>
  <text x="614.919" y="1878.5" text-anchor="start" font-family="Segoe UI, Arial, sans-serif" font-size="15" font-weight="600" fill="#444444">3.52x [513ns]</text>
  <text x="241" y="1913" text-anchor="end" font-family="Segoe UI, Arial, sans-serif" font-size="18" fill="#222222">log2</text>
  <rect x="253" y="1895" width="353.52" height="24" rx="2" ry="2" fill="#89d88a"/>
  <text x="616.52" y="1912.5" text-anchor="start" font-family="Segoe UI, Arial, sans-serif" font-size="15" font-weight="600" fill="#444444">3.54x [517ns]</text>
  <text x="241" y="1947" text-anchor="end" font-family="Segoe UI, Arial, sans-serif" font-size="18" fill="#222222">log10</text>
  <rect x="253" y="1929" width="400" height="24" rx="2" ry="2" fill="#89d88a"/>
  <polygon points="653,1929 671,1941 653,1953" fill="#89d88a"/>
  <text x="679" y="1946.5" text-anchor="start" font-family="Segoe UI, Arial, sans-serif" font-size="15" font-weight="600" fill="#444444">5.49x [566ns]</text>
  <text x="241" y="1981" text-anchor="end" font-family="Segoe UI, Arial, sans-serif" font-size="18" fill="#222222">log1p</text>
  <rect x="253" y="1963" width="246.366" height="24" rx="2" ry="2" fill="#89d88a"/>
  <text x="509.366" y="1980.5" text-anchor="start" font-family="Segoe UI, Arial, sans-serif" font-size="15" font-weight="600" fill="#444444">2.46x [694ns]</text>
  <line x1="245" y1="1992" x2="653" y2="1992" stroke="#cfcfcf" stroke-width="1"/>
  <text x="245" y="2022" text-anchor="end" font-family="Segoe UI, Arial, sans-serif" font-size="20" font-weight="700" fill="#1f1f1f">Trigonometric</text>
  <text x="241" y="2055" text-anchor="end" font-family="Segoe UI, Arial, sans-serif" font-size="18" fill="#222222">sin</text>
  <rect x="253" y="2037" width="156.034" height="24" rx="2" ry="2" fill="#89d88a"/>
  <text x="419.034" y="2054.5" text-anchor="start" font-family="Segoe UI, Arial, sans-serif" font-size="15" font-weight="600" fill="#444444">1.56x [773ns]</text>
  <text x="241" y="2089" text-anchor="end" font-family="Segoe UI, Arial, sans-serif" font-size="18" fill="#222222">cos</text>
  <rect x="253" y="2071" width="121.04" height="24" rx="2" ry="2" fill="#89d88a"/>
  <text x="384.04" y="2088.5" text-anchor="start" font-family="Segoe UI, Arial, sans-serif" font-size="15" font-weight="600" fill="#444444">1.21x [774ns]</text>
  <text x="241" y="2123" text-anchor="end" font-family="Segoe UI, Arial, sans-serif" font-size="18" fill="#222222">tan</text>
  <rect x="253" y="2105" width="142.146" height="24" rx="2" ry="2" fill="#89d88a"/>
  <text x="405.146" y="2122.5" text-anchor="start" font-family="Segoe UI, Arial, sans-serif" font-size="15" font-weight="600" fill="#444444">1.42x [957ns]</text>
  <text x="241" y="2157" text-anchor="end" font-family="Segoe UI, Arial, sans-serif" font-size="18" fill="#222222">asin</text>
  <rect x="253" y="2139" width="369.67" height="24" rx="2" ry="2" fill="#89d88a"/>
  <text x="632.67" y="2156.5" text-anchor="start" font-family="Segoe UI, Arial, sans-serif" font-size="15" font-weight="600" fill="#444444">3.70x [1031ns]</text>
  <text x="241" y="2191" text-anchor="end" font-family="Segoe UI, Arial, sans-serif" font-size="18" fill="#222222">acos</text>
  <rect x="253" y="2173" width="384.262" height="24" rx="2" ry="2" fill="#89d88a"/>
  <text x="645" y="2190.5" text-anchor="start" font-family="Segoe UI, Arial, sans-serif" font-size="15" font-weight="600" fill="#444444">3.84x [1047ns]</text>
  <text x="241" y="2225" text-anchor="end" font-family="Segoe UI, Arial, sans-serif" font-size="18" fill="#222222">atan</text>
  <rect x="253" y="2207" width="400" height="24" rx="2" ry="2" fill="#89d88a"/>
  <polygon points="653,2207 671,2219 653,2231" fill="#89d88a"/>
  <text x="679" y="2224.5" text-anchor="start" font-family="Segoe UI, Arial, sans-serif" font-size="15" font-weight="600" fill="#444444">4.05x [827ns]</text>
  <text x="241" y="2259" text-anchor="end" font-family="Segoe UI, Arial, sans-serif" font-size="18" fill="#222222">atan2</text>
  <rect x="253" y="2241" width="400" height="24" rx="2" ry="2" fill="#89d88a"/>
  <polygon points="653,2241 671,2253 653,2265" fill="#89d88a"/>
  <text x="679" y="2258.5" text-anchor="start" font-family="Segoe UI, Arial, sans-serif" font-size="15" font-weight="600" fill="#444444">4.12x [901ns]</text>
  <line x1="245" y1="2270" x2="653" y2="2270" stroke="#cfcfcf" stroke-width="1"/>
  <text x="245" y="2300" text-anchor="end" font-family="Segoe UI, Arial, sans-serif" font-size="20" font-weight="700" fill="#1f1f1f">Hyperbolic</text>
  <text x="241" y="2333" text-anchor="end" font-family="Segoe UI, Arial, sans-serif" font-size="18" fill="#222222">sinh</text>
  <rect x="253" y="2315" width="120.88" height="24" rx="2" ry="2" fill="#89d88a"/>
  <text x="383.88" y="2332.5" text-anchor="start" font-family="Segoe UI, Arial, sans-serif" font-size="15" font-weight="600" fill="#444444">1.21x [1005ns]</text>
  <text x="241" y="2367" text-anchor="end" font-family="Segoe UI, Arial, sans-serif" font-size="18" fill="#222222">cosh</text>
  <rect x="253" y="2349" width="168.637" height="24" rx="2" ry="2" fill="#89d88a"/>
  <text x="431.637" y="2366.5" text-anchor="start" font-family="Segoe UI, Arial, sans-serif" font-size="15" font-weight="600" fill="#444444">1.69x [696ns]</text>
  <text x="241" y="2401" text-anchor="end" font-family="Segoe UI, Arial, sans-serif" font-size="18" fill="#222222">tanh</text>
  <rect x="253" y="2383" width="127.903" height="24" rx="2" ry="2" fill="#89d88a"/>
  <text x="390.903" y="2400.5" text-anchor="start" font-family="Segoe UI, Arial, sans-serif" font-size="15" font-weight="600" fill="#444444">1.28x [991ns]</text>
  <line x1="245" y1="2412" x2="653" y2="2412" stroke="#cfcfcf" stroke-width="1"/>
  <text x="245" y="2442" text-anchor="end" font-family="Segoe UI, Arial, sans-serif" font-size="20" font-weight="700" fill="#1f1f1f">Inverse hyperbolic</text>
  <text x="241" y="2475" text-anchor="end" font-family="Segoe UI, Arial, sans-serif" font-size="18" fill="#222222">asinh</text>
  <rect x="253" y="2457" width="294.719" height="24" rx="2" ry="2" fill="#89d88a"/>
  <text x="557.719" y="2474.5" text-anchor="start" font-family="Segoe UI, Arial, sans-serif" font-size="15" font-weight="600" fill="#444444">2.95x [671ns]</text>
  <text x="241" y="2509" text-anchor="end" font-family="Segoe UI, Arial, sans-serif" font-size="18" fill="#222222">acosh</text>
  <rect x="253" y="2491" width="281.081" height="24" rx="2" ry="2" fill="#89d88a"/>
  <text x="544.081" y="2508.5" text-anchor="start" font-family="Segoe UI, Arial, sans-serif" font-size="15" font-weight="600" fill="#444444">2.81x [694ns]</text>
  <text x="241" y="2543" text-anchor="end" font-family="Segoe UI, Arial, sans-serif" font-size="18" fill="#222222">atanh</text>
  <rect x="253" y="2525" width="287.088" height="24" rx="2" ry="2" fill="#89d88a"/>
  <text x="550.088" y="2542.5" text-anchor="start" font-family="Segoe UI, Arial, sans-serif" font-size="15" font-weight="600" fill="#444444">2.87x [704ns]</text>
  <line x1="245" y1="2554" x2="653" y2="2554" stroke="#cfcfcf" stroke-width="1"/>
  <text x="245" y="2584" text-anchor="end" font-family="Segoe UI, Arial, sans-serif" font-size="20" font-weight="700" fill="#1f1f1f">Special functions</text>
  <text x="241" y="2617" text-anchor="end" font-family="Segoe UI, Arial, sans-serif" font-size="18" fill="#222222">erfc</text>
  <rect x="253" y="2599" width="400" height="24" rx="2" ry="2" fill="#89d88a"/>
  <polygon points="653,2599 671,2611 653,2623" fill="#89d88a"/>
  <text x="679" y="2616.5" text-anchor="start" font-family="Segoe UI, Arial, sans-serif" font-size="15" font-weight="600" fill="#444444">4.50x [3200ns]</text>
  <text x="241" y="2651" text-anchor="end" font-family="Segoe UI, Arial, sans-serif" font-size="18" fill="#222222">erf</text>
  <rect x="253" y="2633" width="271.946" height="24" rx="2" ry="2" fill="#89d88a"/>
  <text x="534.946" y="2650.5" text-anchor="start" font-family="Segoe UI, Arial, sans-serif" font-size="15" font-weight="600" fill="#444444">2.72x [3201ns]</text>
  <text x="241" y="2685" text-anchor="end" font-family="Segoe UI, Arial, sans-serif" font-size="18" fill="#222222">tgamma</text>
  <rect x="253" y="2667" width="150.986" height="24" rx="2" ry="2" fill="#89d88a"/>
  <text x="413.986" y="2684.5" text-anchor="start" font-family="Segoe UI, Arial, sans-serif" font-size="15" font-weight="600" fill="#444444">1.51x [6481ns]</text>
  <text x="241" y="2719" text-anchor="end" font-family="Segoe UI, Arial, sans-serif" font-size="18" fill="#222222">lgamma</text>
  <rect x="253" y="2701" width="166.675" height="24" rx="2" ry="2" fill="#89d88a"/>
  <text x="429.675" y="2718.5" text-anchor="start" font-family="Segoe UI, Arial, sans-serif" font-size="15" font-weight="600" fill="#444444">1.67x [6359ns]</text>
</svg>
