<?xml version="1.0" encoding="UTF-8"?>
<svg xmlns="http://www.w3.org/2000/svg" width="1207" height="3706" viewBox="0 0 1207 3706">
  <rect x="0" y="0" width="1207" height="3706" fill="#f2f2f2"/>
  <text x="603" y="38" text-anchor="middle" font-family="Segoe UI, Arial, sans-serif" font-size="28" font-weight="600" fill="#222222">f128 vs MPFR typical benchmark ratios</text>
  <line x1="583" y1="82" x2="583" y2="3688" stroke="#dddddd" stroke-width="1"/>
  <line x1="633" y1="82" x2="633" y2="3688" stroke="#dddddd" stroke-width="1"/>
  <line x1="683" y1="82" x2="683" y2="3688" stroke="#dddddd" stroke-width="1"/>
  <line x1="733" y1="82" x2="733" y2="3688" stroke="#dddddd" stroke-width="1"/>
  <line x1="783" y1="82" x2="783" y2="3688" stroke="#dddddd" stroke-width="1"/>
  <line x1="833" y1="82" x2="833" y2="3688" stroke="#dddddd" stroke-width="1"/>
  <line x1="883" y1="82" x2="883" y2="3688" stroke="#dddddd" stroke-width="1"/>
  <line x1="933" y1="82" x2="933" y2="3688" stroke="#dddddd" stroke-width="1"/>
  <line x1="983" y1="82" x2="983" y2="3688" stroke="#dddddd" stroke-width="1"/>
  <line x1="633" y1="82" x2="633" y2="3688" stroke="#6da7d9" stroke-width="2" stroke-dasharray="6,6"/>
  <text x="575" y="104" text-anchor="end" font-family="Segoe UI, Arial, sans-serif" font-size="20" font-weight="700" fill="#1f1f1f">f128 &lt;-&gt; f128</text>
  <text x="571" y="137" text-anchor="end" font-family="Segoe UI, Arial, sans-serif" font-size="18" fill="#222222">add</text>
  <rect x="583" y="119" width="272.942" height="24" rx="2" ry="2" fill="#89d88a"/>
  <text x="865.942" y="136.5" text-anchor="start" font-family="Segoe UI, Arial, sans-serif" font-size="15" font-weight="600" fill="#444444">5.46x [13ns]</text>
  <text x="571" y="171" text-anchor="end" font-family="Segoe UI, Arial, sans-serif" font-size="18" fill="#222222">subtract</text>
  <rect x="583" y="153" width="261.659" height="24" rx="2" ry="2" fill="#89d88a"/>
  <text x="854.659" y="170.5" text-anchor="start" font-family="Segoe UI, Arial, sans-serif" font-size="15" font-weight="600" fill="#444444">5.23x [13ns]</text>
  <text x="571" y="205" text-anchor="end" font-family="Segoe UI, Arial, sans-serif" font-size="18" fill="#222222">multiply</text>
  <rect x="583" y="187" width="285.16" height="24" rx="2" ry="2" fill="#89d88a"/>
  <text x="878.16" y="204.5" text-anchor="start" font-family="Segoe UI, Arial, sans-serif" font-size="15" font-weight="600" fill="#444444">5.70x [13ns]</text>
  <text x="571" y="239" text-anchor="end" font-family="Segoe UI, Arial, sans-serif" font-size="18" fill="#222222">divide</text>
  <rect x="583" y="221" width="287.556" height="24" rx="2" ry="2" fill="#89d88a"/>
  <text x="880.556" y="238.5" text-anchor="start" font-family="Segoe UI, Arial, sans-serif" font-size="15" font-weight="600" fill="#444444">5.75x [13ns]</text>
  <line x1="575" y1="250" x2="983" y2="250" stroke="#cfcfcf" stroke-width="1"/>
  <text x="575" y="280" text-anchor="end" font-family="Segoe UI, Arial, sans-serif" font-size="20" font-weight="700" fill="#1f1f1f">f128 &lt;-&gt; f64</text>
  <text x="571" y="313" text-anchor="end" font-family="Segoe UI, Arial, sans-serif" font-size="18" fill="#222222">add</text>
  <rect x="583" y="295" width="333.49" height="24" rx="2" ry="2" fill="#89d88a"/>
  <text x="926.49" y="312.5" text-anchor="start" font-family="Segoe UI, Arial, sans-serif" font-size="15" font-weight="600" fill="#444444">6.67x [13ns]</text>
  <text x="571" y="347" text-anchor="end" font-family="Segoe UI, Arial, sans-serif" font-size="18" fill="#222222">subtract</text>
  <rect x="583" y="329" width="319.39" height="24" rx="2" ry="2" fill="#89d88a"/>
  <text x="912.39" y="346.5" text-anchor="start" font-family="Segoe UI, Arial, sans-serif" font-size="15" font-weight="600" fill="#444444">6.39x [13ns]</text>
  <text x="571" y="381" text-anchor="end" font-family="Segoe UI, Arial, sans-serif" font-size="18" fill="#222222">multiply</text>
  <rect x="583" y="363" width="358.284" height="24" rx="2" ry="2" fill="#89d88a"/>
  <text x="951.284" y="380.5" text-anchor="start" font-family="Segoe UI, Arial, sans-serif" font-size="15" font-weight="600" fill="#444444">7.17x [13ns]</text>
  <text x="571" y="415" text-anchor="end" font-family="Segoe UI, Arial, sans-serif" font-size="18" fill="#222222">divide</text>
  <rect x="583" y="397" width="365.229" height="24" rx="2" ry="2" fill="#89d88a"/>
  <text x="958.229" y="414.5" text-anchor="start" font-family="Segoe UI, Arial, sans-serif" font-size="15" font-weight="600" fill="#444444">7.30x [13ns]</text>
  <line x1="575" y1="426" x2="983" y2="426" stroke="#cfcfcf" stroke-width="1"/>
  <text x="575" y="456" text-anchor="end" font-family="Segoe UI, Arial, sans-serif" font-size="20" font-weight="700" fill="#1f1f1f">f128 &lt;-&gt; f32</text>
  <text x="571" y="489" text-anchor="end" font-family="Segoe UI, Arial, sans-serif" font-size="18" fill="#222222">add</text>
  <rect x="583" y="471" width="339.376" height="24" rx="2" ry="2" fill="#89d88a"/>
  <text x="932.376" y="488.5" text-anchor="start" font-family="Segoe UI, Arial, sans-serif" font-size="15" font-weight="600" fill="#444444">6.79x [13ns]</text>
  <text x="571" y="523" text-anchor="end" font-family="Segoe UI, Arial, sans-serif" font-size="18" fill="#222222">subtract</text>
  <rect x="583" y="505" width="322.008" height="24" rx="2" ry="2" fill="#89d88a"/>
  <text x="915.008" y="522.5" text-anchor="start" font-family="Segoe UI, Arial, sans-serif" font-size="15" font-weight="600" fill="#444444">6.44x [13ns]</text>
  <text x="571" y="557" text-anchor="end" font-family="Segoe UI, Arial, sans-serif" font-size="18" fill="#222222">multiply</text>
  <rect x="583" y="539" width="348.873" height="24" rx="2" ry="2" fill="#89d88a"/>
  <text x="941.873" y="556.5" text-anchor="start" font-family="Segoe UI, Arial, sans-serif" font-size="15" font-weight="600" fill="#444444">6.98x [13ns]</text>
  <text x="571" y="591" text-anchor="end" font-family="Segoe UI, Arial, sans-serif" font-size="18" fill="#222222">divide</text>
  <rect x="583" y="573" width="369.107" height="24" rx="2" ry="2" fill="#89d88a"/>
  <text x="962.107" y="590.5" text-anchor="start" font-family="Segoe UI, Arial, sans-serif" font-size="15" font-weight="600" fill="#444444">7.38x [13ns]</text>
  <line x1="575" y1="602" x2="983" y2="602" stroke="#cfcfcf" stroke-width="1"/>
  <text x="575" y="632" text-anchor="end" font-family="Segoe UI, Arial, sans-serif" font-size="20" font-weight="700" fill="#1f1f1f">f128 &lt;-&gt; i64</text>
  <text x="571" y="665" text-anchor="end" font-family="Segoe UI, Arial, sans-serif" font-size="18" fill="#222222">add</text>
  <rect x="583" y="647" width="288.37" height="24" rx="2" ry="2" fill="#89d88a"/>
  <text x="881.37" y="664.5" text-anchor="start" font-family="Segoe UI, Arial, sans-serif" font-size="15" font-weight="600" fill="#444444">5.77x [13ns]</text>
  <text x="571" y="699" text-anchor="end" font-family="Segoe UI, Arial, sans-serif" font-size="18" fill="#222222">subtract</text>
  <rect x="583" y="681" width="302.74" height="24" rx="2" ry="2" fill="#89d88a"/>
  <text x="895.74" y="698.5" text-anchor="start" font-family="Segoe UI, Arial, sans-serif" font-size="15" font-weight="600" fill="#444444">6.05x [13ns]</text>
  <text x="571" y="733" text-anchor="end" font-family="Segoe UI, Arial, sans-serif" font-size="18" fill="#222222">multiply</text>
  <rect x="583" y="715" width="274.013" height="24" rx="2" ry="2" fill="#89d88a"/>
  <text x="867.013" y="732.5" text-anchor="start" font-family="Segoe UI, Arial, sans-serif" font-size="15" font-weight="600" fill="#444444">5.48x [13ns]</text>
  <text x="571" y="767" text-anchor="end" font-family="Segoe UI, Arial, sans-serif" font-size="18" fill="#222222">divide</text>
  <rect x="583" y="749" width="314.006" height="24" rx="2" ry="2" fill="#89d88a"/>
  <text x="907.006" y="766.5" text-anchor="start" font-family="Segoe UI, Arial, sans-serif" font-size="15" font-weight="600" fill="#444444">6.28x [14ns]</text>
  <line x1="575" y1="778" x2="983" y2="778" stroke="#cfcfcf" stroke-width="1"/>
  <text x="575" y="808" text-anchor="end" font-family="Segoe UI, Arial, sans-serif" font-size="20" font-weight="700" fill="#1f1f1f">f128 &lt;-&gt; i32</text>
  <text x="571" y="841" text-anchor="end" font-family="Segoe UI, Arial, sans-serif" font-size="18" fill="#222222">add</text>
  <rect x="583" y="823" width="300.429" height="24" rx="2" ry="2" fill="#89d88a"/>
  <text x="893.429" y="840.5" text-anchor="start" font-family="Segoe UI, Arial, sans-serif" font-size="15" font-weight="600" fill="#444444">6.01x [13ns]</text>
  <text x="571" y="875" text-anchor="end" font-family="Segoe UI, Arial, sans-serif" font-size="18" fill="#222222">subtract</text>
  <rect x="583" y="857" width="305.494" height="24" rx="2" ry="2" fill="#89d88a"/>
  <text x="898.494" y="874.5" text-anchor="start" font-family="Segoe UI, Arial, sans-serif" font-size="15" font-weight="600" fill="#444444">6.11x [13ns]</text>
  <text x="571" y="909" text-anchor="end" font-family="Segoe UI, Arial, sans-serif" font-size="18" fill="#222222">multiply</text>
  <rect x="583" y="891" width="285.755" height="24" rx="2" ry="2" fill="#89d88a"/>
  <text x="878.755" y="908.5" text-anchor="start" font-family="Segoe UI, Arial, sans-serif" font-size="15" font-weight="600" fill="#444444">5.72x [13ns]</text>
  <text x="571" y="943" text-anchor="end" font-family="Segoe UI, Arial, sans-serif" font-size="18" fill="#222222">divide</text>
  <rect x="583" y="925" width="318.79" height="24" rx="2" ry="2" fill="#89d88a"/>
  <text x="911.79" y="942.5" text-anchor="start" font-family="Segoe UI, Arial, sans-serif" font-size="15" font-weight="600" fill="#444444">6.38x [13ns]</text>
  <line x1="575" y1="954" x2="983" y2="954" stroke="#cfcfcf" stroke-width="1"/>
  <text x="575" y="984" text-anchor="end" font-family="Segoe UI, Arial, sans-serif" font-size="20" font-weight="700" fill="#1f1f1f">Mixed Workloads</text>
  <text x="571" y="1017" text-anchor="end" font-family="Segoe UI, Arial, sans-serif" font-size="18" fill="#222222">affine trig transform</text>
  <rect x="583" y="999" width="398.372" height="24" rx="2" ry="2" fill="#89d88a"/>
  <text x="975" y="1016.5" text-anchor="start" font-family="Segoe UI, Arial, sans-serif" font-size="15" font-weight="600" fill="#444444">7.97x [197ns]</text>
  <text x="571" y="1051" text-anchor="end" font-family="Segoe UI, Arial, sans-serif" font-size="18" fill="#222222">mandelbrot kernel</text>
  <rect x="583" y="1033" width="344.154" height="24" rx="2" ry="2" fill="#89d88a"/>
  <text x="937.154" y="1050.5" text-anchor="start" font-family="Segoe UI, Arial, sans-serif" font-size="15" font-weight="600" fill="#444444">6.88x [20ns]</text>
  <text x="571" y="1085" text-anchor="end" font-family="Segoe UI, Arial, sans-serif" font-size="18" fill="#222222">((x*x - y*y) + a) / (c + scalar)</text>
  <rect x="583" y="1067" width="400" height="24" rx="2" ry="2" fill="#89d88a"/>
  <polygon points="983,1067 1001,1079 983,1091" fill="#89d88a"/>
  <text x="1009" y="1084.5" text-anchor="start" font-family="Segoe UI, Arial, sans-serif" font-size="15" font-weight="600" fill="#444444">10.97x [20ns]</text>
  <text x="571" y="1119" text-anchor="end" font-family="Segoe UI, Arial, sans-serif" font-size="18" fill="#222222">((x*a + y*b) + c) / (c + scalar)</text>
  <rect x="583" y="1101" width="400" height="24" rx="2" ry="2" fill="#89d88a"/>
  <polygon points="983,1101 1001,1113 983,1125" fill="#89d88a"/>
  <text x="1009" y="1118.5" text-anchor="start" font-family="Segoe UI, Arial, sans-serif" font-size="15" font-weight="600" fill="#444444">15.45x [22ns]</text>
  <text x="571" y="1153" text-anchor="end" font-family="Segoe UI, Arial, sans-serif" font-size="18" fill="#222222">((x*sa + y*sb) + a) / (c + scalar)</text>
  <rect x="583" y="1135" width="400" height="24" rx="2" ry="2" fill="#89d88a"/>
  <polygon points="983,1135 1001,1147 983,1159" fill="#89d88a"/>
  <text x="1009" y="1152.5" text-anchor="start" font-family="Segoe UI, Arial, sans-serif" font-size="15" font-weight="600" fill="#444444">19.86x [18ns]</text>
  <text x="571" y="1187" text-anchor="end" font-family="Segoe UI, Arial, sans-serif" font-size="18" fill="#222222">((x + a) + b) / ((c + d) + scalar)</text>
  <rect x="583" y="1169" width="400" height="24" rx="2" ry="2" fill="#89d88a"/>
  <polygon points="983,1169 1001,1181 983,1193" fill="#89d88a"/>
  <text x="1009" y="1186.5" text-anchor="start" font-family="Segoe UI, Arial, sans-serif" font-size="15" font-weight="600" fill="#444444">13.26x [20ns]</text>
  <text x="571" y="1221" text-anchor="end" font-family="Segoe UI, Arial, sans-serif" font-size="18" fill="#222222">((x*a + y*b) + c*d) / ((c + d) + scalar)</text>
  <rect x="583" y="1203" width="400" height="24" rx="2" ry="2" fill="#89d88a"/>
  <polygon points="983,1203 1001,1215 983,1227" fill="#89d88a"/>
  <text x="1009" y="1220.5" text-anchor="start" font-family="Segoe UI, Arial, sans-serif" font-size="15" font-weight="600" fill="#444444">16.06x [25ns]</text>
  <text x="571" y="1255" text-anchor="end" font-family="Segoe UI, Arial, sans-serif" font-size="18" fill="#222222">((x + scalar)*scalar + a) * (scalar*(y + scalar) - b)</text>
  <rect x="583" y="1237" width="400" height="24" rx="2" ry="2" fill="#89d88a"/>
  <polygon points="983,1237 1001,1249 983,1261" fill="#89d88a"/>
  <text x="1009" y="1254.5" text-anchor="start" font-family="Segoe UI, Arial, sans-serif" font-size="15" font-weight="600" fill="#444444">17.82x [39ns]</text>
  <text x="571" y="1289" text-anchor="end" font-family="Segoe UI, Arial, sans-serif" font-size="18" fill="#222222">((x*y + a*b) + c) / (c*c + scalar)</text>
  <rect x="583" y="1271" width="400" height="24" rx="2" ry="2" fill="#89d88a"/>
  <polygon points="983,1271 1001,1283 983,1295" fill="#89d88a"/>
  <text x="1009" y="1288.5" text-anchor="start" font-family="Segoe UI, Arial, sans-serif" font-size="15" font-weight="600" fill="#444444">12.56x [24ns]</text>
  <text x="571" y="1323" text-anchor="end" font-family="Segoe UI, Arial, sans-serif" font-size="18" fill="#222222">mixed workload average</text>
  <rect x="583" y="1305" width="400" height="24" rx="2" ry="2" fill="#89d88a"/>
  <polygon points="983,1305 1001,1317 983,1329" fill="#89d88a"/>
  <text x="1009" y="1322.5" text-anchor="start" font-family="Segoe UI, Arial, sans-serif" font-size="15" font-weight="600" fill="#444444">13.43x [43ns]</text>
  <line x1="575" y1="1334" x2="983" y2="1334" stroke="#cfcfcf" stroke-width="1"/>
  <text x="575" y="1364" text-anchor="end" font-family="Segoe UI, Arial, sans-serif" font-size="20" font-weight="700" fill="#1f1f1f">Rounding</text>
  <text x="571" y="1397" text-anchor="end" font-family="Segoe UI, Arial, sans-serif" font-size="18" fill="#222222">floor</text>
  <rect x="583" y="1379" width="242.386" height="24" rx="2" ry="2" fill="#89d88a"/>
  <text x="835.386" y="1396.5" text-anchor="start" font-family="Segoe UI, Arial, sans-serif" font-size="15" font-weight="600" fill="#444444">4.85x [13ns]</text>
  <text x="571" y="1431" text-anchor="end" font-family="Segoe UI, Arial, sans-serif" font-size="18" fill="#222222">ceil</text>
  <rect x="583" y="1413" width="247.825" height="24" rx="2" ry="2" fill="#89d88a"/>
  <text x="840.825" y="1430.5" text-anchor="start" font-family="Segoe UI, Arial, sans-serif" font-size="15" font-weight="600" fill="#444444">4.96x [13ns]</text>
  <text x="571" y="1465" text-anchor="end" font-family="Segoe UI, Arial, sans-serif" font-size="18" fill="#222222">trunc</text>
  <rect x="583" y="1447" width="237.619" height="24" rx="2" ry="2" fill="#89d88a"/>
  <text x="830.619" y="1464.5" text-anchor="start" font-family="Segoe UI, Arial, sans-serif" font-size="15" font-weight="600" fill="#444444">4.75x [13ns]</text>
  <text x="571" y="1499" text-anchor="end" font-family="Segoe UI, Arial, sans-serif" font-size="18" fill="#222222">round</text>
  <rect x="583" y="1481" width="313.002" height="24" rx="2" ry="2" fill="#89d88a"/>
  <text x="906.002" y="1498.5" text-anchor="start" font-family="Segoe UI, Arial, sans-serif" font-size="15" font-weight="600" fill="#444444">6.26x [13ns]</text>
  <text x="571" y="1533" text-anchor="end" font-family="Segoe UI, Arial, sans-serif" font-size="18" fill="#222222">nearbyint</text>
  <rect x="583" y="1515" width="327.083" height="24" rx="2" ry="2" fill="#89d88a"/>
  <text x="920.083" y="1532.5" text-anchor="start" font-family="Segoe UI, Arial, sans-serif" font-size="15" font-weight="600" fill="#444444">6.54x [13ns]</text>
  <text x="571" y="1567" text-anchor="end" font-family="Segoe UI, Arial, sans-serif" font-size="18" fill="#222222">rint</text>
  <rect x="583" y="1549" width="311.008" height="24" rx="2" ry="2" fill="#89d88a"/>
  <text x="904.008" y="1566.5" text-anchor="start" font-family="Segoe UI, Arial, sans-serif" font-size="15" font-weight="600" fill="#444444">6.22x [13ns]</text>
  <text x="571" y="1601" text-anchor="end" font-family="Segoe UI, Arial, sans-serif" font-size="18" fill="#222222">lround</text>
  <rect x="583" y="1583" width="290.218" height="24" rx="2" ry="2" fill="#89d88a"/>
  <text x="883.218" y="1600.5" text-anchor="start" font-family="Segoe UI, Arial, sans-serif" font-size="15" font-weight="600" fill="#444444">5.80x [9ns]</text>
  <text x="571" y="1635" text-anchor="end" font-family="Segoe UI, Arial, sans-serif" font-size="18" fill="#222222">llround</text>
  <rect x="583" y="1617" width="288.006" height="24" rx="2" ry="2" fill="#89d88a"/>
  <text x="881.006" y="1634.5" text-anchor="start" font-family="Segoe UI, Arial, sans-serif" font-size="15" font-weight="600" fill="#444444">5.76x [9ns]</text>
  <text x="571" y="1669" text-anchor="end" font-family="Segoe UI, Arial, sans-serif" font-size="18" fill="#222222">lrint</text>
  <rect x="583" y="1651" width="318.901" height="24" rx="2" ry="2" fill="#89d88a"/>
  <text x="911.901" y="1668.5" text-anchor="start" font-family="Segoe UI, Arial, sans-serif" font-size="15" font-weight="600" fill="#444444">6.38x [8ns]</text>
  <text x="571" y="1703" text-anchor="end" font-family="Segoe UI, Arial, sans-serif" font-size="18" fill="#222222">llrint</text>
  <rect x="583" y="1685" width="322.156" height="24" rx="2" ry="2" fill="#89d88a"/>
  <text x="915.156" y="1702.5" text-anchor="start" font-family="Segoe UI, Arial, sans-serif" font-size="15" font-weight="600" fill="#444444">6.44x [8ns]</text>
  <line x1="575" y1="1714" x2="983" y2="1714" stroke="#cfcfcf" stroke-width="1"/>
  <text x="575" y="1744" text-anchor="end" font-family="Segoe UI, Arial, sans-serif" font-size="20" font-weight="700" fill="#1f1f1f">Remainders</text>
  <text x="571" y="1777" text-anchor="end" font-family="Segoe UI, Arial, sans-serif" font-size="18" fill="#222222">fmod</text>
  <rect x="583" y="1759" width="122.683" height="24" rx="2" ry="2" fill="#89d88a"/>
  <text x="715.683" y="1776.5" text-anchor="start" font-family="Segoe UI, Arial, sans-serif" font-size="15" font-weight="600" fill="#444444">2.45x [52ns]</text>
  <text x="571" y="1811" text-anchor="end" font-family="Segoe UI, Arial, sans-serif" font-size="18" fill="#222222">remainder</text>
  <rect x="583" y="1793" width="140.107" height="24" rx="2" ry="2" fill="#89d88a"/>
  <text x="733.107" y="1810.5" text-anchor="start" font-family="Segoe UI, Arial, sans-serif" font-size="15" font-weight="600" fill="#444444">2.80x [55ns]</text>
  <text x="571" y="1845" text-anchor="end" font-family="Segoe UI, Arial, sans-serif" font-size="18" fill="#222222">remquo</text>
  <rect x="583" y="1827" width="400" height="24" rx="2" ry="2" fill="#89d88a"/>
  <polygon points="983,1827 1001,1839 983,1851" fill="#89d88a"/>
  <text x="1009" y="1844.5" text-anchor="start" font-family="Segoe UI, Arial, sans-serif" font-size="15" font-weight="600" fill="#444444">9.35x [18ns]</text>
  <line x1="575" y1="1856" x2="983" y2="1856" stroke="#cfcfcf" stroke-width="1"/>
  <text x="575" y="1886" text-anchor="end" font-family="Segoe UI, Arial, sans-serif" font-size="20" font-weight="700" fill="#1f1f1f">Floating-point utilities</text>
  <text x="571" y="1919" text-anchor="end" font-family="Segoe UI, Arial, sans-serif" font-size="18" fill="#222222">abs</text>
  <rect x="583" y="1901" width="233.178" height="24" rx="2" ry="2" fill="#89d88a"/>
  <text x="826.178" y="1918.5" text-anchor="start" font-family="Segoe UI, Arial, sans-serif" font-size="15" font-weight="600" fill="#444444">4.66x [13ns]</text>
  <text x="571" y="1953" text-anchor="end" font-family="Segoe UI, Arial, sans-serif" font-size="18" fill="#222222">fma</text>
  <rect x="583" y="1935" width="327.77" height="24" rx="2" ry="2" fill="#89d88a"/>
  <text x="920.77" y="1952.5" text-anchor="start" font-family="Segoe UI, Arial, sans-serif" font-size="15" font-weight="600" fill="#444444">6.56x [13ns]</text>
  <text x="571" y="1987" text-anchor="end" font-family="Segoe UI, Arial, sans-serif" font-size="18" fill="#222222">fmin</text>
  <rect x="583" y="1969" width="259.832" height="24" rx="2" ry="2" fill="#89d88a"/>
  <text x="852.832" y="1986.5" text-anchor="start" font-family="Segoe UI, Arial, sans-serif" font-size="15" font-weight="600" fill="#444444">5.20x [13ns]</text>
  <text x="571" y="2021" text-anchor="end" font-family="Segoe UI, Arial, sans-serif" font-size="18" fill="#222222">fmax</text>
  <rect x="583" y="2003" width="263.775" height="24" rx="2" ry="2" fill="#89d88a"/>
  <text x="856.775" y="2020.5" text-anchor="start" font-family="Segoe UI, Arial, sans-serif" font-size="15" font-weight="600" fill="#444444">5.28x [13ns]</text>
  <text x="571" y="2055" text-anchor="end" font-family="Segoe UI, Arial, sans-serif" font-size="18" fill="#222222">fdim</text>
  <rect x="583" y="2037" width="253.13" height="24" rx="2" ry="2" fill="#89d88a"/>
  <text x="846.13" y="2054.5" text-anchor="start" font-family="Segoe UI, Arial, sans-serif" font-size="15" font-weight="600" fill="#444444">5.06x [13ns]</text>
  <text x="571" y="2089" text-anchor="end" font-family="Segoe UI, Arial, sans-serif" font-size="18" fill="#222222">copysign</text>
  <rect x="583" y="2071" width="239.922" height="24" rx="2" ry="2" fill="#89d88a"/>
  <text x="832.922" y="2088.5" text-anchor="start" font-family="Segoe UI, Arial, sans-serif" font-size="15" font-weight="600" fill="#444444">4.80x [13ns]</text>
  <text x="571" y="2123" text-anchor="end" font-family="Segoe UI, Arial, sans-serif" font-size="18" fill="#222222">ldexp</text>
  <rect x="583" y="2105" width="246.181" height="24" rx="2" ry="2" fill="#89d88a"/>
  <text x="839.181" y="2122.5" text-anchor="start" font-family="Segoe UI, Arial, sans-serif" font-size="15" font-weight="600" fill="#444444">4.92x [14ns]</text>
  <text x="571" y="2157" text-anchor="end" font-family="Segoe UI, Arial, sans-serif" font-size="18" fill="#222222">scalbn</text>
  <rect x="583" y="2139" width="243.06" height="24" rx="2" ry="2" fill="#89d88a"/>
  <text x="836.06" y="2156.5" text-anchor="start" font-family="Segoe UI, Arial, sans-serif" font-size="15" font-weight="600" fill="#444444">4.86x [14ns]</text>
  <text x="571" y="2191" text-anchor="end" font-family="Segoe UI, Arial, sans-serif" font-size="18" fill="#222222">scalbln</text>
  <rect x="583" y="2173" width="249.146" height="24" rx="2" ry="2" fill="#89d88a"/>
  <text x="842.146" y="2190.5" text-anchor="start" font-family="Segoe UI, Arial, sans-serif" font-size="15" font-weight="600" fill="#444444">4.98x [14ns]</text>
  <text x="571" y="2225" text-anchor="end" font-family="Segoe UI, Arial, sans-serif" font-size="18" fill="#222222">frexp</text>
  <rect x="583" y="2207" width="280.277" height="24" rx="2" ry="2" fill="#89d88a"/>
  <text x="873.277" y="2224.5" text-anchor="start" font-family="Segoe UI, Arial, sans-serif" font-size="15" font-weight="600" fill="#444444">5.61x [14ns]</text>
  <text x="571" y="2259" text-anchor="end" font-family="Segoe UI, Arial, sans-serif" font-size="18" fill="#222222">modf</text>
  <rect x="583" y="2241" width="400" height="24" rx="2" ry="2" fill="#89d88a"/>
  <polygon points="983,2241 1001,2253 983,2265" fill="#89d88a"/>
  <text x="1009" y="2258.5" text-anchor="start" font-family="Segoe UI, Arial, sans-serif" font-size="15" font-weight="600" fill="#444444">8.57x [19ns]</text>
  <text x="571" y="2293" text-anchor="end" font-family="Segoe UI, Arial, sans-serif" font-size="18" fill="#222222">ilogb</text>
  <rect x="583" y="2275" width="75.091" height="24" rx="2" ry="2" fill="#89d88a"/>
  <text x="668.091" y="2292.5" text-anchor="start" font-family="Segoe UI, Arial, sans-serif" font-size="15" font-weight="600" fill="#444444">1.50x [9ns]</text>
  <text x="571" y="2327" text-anchor="end" font-family="Segoe UI, Arial, sans-serif" font-size="18" fill="#222222">logb</text>
  <rect x="583" y="2309" width="289.354" height="24" rx="2" ry="2" fill="#89d88a"/>
  <text x="882.354" y="2326.5" text-anchor="start" font-family="Segoe UI, Arial, sans-serif" font-size="15" font-weight="600" fill="#444444">5.79x [14ns]</text>
  <text x="571" y="2361" text-anchor="end" font-family="Segoe UI, Arial, sans-serif" font-size="18" fill="#222222">nextafter</text>
  <rect x="583" y="2343" width="400" height="24" rx="2" ry="2" fill="#89d88a"/>
  <polygon points="983,2343 1001,2355 983,2367" fill="#89d88a"/>
  <text x="1009" y="2360.5" text-anchor="start" font-family="Segoe UI, Arial, sans-serif" font-size="15" font-weight="600" fill="#444444">19.22x [13ns]</text>
  <text x="571" y="2395" text-anchor="end" font-family="Segoe UI, Arial, sans-serif" font-size="18" fill="#222222">nexttoward(type)</text>
  <rect x="583" y="2377" width="400" height="24" rx="2" ry="2" fill="#89d88a"/>
  <polygon points="983,2377 1001,2389 983,2401" fill="#89d88a"/>
  <text x="1009" y="2394.5" text-anchor="start" font-family="Segoe UI, Arial, sans-serif" font-size="15" font-weight="600" fill="#444444">19.34x [13ns]</text>
  <text x="571" y="2429" text-anchor="end" font-family="Segoe UI, Arial, sans-serif" font-size="18" fill="#222222">nexttoward(long double)</text>
  <rect x="583" y="2411" width="400" height="24" rx="2" ry="2" fill="#89d88a"/>
  <polygon points="983,2411 1001,2423 983,2435" fill="#89d88a"/>
  <text x="1009" y="2428.5" text-anchor="start" font-family="Segoe UI, Arial, sans-serif" font-size="15" font-weight="600" fill="#444444">21.71x [13ns]</text>
  <line x1="575" y1="2440" x2="983" y2="2440" stroke="#cfcfcf" stroke-width="1"/>
  <text x="575" y="2470" text-anchor="end" font-family="Segoe UI, Arial, sans-serif" font-size="20" font-weight="700" fill="#1f1f1f">Roots &amp; powers</text>
  <text x="571" y="2503" text-anchor="end" font-family="Segoe UI, Arial, sans-serif" font-size="18" fill="#222222">sqrt</text>
  <rect x="583" y="2485" width="76.9842" height="24" rx="2" ry="2" fill="#89d88a"/>
  <text x="669.984" y="2502.5" text-anchor="start" font-family="Segoe UI, Arial, sans-serif" font-size="15" font-weight="600" fill="#444444">1.54x [50ns]</text>
  <text x="571" y="2537" text-anchor="end" font-family="Segoe UI, Arial, sans-serif" font-size="18" fill="#222222">cbrt</text>
  <rect x="583" y="2519" width="235.234" height="24" rx="2" ry="2" fill="#89d88a"/>
  <text x="828.234" y="2536.5" text-anchor="start" font-family="Segoe UI, Arial, sans-serif" font-size="15" font-weight="600" fill="#444444">4.70x [59ns]</text>
  <text x="571" y="2571" text-anchor="end" font-family="Segoe UI, Arial, sans-serif" font-size="18" fill="#222222">hypot</text>
  <rect x="583" y="2553" width="239.64" height="24" rx="2" ry="2" fill="#89d88a"/>
  <text x="832.64" y="2570.5" text-anchor="start" font-family="Segoe UI, Arial, sans-serif" font-size="15" font-weight="600" fill="#444444">4.79x [35ns]</text>
  <text x="571" y="2605" text-anchor="end" font-family="Segoe UI, Arial, sans-serif" font-size="18" fill="#222222">pow</text>
  <rect x="583" y="2587" width="232.832" height="24" rx="2" ry="2" fill="#89d88a"/>
  <text x="825.832" y="2604.5" text-anchor="start" font-family="Segoe UI, Arial, sans-serif" font-size="15" font-weight="600" fill="#444444">4.66x [394ns]</text>
  <line x1="575" y1="2616" x2="983" y2="2616" stroke="#cfcfcf" stroke-width="1"/>
  <text x="575" y="2646" text-anchor="end" font-family="Segoe UI, Arial, sans-serif" font-size="20" font-weight="700" fill="#1f1f1f">Exponentials</text>
  <text x="571" y="2679" text-anchor="end" font-family="Segoe UI, Arial, sans-serif" font-size="18" fill="#222222">exp</text>
  <rect x="583" y="2661" width="215.256" height="24" rx="2" ry="2" fill="#89d88a"/>
  <text x="808.256" y="2678.5" text-anchor="start" font-family="Segoe UI, Arial, sans-serif" font-size="15" font-weight="600" fill="#444444">4.31x [155ns]</text>
  <text x="571" y="2713" text-anchor="end" font-family="Segoe UI, Arial, sans-serif" font-size="18" fill="#222222">exp2</text>
  <rect x="583" y="2695" width="261.486" height="24" rx="2" ry="2" fill="#89d88a"/>
  <text x="854.486" y="2712.5" text-anchor="start" font-family="Segoe UI, Arial, sans-serif" font-size="15" font-weight="600" fill="#444444">5.23x [151ns]</text>
  <text x="571" y="2747" text-anchor="end" font-family="Segoe UI, Arial, sans-serif" font-size="18" fill="#222222">expm1</text>
  <rect x="583" y="2729" width="235.894" height="24" rx="2" ry="2" fill="#89d88a"/>
  <text x="828.894" y="2746.5" text-anchor="start" font-family="Segoe UI, Arial, sans-serif" font-size="15" font-weight="600" fill="#444444">4.72x [162ns]</text>
  <line x1="575" y1="2758" x2="983" y2="2758" stroke="#cfcfcf" stroke-width="1"/>
  <text x="575" y="2788" text-anchor="end" font-family="Segoe UI, Arial, sans-serif" font-size="20" font-weight="700" fill="#1f1f1f">Logarithms</text>
  <text x="571" y="2821" text-anchor="end" font-family="Segoe UI, Arial, sans-serif" font-size="18" fill="#222222">log</text>
  <rect x="583" y="2803" width="197.41" height="24" rx="2" ry="2" fill="#89d88a"/>
  <text x="790.41" y="2820.5" text-anchor="start" font-family="Segoe UI, Arial, sans-serif" font-size="15" font-weight="600" fill="#444444">3.95x [224ns]</text>
  <text x="571" y="2855" text-anchor="end" font-family="Segoe UI, Arial, sans-serif" font-size="18" fill="#222222">log2</text>
  <rect x="583" y="2837" width="232.352" height="24" rx="2" ry="2" fill="#89d88a"/>
  <text x="825.352" y="2854.5" text-anchor="start" font-family="Segoe UI, Arial, sans-serif" font-size="15" font-weight="600" fill="#444444">4.65x [225ns]</text>
  <text x="571" y="2889" text-anchor="end" font-family="Segoe UI, Arial, sans-serif" font-size="18" fill="#222222">log10</text>
  <rect x="583" y="2871" width="283.729" height="24" rx="2" ry="2" fill="#89d88a"/>
  <text x="876.729" y="2888.5" text-anchor="start" font-family="Segoe UI, Arial, sans-serif" font-size="15" font-weight="600" fill="#444444">5.67x [326ns]</text>
  <text x="571" y="2923" text-anchor="end" font-family="Segoe UI, Arial, sans-serif" font-size="18" fill="#222222">log1p</text>
  <rect x="583" y="2905" width="220.339" height="24" rx="2" ry="2" fill="#89d88a"/>
  <text x="813.339" y="2922.5" text-anchor="start" font-family="Segoe UI, Arial, sans-serif" font-size="15" font-weight="600" fill="#444444">4.41x [215ns]</text>
  <line x1="575" y1="2934" x2="983" y2="2934" stroke="#cfcfcf" stroke-width="1"/>
  <text x="575" y="2964" text-anchor="end" font-family="Segoe UI, Arial, sans-serif" font-size="20" font-weight="700" fill="#1f1f1f">Trigonometric</text>
  <text x="571" y="2997" text-anchor="end" font-family="Segoe UI, Arial, sans-serif" font-size="18" fill="#222222">sin</text>
  <rect x="583" y="2979" width="400" height="24" rx="2" ry="2" fill="#89d88a"/>
  <polygon points="983,2979 1001,2991 983,3003" fill="#89d88a"/>
  <text x="1009" y="2996.5" text-anchor="start" font-family="Segoe UI, Arial, sans-serif" font-size="15" font-weight="600" fill="#444444">9.91x [89ns]</text>
  <text x="571" y="3031" text-anchor="end" font-family="Segoe UI, Arial, sans-serif" font-size="18" fill="#222222">cos</text>
  <rect x="583" y="3013" width="368.347" height="24" rx="2" ry="2" fill="#89d88a"/>
  <text x="961.347" y="3030.5" text-anchor="start" font-family="Segoe UI, Arial, sans-serif" font-size="15" font-weight="600" fill="#444444">7.37x [90ns]</text>
  <text x="571" y="3065" text-anchor="end" font-family="Segoe UI, Arial, sans-serif" font-size="18" fill="#222222">tan</text>
  <rect x="583" y="3047" width="400" height="24" rx="2" ry="2" fill="#89d88a"/>
  <polygon points="983,3047 1001,3059 983,3071" fill="#89d88a"/>
  <text x="1009" y="3064.5" text-anchor="start" font-family="Segoe UI, Arial, sans-serif" font-size="15" font-weight="600" fill="#444444">9.26x [107ns]</text>
  <text x="571" y="3099" text-anchor="end" font-family="Segoe UI, Arial, sans-serif" font-size="18" fill="#222222">asin</text>
  <rect x="583" y="3081" width="400" height="24" rx="2" ry="2" fill="#89d88a"/>
  <polygon points="983,3081 1001,3093 983,3105" fill="#89d88a"/>
  <text x="1009" y="3098.5" text-anchor="start" font-family="Segoe UI, Arial, sans-serif" font-size="15" font-weight="600" fill="#444444">9.22x [224ns]</text>
  <text x="571" y="3133" text-anchor="end" font-family="Segoe UI, Arial, sans-serif" font-size="18" fill="#222222">acos</text>
  <rect x="583" y="3115" width="400" height="24" rx="2" ry="2" fill="#89d88a"/>
  <polygon points="983,3115 1001,3127 983,3139" fill="#89d88a"/>
  <text x="1009" y="3132.5" text-anchor="start" font-family="Segoe UI, Arial, sans-serif" font-size="15" font-weight="600" fill="#444444">9.00x [217ns]</text>
  <text x="571" y="3167" text-anchor="end" font-family="Segoe UI, Arial, sans-serif" font-size="18" fill="#222222">atan</text>
  <rect x="583" y="3149" width="400" height="24" rx="2" ry="2" fill="#89d88a"/>
  <polygon points="983,3149 1001,3161 983,3173" fill="#89d88a"/>
  <text x="1009" y="3166.5" text-anchor="start" font-family="Segoe UI, Arial, sans-serif" font-size="15" font-weight="600" fill="#444444">9.04x [150ns]</text>
  <text x="571" y="3201" text-anchor="end" font-family="Segoe UI, Arial, sans-serif" font-size="18" fill="#222222">atan2</text>
  <rect x="583" y="3183" width="400" height="24" rx="2" ry="2" fill="#89d88a"/>
  <polygon points="983,3183 1001,3195 983,3207" fill="#89d88a"/>
  <text x="1009" y="3200.5" text-anchor="start" font-family="Segoe UI, Arial, sans-serif" font-size="15" font-weight="600" fill="#444444">12.48x [159ns]</text>
  <line x1="575" y1="3212" x2="983" y2="3212" stroke="#cfcfcf" stroke-width="1"/>
  <text x="575" y="3242" text-anchor="end" font-family="Segoe UI, Arial, sans-serif" font-size="20" font-weight="700" fill="#1f1f1f">Hyperbolic</text>
  <text x="571" y="3275" text-anchor="end" font-family="Segoe UI, Arial, sans-serif" font-size="18" fill="#222222">sinh</text>
  <rect x="583" y="3257" width="245.075" height="24" rx="2" ry="2" fill="#89d88a"/>
  <text x="838.075" y="3274.5" text-anchor="start" font-family="Segoe UI, Arial, sans-serif" font-size="15" font-weight="600" fill="#444444">4.90x [169ns]</text>
  <text x="571" y="3309" text-anchor="end" font-family="Segoe UI, Arial, sans-serif" font-size="18" fill="#222222">cosh</text>
  <rect x="583" y="3291" width="237.811" height="24" rx="2" ry="2" fill="#89d88a"/>
  <text x="830.811" y="3308.5" text-anchor="start" font-family="Segoe UI, Arial, sans-serif" font-size="15" font-weight="600" fill="#444444">4.76x [168ns]</text>
  <text x="571" y="3343" text-anchor="end" font-family="Segoe UI, Arial, sans-serif" font-size="18" fill="#222222">tanh</text>
  <rect x="583" y="3325" width="233.237" height="24" rx="2" ry="2" fill="#89d88a"/>
  <text x="826.237" y="3342.5" text-anchor="start" font-family="Segoe UI, Arial, sans-serif" font-size="15" font-weight="600" fill="#444444">4.66x [178ns]</text>
  <line x1="575" y1="3354" x2="983" y2="3354" stroke="#cfcfcf" stroke-width="1"/>
  <text x="575" y="3384" text-anchor="end" font-family="Segoe UI, Arial, sans-serif" font-size="20" font-weight="700" fill="#1f1f1f">Inverse hyperbolic</text>
  <text x="571" y="3417" text-anchor="end" font-family="Segoe UI, Arial, sans-serif" font-size="18" fill="#222222">asinh</text>
  <rect x="583" y="3399" width="400" height="24" rx="2" ry="2" fill="#89d88a"/>
  <polygon points="983,3399 1001,3411 983,3423" fill="#89d88a"/>
  <text x="1009" y="3416.5" text-anchor="start" font-family="Segoe UI, Arial, sans-serif" font-size="15" font-weight="600" fill="#444444">8.57x [296ns]</text>
  <text x="571" y="3451" text-anchor="end" font-family="Segoe UI, Arial, sans-serif" font-size="18" fill="#222222">acosh</text>
  <rect x="583" y="3433" width="183.221" height="24" rx="2" ry="2" fill="#89d88a"/>
  <text x="776.221" y="3450.5" text-anchor="start" font-family="Segoe UI, Arial, sans-serif" font-size="15" font-weight="600" fill="#444444">3.66x [302ns]</text>
  <text x="571" y="3485" text-anchor="end" font-family="Segoe UI, Arial, sans-serif" font-size="18" fill="#222222">atanh</text>
  <rect x="583" y="3467" width="254.516" height="24" rx="2" ry="2" fill="#89d88a"/>
  <text x="847.516" y="3484.5" text-anchor="start" font-family="Segoe UI, Arial, sans-serif" font-size="15" font-weight="600" fill="#444444">5.09x [231ns]</text>
  <line x1="575" y1="3496" x2="983" y2="3496" stroke="#cfcfcf" stroke-width="1"/>
  <text x="575" y="3526" text-anchor="end" font-family="Segoe UI, Arial, sans-serif" font-size="20" font-weight="700" fill="#1f1f1f">Special functions</text>
  <text x="571" y="3559" text-anchor="end" font-family="Segoe UI, Arial, sans-serif" font-size="18" fill="#222222">erfc</text>
  <rect x="583" y="3541" width="398.582" height="24" rx="2" ry="2" fill="#89d88a"/>
  <text x="975" y="3558.5" text-anchor="start" font-family="Segoe UI, Arial, sans-serif" font-size="15" font-weight="600" fill="#444444">7.97x [796ns]</text>
  <text x="571" y="3593" text-anchor="end" font-family="Segoe UI, Arial, sans-serif" font-size="18" fill="#222222">erf</text>
  <rect x="583" y="3575" width="220.14" height="24" rx="2" ry="2" fill="#89d88a"/>
  <text x="813.14" y="3592.5" text-anchor="start" font-family="Segoe UI, Arial, sans-serif" font-size="15" font-weight="600" fill="#444444">4.40x [813ns]</text>
  <text x="571" y="3627" text-anchor="end" font-family="Segoe UI, Arial, sans-serif" font-size="18" fill="#222222">tgamma</text>
  <rect x="583" y="3609" width="357.615" height="24" rx="2" ry="2" fill="#89d88a"/>
  <text x="950.615" y="3626.5" text-anchor="start" font-family="Segoe UI, Arial, sans-serif" font-size="15" font-weight="600" fill="#444444">7.15x [630ns]</text>
  <text x="571" y="3661" text-anchor="end" font-family="Segoe UI, Arial, sans-serif" font-size="18" fill="#222222">lgamma</text>
  <rect x="583" y="3643" width="357.326" height="24" rx="2" ry="2" fill="#89d88a"/>
  <text x="950.326" y="3660.5" text-anchor="start" font-family="Segoe UI, Arial, sans-serif" font-size="15" font-weight="600" fill="#444444">7.15x [683ns]</text>
</svg>
