<?xml version="1.0" encoding="UTF-8"?>
<svg xmlns="http://www.w3.org/2000/svg" width="954" height="2906" viewBox="0 0 954 2906">
  <rect x="0" y="0" width="954" height="2906" fill="#f2f2f2"/>
  <text x="477" y="38" text-anchor="middle" font-family="Segoe UI, Arial, sans-serif" font-size="28" font-weight="600" fill="#222222">f128 vs MPFR typical benchmark ratios</text>
  <line x1="330" y1="82" x2="330" y2="2888" stroke="#dddddd" stroke-width="1"/>
  <line x1="380" y1="82" x2="380" y2="2888" stroke="#dddddd" stroke-width="1"/>
  <line x1="430" y1="82" x2="430" y2="2888" stroke="#dddddd" stroke-width="1"/>
  <line x1="480" y1="82" x2="480" y2="2888" stroke="#dddddd" stroke-width="1"/>
  <line x1="530" y1="82" x2="530" y2="2888" stroke="#dddddd" stroke-width="1"/>
  <line x1="580" y1="82" x2="580" y2="2888" stroke="#dddddd" stroke-width="1"/>
  <line x1="630" y1="82" x2="630" y2="2888" stroke="#dddddd" stroke-width="1"/>
  <line x1="680" y1="82" x2="680" y2="2888" stroke="#dddddd" stroke-width="1"/>
  <line x1="730" y1="82" x2="730" y2="2888" stroke="#dddddd" stroke-width="1"/>
  <line x1="380" y1="82" x2="380" y2="2888" stroke="#6da7d9" stroke-width="2" stroke-dasharray="6,6"/>
  <text x="322" y="104" text-anchor="end" font-family="Segoe UI, Arial, sans-serif" font-size="20" font-weight="700" fill="#1f1f1f">f128 &lt;-&gt; f128</text>
  <text x="318" y="137" text-anchor="end" font-family="Segoe UI, Arial, sans-serif" font-size="18" fill="#222222">add</text>
  <rect x="330" y="119" width="232.613" height="24" rx="2" ry="2" fill="#89d88a"/>
  <text x="572.613" y="136.5" text-anchor="start" font-family="Segoe UI, Arial, sans-serif" font-size="15" font-weight="600" fill="#444444">4.65x [13ns]</text>
  <text x="318" y="171" text-anchor="end" font-family="Segoe UI, Arial, sans-serif" font-size="18" fill="#222222">subtract</text>
  <rect x="330" y="153" width="234.882" height="24" rx="2" ry="2" fill="#89d88a"/>
  <text x="574.882" y="170.5" text-anchor="start" font-family="Segoe UI, Arial, sans-serif" font-size="15" font-weight="600" fill="#444444">4.70x [13ns]</text>
  <text x="318" y="205" text-anchor="end" font-family="Segoe UI, Arial, sans-serif" font-size="18" fill="#222222">multiply</text>
  <rect x="330" y="187" width="254.33" height="24" rx="2" ry="2" fill="#89d88a"/>
  <text x="594.33" y="204.5" text-anchor="start" font-family="Segoe UI, Arial, sans-serif" font-size="15" font-weight="600" fill="#444444">5.09x [13ns]</text>
  <text x="318" y="239" text-anchor="end" font-family="Segoe UI, Arial, sans-serif" font-size="18" fill="#222222">divide</text>
  <rect x="330" y="221" width="264.459" height="24" rx="2" ry="2" fill="#89d88a"/>
  <text x="604.459" y="238.5" text-anchor="start" font-family="Segoe UI, Arial, sans-serif" font-size="15" font-weight="600" fill="#444444">5.29x [13ns]</text>
  <line x1="322" y1="250" x2="730" y2="250" stroke="#cfcfcf" stroke-width="1"/>
  <text x="322" y="280" text-anchor="end" font-family="Segoe UI, Arial, sans-serif" font-size="20" font-weight="700" fill="#1f1f1f">Mixed Workloads</text>
  <text x="318" y="313" text-anchor="end" font-family="Segoe UI, Arial, sans-serif" font-size="18" fill="#222222">affine trig transform</text>
  <rect x="330" y="295" width="398.094" height="24" rx="2" ry="2" fill="#89d88a"/>
  <text x="722" y="312.5" text-anchor="start" font-family="Segoe UI, Arial, sans-serif" font-size="15" font-weight="600" fill="#444444">7.96x [197ns]</text>
  <text x="318" y="347" text-anchor="end" font-family="Segoe UI, Arial, sans-serif" font-size="18" fill="#222222">mandelbrot kernel</text>
  <rect x="330" y="329" width="234.748" height="24" rx="2" ry="2" fill="#89d88a"/>
  <text x="574.748" y="346.5" text-anchor="start" font-family="Segoe UI, Arial, sans-serif" font-size="15" font-weight="600" fill="#444444">4.69x [27ns]</text>
  <text x="318" y="381" text-anchor="end" font-family="Segoe UI, Arial, sans-serif" font-size="18" fill="#222222">mixed arithmetic</text>
  <rect x="330" y="363" width="400" height="24" rx="2" ry="2" fill="#89d88a"/>
  <polygon points="730,363 748,375 730,387" fill="#89d88a"/>
  <text x="756" y="380.5" text-anchor="start" font-family="Segoe UI, Arial, sans-serif" font-size="15" font-weight="600" fill="#444444">14.53x [24ns]</text>
  <line x1="322" y1="392" x2="730" y2="392" stroke="#cfcfcf" stroke-width="1"/>
  <text x="322" y="422" text-anchor="end" font-family="Segoe UI, Arial, sans-serif" font-size="20" font-weight="700" fill="#1f1f1f">Rounding</text>
  <text x="318" y="455" text-anchor="end" font-family="Segoe UI, Arial, sans-serif" font-size="18" fill="#222222">floor</text>
  <rect x="330" y="437" width="216.975" height="24" rx="2" ry="2" fill="#89d88a"/>
  <text x="556.975" y="454.5" text-anchor="start" font-family="Segoe UI, Arial, sans-serif" font-size="15" font-weight="600" fill="#444444">4.34x [13ns]</text>
  <text x="318" y="489" text-anchor="end" font-family="Segoe UI, Arial, sans-serif" font-size="18" fill="#222222">ceil</text>
  <rect x="330" y="471" width="224.518" height="24" rx="2" ry="2" fill="#89d88a"/>
  <text x="564.518" y="488.5" text-anchor="start" font-family="Segoe UI, Arial, sans-serif" font-size="15" font-weight="600" fill="#444444">4.49x [13ns]</text>
  <text x="318" y="523" text-anchor="end" font-family="Segoe UI, Arial, sans-serif" font-size="18" fill="#222222">trunc</text>
  <rect x="330" y="505" width="213.674" height="24" rx="2" ry="2" fill="#89d88a"/>
  <text x="553.674" y="522.5" text-anchor="start" font-family="Segoe UI, Arial, sans-serif" font-size="15" font-weight="600" fill="#444444">4.27x [13ns]</text>
  <text x="318" y="557" text-anchor="end" font-family="Segoe UI, Arial, sans-serif" font-size="18" fill="#222222">round</text>
  <rect x="330" y="539" width="291.601" height="24" rx="2" ry="2" fill="#89d88a"/>
  <text x="631.601" y="556.5" text-anchor="start" font-family="Segoe UI, Arial, sans-serif" font-size="15" font-weight="600" fill="#444444">5.83x [13ns]</text>
  <text x="318" y="591" text-anchor="end" font-family="Segoe UI, Arial, sans-serif" font-size="18" fill="#222222">nearbyint</text>
  <rect x="330" y="573" width="292.901" height="24" rx="2" ry="2" fill="#89d88a"/>
  <text x="632.901" y="590.5" text-anchor="start" font-family="Segoe UI, Arial, sans-serif" font-size="15" font-weight="600" fill="#444444">5.86x [13ns]</text>
  <text x="318" y="625" text-anchor="end" font-family="Segoe UI, Arial, sans-serif" font-size="18" fill="#222222">rint</text>
  <rect x="330" y="607" width="284.5" height="24" rx="2" ry="2" fill="#89d88a"/>
  <text x="624.5" y="624.5" text-anchor="start" font-family="Segoe UI, Arial, sans-serif" font-size="15" font-weight="600" fill="#444444">5.69x [13ns]</text>
  <text x="318" y="659" text-anchor="end" font-family="Segoe UI, Arial, sans-serif" font-size="18" fill="#222222">lround</text>
  <rect x="330" y="641" width="400" height="24" rx="2" ry="2" fill="#89d88a"/>
  <polygon points="730,641 748,653 730,665" fill="#89d88a"/>
  <text x="756" y="658.5" text-anchor="start" font-family="Segoe UI, Arial, sans-serif" font-size="15" font-weight="600" fill="#444444">11.01x [4ns]</text>
  <text x="318" y="693" text-anchor="end" font-family="Segoe UI, Arial, sans-serif" font-size="18" fill="#222222">llround</text>
  <rect x="330" y="675" width="400" height="24" rx="2" ry="2" fill="#89d88a"/>
  <polygon points="730,675 748,687 730,699" fill="#89d88a"/>
  <text x="756" y="692.5" text-anchor="start" font-family="Segoe UI, Arial, sans-serif" font-size="15" font-weight="600" fill="#444444">11.07x [5ns]</text>
  <text x="318" y="727" text-anchor="end" font-family="Segoe UI, Arial, sans-serif" font-size="18" fill="#222222">lrint</text>
  <rect x="330" y="709" width="400" height="24" rx="2" ry="2" fill="#89d88a"/>
  <polygon points="730,709 748,721 730,733" fill="#89d88a"/>
  <text x="756" y="726.5" text-anchor="start" font-family="Segoe UI, Arial, sans-serif" font-size="15" font-weight="600" fill="#444444">11.71x [4ns]</text>
  <text x="318" y="761" text-anchor="end" font-family="Segoe UI, Arial, sans-serif" font-size="18" fill="#222222">llrint</text>
  <rect x="330" y="743" width="400" height="24" rx="2" ry="2" fill="#89d88a"/>
  <polygon points="730,743 748,755 730,767" fill="#89d88a"/>
  <text x="756" y="760.5" text-anchor="start" font-family="Segoe UI, Arial, sans-serif" font-size="15" font-weight="600" fill="#444444">11.92x [4ns]</text>
  <line x1="322" y1="772" x2="730" y2="772" stroke="#cfcfcf" stroke-width="1"/>
  <text x="322" y="802" text-anchor="end" font-family="Segoe UI, Arial, sans-serif" font-size="20" font-weight="700" fill="#1f1f1f">Remainders</text>
  <text x="318" y="835" text-anchor="end" font-family="Segoe UI, Arial, sans-serif" font-size="18" fill="#222222">fmod</text>
  <rect x="330" y="817" width="108.351" height="24" rx="2" ry="2" fill="#89d88a"/>
  <text x="448.351" y="834.5" text-anchor="start" font-family="Segoe UI, Arial, sans-serif" font-size="15" font-weight="600" fill="#444444">2.17x [51ns]</text>
  <text x="318" y="869" text-anchor="end" font-family="Segoe UI, Arial, sans-serif" font-size="18" fill="#222222">remainder</text>
  <rect x="330" y="851" width="120.721" height="24" rx="2" ry="2" fill="#89d88a"/>
  <text x="460.721" y="868.5" text-anchor="start" font-family="Segoe UI, Arial, sans-serif" font-size="15" font-weight="600" fill="#444444">2.41x [54ns]</text>
  <text x="318" y="903" text-anchor="end" font-family="Segoe UI, Arial, sans-serif" font-size="18" fill="#222222">remquo</text>
  <rect x="330" y="885" width="400" height="24" rx="2" ry="2" fill="#89d88a"/>
  <polygon points="730,885 748,897 730,909" fill="#89d88a"/>
  <text x="756" y="902.5" text-anchor="start" font-family="Segoe UI, Arial, sans-serif" font-size="15" font-weight="600" fill="#444444">9.85x [16ns]</text>
  <line x1="322" y1="914" x2="730" y2="914" stroke="#cfcfcf" stroke-width="1"/>
  <text x="322" y="944" text-anchor="end" font-family="Segoe UI, Arial, sans-serif" font-size="20" font-weight="700" fill="#1f1f1f">Floating-point utilities</text>
  <text x="318" y="977" text-anchor="end" font-family="Segoe UI, Arial, sans-serif" font-size="18" fill="#222222">abs</text>
  <rect x="330" y="959" width="213.944" height="24" rx="2" ry="2" fill="#89d88a"/>
  <text x="553.944" y="976.5" text-anchor="start" font-family="Segoe UI, Arial, sans-serif" font-size="15" font-weight="600" fill="#444444">4.28x [13ns]</text>
  <text x="318" y="1011" text-anchor="end" font-family="Segoe UI, Arial, sans-serif" font-size="18" fill="#222222">fma</text>
  <rect x="330" y="993" width="251.508" height="24" rx="2" ry="2" fill="#89d88a"/>
  <text x="591.508" y="1010.5" text-anchor="start" font-family="Segoe UI, Arial, sans-serif" font-size="15" font-weight="600" fill="#444444">5.03x [15ns]</text>
  <text x="318" y="1045" text-anchor="end" font-family="Segoe UI, Arial, sans-serif" font-size="18" fill="#222222">fmin</text>
  <rect x="330" y="1027" width="239.346" height="24" rx="2" ry="2" fill="#89d88a"/>
  <text x="579.346" y="1044.5" text-anchor="start" font-family="Segoe UI, Arial, sans-serif" font-size="15" font-weight="600" fill="#444444">4.79x [13ns]</text>
  <text x="318" y="1079" text-anchor="end" font-family="Segoe UI, Arial, sans-serif" font-size="18" fill="#222222">fmax</text>
  <rect x="330" y="1061" width="230.483" height="24" rx="2" ry="2" fill="#89d88a"/>
  <text x="570.483" y="1078.5" text-anchor="start" font-family="Segoe UI, Arial, sans-serif" font-size="15" font-weight="600" fill="#444444">4.61x [13ns]</text>
  <text x="318" y="1113" text-anchor="end" font-family="Segoe UI, Arial, sans-serif" font-size="18" fill="#222222">fdim</text>
  <rect x="330" y="1095" width="197.309" height="24" rx="2" ry="2" fill="#89d88a"/>
  <text x="537.309" y="1112.5" text-anchor="start" font-family="Segoe UI, Arial, sans-serif" font-size="15" font-weight="600" fill="#444444">3.95x [15ns]</text>
  <text x="318" y="1147" text-anchor="end" font-family="Segoe UI, Arial, sans-serif" font-size="18" fill="#222222">copysign</text>
  <rect x="330" y="1129" width="220.154" height="24" rx="2" ry="2" fill="#89d88a"/>
  <text x="560.154" y="1146.5" text-anchor="start" font-family="Segoe UI, Arial, sans-serif" font-size="15" font-weight="600" fill="#444444">4.40x [13ns]</text>
  <text x="318" y="1181" text-anchor="end" font-family="Segoe UI, Arial, sans-serif" font-size="18" fill="#222222">ldexp</text>
  <rect x="330" y="1163" width="222.833" height="24" rx="2" ry="2" fill="#89d88a"/>
  <text x="562.833" y="1180.5" text-anchor="start" font-family="Segoe UI, Arial, sans-serif" font-size="15" font-weight="600" fill="#444444">4.46x [13ns]</text>
  <text x="318" y="1215" text-anchor="end" font-family="Segoe UI, Arial, sans-serif" font-size="18" fill="#222222">scalbn</text>
  <rect x="330" y="1197" width="221.44" height="24" rx="2" ry="2" fill="#89d88a"/>
  <text x="561.44" y="1214.5" text-anchor="start" font-family="Segoe UI, Arial, sans-serif" font-size="15" font-weight="600" fill="#444444">4.43x [13ns]</text>
  <text x="318" y="1249" text-anchor="end" font-family="Segoe UI, Arial, sans-serif" font-size="18" fill="#222222">scalbln</text>
  <rect x="330" y="1231" width="218.376" height="24" rx="2" ry="2" fill="#89d88a"/>
  <text x="558.376" y="1248.5" text-anchor="start" font-family="Segoe UI, Arial, sans-serif" font-size="15" font-weight="600" fill="#444444">4.37x [13ns]</text>
  <text x="318" y="1283" text-anchor="end" font-family="Segoe UI, Arial, sans-serif" font-size="18" fill="#222222">frexp</text>
  <rect x="330" y="1265" width="262.373" height="24" rx="2" ry="2" fill="#89d88a"/>
  <text x="602.373" y="1282.5" text-anchor="start" font-family="Segoe UI, Arial, sans-serif" font-size="15" font-weight="600" fill="#444444">5.25x [14ns]</text>
  <text x="318" y="1317" text-anchor="end" font-family="Segoe UI, Arial, sans-serif" font-size="18" fill="#222222">modf</text>
  <rect x="330" y="1299" width="375.382" height="24" rx="2" ry="2" fill="#89d88a"/>
  <text x="715.382" y="1316.5" text-anchor="start" font-family="Segoe UI, Arial, sans-serif" font-size="15" font-weight="600" fill="#444444">7.51x [20ns]</text>
  <text x="318" y="1351" text-anchor="end" font-family="Segoe UI, Arial, sans-serif" font-size="18" fill="#222222">ilogb</text>
  <rect x="330" y="1333" width="174.634" height="24" rx="2" ry="2" fill="#89d88a"/>
  <text x="514.634" y="1350.5" text-anchor="start" font-family="Segoe UI, Arial, sans-serif" font-size="15" font-weight="600" fill="#444444">3.49x [4ns]</text>
  <text x="318" y="1385" text-anchor="end" font-family="Segoe UI, Arial, sans-serif" font-size="18" fill="#222222">logb</text>
  <rect x="330" y="1367" width="266.152" height="24" rx="2" ry="2" fill="#89d88a"/>
  <text x="606.152" y="1384.5" text-anchor="start" font-family="Segoe UI, Arial, sans-serif" font-size="15" font-weight="600" fill="#444444">5.32x [14ns]</text>
  <text x="318" y="1419" text-anchor="end" font-family="Segoe UI, Arial, sans-serif" font-size="18" fill="#222222">nextafter</text>
  <rect x="330" y="1401" width="400" height="24" rx="2" ry="2" fill="#89d88a"/>
  <polygon points="730,1401 748,1413 730,1425" fill="#89d88a"/>
  <text x="756" y="1418.5" text-anchor="start" font-family="Segoe UI, Arial, sans-serif" font-size="15" font-weight="600" fill="#444444">18.82x [13ns]</text>
  <text x="318" y="1453" text-anchor="end" font-family="Segoe UI, Arial, sans-serif" font-size="18" fill="#222222">nexttoward(type)</text>
  <rect x="330" y="1435" width="400" height="24" rx="2" ry="2" fill="#89d88a"/>
  <polygon points="730,1435 748,1447 730,1459" fill="#89d88a"/>
  <text x="756" y="1452.5" text-anchor="start" font-family="Segoe UI, Arial, sans-serif" font-size="15" font-weight="600" fill="#444444">18.92x [13ns]</text>
  <text x="318" y="1487" text-anchor="end" font-family="Segoe UI, Arial, sans-serif" font-size="18" fill="#222222">nexttoward(long double)</text>
  <rect x="330" y="1469" width="400" height="24" rx="2" ry="2" fill="#89d88a"/>
  <polygon points="730,1469 748,1481 730,1493" fill="#89d88a"/>
  <text x="756" y="1486.5" text-anchor="start" font-family="Segoe UI, Arial, sans-serif" font-size="15" font-weight="600" fill="#444444">20.56x [13ns]</text>
  <line x1="322" y1="1498" x2="730" y2="1498" stroke="#cfcfcf" stroke-width="1"/>
  <text x="322" y="1528" text-anchor="end" font-family="Segoe UI, Arial, sans-serif" font-size="20" font-weight="700" fill="#1f1f1f">Roots &amp; powers</text>
  <text x="318" y="1561" text-anchor="end" font-family="Segoe UI, Arial, sans-serif" font-size="18" fill="#222222">sqrt</text>
  <rect x="330" y="1543" width="263.624" height="24" rx="2" ry="2" fill="#89d88a"/>
  <text x="603.624" y="1560.5" text-anchor="start" font-family="Segoe UI, Arial, sans-serif" font-size="15" font-weight="600" fill="#444444">5.27x [13ns]</text>
  <text x="318" y="1595" text-anchor="end" font-family="Segoe UI, Arial, sans-serif" font-size="18" fill="#222222">cbrt</text>
  <rect x="330" y="1577" width="274.086" height="24" rx="2" ry="2" fill="#89d88a"/>
  <text x="614.086" y="1594.5" text-anchor="start" font-family="Segoe UI, Arial, sans-serif" font-size="15" font-weight="600" fill="#444444">5.48x [55ns]</text>
  <text x="318" y="1629" text-anchor="end" font-family="Segoe UI, Arial, sans-serif" font-size="18" fill="#222222">hypot</text>
  <rect x="330" y="1611" width="400" height="24" rx="2" ry="2" fill="#89d88a"/>
  <polygon points="730,1611 748,1623 730,1635" fill="#89d88a"/>
  <text x="756" y="1628.5" text-anchor="start" font-family="Segoe UI, Arial, sans-serif" font-size="15" font-weight="600" fill="#444444">8.70x [18ns]</text>
  <text x="318" y="1663" text-anchor="end" font-family="Segoe UI, Arial, sans-serif" font-size="18" fill="#222222">pow</text>
  <rect x="330" y="1645" width="224.748" height="24" rx="2" ry="2" fill="#89d88a"/>
  <text x="564.748" y="1662.5" text-anchor="start" font-family="Segoe UI, Arial, sans-serif" font-size="15" font-weight="600" fill="#444444">4.49x [396ns]</text>
  <line x1="322" y1="1674" x2="730" y2="1674" stroke="#cfcfcf" stroke-width="1"/>
  <text x="322" y="1704" text-anchor="end" font-family="Segoe UI, Arial, sans-serif" font-size="20" font-weight="700" fill="#1f1f1f">Exponentials</text>
  <text x="318" y="1737" text-anchor="end" font-family="Segoe UI, Arial, sans-serif" font-size="18" fill="#222222">exp</text>
  <rect x="330" y="1719" width="223.469" height="24" rx="2" ry="2" fill="#89d88a"/>
  <text x="563.469" y="1736.5" text-anchor="start" font-family="Segoe UI, Arial, sans-serif" font-size="15" font-weight="600" fill="#444444">4.47x [157ns]</text>
  <text x="318" y="1771" text-anchor="end" font-family="Segoe UI, Arial, sans-serif" font-size="18" fill="#222222">exp2</text>
  <rect x="330" y="1753" width="264.788" height="24" rx="2" ry="2" fill="#89d88a"/>
  <text x="604.788" y="1770.5" text-anchor="start" font-family="Segoe UI, Arial, sans-serif" font-size="15" font-weight="600" fill="#444444">5.30x [153ns]</text>
  <text x="318" y="1805" text-anchor="end" font-family="Segoe UI, Arial, sans-serif" font-size="18" fill="#222222">expm1</text>
  <rect x="330" y="1787" width="245.743" height="24" rx="2" ry="2" fill="#89d88a"/>
  <text x="585.743" y="1804.5" text-anchor="start" font-family="Segoe UI, Arial, sans-serif" font-size="15" font-weight="600" fill="#444444">4.91x [162ns]</text>
  <line x1="322" y1="1816" x2="730" y2="1816" stroke="#cfcfcf" stroke-width="1"/>
  <text x="322" y="1846" text-anchor="end" font-family="Segoe UI, Arial, sans-serif" font-size="20" font-weight="700" fill="#1f1f1f">Logarithms</text>
  <text x="318" y="1879" text-anchor="end" font-family="Segoe UI, Arial, sans-serif" font-size="18" fill="#222222">log</text>
  <rect x="330" y="1861" width="219.786" height="24" rx="2" ry="2" fill="#89d88a"/>
  <text x="559.786" y="1878.5" text-anchor="start" font-family="Segoe UI, Arial, sans-serif" font-size="15" font-weight="600" fill="#444444">4.40x [223ns]</text>
  <text x="318" y="1913" text-anchor="end" font-family="Segoe UI, Arial, sans-serif" font-size="18" fill="#222222">log2</text>
  <rect x="330" y="1895" width="241.446" height="24" rx="2" ry="2" fill="#89d88a"/>
  <text x="581.446" y="1912.5" text-anchor="start" font-family="Segoe UI, Arial, sans-serif" font-size="15" font-weight="600" fill="#444444">4.83x [227ns]</text>
  <text x="318" y="1947" text-anchor="end" font-family="Segoe UI, Arial, sans-serif" font-size="18" fill="#222222">log10</text>
  <rect x="330" y="1929" width="304.8" height="24" rx="2" ry="2" fill="#89d88a"/>
  <text x="644.8" y="1946.5" text-anchor="start" font-family="Segoe UI, Arial, sans-serif" font-size="15" font-weight="600" fill="#444444">6.10x [323ns]</text>
  <text x="318" y="1981" text-anchor="end" font-family="Segoe UI, Arial, sans-serif" font-size="18" fill="#222222">log1p</text>
  <rect x="330" y="1963" width="244.871" height="24" rx="2" ry="2" fill="#89d88a"/>
  <text x="584.871" y="1980.5" text-anchor="start" font-family="Segoe UI, Arial, sans-serif" font-size="15" font-weight="600" fill="#444444">4.90x [211ns]</text>
  <line x1="322" y1="1992" x2="730" y2="1992" stroke="#cfcfcf" stroke-width="1"/>
  <text x="322" y="2022" text-anchor="end" font-family="Segoe UI, Arial, sans-serif" font-size="20" font-weight="700" fill="#1f1f1f">Trigonometric</text>
  <text x="318" y="2055" text-anchor="end" font-family="Segoe UI, Arial, sans-serif" font-size="18" fill="#222222">sin</text>
  <rect x="330" y="2037" width="400" height="24" rx="2" ry="2" fill="#89d88a"/>
  <polygon points="730,2037 748,2049 730,2061" fill="#89d88a"/>
  <text x="756" y="2054.5" text-anchor="start" font-family="Segoe UI, Arial, sans-serif" font-size="15" font-weight="600" fill="#444444">9.71x [90ns]</text>
  <text x="318" y="2089" text-anchor="end" font-family="Segoe UI, Arial, sans-serif" font-size="18" fill="#222222">cos</text>
  <rect x="330" y="2071" width="367.262" height="24" rx="2" ry="2" fill="#89d88a"/>
  <text x="707.262" y="2088.5" text-anchor="start" font-family="Segoe UI, Arial, sans-serif" font-size="15" font-weight="600" fill="#444444">7.35x [91ns]</text>
  <text x="318" y="2123" text-anchor="end" font-family="Segoe UI, Arial, sans-serif" font-size="18" fill="#222222">tan</text>
  <rect x="330" y="2105" width="400" height="24" rx="2" ry="2" fill="#89d88a"/>
  <polygon points="730,2105 748,2117 730,2129" fill="#89d88a"/>
  <text x="756" y="2122.5" text-anchor="start" font-family="Segoe UI, Arial, sans-serif" font-size="15" font-weight="600" fill="#444444">11.79x [89ns]</text>
  <text x="318" y="2157" text-anchor="end" font-family="Segoe UI, Arial, sans-serif" font-size="18" fill="#222222">asin</text>
  <rect x="330" y="2139" width="400" height="24" rx="2" ry="2" fill="#89d88a"/>
  <polygon points="730,2139 748,2151 730,2163" fill="#89d88a"/>
  <text x="756" y="2156.5" text-anchor="start" font-family="Segoe UI, Arial, sans-serif" font-size="15" font-weight="600" fill="#444444">11.29x [172ns]</text>
  <text x="318" y="2191" text-anchor="end" font-family="Segoe UI, Arial, sans-serif" font-size="18" fill="#222222">acos</text>
  <rect x="330" y="2173" width="400" height="24" rx="2" ry="2" fill="#89d88a"/>
  <polygon points="730,2173 748,2185 730,2197" fill="#89d88a"/>
  <text x="756" y="2190.5" text-anchor="start" font-family="Segoe UI, Arial, sans-serif" font-size="15" font-weight="600" fill="#444444">10.94x [176ns]</text>
  <text x="318" y="2225" text-anchor="end" font-family="Segoe UI, Arial, sans-serif" font-size="18" fill="#222222">atan</text>
  <rect x="330" y="2207" width="400" height="24" rx="2" ry="2" fill="#89d88a"/>
  <polygon points="730,2207 748,2219 730,2231" fill="#89d88a"/>
  <text x="756" y="2224.5" text-anchor="start" font-family="Segoe UI, Arial, sans-serif" font-size="15" font-weight="600" fill="#444444">9.66x [152ns]</text>
  <text x="318" y="2259" text-anchor="end" font-family="Segoe UI, Arial, sans-serif" font-size="18" fill="#222222">atan2</text>
  <rect x="330" y="2241" width="400" height="24" rx="2" ry="2" fill="#89d88a"/>
  <polygon points="730,2241 748,2253 730,2265" fill="#89d88a"/>
  <text x="756" y="2258.5" text-anchor="start" font-family="Segoe UI, Arial, sans-serif" font-size="15" font-weight="600" fill="#444444">11.85x [163ns]</text>
  <text x="318" y="2293" text-anchor="end" font-family="Segoe UI, Arial, sans-serif" font-size="18" fill="#222222">sincos</text>
  <rect x="330" y="2275" width="400" height="24" rx="2" ry="2" fill="#89d88a"/>
  <polygon points="730,2275 748,2287 730,2299" fill="#89d88a"/>
  <text x="756" y="2292.5" text-anchor="start" font-family="Segoe UI, Arial, sans-serif" font-size="15" font-weight="600" fill="#444444">17.23x [91ns]</text>
  <line x1="322" y1="2304" x2="730" y2="2304" stroke="#cfcfcf" stroke-width="1"/>
  <text x="322" y="2334" text-anchor="end" font-family="Segoe UI, Arial, sans-serif" font-size="20" font-weight="700" fill="#1f1f1f">Hyperbolic</text>
  <text x="318" y="2367" text-anchor="end" font-family="Segoe UI, Arial, sans-serif" font-size="18" fill="#222222">sinh</text>
  <rect x="330" y="2349" width="266.28" height="24" rx="2" ry="2" fill="#89d88a"/>
  <text x="606.28" y="2366.5" text-anchor="start" font-family="Segoe UI, Arial, sans-serif" font-size="15" font-weight="600" fill="#444444">5.33x [165ns]</text>
  <text x="318" y="2401" text-anchor="end" font-family="Segoe UI, Arial, sans-serif" font-size="18" fill="#222222">cosh</text>
  <rect x="330" y="2383" width="241.677" height="24" rx="2" ry="2" fill="#89d88a"/>
  <text x="581.677" y="2400.5" text-anchor="start" font-family="Segoe UI, Arial, sans-serif" font-size="15" font-weight="600" fill="#444444">4.83x [166ns]</text>
  <text x="318" y="2435" text-anchor="end" font-family="Segoe UI, Arial, sans-serif" font-size="18" fill="#222222">tanh</text>
  <rect x="330" y="2417" width="249.239" height="24" rx="2" ry="2" fill="#89d88a"/>
  <text x="589.239" y="2434.5" text-anchor="start" font-family="Segoe UI, Arial, sans-serif" font-size="15" font-weight="600" fill="#444444">4.98x [175ns]</text>
  <line x1="322" y1="2446" x2="730" y2="2446" stroke="#cfcfcf" stroke-width="1"/>
  <text x="322" y="2476" text-anchor="end" font-family="Segoe UI, Arial, sans-serif" font-size="20" font-weight="700" fill="#1f1f1f">Inverse hyperbolic</text>
  <text x="318" y="2509" text-anchor="end" font-family="Segoe UI, Arial, sans-serif" font-size="18" fill="#222222">asinh</text>
  <rect x="330" y="2491" width="400" height="24" rx="2" ry="2" fill="#89d88a"/>
  <polygon points="730,2491 748,2503 730,2515" fill="#89d88a"/>
  <text x="756" y="2508.5" text-anchor="start" font-family="Segoe UI, Arial, sans-serif" font-size="15" font-weight="600" fill="#444444">11.72x [250ns]</text>
  <text x="318" y="2543" text-anchor="end" font-family="Segoe UI, Arial, sans-serif" font-size="18" fill="#222222">acosh</text>
  <rect x="330" y="2525" width="223.821" height="24" rx="2" ry="2" fill="#89d88a"/>
  <text x="563.821" y="2542.5" text-anchor="start" font-family="Segoe UI, Arial, sans-serif" font-size="15" font-weight="600" fill="#444444">4.48x [248ns]</text>
  <text x="318" y="2577" text-anchor="end" font-family="Segoe UI, Arial, sans-serif" font-size="18" fill="#222222">atanh</text>
  <rect x="330" y="2559" width="291.192" height="24" rx="2" ry="2" fill="#89d88a"/>
  <text x="631.192" y="2576.5" text-anchor="start" font-family="Segoe UI, Arial, sans-serif" font-size="15" font-weight="600" fill="#444444">5.82x [230ns]</text>
  <line x1="322" y1="2588" x2="730" y2="2588" stroke="#cfcfcf" stroke-width="1"/>
  <text x="322" y="2618" text-anchor="end" font-family="Segoe UI, Arial, sans-serif" font-size="20" font-weight="700" fill="#1f1f1f">Special functions</text>
  <text x="318" y="2651" text-anchor="end" font-family="Segoe UI, Arial, sans-serif" font-size="18" fill="#222222">erfc</text>
  <rect x="330" y="2633" width="392.42" height="24" rx="2" ry="2" fill="#89d88a"/>
  <text x="722" y="2650.5" text-anchor="start" font-family="Segoe UI, Arial, sans-serif" font-size="15" font-weight="600" fill="#444444">7.85x [741ns]</text>
  <text x="318" y="2685" text-anchor="end" font-family="Segoe UI, Arial, sans-serif" font-size="18" fill="#222222">erf</text>
  <rect x="330" y="2667" width="266.105" height="24" rx="2" ry="2" fill="#89d88a"/>
  <text x="606.105" y="2684.5" text-anchor="start" font-family="Segoe UI, Arial, sans-serif" font-size="15" font-weight="600" fill="#444444">5.32x [742ns]</text>
  <text x="318" y="2719" text-anchor="end" font-family="Segoe UI, Arial, sans-serif" font-size="18" fill="#222222">tgamma</text>
  <rect x="330" y="2701" width="384.318" height="24" rx="2" ry="2" fill="#89d88a"/>
  <text x="722" y="2718.5" text-anchor="start" font-family="Segoe UI, Arial, sans-serif" font-size="15" font-weight="600" fill="#444444">7.69x [612ns]</text>
  <text x="318" y="2753" text-anchor="end" font-family="Segoe UI, Arial, sans-serif" font-size="18" fill="#222222">lgamma</text>
  <rect x="330" y="2735" width="382.216" height="24" rx="2" ry="2" fill="#89d88a"/>
  <text x="722" y="2752.5" text-anchor="start" font-family="Segoe UI, Arial, sans-serif" font-size="15" font-weight="600" fill="#444444">7.64x [674ns]</text>
  <line x1="322" y1="2764" x2="730" y2="2764" stroke="#cfcfcf" stroke-width="1"/>
  <text x="322" y="2794" text-anchor="end" font-family="Segoe UI, Arial, sans-serif" font-size="20" font-weight="700" fill="#1f1f1f">f128 internals</text>
  <text x="318" y="2827" text-anchor="end" font-family="Segoe UI, Arial, sans-serif" font-size="18" fill="#222222">diff_products_inline(x*a, y*b)</text>
  <rect x="330" y="2809" width="283.976" height="24" rx="2" ry="2" fill="#89d88a"/>
  <text x="623.976" y="2826.5" text-anchor="start" font-family="Segoe UI, Arial, sans-serif" font-size="15" font-weight="600" fill="#444444">5.68x [14ns]</text>
  <text x="318" y="2861" text-anchor="end" font-family="Segoe UI, Arial, sans-serif" font-size="18" fill="#222222">sum_products_inline(x*a, y*b)</text>
  <rect x="330" y="2843" width="274.174" height="24" rx="2" ry="2" fill="#89d88a"/>
  <text x="614.174" y="2860.5" text-anchor="start" font-family="Segoe UI, Arial, sans-serif" font-size="15" font-weight="600" fill="#444444">5.48x [14ns]</text>
</svg>
