<?xml version="1.0" encoding="UTF-8"?>
<svg xmlns="http://www.w3.org/2000/svg" width="877" height="2764" viewBox="0 0 877 2764">
  <rect x="0" y="0" width="877" height="2764" fill="#f2f2f2"/>
  <text x="438" y="38" text-anchor="middle" font-family="Segoe UI, Arial, sans-serif" font-size="28" font-weight="600" fill="#222222">f256 vs MPFR typical benchmark ratios</text>
  <line x1="253" y1="82" x2="253" y2="2746" stroke="#dddddd" stroke-width="1"/>
  <line x1="353" y1="82" x2="353" y2="2746" stroke="#dddddd" stroke-width="1"/>
  <line x1="453" y1="82" x2="453" y2="2746" stroke="#dddddd" stroke-width="1"/>
  <line x1="553" y1="82" x2="553" y2="2746" stroke="#dddddd" stroke-width="1"/>
  <line x1="653" y1="82" x2="653" y2="2746" stroke="#dddddd" stroke-width="1"/>
  <line x1="353" y1="82" x2="353" y2="2746" stroke="#6da7d9" stroke-width="2" stroke-dasharray="6,6"/>
  <text x="245" y="104" text-anchor="end" font-family="Segoe UI, Arial, sans-serif" font-size="20" font-weight="700" fill="#1f1f1f">f256 &lt;-&gt; f256</text>
  <text x="241" y="137" text-anchor="end" font-family="Segoe UI, Arial, sans-serif" font-size="18" fill="#222222">add</text>
  <rect x="253" y="119" width="229.808" height="24" rx="2" ry="2" fill="#89d88a"/>
  <text x="492.808" y="136.5" text-anchor="start" font-family="Segoe UI, Arial, sans-serif" font-size="15" font-weight="600" fill="#444444">2.30x [32ns]</text>
  <text x="241" y="171" text-anchor="end" font-family="Segoe UI, Arial, sans-serif" font-size="18" fill="#222222">subtract</text>
  <rect x="253" y="153" width="231.413" height="24" rx="2" ry="2" fill="#89d88a"/>
  <text x="494.413" y="170.5" text-anchor="start" font-family="Segoe UI, Arial, sans-serif" font-size="15" font-weight="600" fill="#444444">2.31x [31ns]</text>
  <text x="241" y="205" text-anchor="end" font-family="Segoe UI, Arial, sans-serif" font-size="18" fill="#222222">multiply</text>
  <rect x="253" y="187" width="233.763" height="24" rx="2" ry="2" fill="#89d88a"/>
  <text x="496.763" y="204.5" text-anchor="start" font-family="Segoe UI, Arial, sans-serif" font-size="15" font-weight="600" fill="#444444">2.34x [36ns]</text>
  <text x="241" y="239" text-anchor="end" font-family="Segoe UI, Arial, sans-serif" font-size="18" fill="#222222">divide</text>
  <rect x="253" y="221" width="114.262" height="24" rx="2" ry="2" fill="#89d88a"/>
  <text x="377.262" y="238.5" text-anchor="start" font-family="Segoe UI, Arial, sans-serif" font-size="15" font-weight="600" fill="#444444">1.14x [86ns]</text>
  <line x1="245" y1="250" x2="653" y2="250" stroke="#cfcfcf" stroke-width="1"/>
  <text x="245" y="280" text-anchor="end" font-family="Segoe UI, Arial, sans-serif" font-size="20" font-weight="700" fill="#1f1f1f">Mixed Workloads</text>
  <text x="241" y="313" text-anchor="end" font-family="Segoe UI, Arial, sans-serif" font-size="18" fill="#222222">affine trig transform</text>
  <rect x="253" y="295" width="138.926" height="24" rx="2" ry="2" fill="#89d88a"/>
  <text x="401.926" y="312.5" text-anchor="start" font-family="Segoe UI, Arial, sans-serif" font-size="15" font-weight="600" fill="#444444">1.39x [1794ns]</text>
  <text x="241" y="347" text-anchor="end" font-family="Segoe UI, Arial, sans-serif" font-size="18" fill="#222222">mandelbrot kernel</text>
  <rect x="253" y="329" width="136.431" height="24" rx="2" ry="2" fill="#89d88a"/>
  <text x="399.431" y="346.5" text-anchor="start" font-family="Segoe UI, Arial, sans-serif" font-size="15" font-weight="600" fill="#444444">1.36x [139ns]</text>
  <text x="241" y="381" text-anchor="end" font-family="Segoe UI, Arial, sans-serif" font-size="18" fill="#222222">mixed arithmetic</text>
  <rect x="253" y="363" width="177.229" height="24" rx="2" ry="2" fill="#89d88a"/>
  <text x="440.229" y="380.5" text-anchor="start" font-family="Segoe UI, Arial, sans-serif" font-size="15" font-weight="600" fill="#444444">1.77x [297ns]</text>
  <line x1="245" y1="392" x2="653" y2="392" stroke="#cfcfcf" stroke-width="1"/>
  <text x="245" y="422" text-anchor="end" font-family="Segoe UI, Arial, sans-serif" font-size="20" font-weight="700" fill="#1f1f1f">Rounding</text>
  <text x="241" y="455" text-anchor="end" font-family="Segoe UI, Arial, sans-serif" font-size="18" fill="#222222">floor</text>
  <rect x="253" y="437" width="269.835" height="24" rx="2" ry="2" fill="#89d88a"/>
  <text x="532.835" y="454.5" text-anchor="start" font-family="Segoe UI, Arial, sans-serif" font-size="15" font-weight="600" fill="#444444">2.70x [26ns]</text>
  <text x="241" y="489" text-anchor="end" font-family="Segoe UI, Arial, sans-serif" font-size="18" fill="#222222">ceil</text>
  <rect x="253" y="471" width="268.799" height="24" rx="2" ry="2" fill="#89d88a"/>
  <text x="531.799" y="488.5" text-anchor="start" font-family="Segoe UI, Arial, sans-serif" font-size="15" font-weight="600" fill="#444444">2.69x [26ns]</text>
  <text x="241" y="523" text-anchor="end" font-family="Segoe UI, Arial, sans-serif" font-size="18" fill="#222222">trunc</text>
  <rect x="253" y="505" width="265.669" height="24" rx="2" ry="2" fill="#89d88a"/>
  <text x="528.669" y="522.5" text-anchor="start" font-family="Segoe UI, Arial, sans-serif" font-size="15" font-weight="600" fill="#444444">2.66x [26ns]</text>
  <text x="241" y="557" text-anchor="end" font-family="Segoe UI, Arial, sans-serif" font-size="18" fill="#222222">round</text>
  <rect x="253" y="539" width="250.935" height="24" rx="2" ry="2" fill="#89d88a"/>
  <text x="513.935" y="556.5" text-anchor="start" font-family="Segoe UI, Arial, sans-serif" font-size="15" font-weight="600" fill="#444444">2.51x [35ns]</text>
  <text x="241" y="591" text-anchor="end" font-family="Segoe UI, Arial, sans-serif" font-size="18" fill="#222222">nearbyint</text>
  <rect x="253" y="573" width="400" height="24" rx="2" ry="2" fill="#89d88a"/>
  <polygon points="653,573 671,585 653,597" fill="#89d88a"/>
  <text x="679" y="590.5" text-anchor="start" font-family="Segoe UI, Arial, sans-serif" font-size="15" font-weight="600" fill="#444444">8.62x [34ns]</text>
  <text x="241" y="625" text-anchor="end" font-family="Segoe UI, Arial, sans-serif" font-size="18" fill="#222222">rint</text>
  <rect x="253" y="607" width="400" height="24" rx="2" ry="2" fill="#89d88a"/>
  <polygon points="653,607 671,619 653,631" fill="#89d88a"/>
  <text x="679" y="624.5" text-anchor="start" font-family="Segoe UI, Arial, sans-serif" font-size="15" font-weight="600" fill="#444444">6.84x [43ns]</text>
  <text x="241" y="659" text-anchor="end" font-family="Segoe UI, Arial, sans-serif" font-size="18" fill="#222222">lround</text>
  <rect x="253" y="641" width="277.083" height="24" rx="2" ry="2" fill="#89d88a"/>
  <text x="540.083" y="658.5" text-anchor="start" font-family="Segoe UI, Arial, sans-serif" font-size="15" font-weight="600" fill="#444444">2.77x [20ns]</text>
  <text x="241" y="693" text-anchor="end" font-family="Segoe UI, Arial, sans-serif" font-size="18" fill="#222222">llround</text>
  <rect x="253" y="675" width="279.189" height="24" rx="2" ry="2" fill="#89d88a"/>
  <text x="542.189" y="692.5" text-anchor="start" font-family="Segoe UI, Arial, sans-serif" font-size="15" font-weight="600" fill="#444444">2.79x [20ns]</text>
  <text x="241" y="727" text-anchor="end" font-family="Segoe UI, Arial, sans-serif" font-size="18" fill="#222222">lrint</text>
  <rect x="253" y="709" width="256.102" height="24" rx="2" ry="2" fill="#89d88a"/>
  <text x="519.102" y="726.5" text-anchor="start" font-family="Segoe UI, Arial, sans-serif" font-size="15" font-weight="600" fill="#444444">2.56x [22ns]</text>
  <text x="241" y="761" text-anchor="end" font-family="Segoe UI, Arial, sans-serif" font-size="18" fill="#222222">llrint</text>
  <rect x="253" y="743" width="259.195" height="24" rx="2" ry="2" fill="#89d88a"/>
  <text x="522.195" y="760.5" text-anchor="start" font-family="Segoe UI, Arial, sans-serif" font-size="15" font-weight="600" fill="#444444">2.59x [22ns]</text>
  <line x1="245" y1="772" x2="653" y2="772" stroke="#cfcfcf" stroke-width="1"/>
  <text x="245" y="802" text-anchor="end" font-family="Segoe UI, Arial, sans-serif" font-size="20" font-weight="700" fill="#1f1f1f">Remainders</text>
  <text x="241" y="835" text-anchor="end" font-family="Segoe UI, Arial, sans-serif" font-size="18" fill="#222222">fmod</text>
  <rect x="253" y="817" width="137.561" height="24" rx="2" ry="2" fill="#89d88a"/>
  <text x="400.561" y="834.5" text-anchor="start" font-family="Segoe UI, Arial, sans-serif" font-size="15" font-weight="600" fill="#444444">1.38x [91ns]</text>
  <text x="241" y="869" text-anchor="end" font-family="Segoe UI, Arial, sans-serif" font-size="18" fill="#222222">remainder</text>
  <rect x="253" y="851" width="283.321" height="24" rx="2" ry="2" fill="#89d88a"/>
  <text x="546.321" y="868.5" text-anchor="start" font-family="Segoe UI, Arial, sans-serif" font-size="15" font-weight="600" fill="#444444">2.83x [137ns]</text>
  <text x="241" y="903" text-anchor="end" font-family="Segoe UI, Arial, sans-serif" font-size="18" fill="#222222">remquo</text>
  <rect x="253" y="885" width="122.376" height="24" rx="2" ry="2" fill="#89d88a"/>
  <text x="385.376" y="902.5" text-anchor="start" font-family="Segoe UI, Arial, sans-serif" font-size="15" font-weight="600" fill="#444444">1.22x [137ns]</text>
  <line x1="245" y1="914" x2="653" y2="914" stroke="#cfcfcf" stroke-width="1"/>
  <text x="245" y="944" text-anchor="end" font-family="Segoe UI, Arial, sans-serif" font-size="20" font-weight="700" fill="#1f1f1f">Floating-point utilities</text>
  <text x="241" y="977" text-anchor="end" font-family="Segoe UI, Arial, sans-serif" font-size="18" fill="#222222">abs</text>
  <rect x="253" y="959" width="285.719" height="24" rx="2" ry="2" fill="#89d88a"/>
  <text x="548.719" y="976.5" text-anchor="start" font-family="Segoe UI, Arial, sans-serif" font-size="15" font-weight="600" fill="#444444">2.86x [22ns]</text>
  <text x="241" y="1011" text-anchor="end" font-family="Segoe UI, Arial, sans-serif" font-size="18" fill="#222222">fma</text>
  <rect x="253" y="993" width="218.522" height="24" rx="2" ry="2" fill="#89d88a"/>
  <text x="481.522" y="1010.5" text-anchor="start" font-family="Segoe UI, Arial, sans-serif" font-size="15" font-weight="600" fill="#444444">2.19x [42ns]</text>
  <text x="241" y="1045" text-anchor="end" font-family="Segoe UI, Arial, sans-serif" font-size="18" fill="#222222">fmin</text>
  <rect x="253" y="1027" width="326.062" height="24" rx="2" ry="2" fill="#89d88a"/>
  <text x="589.062" y="1044.5" text-anchor="start" font-family="Segoe UI, Arial, sans-serif" font-size="15" font-weight="600" fill="#444444">3.26x [22ns]</text>
  <text x="241" y="1079" text-anchor="end" font-family="Segoe UI, Arial, sans-serif" font-size="18" fill="#222222">fmax</text>
  <rect x="253" y="1061" width="329.893" height="24" rx="2" ry="2" fill="#89d88a"/>
  <text x="592.893" y="1078.5" text-anchor="start" font-family="Segoe UI, Arial, sans-serif" font-size="15" font-weight="600" fill="#444444">3.30x [22ns]</text>
  <text x="241" y="1113" text-anchor="end" font-family="Segoe UI, Arial, sans-serif" font-size="18" fill="#222222">fdim</text>
  <rect x="253" y="1095" width="261.839" height="24" rx="2" ry="2" fill="#89d88a"/>
  <text x="524.839" y="1112.5" text-anchor="start" font-family="Segoe UI, Arial, sans-serif" font-size="15" font-weight="600" fill="#444444">2.62x [25ns]</text>
  <text x="241" y="1147" text-anchor="end" font-family="Segoe UI, Arial, sans-serif" font-size="18" fill="#222222">copysign</text>
  <rect x="253" y="1129" width="317.168" height="24" rx="2" ry="2" fill="#89d88a"/>
  <text x="580.168" y="1146.5" text-anchor="start" font-family="Segoe UI, Arial, sans-serif" font-size="15" font-weight="600" fill="#444444">3.17x [22ns]</text>
  <text x="241" y="1181" text-anchor="end" font-family="Segoe UI, Arial, sans-serif" font-size="18" fill="#222222">ldexp</text>
  <rect x="253" y="1163" width="317.306" height="24" rx="2" ry="2" fill="#89d88a"/>
  <text x="580.306" y="1180.5" text-anchor="start" font-family="Segoe UI, Arial, sans-serif" font-size="15" font-weight="600" fill="#444444">3.17x [23ns]</text>
  <text x="241" y="1215" text-anchor="end" font-family="Segoe UI, Arial, sans-serif" font-size="18" fill="#222222">scalbn</text>
  <rect x="253" y="1197" width="313.66" height="24" rx="2" ry="2" fill="#89d88a"/>
  <text x="576.66" y="1214.5" text-anchor="start" font-family="Segoe UI, Arial, sans-serif" font-size="15" font-weight="600" fill="#444444">3.14x [23ns]</text>
  <text x="241" y="1249" text-anchor="end" font-family="Segoe UI, Arial, sans-serif" font-size="18" fill="#222222">scalbln</text>
  <rect x="253" y="1231" width="315.824" height="24" rx="2" ry="2" fill="#89d88a"/>
  <text x="578.824" y="1248.5" text-anchor="start" font-family="Segoe UI, Arial, sans-serif" font-size="15" font-weight="600" fill="#444444">3.16x [23ns]</text>
  <text x="241" y="1283" text-anchor="end" font-family="Segoe UI, Arial, sans-serif" font-size="18" fill="#222222">frexp</text>
  <rect x="253" y="1265" width="367.798" height="24" rx="2" ry="2" fill="#89d88a"/>
  <text x="630.798" y="1282.5" text-anchor="start" font-family="Segoe UI, Arial, sans-serif" font-size="15" font-weight="600" fill="#444444">3.68x [25ns]</text>
  <text x="241" y="1317" text-anchor="end" font-family="Segoe UI, Arial, sans-serif" font-size="18" fill="#222222">modf</text>
  <rect x="253" y="1299" width="375.157" height="24" rx="2" ry="2" fill="#89d88a"/>
  <text x="638.157" y="1316.5" text-anchor="start" font-family="Segoe UI, Arial, sans-serif" font-size="15" font-weight="600" fill="#444444">3.75x [54ns]</text>
  <text x="241" y="1351" text-anchor="end" font-family="Segoe UI, Arial, sans-serif" font-size="18" fill="#222222">ilogb</text>
  <rect x="253" y="1333" width="197.656" height="24" rx="2" ry="2" fill="#89d88a"/>
  <text x="460.656" y="1350.5" text-anchor="start" font-family="Segoe UI, Arial, sans-serif" font-size="15" font-weight="600" fill="#444444">1.98x [7ns]</text>
  <text x="241" y="1385" text-anchor="end" font-family="Segoe UI, Arial, sans-serif" font-size="18" fill="#222222">logb</text>
  <rect x="253" y="1367" width="278.075" height="24" rx="2" ry="2" fill="#89d88a"/>
  <text x="541.075" y="1384.5" text-anchor="start" font-family="Segoe UI, Arial, sans-serif" font-size="15" font-weight="600" fill="#444444">2.78x [29ns]</text>
  <text x="241" y="1419" text-anchor="end" font-family="Segoe UI, Arial, sans-serif" font-size="18" fill="#222222">nextafter</text>
  <rect x="253" y="1401" width="400" height="24" rx="2" ry="2" fill="#89d88a"/>
  <polygon points="653,1401 671,1413 653,1425" fill="#89d88a"/>
  <text x="679" y="1418.5" text-anchor="start" font-family="Segoe UI, Arial, sans-serif" font-size="15" font-weight="600" fill="#444444">10.92x [24ns]</text>
  <text x="241" y="1453" text-anchor="end" font-family="Segoe UI, Arial, sans-serif" font-size="18" fill="#222222">nexttoward(type)</text>
  <rect x="253" y="1435" width="400" height="24" rx="2" ry="2" fill="#89d88a"/>
  <polygon points="653,1435 671,1447 653,1459" fill="#89d88a"/>
  <text x="679" y="1452.5" text-anchor="start" font-family="Segoe UI, Arial, sans-serif" font-size="15" font-weight="600" fill="#444444">10.97x [24ns]</text>
  <text x="241" y="1487" text-anchor="end" font-family="Segoe UI, Arial, sans-serif" font-size="18" fill="#222222">nexttoward(long double)</text>
  <rect x="253" y="1469" width="400" height="24" rx="2" ry="2" fill="#89d88a"/>
  <polygon points="653,1469 671,1481 653,1493" fill="#89d88a"/>
  <text x="679" y="1486.5" text-anchor="start" font-family="Segoe UI, Arial, sans-serif" font-size="15" font-weight="600" fill="#444444">12.27x [24ns]</text>
  <line x1="245" y1="1498" x2="653" y2="1498" stroke="#cfcfcf" stroke-width="1"/>
  <text x="245" y="1528" text-anchor="end" font-family="Segoe UI, Arial, sans-serif" font-size="20" font-weight="700" fill="#1f1f1f">Roots &amp; powers</text>
  <text x="241" y="1561" text-anchor="end" font-family="Segoe UI, Arial, sans-serif" font-size="18" fill="#222222">sqrt</text>
  <rect x="253" y="1543" width="92.9877" height="24" rx="2" ry="2" fill="#2c7fb8"/>
  <text x="355.988" y="1560.5" text-anchor="start" font-family="Segoe UI, Arial, sans-serif" font-size="15" font-weight="600" fill="#444444">0.93x [139ns]</text>
  <text x="241" y="1595" text-anchor="end" font-family="Segoe UI, Arial, sans-serif" font-size="18" fill="#222222">cbrt</text>
  <rect x="253" y="1577" width="108.799" height="24" rx="2" ry="2" fill="#89d88a"/>
  <text x="371.799" y="1594.5" text-anchor="start" font-family="Segoe UI, Arial, sans-serif" font-size="15" font-weight="600" fill="#444444">1.09x [331ns]</text>
  <text x="241" y="1629" text-anchor="end" font-family="Segoe UI, Arial, sans-serif" font-size="18" fill="#222222">hypot</text>
  <rect x="253" y="1611" width="120.297" height="24" rx="2" ry="2" fill="#89d88a"/>
  <text x="383.297" y="1628.5" text-anchor="start" font-family="Segoe UI, Arial, sans-serif" font-size="15" font-weight="600" fill="#444444">1.20x [146ns]</text>
  <text x="241" y="1663" text-anchor="end" font-family="Segoe UI, Arial, sans-serif" font-size="18" fill="#222222">pow</text>
  <rect x="253" y="1645" width="278.703" height="24" rx="2" ry="2" fill="#89d88a"/>
  <text x="541.703" y="1662.5" text-anchor="start" font-family="Segoe UI, Arial, sans-serif" font-size="15" font-weight="600" fill="#444444">2.79x [1100ns]</text>
  <line x1="245" y1="1674" x2="653" y2="1674" stroke="#cfcfcf" stroke-width="1"/>
  <text x="245" y="1704" text-anchor="end" font-family="Segoe UI, Arial, sans-serif" font-size="20" font-weight="700" fill="#1f1f1f">Exponentials</text>
  <text x="241" y="1737" text-anchor="end" font-family="Segoe UI, Arial, sans-serif" font-size="18" fill="#222222">exp</text>
  <rect x="253" y="1719" width="176.469" height="24" rx="2" ry="2" fill="#89d88a"/>
  <text x="439.469" y="1736.5" text-anchor="start" font-family="Segoe UI, Arial, sans-serif" font-size="15" font-weight="600" fill="#444444">1.76x [600ns]</text>
  <text x="241" y="1771" text-anchor="end" font-family="Segoe UI, Arial, sans-serif" font-size="18" fill="#222222">exp2</text>
  <rect x="253" y="1753" width="205.626" height="24" rx="2" ry="2" fill="#89d88a"/>
  <text x="468.626" y="1770.5" text-anchor="start" font-family="Segoe UI, Arial, sans-serif" font-size="15" font-weight="600" fill="#444444">2.06x [571ns]</text>
  <text x="241" y="1805" text-anchor="end" font-family="Segoe UI, Arial, sans-serif" font-size="18" fill="#222222">expm1</text>
  <rect x="253" y="1787" width="129.06" height="24" rx="2" ry="2" fill="#89d88a"/>
  <text x="392.06" y="1804.5" text-anchor="start" font-family="Segoe UI, Arial, sans-serif" font-size="15" font-weight="600" fill="#444444">1.29x [889ns]</text>
  <line x1="245" y1="1816" x2="653" y2="1816" stroke="#cfcfcf" stroke-width="1"/>
  <text x="245" y="1846" text-anchor="end" font-family="Segoe UI, Arial, sans-serif" font-size="20" font-weight="700" fill="#1f1f1f">Logarithms</text>
  <text x="241" y="1879" text-anchor="end" font-family="Segoe UI, Arial, sans-serif" font-size="18" fill="#222222">log</text>
  <rect x="253" y="1861" width="337.455" height="24" rx="2" ry="2" fill="#89d88a"/>
  <text x="600.455" y="1878.5" text-anchor="start" font-family="Segoe UI, Arial, sans-serif" font-size="15" font-weight="600" fill="#444444">3.37x [492ns]</text>
  <text x="241" y="1913" text-anchor="end" font-family="Segoe UI, Arial, sans-serif" font-size="18" fill="#222222">log2</text>
  <rect x="253" y="1895" width="346.932" height="24" rx="2" ry="2" fill="#89d88a"/>
  <text x="609.932" y="1912.5" text-anchor="start" font-family="Segoe UI, Arial, sans-serif" font-size="15" font-weight="600" fill="#444444">3.47x [517ns]</text>
  <text x="241" y="1947" text-anchor="end" font-family="Segoe UI, Arial, sans-serif" font-size="18" fill="#222222">log10</text>
  <rect x="253" y="1929" width="400" height="24" rx="2" ry="2" fill="#89d88a"/>
  <polygon points="653,1929 671,1941 653,1953" fill="#89d88a"/>
  <text x="679" y="1946.5" text-anchor="start" font-family="Segoe UI, Arial, sans-serif" font-size="15" font-weight="600" fill="#444444">5.53x [563ns]</text>
  <text x="241" y="1981" text-anchor="end" font-family="Segoe UI, Arial, sans-serif" font-size="18" fill="#222222">log1p</text>
  <rect x="253" y="1963" width="237.021" height="24" rx="2" ry="2" fill="#89d88a"/>
  <text x="500.021" y="1980.5" text-anchor="start" font-family="Segoe UI, Arial, sans-serif" font-size="15" font-weight="600" fill="#444444">2.37x [714ns]</text>
  <line x1="245" y1="1992" x2="653" y2="1992" stroke="#cfcfcf" stroke-width="1"/>
  <text x="245" y="2022" text-anchor="end" font-family="Segoe UI, Arial, sans-serif" font-size="20" font-weight="700" fill="#1f1f1f">Trigonometric</text>
  <text x="241" y="2055" text-anchor="end" font-family="Segoe UI, Arial, sans-serif" font-size="18" fill="#222222">sin</text>
  <rect x="253" y="2037" width="160.375" height="24" rx="2" ry="2" fill="#89d88a"/>
  <text x="423.375" y="2054.5" text-anchor="start" font-family="Segoe UI, Arial, sans-serif" font-size="15" font-weight="600" fill="#444444">1.60x [764ns]</text>
  <text x="241" y="2089" text-anchor="end" font-family="Segoe UI, Arial, sans-serif" font-size="18" fill="#222222">cos</text>
  <rect x="253" y="2071" width="130.379" height="24" rx="2" ry="2" fill="#89d88a"/>
  <text x="393.379" y="2088.5" text-anchor="start" font-family="Segoe UI, Arial, sans-serif" font-size="15" font-weight="600" fill="#444444">1.30x [777ns]</text>
  <text x="241" y="2123" text-anchor="end" font-family="Segoe UI, Arial, sans-serif" font-size="18" fill="#222222">tan</text>
  <rect x="253" y="2105" width="140.888" height="24" rx="2" ry="2" fill="#89d88a"/>
  <text x="403.888" y="2122.5" text-anchor="start" font-family="Segoe UI, Arial, sans-serif" font-size="15" font-weight="600" fill="#444444">1.41x [966ns]</text>
  <text x="241" y="2157" text-anchor="end" font-family="Segoe UI, Arial, sans-serif" font-size="18" fill="#222222">asin</text>
  <rect x="253" y="2139" width="371.906" height="24" rx="2" ry="2" fill="#89d88a"/>
  <text x="634.906" y="2156.5" text-anchor="start" font-family="Segoe UI, Arial, sans-serif" font-size="15" font-weight="600" fill="#444444">3.72x [1073ns]</text>
  <text x="241" y="2191" text-anchor="end" font-family="Segoe UI, Arial, sans-serif" font-size="18" fill="#222222">acos</text>
  <rect x="253" y="2173" width="400" height="24" rx="2" ry="2" fill="#89d88a"/>
  <polygon points="653,2173 671,2185 653,2197" fill="#89d88a"/>
  <text x="679" y="2190.5" text-anchor="start" font-family="Segoe UI, Arial, sans-serif" font-size="15" font-weight="600" fill="#444444">4.54x [1046ns]</text>
  <text x="241" y="2225" text-anchor="end" font-family="Segoe UI, Arial, sans-serif" font-size="18" fill="#222222">atan</text>
  <rect x="253" y="2207" width="400" height="24" rx="2" ry="2" fill="#89d88a"/>
  <polygon points="653,2207 671,2219 653,2231" fill="#89d88a"/>
  <text x="679" y="2224.5" text-anchor="start" font-family="Segoe UI, Arial, sans-serif" font-size="15" font-weight="600" fill="#444444">4.21x [829ns]</text>
  <text x="241" y="2259" text-anchor="end" font-family="Segoe UI, Arial, sans-serif" font-size="18" fill="#222222">atan2</text>
  <rect x="253" y="2241" width="400" height="24" rx="2" ry="2" fill="#89d88a"/>
  <polygon points="653,2241 671,2253 653,2265" fill="#89d88a"/>
  <text x="679" y="2258.5" text-anchor="start" font-family="Segoe UI, Arial, sans-serif" font-size="15" font-weight="600" fill="#444444">4.35x [905ns]</text>
  <line x1="245" y1="2270" x2="653" y2="2270" stroke="#cfcfcf" stroke-width="1"/>
  <text x="245" y="2300" text-anchor="end" font-family="Segoe UI, Arial, sans-serif" font-size="20" font-weight="700" fill="#1f1f1f">Hyperbolic</text>
  <text x="241" y="2333" text-anchor="end" font-family="Segoe UI, Arial, sans-serif" font-size="18" fill="#222222">sinh</text>
  <rect x="253" y="2315" width="116.749" height="24" rx="2" ry="2" fill="#89d88a"/>
  <text x="379.749" y="2332.5" text-anchor="start" font-family="Segoe UI, Arial, sans-serif" font-size="15" font-weight="600" fill="#444444">1.17x [1010ns]</text>
  <text x="241" y="2367" text-anchor="end" font-family="Segoe UI, Arial, sans-serif" font-size="18" fill="#222222">cosh</text>
  <rect x="253" y="2349" width="168.156" height="24" rx="2" ry="2" fill="#89d88a"/>
  <text x="431.156" y="2366.5" text-anchor="start" font-family="Segoe UI, Arial, sans-serif" font-size="15" font-weight="600" fill="#444444">1.68x [697ns]</text>
  <text x="241" y="2401" text-anchor="end" font-family="Segoe UI, Arial, sans-serif" font-size="18" fill="#222222">tanh</text>
  <rect x="253" y="2383" width="124.347" height="24" rx="2" ry="2" fill="#89d88a"/>
  <text x="387.347" y="2400.5" text-anchor="start" font-family="Segoe UI, Arial, sans-serif" font-size="15" font-weight="600" fill="#444444">1.24x [991ns]</text>
  <line x1="245" y1="2412" x2="653" y2="2412" stroke="#cfcfcf" stroke-width="1"/>
  <text x="245" y="2442" text-anchor="end" font-family="Segoe UI, Arial, sans-serif" font-size="20" font-weight="700" fill="#1f1f1f">Inverse hyperbolic</text>
  <text x="241" y="2475" text-anchor="end" font-family="Segoe UI, Arial, sans-serif" font-size="18" fill="#222222">asinh</text>
  <rect x="253" y="2457" width="272.862" height="24" rx="2" ry="2" fill="#89d88a"/>
  <text x="535.862" y="2474.5" text-anchor="start" font-family="Segoe UI, Arial, sans-serif" font-size="15" font-weight="600" fill="#444444">2.73x [671ns]</text>
  <text x="241" y="2509" text-anchor="end" font-family="Segoe UI, Arial, sans-serif" font-size="18" fill="#222222">acosh</text>
  <rect x="253" y="2491" width="275.634" height="24" rx="2" ry="2" fill="#89d88a"/>
  <text x="538.634" y="2508.5" text-anchor="start" font-family="Segoe UI, Arial, sans-serif" font-size="15" font-weight="600" fill="#444444">2.76x [671ns]</text>
  <text x="241" y="2543" text-anchor="end" font-family="Segoe UI, Arial, sans-serif" font-size="18" fill="#222222">atanh</text>
  <rect x="253" y="2525" width="277.999" height="24" rx="2" ry="2" fill="#89d88a"/>
  <text x="540.999" y="2542.5" text-anchor="start" font-family="Segoe UI, Arial, sans-serif" font-size="15" font-weight="600" fill="#444444">2.78x [672ns]</text>
  <line x1="245" y1="2554" x2="653" y2="2554" stroke="#cfcfcf" stroke-width="1"/>
  <text x="245" y="2584" text-anchor="end" font-family="Segoe UI, Arial, sans-serif" font-size="20" font-weight="700" fill="#1f1f1f">Special functions</text>
  <text x="241" y="2617" text-anchor="end" font-family="Segoe UI, Arial, sans-serif" font-size="18" fill="#222222">erfc</text>
  <rect x="253" y="2599" width="398.485" height="24" rx="2" ry="2" fill="#89d88a"/>
  <text x="645" y="2616.5" text-anchor="start" font-family="Segoe UI, Arial, sans-serif" font-size="15" font-weight="600" fill="#444444">3.98x [3269ns]</text>
  <text x="241" y="2651" text-anchor="end" font-family="Segoe UI, Arial, sans-serif" font-size="18" fill="#222222">erf</text>
  <rect x="253" y="2633" width="271.304" height="24" rx="2" ry="2" fill="#89d88a"/>
  <text x="534.304" y="2650.5" text-anchor="start" font-family="Segoe UI, Arial, sans-serif" font-size="15" font-weight="600" fill="#444444">2.71x [3272ns]</text>
  <text x="241" y="2685" text-anchor="end" font-family="Segoe UI, Arial, sans-serif" font-size="18" fill="#222222">tgamma</text>
  <rect x="253" y="2667" width="160.747" height="24" rx="2" ry="2" fill="#89d88a"/>
  <text x="423.747" y="2684.5" text-anchor="start" font-family="Segoe UI, Arial, sans-serif" font-size="15" font-weight="600" fill="#444444">1.61x [6210ns]</text>
  <text x="241" y="2719" text-anchor="end" font-family="Segoe UI, Arial, sans-serif" font-size="18" fill="#222222">lgamma</text>
  <rect x="253" y="2701" width="194.131" height="24" rx="2" ry="2" fill="#89d88a"/>
  <text x="457.131" y="2718.5" text-anchor="start" font-family="Segoe UI, Arial, sans-serif" font-size="15" font-weight="600" fill="#444444">1.94x [5583ns]</text>
</svg>
